G04 EAGLE Gerber RS-274X export*
G75*
%MOMM*%
%FSLAX34Y34*%
%LPD*%
%INSoldermask Top*%
%IPPOS*%
%AMOC8*
5,1,8,0,0,1.08239X$1,22.5*%
G01*
%ADD10R,1.203200X0.503200*%
%ADD11R,1.203200X0.803200*%
%ADD12C,0.853200*%
%ADD13R,1.203200X1.303200*%
%ADD14R,0.503200X0.853200*%
%ADD15R,2.553200X1.803200*%
%ADD16R,1.303200X1.203200*%
%ADD17C,0.838200*%
%ADD18R,4.200000X1.700000*%
%ADD19R,0.833200X1.033200*%
%ADD20R,0.965200X1.727200*%
%ADD21R,0.838200X1.473200*%
%ADD22R,1.203200X3.003200*%
%ADD23R,1.603200X1.803200*%
%ADD24R,1.473200X0.838200*%
%ADD25C,2.082800*%
%ADD26C,6.203200*%
%ADD27R,1.033200X0.833200*%
%ADD28C,1.303200*%
%ADD29C,1.803200*%
%ADD30R,1.753200X0.503200*%
%ADD31R,2.953200X1.403200*%
%ADD32C,0.505344*%
%ADD33R,1.053200X1.723200*%
%ADD34R,1.723200X1.053200*%
%ADD35R,1.303200X1.303200*%
%ADD36R,0.620000X0.840000*%
%ADD37R,0.620000X0.560000*%
%ADD38R,0.640000X0.840000*%
%ADD39R,0.803200X0.803200*%
%ADD40R,0.813200X0.453200*%
%ADD41R,0.763200X0.453200*%
%ADD42R,7.203200X1.353200*%
%ADD43R,2.403200X1.103200*%
%ADD44R,2.203200X1.403200*%
%ADD45R,1.553200X0.803200*%
%ADD46R,1.700000X4.200000*%
%ADD47C,3.251200*%
%ADD48C,1.203200*%
%ADD49R,4.203200X1.703200*%
%ADD50C,1.270000*%
%ADD51C,1.703200*%

G36*
X1087156Y905651D02*
X1087156Y905651D01*
X1087200Y905654D01*
X1087222Y905670D01*
X1087248Y905678D01*
X1087277Y905711D01*
X1087312Y905737D01*
X1087322Y905763D01*
X1087340Y905783D01*
X1087347Y905827D01*
X1087362Y905867D01*
X1087357Y905894D01*
X1087361Y905921D01*
X1087343Y905962D01*
X1087334Y906004D01*
X1087308Y906040D01*
X1087304Y906049D01*
X1087299Y906053D01*
X1087290Y906064D01*
X1063290Y930064D01*
X1063252Y930085D01*
X1063219Y930114D01*
X1063192Y930118D01*
X1063168Y930131D01*
X1063124Y930128D01*
X1063081Y930135D01*
X1063056Y930124D01*
X1063028Y930122D01*
X1062993Y930096D01*
X1062953Y930078D01*
X1062938Y930055D01*
X1062916Y930039D01*
X1062900Y929998D01*
X1062876Y929962D01*
X1062869Y929918D01*
X1062866Y929909D01*
X1062867Y929902D01*
X1062865Y929888D01*
X1062865Y905888D01*
X1062870Y905872D01*
X1062867Y905855D01*
X1062889Y905805D01*
X1062904Y905754D01*
X1062917Y905743D01*
X1062924Y905727D01*
X1062969Y905697D01*
X1063009Y905662D01*
X1063026Y905659D01*
X1063041Y905650D01*
X1063114Y905639D01*
X1087114Y905639D01*
X1087156Y905651D01*
G37*
G36*
X111906Y1100716D02*
X111906Y1100716D01*
X111923Y1100713D01*
X111973Y1100735D01*
X112024Y1100750D01*
X112035Y1100763D01*
X112051Y1100770D01*
X112081Y1100815D01*
X112116Y1100855D01*
X112119Y1100872D01*
X112128Y1100887D01*
X112139Y1100960D01*
X112139Y1124960D01*
X112127Y1125002D01*
X112124Y1125046D01*
X112108Y1125068D01*
X112100Y1125094D01*
X112067Y1125123D01*
X112041Y1125158D01*
X112015Y1125168D01*
X111995Y1125186D01*
X111951Y1125193D01*
X111911Y1125208D01*
X111884Y1125203D01*
X111857Y1125207D01*
X111816Y1125189D01*
X111774Y1125180D01*
X111738Y1125154D01*
X111729Y1125150D01*
X111725Y1125145D01*
X111714Y1125136D01*
X87714Y1101136D01*
X87693Y1101098D01*
X87664Y1101065D01*
X87660Y1101038D01*
X87647Y1101014D01*
X87650Y1100970D01*
X87643Y1100927D01*
X87654Y1100902D01*
X87656Y1100874D01*
X87682Y1100839D01*
X87700Y1100799D01*
X87723Y1100784D01*
X87739Y1100762D01*
X87780Y1100746D01*
X87817Y1100722D01*
X87860Y1100715D01*
X87869Y1100712D01*
X87876Y1100713D01*
X87890Y1100711D01*
X111890Y1100711D01*
X111906Y1100716D01*
G37*
G36*
X757066Y1100716D02*
X757066Y1100716D01*
X757083Y1100713D01*
X757133Y1100735D01*
X757184Y1100750D01*
X757195Y1100763D01*
X757211Y1100770D01*
X757241Y1100815D01*
X757276Y1100855D01*
X757279Y1100872D01*
X757288Y1100887D01*
X757299Y1100960D01*
X757299Y1124960D01*
X757287Y1125002D01*
X757284Y1125046D01*
X757268Y1125068D01*
X757260Y1125094D01*
X757227Y1125123D01*
X757201Y1125158D01*
X757175Y1125168D01*
X757155Y1125186D01*
X757111Y1125193D01*
X757071Y1125208D01*
X757044Y1125203D01*
X757017Y1125207D01*
X756976Y1125189D01*
X756934Y1125180D01*
X756898Y1125154D01*
X756889Y1125150D01*
X756885Y1125145D01*
X756874Y1125136D01*
X732874Y1101136D01*
X732853Y1101098D01*
X732824Y1101065D01*
X732820Y1101038D01*
X732807Y1101014D01*
X732810Y1100970D01*
X732803Y1100927D01*
X732814Y1100902D01*
X732816Y1100874D01*
X732842Y1100839D01*
X732860Y1100799D01*
X732883Y1100784D01*
X732899Y1100762D01*
X732940Y1100746D01*
X732977Y1100722D01*
X733020Y1100715D01*
X733029Y1100712D01*
X733036Y1100713D01*
X733050Y1100711D01*
X757050Y1100711D01*
X757066Y1100716D01*
G37*
G36*
X441996Y905651D02*
X441996Y905651D01*
X442040Y905654D01*
X442062Y905670D01*
X442088Y905678D01*
X442117Y905711D01*
X442152Y905737D01*
X442162Y905763D01*
X442180Y905783D01*
X442187Y905827D01*
X442202Y905867D01*
X442197Y905894D01*
X442201Y905921D01*
X442183Y905962D01*
X442174Y906004D01*
X442148Y906040D01*
X442144Y906049D01*
X442139Y906053D01*
X442130Y906064D01*
X418130Y930064D01*
X418092Y930085D01*
X418059Y930114D01*
X418032Y930118D01*
X418008Y930131D01*
X417964Y930128D01*
X417921Y930135D01*
X417896Y930124D01*
X417868Y930122D01*
X417833Y930096D01*
X417793Y930078D01*
X417778Y930055D01*
X417756Y930039D01*
X417740Y929998D01*
X417716Y929962D01*
X417709Y929918D01*
X417706Y929909D01*
X417707Y929902D01*
X417705Y929888D01*
X417705Y905888D01*
X417710Y905872D01*
X417707Y905855D01*
X417729Y905805D01*
X417744Y905754D01*
X417757Y905743D01*
X417764Y905727D01*
X417809Y905697D01*
X417849Y905662D01*
X417866Y905659D01*
X417881Y905650D01*
X417954Y905639D01*
X441954Y905639D01*
X441996Y905651D01*
G37*
G36*
X111906Y435236D02*
X111906Y435236D01*
X111923Y435233D01*
X111973Y435255D01*
X112024Y435270D01*
X112035Y435283D01*
X112051Y435290D01*
X112081Y435335D01*
X112116Y435375D01*
X112119Y435392D01*
X112128Y435407D01*
X112139Y435480D01*
X112139Y459480D01*
X112127Y459522D01*
X112124Y459566D01*
X112108Y459588D01*
X112100Y459614D01*
X112067Y459643D01*
X112041Y459678D01*
X112015Y459688D01*
X111995Y459706D01*
X111951Y459713D01*
X111911Y459728D01*
X111884Y459723D01*
X111857Y459727D01*
X111816Y459709D01*
X111774Y459700D01*
X111738Y459674D01*
X111729Y459670D01*
X111725Y459665D01*
X111714Y459656D01*
X87714Y435656D01*
X87693Y435618D01*
X87664Y435585D01*
X87660Y435558D01*
X87647Y435534D01*
X87650Y435490D01*
X87643Y435447D01*
X87654Y435422D01*
X87656Y435394D01*
X87682Y435359D01*
X87700Y435319D01*
X87723Y435304D01*
X87739Y435282D01*
X87780Y435266D01*
X87817Y435242D01*
X87860Y435235D01*
X87869Y435232D01*
X87876Y435233D01*
X87890Y435231D01*
X111890Y435231D01*
X111906Y435236D01*
G37*
G36*
X757066Y435236D02*
X757066Y435236D01*
X757083Y435233D01*
X757133Y435255D01*
X757184Y435270D01*
X757195Y435283D01*
X757211Y435290D01*
X757241Y435335D01*
X757276Y435375D01*
X757279Y435392D01*
X757288Y435407D01*
X757299Y435480D01*
X757299Y459480D01*
X757287Y459522D01*
X757284Y459566D01*
X757268Y459588D01*
X757260Y459614D01*
X757227Y459643D01*
X757201Y459678D01*
X757175Y459688D01*
X757155Y459706D01*
X757111Y459713D01*
X757071Y459728D01*
X757044Y459723D01*
X757017Y459727D01*
X756976Y459709D01*
X756934Y459700D01*
X756898Y459674D01*
X756889Y459670D01*
X756885Y459665D01*
X756874Y459656D01*
X732874Y435656D01*
X732853Y435618D01*
X732824Y435585D01*
X732820Y435558D01*
X732807Y435534D01*
X732810Y435490D01*
X732803Y435447D01*
X732814Y435422D01*
X732816Y435394D01*
X732842Y435359D01*
X732860Y435319D01*
X732883Y435304D01*
X732899Y435282D01*
X732940Y435266D01*
X732977Y435242D01*
X733020Y435235D01*
X733029Y435232D01*
X733036Y435233D01*
X733050Y435231D01*
X757050Y435231D01*
X757066Y435236D01*
G37*
G36*
X1087156Y240171D02*
X1087156Y240171D01*
X1087200Y240174D01*
X1087222Y240190D01*
X1087248Y240198D01*
X1087277Y240231D01*
X1087312Y240257D01*
X1087322Y240283D01*
X1087340Y240303D01*
X1087347Y240347D01*
X1087362Y240387D01*
X1087357Y240414D01*
X1087361Y240441D01*
X1087343Y240482D01*
X1087334Y240524D01*
X1087308Y240560D01*
X1087304Y240569D01*
X1087299Y240573D01*
X1087290Y240584D01*
X1063290Y264584D01*
X1063252Y264605D01*
X1063219Y264634D01*
X1063192Y264638D01*
X1063168Y264651D01*
X1063124Y264648D01*
X1063081Y264655D01*
X1063056Y264644D01*
X1063028Y264642D01*
X1062993Y264616D01*
X1062953Y264598D01*
X1062938Y264575D01*
X1062916Y264559D01*
X1062900Y264518D01*
X1062876Y264482D01*
X1062869Y264438D01*
X1062866Y264429D01*
X1062867Y264422D01*
X1062865Y264408D01*
X1062865Y240408D01*
X1062870Y240392D01*
X1062867Y240375D01*
X1062889Y240325D01*
X1062904Y240274D01*
X1062917Y240263D01*
X1062924Y240247D01*
X1062969Y240217D01*
X1063009Y240182D01*
X1063026Y240179D01*
X1063041Y240170D01*
X1063114Y240159D01*
X1087114Y240159D01*
X1087156Y240171D01*
G37*
G36*
X441996Y240171D02*
X441996Y240171D01*
X442040Y240174D01*
X442062Y240190D01*
X442088Y240198D01*
X442117Y240231D01*
X442152Y240257D01*
X442162Y240283D01*
X442180Y240303D01*
X442187Y240347D01*
X442202Y240387D01*
X442197Y240414D01*
X442201Y240441D01*
X442183Y240482D01*
X442174Y240524D01*
X442148Y240560D01*
X442144Y240569D01*
X442139Y240573D01*
X442130Y240584D01*
X418130Y264584D01*
X418092Y264605D01*
X418059Y264634D01*
X418032Y264638D01*
X418008Y264651D01*
X417964Y264648D01*
X417921Y264655D01*
X417896Y264644D01*
X417868Y264642D01*
X417833Y264616D01*
X417793Y264598D01*
X417778Y264575D01*
X417756Y264559D01*
X417740Y264518D01*
X417716Y264482D01*
X417709Y264438D01*
X417706Y264429D01*
X417707Y264422D01*
X417705Y264408D01*
X417705Y240408D01*
X417710Y240392D01*
X417707Y240375D01*
X417729Y240325D01*
X417744Y240274D01*
X417757Y240263D01*
X417764Y240247D01*
X417809Y240217D01*
X417849Y240182D01*
X417866Y240179D01*
X417881Y240170D01*
X417954Y240159D01*
X441954Y240159D01*
X441996Y240171D01*
G37*
G36*
X59034Y816934D02*
X59034Y816934D01*
X59037Y816931D01*
X60159Y817086D01*
X60164Y817091D01*
X60168Y817088D01*
X61239Y817459D01*
X61243Y817465D01*
X61248Y817463D01*
X62225Y818036D01*
X62228Y818042D01*
X62233Y818041D01*
X63080Y818794D01*
X63082Y818801D01*
X63087Y818801D01*
X63771Y819704D01*
X63771Y819711D01*
X63776Y819712D01*
X64271Y820731D01*
X64269Y820738D01*
X64274Y820740D01*
X64561Y821837D01*
X64559Y821841D01*
X64561Y821842D01*
X64559Y821844D01*
X64562Y821846D01*
X64629Y822977D01*
X64627Y822981D01*
X64629Y822983D01*
X64562Y824114D01*
X64557Y824119D01*
X64561Y824123D01*
X64274Y825220D01*
X64268Y825224D01*
X64271Y825229D01*
X63776Y826248D01*
X63770Y826251D01*
X63771Y826256D01*
X63087Y827159D01*
X63080Y827161D01*
X63080Y827166D01*
X62233Y827919D01*
X62226Y827919D01*
X62225Y827924D01*
X61248Y828497D01*
X61241Y828496D01*
X61239Y828501D01*
X60168Y828872D01*
X60162Y828869D01*
X60159Y828874D01*
X59037Y829029D01*
X59032Y829026D01*
X59030Y829029D01*
X47030Y829029D01*
X47025Y829026D01*
X47022Y829029D01*
X45755Y828824D01*
X45749Y828818D01*
X45745Y828821D01*
X44555Y828339D01*
X44551Y828332D01*
X44545Y828334D01*
X43492Y827600D01*
X43490Y827592D01*
X43484Y827593D01*
X42621Y826643D01*
X42620Y826634D01*
X42615Y826634D01*
X41985Y825515D01*
X41986Y825507D01*
X41980Y825505D01*
X41615Y824275D01*
X41618Y824267D01*
X41613Y824264D01*
X41531Y822983D01*
X41534Y822979D01*
X41531Y822977D01*
X41613Y821696D01*
X41619Y821690D01*
X41615Y821685D01*
X41980Y820455D01*
X41987Y820450D01*
X41985Y820445D01*
X42615Y819326D01*
X42622Y819323D01*
X42621Y819317D01*
X43484Y818367D01*
X43492Y818366D01*
X43492Y818360D01*
X44545Y817626D01*
X44553Y817626D01*
X44555Y817621D01*
X45745Y817139D01*
X45752Y817141D01*
X45755Y817136D01*
X47022Y816931D01*
X47027Y816934D01*
X47030Y816931D01*
X59030Y816931D01*
X59034Y816934D01*
G37*
G36*
X704194Y816934D02*
X704194Y816934D01*
X704197Y816931D01*
X705319Y817086D01*
X705324Y817091D01*
X705328Y817088D01*
X706399Y817459D01*
X706403Y817465D01*
X706408Y817463D01*
X707385Y818036D01*
X707388Y818042D01*
X707393Y818041D01*
X708240Y818794D01*
X708242Y818801D01*
X708247Y818801D01*
X708931Y819704D01*
X708931Y819711D01*
X708936Y819712D01*
X709431Y820731D01*
X709429Y820738D01*
X709434Y820740D01*
X709721Y821837D01*
X709719Y821841D01*
X709721Y821842D01*
X709719Y821844D01*
X709722Y821846D01*
X709789Y822977D01*
X709787Y822981D01*
X709789Y822983D01*
X709722Y824114D01*
X709717Y824119D01*
X709721Y824123D01*
X709434Y825220D01*
X709428Y825224D01*
X709431Y825229D01*
X708936Y826248D01*
X708930Y826251D01*
X708931Y826256D01*
X708247Y827159D01*
X708240Y827161D01*
X708240Y827166D01*
X707393Y827919D01*
X707386Y827919D01*
X707385Y827924D01*
X706408Y828497D01*
X706401Y828496D01*
X706399Y828501D01*
X705328Y828872D01*
X705322Y828869D01*
X705319Y828874D01*
X704197Y829029D01*
X704192Y829026D01*
X704190Y829029D01*
X692190Y829029D01*
X692185Y829026D01*
X692182Y829029D01*
X690915Y828824D01*
X690909Y828818D01*
X690905Y828821D01*
X689715Y828339D01*
X689711Y828332D01*
X689705Y828334D01*
X688652Y827600D01*
X688650Y827592D01*
X688644Y827593D01*
X687781Y826643D01*
X687780Y826634D01*
X687775Y826634D01*
X687145Y825515D01*
X687146Y825507D01*
X687140Y825505D01*
X686775Y824275D01*
X686778Y824267D01*
X686773Y824264D01*
X686691Y822983D01*
X686694Y822979D01*
X686691Y822977D01*
X686773Y821696D01*
X686779Y821690D01*
X686775Y821685D01*
X687140Y820455D01*
X687147Y820450D01*
X687145Y820445D01*
X687775Y819326D01*
X687782Y819323D01*
X687781Y819317D01*
X688644Y818367D01*
X688652Y818366D01*
X688652Y818360D01*
X689705Y817626D01*
X689713Y817626D01*
X689715Y817621D01*
X690905Y817139D01*
X690912Y817141D01*
X690915Y817136D01*
X692182Y816931D01*
X692187Y816934D01*
X692190Y816931D01*
X704190Y816931D01*
X704194Y816934D01*
G37*
G36*
X704194Y498124D02*
X704194Y498124D01*
X704197Y498121D01*
X705319Y498276D01*
X705324Y498281D01*
X705328Y498278D01*
X706399Y498649D01*
X706403Y498655D01*
X706408Y498653D01*
X707385Y499226D01*
X707388Y499232D01*
X707393Y499231D01*
X708240Y499984D01*
X708242Y499991D01*
X708247Y499991D01*
X708931Y500894D01*
X708931Y500901D01*
X708936Y500902D01*
X709431Y501921D01*
X709429Y501928D01*
X709434Y501930D01*
X709721Y503027D01*
X709719Y503031D01*
X709721Y503032D01*
X709719Y503034D01*
X709722Y503036D01*
X709789Y504167D01*
X709787Y504171D01*
X709789Y504173D01*
X709722Y505304D01*
X709717Y505309D01*
X709721Y505313D01*
X709434Y506410D01*
X709428Y506414D01*
X709431Y506419D01*
X708936Y507438D01*
X708930Y507441D01*
X708931Y507446D01*
X708247Y508349D01*
X708240Y508351D01*
X708240Y508356D01*
X707393Y509109D01*
X707386Y509109D01*
X707385Y509114D01*
X706408Y509687D01*
X706401Y509686D01*
X706399Y509691D01*
X705328Y510062D01*
X705322Y510059D01*
X705319Y510064D01*
X704197Y510219D01*
X704192Y510216D01*
X704190Y510219D01*
X692190Y510219D01*
X692185Y510216D01*
X692182Y510219D01*
X690915Y510014D01*
X690909Y510008D01*
X690905Y510011D01*
X689715Y509529D01*
X689711Y509522D01*
X689705Y509524D01*
X688652Y508790D01*
X688650Y508782D01*
X688644Y508783D01*
X687781Y507833D01*
X687780Y507824D01*
X687775Y507824D01*
X687145Y506705D01*
X687146Y506697D01*
X687140Y506695D01*
X686775Y505465D01*
X686778Y505457D01*
X686773Y505454D01*
X686691Y504173D01*
X686694Y504169D01*
X686691Y504167D01*
X686773Y502886D01*
X686779Y502880D01*
X686775Y502875D01*
X687140Y501645D01*
X687147Y501640D01*
X687145Y501635D01*
X687775Y500516D01*
X687782Y500513D01*
X687781Y500507D01*
X688644Y499557D01*
X688652Y499556D01*
X688652Y499550D01*
X689705Y498816D01*
X689713Y498816D01*
X689715Y498811D01*
X690905Y498329D01*
X690912Y498331D01*
X690915Y498326D01*
X692182Y498121D01*
X692187Y498124D01*
X692190Y498121D01*
X704190Y498121D01*
X704194Y498124D01*
G37*
G36*
X59034Y498124D02*
X59034Y498124D01*
X59037Y498121D01*
X60159Y498276D01*
X60164Y498281D01*
X60168Y498278D01*
X61239Y498649D01*
X61243Y498655D01*
X61248Y498653D01*
X62225Y499226D01*
X62228Y499232D01*
X62233Y499231D01*
X63080Y499984D01*
X63082Y499991D01*
X63087Y499991D01*
X63771Y500894D01*
X63771Y500901D01*
X63776Y500902D01*
X64271Y501921D01*
X64269Y501928D01*
X64274Y501930D01*
X64561Y503027D01*
X64559Y503031D01*
X64561Y503032D01*
X64559Y503034D01*
X64562Y503036D01*
X64629Y504167D01*
X64627Y504171D01*
X64629Y504173D01*
X64562Y505304D01*
X64557Y505309D01*
X64561Y505313D01*
X64274Y506410D01*
X64268Y506414D01*
X64271Y506419D01*
X63776Y507438D01*
X63770Y507441D01*
X63771Y507446D01*
X63087Y508349D01*
X63080Y508351D01*
X63080Y508356D01*
X62233Y509109D01*
X62226Y509109D01*
X62225Y509114D01*
X61248Y509687D01*
X61241Y509686D01*
X61239Y509691D01*
X60168Y510062D01*
X60162Y510059D01*
X60159Y510064D01*
X59037Y510219D01*
X59032Y510216D01*
X59030Y510219D01*
X47030Y510219D01*
X47025Y510216D01*
X47022Y510219D01*
X45755Y510014D01*
X45749Y510008D01*
X45745Y510011D01*
X44555Y509529D01*
X44551Y509522D01*
X44545Y509524D01*
X43492Y508790D01*
X43490Y508782D01*
X43484Y508783D01*
X42621Y507833D01*
X42620Y507824D01*
X42615Y507824D01*
X41985Y506705D01*
X41986Y506697D01*
X41980Y506695D01*
X41615Y505465D01*
X41618Y505457D01*
X41613Y505454D01*
X41531Y504173D01*
X41534Y504169D01*
X41531Y504167D01*
X41613Y502886D01*
X41619Y502880D01*
X41615Y502875D01*
X41980Y501645D01*
X41987Y501640D01*
X41985Y501635D01*
X42615Y500516D01*
X42622Y500513D01*
X42621Y500507D01*
X43484Y499557D01*
X43492Y499556D01*
X43492Y499550D01*
X44545Y498816D01*
X44553Y498816D01*
X44555Y498811D01*
X45745Y498329D01*
X45752Y498331D01*
X45755Y498326D01*
X47022Y498121D01*
X47027Y498124D01*
X47030Y498121D01*
X59030Y498121D01*
X59034Y498124D01*
G37*
G36*
X704194Y1250004D02*
X704194Y1250004D01*
X704197Y1250001D01*
X705319Y1250156D01*
X705324Y1250161D01*
X705328Y1250158D01*
X706399Y1250529D01*
X706403Y1250535D01*
X706408Y1250533D01*
X707385Y1251106D01*
X707388Y1251112D01*
X707393Y1251111D01*
X708240Y1251864D01*
X708242Y1251871D01*
X708247Y1251871D01*
X708931Y1252774D01*
X708931Y1252781D01*
X708936Y1252782D01*
X709431Y1253801D01*
X709429Y1253808D01*
X709434Y1253810D01*
X709721Y1254907D01*
X709719Y1254911D01*
X709721Y1254912D01*
X709719Y1254914D01*
X709722Y1254916D01*
X709789Y1256047D01*
X709787Y1256051D01*
X709789Y1256053D01*
X709722Y1257184D01*
X709717Y1257189D01*
X709721Y1257193D01*
X709434Y1258290D01*
X709428Y1258294D01*
X709431Y1258299D01*
X708936Y1259318D01*
X708930Y1259321D01*
X708931Y1259326D01*
X708247Y1260229D01*
X708240Y1260231D01*
X708240Y1260236D01*
X707393Y1260989D01*
X707386Y1260989D01*
X707385Y1260994D01*
X706408Y1261567D01*
X706401Y1261566D01*
X706399Y1261571D01*
X705328Y1261942D01*
X705322Y1261939D01*
X705319Y1261944D01*
X704197Y1262099D01*
X704192Y1262096D01*
X704190Y1262099D01*
X692190Y1262099D01*
X692185Y1262096D01*
X692182Y1262099D01*
X690915Y1261894D01*
X690909Y1261888D01*
X690905Y1261891D01*
X689715Y1261409D01*
X689711Y1261402D01*
X689705Y1261404D01*
X688652Y1260670D01*
X688650Y1260662D01*
X688644Y1260663D01*
X687781Y1259713D01*
X687780Y1259704D01*
X687775Y1259704D01*
X687145Y1258585D01*
X687146Y1258577D01*
X687140Y1258575D01*
X686775Y1257345D01*
X686778Y1257337D01*
X686773Y1257334D01*
X686691Y1256053D01*
X686694Y1256049D01*
X686691Y1256047D01*
X686773Y1254766D01*
X686779Y1254760D01*
X686775Y1254755D01*
X687140Y1253525D01*
X687147Y1253520D01*
X687145Y1253515D01*
X687775Y1252396D01*
X687782Y1252393D01*
X687781Y1252387D01*
X688644Y1251437D01*
X688652Y1251436D01*
X688652Y1251430D01*
X689705Y1250696D01*
X689713Y1250696D01*
X689715Y1250691D01*
X690905Y1250209D01*
X690912Y1250211D01*
X690915Y1250206D01*
X692182Y1250001D01*
X692187Y1250004D01*
X692190Y1250001D01*
X704190Y1250001D01*
X704194Y1250004D01*
G37*
G36*
X704194Y730534D02*
X704194Y730534D01*
X704197Y730531D01*
X705319Y730686D01*
X705324Y730691D01*
X705328Y730688D01*
X706399Y731059D01*
X706403Y731065D01*
X706408Y731063D01*
X707385Y731636D01*
X707388Y731642D01*
X707393Y731641D01*
X708240Y732394D01*
X708242Y732401D01*
X708247Y732401D01*
X708931Y733304D01*
X708931Y733311D01*
X708936Y733312D01*
X709431Y734331D01*
X709429Y734338D01*
X709434Y734340D01*
X709721Y735437D01*
X709719Y735441D01*
X709721Y735442D01*
X709719Y735444D01*
X709722Y735446D01*
X709789Y736577D01*
X709787Y736581D01*
X709789Y736583D01*
X709722Y737714D01*
X709717Y737719D01*
X709721Y737723D01*
X709434Y738820D01*
X709428Y738824D01*
X709431Y738829D01*
X708936Y739848D01*
X708930Y739851D01*
X708931Y739856D01*
X708247Y740759D01*
X708240Y740761D01*
X708240Y740766D01*
X707393Y741519D01*
X707386Y741519D01*
X707385Y741524D01*
X706408Y742097D01*
X706401Y742096D01*
X706399Y742101D01*
X705328Y742472D01*
X705322Y742469D01*
X705319Y742474D01*
X704197Y742629D01*
X704192Y742626D01*
X704190Y742629D01*
X692190Y742629D01*
X692185Y742626D01*
X692182Y742629D01*
X690915Y742424D01*
X690909Y742418D01*
X690905Y742421D01*
X689715Y741939D01*
X689711Y741932D01*
X689705Y741934D01*
X688652Y741200D01*
X688650Y741192D01*
X688644Y741193D01*
X687781Y740243D01*
X687780Y740234D01*
X687775Y740234D01*
X687145Y739115D01*
X687146Y739107D01*
X687140Y739105D01*
X686775Y737875D01*
X686778Y737867D01*
X686773Y737864D01*
X686691Y736583D01*
X686694Y736579D01*
X686691Y736577D01*
X686773Y735296D01*
X686779Y735290D01*
X686775Y735285D01*
X687140Y734055D01*
X687147Y734050D01*
X687145Y734045D01*
X687775Y732926D01*
X687782Y732923D01*
X687781Y732917D01*
X688644Y731967D01*
X688652Y731966D01*
X688652Y731960D01*
X689705Y731226D01*
X689713Y731226D01*
X689715Y731221D01*
X690905Y730739D01*
X690912Y730741D01*
X690915Y730736D01*
X692182Y730531D01*
X692187Y730534D01*
X692190Y730531D01*
X704190Y730531D01*
X704194Y730534D01*
G37*
G36*
X59034Y1250004D02*
X59034Y1250004D01*
X59037Y1250001D01*
X60159Y1250156D01*
X60164Y1250161D01*
X60168Y1250158D01*
X61239Y1250529D01*
X61243Y1250535D01*
X61248Y1250533D01*
X62225Y1251106D01*
X62228Y1251112D01*
X62233Y1251111D01*
X63080Y1251864D01*
X63082Y1251871D01*
X63087Y1251871D01*
X63771Y1252774D01*
X63771Y1252781D01*
X63776Y1252782D01*
X64271Y1253801D01*
X64269Y1253808D01*
X64274Y1253810D01*
X64561Y1254907D01*
X64559Y1254911D01*
X64561Y1254912D01*
X64559Y1254914D01*
X64562Y1254916D01*
X64629Y1256047D01*
X64627Y1256051D01*
X64629Y1256053D01*
X64562Y1257184D01*
X64557Y1257189D01*
X64561Y1257193D01*
X64274Y1258290D01*
X64268Y1258294D01*
X64271Y1258299D01*
X63776Y1259318D01*
X63770Y1259321D01*
X63771Y1259326D01*
X63087Y1260229D01*
X63080Y1260231D01*
X63080Y1260236D01*
X62233Y1260989D01*
X62226Y1260989D01*
X62225Y1260994D01*
X61248Y1261567D01*
X61241Y1261566D01*
X61239Y1261571D01*
X60168Y1261942D01*
X60162Y1261939D01*
X60159Y1261944D01*
X59037Y1262099D01*
X59032Y1262096D01*
X59030Y1262099D01*
X47030Y1262099D01*
X47025Y1262096D01*
X47022Y1262099D01*
X45755Y1261894D01*
X45749Y1261888D01*
X45745Y1261891D01*
X44555Y1261409D01*
X44551Y1261402D01*
X44545Y1261404D01*
X43492Y1260670D01*
X43490Y1260662D01*
X43484Y1260663D01*
X42621Y1259713D01*
X42620Y1259704D01*
X42615Y1259704D01*
X41985Y1258585D01*
X41986Y1258577D01*
X41980Y1258575D01*
X41615Y1257345D01*
X41618Y1257337D01*
X41613Y1257334D01*
X41531Y1256053D01*
X41534Y1256049D01*
X41531Y1256047D01*
X41613Y1254766D01*
X41619Y1254760D01*
X41615Y1254755D01*
X41980Y1253525D01*
X41987Y1253520D01*
X41985Y1253515D01*
X42615Y1252396D01*
X42622Y1252393D01*
X42621Y1252387D01*
X43484Y1251437D01*
X43492Y1251436D01*
X43492Y1251430D01*
X44545Y1250696D01*
X44553Y1250696D01*
X44555Y1250691D01*
X45745Y1250209D01*
X45752Y1250211D01*
X45755Y1250206D01*
X47022Y1250001D01*
X47027Y1250004D01*
X47030Y1250001D01*
X59030Y1250001D01*
X59034Y1250004D01*
G37*
G36*
X704194Y584524D02*
X704194Y584524D01*
X704197Y584521D01*
X705319Y584676D01*
X705324Y584681D01*
X705328Y584678D01*
X706399Y585049D01*
X706403Y585055D01*
X706408Y585053D01*
X707385Y585626D01*
X707388Y585632D01*
X707393Y585631D01*
X708240Y586384D01*
X708242Y586391D01*
X708247Y586391D01*
X708931Y587294D01*
X708931Y587301D01*
X708936Y587302D01*
X709431Y588321D01*
X709429Y588328D01*
X709434Y588330D01*
X709721Y589427D01*
X709719Y589431D01*
X709721Y589432D01*
X709719Y589434D01*
X709722Y589436D01*
X709789Y590567D01*
X709787Y590571D01*
X709789Y590573D01*
X709722Y591704D01*
X709717Y591709D01*
X709721Y591713D01*
X709434Y592810D01*
X709428Y592814D01*
X709431Y592819D01*
X708936Y593838D01*
X708930Y593841D01*
X708931Y593846D01*
X708247Y594749D01*
X708240Y594751D01*
X708240Y594756D01*
X707393Y595509D01*
X707386Y595509D01*
X707385Y595514D01*
X706408Y596087D01*
X706401Y596086D01*
X706399Y596091D01*
X705328Y596462D01*
X705322Y596459D01*
X705319Y596464D01*
X704197Y596619D01*
X704192Y596616D01*
X704190Y596619D01*
X692190Y596619D01*
X692185Y596616D01*
X692182Y596619D01*
X690915Y596414D01*
X690909Y596408D01*
X690905Y596411D01*
X689715Y595929D01*
X689711Y595922D01*
X689705Y595924D01*
X688652Y595190D01*
X688650Y595182D01*
X688644Y595183D01*
X687781Y594233D01*
X687780Y594224D01*
X687775Y594224D01*
X687145Y593105D01*
X687146Y593097D01*
X687140Y593095D01*
X686775Y591865D01*
X686778Y591857D01*
X686773Y591854D01*
X686691Y590573D01*
X686694Y590569D01*
X686691Y590567D01*
X686773Y589286D01*
X686779Y589280D01*
X686775Y589275D01*
X687140Y588045D01*
X687147Y588040D01*
X687145Y588035D01*
X687775Y586916D01*
X687782Y586913D01*
X687781Y586907D01*
X688644Y585957D01*
X688652Y585956D01*
X688652Y585950D01*
X689705Y585216D01*
X689713Y585216D01*
X689715Y585211D01*
X690905Y584729D01*
X690912Y584731D01*
X690915Y584726D01*
X692182Y584521D01*
X692187Y584524D01*
X692190Y584521D01*
X704190Y584521D01*
X704194Y584524D01*
G37*
G36*
X59034Y65054D02*
X59034Y65054D01*
X59037Y65051D01*
X60159Y65206D01*
X60164Y65211D01*
X60168Y65208D01*
X61239Y65579D01*
X61243Y65585D01*
X61248Y65583D01*
X62225Y66156D01*
X62228Y66162D01*
X62233Y66161D01*
X63080Y66914D01*
X63082Y66921D01*
X63087Y66921D01*
X63771Y67824D01*
X63771Y67831D01*
X63776Y67832D01*
X64271Y68851D01*
X64269Y68858D01*
X64274Y68860D01*
X64561Y69957D01*
X64559Y69961D01*
X64561Y69962D01*
X64559Y69964D01*
X64562Y69966D01*
X64629Y71097D01*
X64627Y71101D01*
X64629Y71103D01*
X64562Y72234D01*
X64557Y72239D01*
X64561Y72243D01*
X64274Y73340D01*
X64268Y73344D01*
X64271Y73349D01*
X63776Y74368D01*
X63770Y74371D01*
X63771Y74376D01*
X63087Y75279D01*
X63080Y75281D01*
X63080Y75286D01*
X62233Y76039D01*
X62226Y76039D01*
X62225Y76044D01*
X61248Y76617D01*
X61241Y76616D01*
X61239Y76621D01*
X60168Y76992D01*
X60162Y76989D01*
X60159Y76994D01*
X59037Y77149D01*
X59032Y77146D01*
X59030Y77149D01*
X47030Y77149D01*
X47025Y77146D01*
X47022Y77149D01*
X45755Y76944D01*
X45749Y76938D01*
X45745Y76941D01*
X44555Y76459D01*
X44551Y76452D01*
X44545Y76454D01*
X43492Y75720D01*
X43490Y75712D01*
X43484Y75713D01*
X42621Y74763D01*
X42620Y74754D01*
X42615Y74754D01*
X41985Y73635D01*
X41986Y73627D01*
X41980Y73625D01*
X41615Y72395D01*
X41618Y72387D01*
X41613Y72384D01*
X41531Y71103D01*
X41534Y71099D01*
X41531Y71097D01*
X41613Y69816D01*
X41619Y69810D01*
X41615Y69805D01*
X41980Y68575D01*
X41987Y68570D01*
X41985Y68565D01*
X42615Y67446D01*
X42622Y67443D01*
X42621Y67437D01*
X43484Y66487D01*
X43492Y66486D01*
X43492Y66480D01*
X44545Y65746D01*
X44553Y65746D01*
X44555Y65741D01*
X45745Y65259D01*
X45752Y65261D01*
X45755Y65256D01*
X47022Y65051D01*
X47027Y65054D01*
X47030Y65051D01*
X59030Y65051D01*
X59034Y65054D01*
G37*
G36*
X59034Y1163604D02*
X59034Y1163604D01*
X59037Y1163601D01*
X60159Y1163756D01*
X60164Y1163761D01*
X60168Y1163758D01*
X61239Y1164129D01*
X61243Y1164135D01*
X61248Y1164133D01*
X62225Y1164706D01*
X62228Y1164712D01*
X62233Y1164711D01*
X63080Y1165464D01*
X63082Y1165471D01*
X63087Y1165471D01*
X63771Y1166374D01*
X63771Y1166381D01*
X63776Y1166382D01*
X64271Y1167401D01*
X64269Y1167408D01*
X64274Y1167410D01*
X64561Y1168507D01*
X64559Y1168511D01*
X64561Y1168512D01*
X64559Y1168514D01*
X64562Y1168516D01*
X64629Y1169647D01*
X64627Y1169651D01*
X64629Y1169653D01*
X64562Y1170784D01*
X64557Y1170789D01*
X64561Y1170793D01*
X64274Y1171890D01*
X64268Y1171894D01*
X64271Y1171899D01*
X63776Y1172918D01*
X63770Y1172921D01*
X63771Y1172926D01*
X63087Y1173829D01*
X63080Y1173831D01*
X63080Y1173836D01*
X62233Y1174589D01*
X62226Y1174589D01*
X62225Y1174594D01*
X61248Y1175167D01*
X61241Y1175166D01*
X61239Y1175171D01*
X60168Y1175542D01*
X60162Y1175539D01*
X60159Y1175544D01*
X59037Y1175699D01*
X59032Y1175696D01*
X59030Y1175699D01*
X47030Y1175699D01*
X47025Y1175696D01*
X47022Y1175699D01*
X45755Y1175494D01*
X45749Y1175488D01*
X45745Y1175491D01*
X44555Y1175009D01*
X44551Y1175002D01*
X44545Y1175004D01*
X43492Y1174270D01*
X43490Y1174262D01*
X43484Y1174263D01*
X42621Y1173313D01*
X42620Y1173304D01*
X42615Y1173304D01*
X41985Y1172185D01*
X41986Y1172177D01*
X41980Y1172175D01*
X41615Y1170945D01*
X41618Y1170937D01*
X41613Y1170934D01*
X41531Y1169653D01*
X41534Y1169649D01*
X41531Y1169647D01*
X41613Y1168366D01*
X41619Y1168360D01*
X41615Y1168355D01*
X41980Y1167125D01*
X41987Y1167120D01*
X41985Y1167115D01*
X42615Y1165996D01*
X42622Y1165993D01*
X42621Y1165987D01*
X43484Y1165037D01*
X43492Y1165036D01*
X43492Y1165030D01*
X44545Y1164296D01*
X44553Y1164296D01*
X44555Y1164291D01*
X45745Y1163809D01*
X45752Y1163811D01*
X45755Y1163806D01*
X47022Y1163601D01*
X47027Y1163604D01*
X47030Y1163601D01*
X59030Y1163601D01*
X59034Y1163604D01*
G37*
G36*
X704194Y1163604D02*
X704194Y1163604D01*
X704197Y1163601D01*
X705319Y1163756D01*
X705324Y1163761D01*
X705328Y1163758D01*
X706399Y1164129D01*
X706403Y1164135D01*
X706408Y1164133D01*
X707385Y1164706D01*
X707388Y1164712D01*
X707393Y1164711D01*
X708240Y1165464D01*
X708242Y1165471D01*
X708247Y1165471D01*
X708931Y1166374D01*
X708931Y1166381D01*
X708936Y1166382D01*
X709431Y1167401D01*
X709429Y1167408D01*
X709434Y1167410D01*
X709721Y1168507D01*
X709719Y1168511D01*
X709721Y1168512D01*
X709719Y1168514D01*
X709722Y1168516D01*
X709789Y1169647D01*
X709787Y1169651D01*
X709789Y1169653D01*
X709722Y1170784D01*
X709717Y1170789D01*
X709721Y1170793D01*
X709434Y1171890D01*
X709428Y1171894D01*
X709431Y1171899D01*
X708936Y1172918D01*
X708930Y1172921D01*
X708931Y1172926D01*
X708247Y1173829D01*
X708240Y1173831D01*
X708240Y1173836D01*
X707393Y1174589D01*
X707386Y1174589D01*
X707385Y1174594D01*
X706408Y1175167D01*
X706401Y1175166D01*
X706399Y1175171D01*
X705328Y1175542D01*
X705322Y1175539D01*
X705319Y1175544D01*
X704197Y1175699D01*
X704192Y1175696D01*
X704190Y1175699D01*
X692190Y1175699D01*
X692185Y1175696D01*
X692182Y1175699D01*
X690915Y1175494D01*
X690909Y1175488D01*
X690905Y1175491D01*
X689715Y1175009D01*
X689711Y1175002D01*
X689705Y1175004D01*
X688652Y1174270D01*
X688650Y1174262D01*
X688644Y1174263D01*
X687781Y1173313D01*
X687780Y1173304D01*
X687775Y1173304D01*
X687145Y1172185D01*
X687146Y1172177D01*
X687140Y1172175D01*
X686775Y1170945D01*
X686778Y1170937D01*
X686773Y1170934D01*
X686691Y1169653D01*
X686694Y1169649D01*
X686691Y1169647D01*
X686773Y1168366D01*
X686779Y1168360D01*
X686775Y1168355D01*
X687140Y1167125D01*
X687147Y1167120D01*
X687145Y1167115D01*
X687775Y1165996D01*
X687782Y1165993D01*
X687781Y1165987D01*
X688644Y1165037D01*
X688652Y1165036D01*
X688652Y1165030D01*
X689705Y1164296D01*
X689713Y1164296D01*
X689715Y1164291D01*
X690905Y1163809D01*
X690912Y1163811D01*
X690915Y1163806D01*
X692182Y1163601D01*
X692187Y1163604D01*
X692190Y1163601D01*
X704190Y1163601D01*
X704194Y1163604D01*
G37*
G36*
X59034Y584524D02*
X59034Y584524D01*
X59037Y584521D01*
X60159Y584676D01*
X60164Y584681D01*
X60168Y584678D01*
X61239Y585049D01*
X61243Y585055D01*
X61248Y585053D01*
X62225Y585626D01*
X62228Y585632D01*
X62233Y585631D01*
X63080Y586384D01*
X63082Y586391D01*
X63087Y586391D01*
X63771Y587294D01*
X63771Y587301D01*
X63776Y587302D01*
X64271Y588321D01*
X64269Y588328D01*
X64274Y588330D01*
X64561Y589427D01*
X64559Y589431D01*
X64561Y589432D01*
X64559Y589434D01*
X64562Y589436D01*
X64629Y590567D01*
X64627Y590571D01*
X64629Y590573D01*
X64562Y591704D01*
X64557Y591709D01*
X64561Y591713D01*
X64274Y592810D01*
X64268Y592814D01*
X64271Y592819D01*
X63776Y593838D01*
X63770Y593841D01*
X63771Y593846D01*
X63087Y594749D01*
X63080Y594751D01*
X63080Y594756D01*
X62233Y595509D01*
X62226Y595509D01*
X62225Y595514D01*
X61248Y596087D01*
X61241Y596086D01*
X61239Y596091D01*
X60168Y596462D01*
X60162Y596459D01*
X60159Y596464D01*
X59037Y596619D01*
X59032Y596616D01*
X59030Y596619D01*
X47030Y596619D01*
X47025Y596616D01*
X47022Y596619D01*
X45755Y596414D01*
X45749Y596408D01*
X45745Y596411D01*
X44555Y595929D01*
X44551Y595922D01*
X44545Y595924D01*
X43492Y595190D01*
X43490Y595182D01*
X43484Y595183D01*
X42621Y594233D01*
X42620Y594224D01*
X42615Y594224D01*
X41985Y593105D01*
X41986Y593097D01*
X41980Y593095D01*
X41615Y591865D01*
X41618Y591857D01*
X41613Y591854D01*
X41531Y590573D01*
X41534Y590569D01*
X41531Y590567D01*
X41613Y589286D01*
X41619Y589280D01*
X41615Y589275D01*
X41980Y588045D01*
X41987Y588040D01*
X41985Y588035D01*
X42615Y586916D01*
X42622Y586913D01*
X42621Y586907D01*
X43484Y585957D01*
X43492Y585956D01*
X43492Y585950D01*
X44545Y585216D01*
X44553Y585216D01*
X44555Y585211D01*
X45745Y584729D01*
X45752Y584731D01*
X45755Y584726D01*
X47022Y584521D01*
X47027Y584524D01*
X47030Y584521D01*
X59030Y584521D01*
X59034Y584524D01*
G37*
G36*
X59034Y730534D02*
X59034Y730534D01*
X59037Y730531D01*
X60159Y730686D01*
X60164Y730691D01*
X60168Y730688D01*
X61239Y731059D01*
X61243Y731065D01*
X61248Y731063D01*
X62225Y731636D01*
X62228Y731642D01*
X62233Y731641D01*
X63080Y732394D01*
X63082Y732401D01*
X63087Y732401D01*
X63771Y733304D01*
X63771Y733311D01*
X63776Y733312D01*
X64271Y734331D01*
X64269Y734338D01*
X64274Y734340D01*
X64561Y735437D01*
X64559Y735441D01*
X64561Y735442D01*
X64559Y735444D01*
X64562Y735446D01*
X64629Y736577D01*
X64627Y736581D01*
X64629Y736583D01*
X64562Y737714D01*
X64557Y737719D01*
X64561Y737723D01*
X64274Y738820D01*
X64268Y738824D01*
X64271Y738829D01*
X63776Y739848D01*
X63770Y739851D01*
X63771Y739856D01*
X63087Y740759D01*
X63080Y740761D01*
X63080Y740766D01*
X62233Y741519D01*
X62226Y741519D01*
X62225Y741524D01*
X61248Y742097D01*
X61241Y742096D01*
X61239Y742101D01*
X60168Y742472D01*
X60162Y742469D01*
X60159Y742474D01*
X59037Y742629D01*
X59032Y742626D01*
X59030Y742629D01*
X47030Y742629D01*
X47025Y742626D01*
X47022Y742629D01*
X45755Y742424D01*
X45749Y742418D01*
X45745Y742421D01*
X44555Y741939D01*
X44551Y741932D01*
X44545Y741934D01*
X43492Y741200D01*
X43490Y741192D01*
X43484Y741193D01*
X42621Y740243D01*
X42620Y740234D01*
X42615Y740234D01*
X41985Y739115D01*
X41986Y739107D01*
X41980Y739105D01*
X41615Y737875D01*
X41618Y737867D01*
X41613Y737864D01*
X41531Y736583D01*
X41534Y736579D01*
X41531Y736577D01*
X41613Y735296D01*
X41619Y735290D01*
X41615Y735285D01*
X41980Y734055D01*
X41987Y734050D01*
X41985Y734045D01*
X42615Y732926D01*
X42622Y732923D01*
X42621Y732917D01*
X43484Y731967D01*
X43492Y731966D01*
X43492Y731960D01*
X44545Y731226D01*
X44553Y731226D01*
X44555Y731221D01*
X45745Y730739D01*
X45752Y730741D01*
X45755Y730736D01*
X47022Y730531D01*
X47027Y730534D01*
X47030Y730531D01*
X59030Y730531D01*
X59034Y730534D01*
G37*
G36*
X704194Y151454D02*
X704194Y151454D01*
X704197Y151451D01*
X705319Y151606D01*
X705324Y151611D01*
X705328Y151608D01*
X706399Y151979D01*
X706403Y151985D01*
X706408Y151983D01*
X707385Y152556D01*
X707388Y152562D01*
X707393Y152561D01*
X708240Y153314D01*
X708242Y153321D01*
X708247Y153321D01*
X708931Y154224D01*
X708931Y154231D01*
X708936Y154232D01*
X709431Y155251D01*
X709429Y155258D01*
X709434Y155260D01*
X709721Y156357D01*
X709719Y156361D01*
X709721Y156362D01*
X709719Y156364D01*
X709722Y156366D01*
X709789Y157497D01*
X709787Y157501D01*
X709789Y157503D01*
X709722Y158634D01*
X709717Y158639D01*
X709721Y158643D01*
X709434Y159740D01*
X709428Y159744D01*
X709431Y159749D01*
X708936Y160768D01*
X708930Y160771D01*
X708931Y160776D01*
X708247Y161679D01*
X708240Y161681D01*
X708240Y161686D01*
X707393Y162439D01*
X707386Y162439D01*
X707385Y162444D01*
X706408Y163017D01*
X706401Y163016D01*
X706399Y163021D01*
X705328Y163392D01*
X705322Y163389D01*
X705319Y163394D01*
X704197Y163549D01*
X704192Y163546D01*
X704190Y163549D01*
X692190Y163549D01*
X692185Y163546D01*
X692182Y163549D01*
X690915Y163344D01*
X690909Y163338D01*
X690905Y163341D01*
X689715Y162859D01*
X689711Y162852D01*
X689705Y162854D01*
X688652Y162120D01*
X688650Y162112D01*
X688644Y162113D01*
X687781Y161163D01*
X687780Y161154D01*
X687775Y161154D01*
X687145Y160035D01*
X687146Y160027D01*
X687140Y160025D01*
X686775Y158795D01*
X686778Y158787D01*
X686773Y158784D01*
X686691Y157503D01*
X686694Y157499D01*
X686691Y157497D01*
X686773Y156216D01*
X686779Y156210D01*
X686775Y156205D01*
X687140Y154975D01*
X687147Y154970D01*
X687145Y154965D01*
X687775Y153846D01*
X687782Y153843D01*
X687781Y153837D01*
X688644Y152887D01*
X688652Y152886D01*
X688652Y152880D01*
X689705Y152146D01*
X689713Y152146D01*
X689715Y152141D01*
X690905Y151659D01*
X690912Y151661D01*
X690915Y151656D01*
X692182Y151451D01*
X692187Y151454D01*
X692190Y151451D01*
X704190Y151451D01*
X704194Y151454D01*
G37*
G36*
X59034Y151454D02*
X59034Y151454D01*
X59037Y151451D01*
X60159Y151606D01*
X60164Y151611D01*
X60168Y151608D01*
X61239Y151979D01*
X61243Y151985D01*
X61248Y151983D01*
X62225Y152556D01*
X62228Y152562D01*
X62233Y152561D01*
X63080Y153314D01*
X63082Y153321D01*
X63087Y153321D01*
X63771Y154224D01*
X63771Y154231D01*
X63776Y154232D01*
X64271Y155251D01*
X64269Y155258D01*
X64274Y155260D01*
X64561Y156357D01*
X64559Y156361D01*
X64561Y156362D01*
X64559Y156364D01*
X64562Y156366D01*
X64629Y157497D01*
X64627Y157501D01*
X64629Y157503D01*
X64562Y158634D01*
X64557Y158639D01*
X64561Y158643D01*
X64274Y159740D01*
X64268Y159744D01*
X64271Y159749D01*
X63776Y160768D01*
X63770Y160771D01*
X63771Y160776D01*
X63087Y161679D01*
X63080Y161681D01*
X63080Y161686D01*
X62233Y162439D01*
X62226Y162439D01*
X62225Y162444D01*
X61248Y163017D01*
X61241Y163016D01*
X61239Y163021D01*
X60168Y163392D01*
X60162Y163389D01*
X60159Y163394D01*
X59037Y163549D01*
X59032Y163546D01*
X59030Y163549D01*
X47030Y163549D01*
X47025Y163546D01*
X47022Y163549D01*
X45755Y163344D01*
X45749Y163338D01*
X45745Y163341D01*
X44555Y162859D01*
X44551Y162852D01*
X44545Y162854D01*
X43492Y162120D01*
X43490Y162112D01*
X43484Y162113D01*
X42621Y161163D01*
X42620Y161154D01*
X42615Y161154D01*
X41985Y160035D01*
X41986Y160027D01*
X41980Y160025D01*
X41615Y158795D01*
X41618Y158787D01*
X41613Y158784D01*
X41531Y157503D01*
X41534Y157499D01*
X41531Y157497D01*
X41613Y156216D01*
X41619Y156210D01*
X41615Y156205D01*
X41980Y154975D01*
X41987Y154970D01*
X41985Y154965D01*
X42615Y153846D01*
X42622Y153843D01*
X42621Y153837D01*
X43484Y152887D01*
X43492Y152886D01*
X43492Y152880D01*
X44545Y152146D01*
X44553Y152146D01*
X44555Y152141D01*
X45745Y151659D01*
X45752Y151661D01*
X45755Y151656D01*
X47022Y151451D01*
X47027Y151454D01*
X47030Y151451D01*
X59030Y151451D01*
X59034Y151454D01*
G37*
G36*
X704194Y65054D02*
X704194Y65054D01*
X704197Y65051D01*
X705319Y65206D01*
X705324Y65211D01*
X705328Y65208D01*
X706399Y65579D01*
X706403Y65585D01*
X706408Y65583D01*
X707385Y66156D01*
X707388Y66162D01*
X707393Y66161D01*
X708240Y66914D01*
X708242Y66921D01*
X708247Y66921D01*
X708931Y67824D01*
X708931Y67831D01*
X708936Y67832D01*
X709431Y68851D01*
X709429Y68858D01*
X709434Y68860D01*
X709721Y69957D01*
X709719Y69961D01*
X709721Y69962D01*
X709719Y69964D01*
X709722Y69966D01*
X709789Y71097D01*
X709787Y71101D01*
X709789Y71103D01*
X709722Y72234D01*
X709717Y72239D01*
X709721Y72243D01*
X709434Y73340D01*
X709428Y73344D01*
X709431Y73349D01*
X708936Y74368D01*
X708930Y74371D01*
X708931Y74376D01*
X708247Y75279D01*
X708240Y75281D01*
X708240Y75286D01*
X707393Y76039D01*
X707386Y76039D01*
X707385Y76044D01*
X706408Y76617D01*
X706401Y76616D01*
X706399Y76621D01*
X705328Y76992D01*
X705322Y76989D01*
X705319Y76994D01*
X704197Y77149D01*
X704192Y77146D01*
X704190Y77149D01*
X692190Y77149D01*
X692185Y77146D01*
X692182Y77149D01*
X690915Y76944D01*
X690909Y76938D01*
X690905Y76941D01*
X689715Y76459D01*
X689711Y76452D01*
X689705Y76454D01*
X688652Y75720D01*
X688650Y75712D01*
X688644Y75713D01*
X687781Y74763D01*
X687780Y74754D01*
X687775Y74754D01*
X687145Y73635D01*
X687146Y73627D01*
X687140Y73625D01*
X686775Y72395D01*
X686778Y72387D01*
X686773Y72384D01*
X686691Y71103D01*
X686694Y71099D01*
X686691Y71097D01*
X686773Y69816D01*
X686779Y69810D01*
X686775Y69805D01*
X687140Y68575D01*
X687147Y68570D01*
X687145Y68565D01*
X687775Y67446D01*
X687782Y67443D01*
X687781Y67437D01*
X688644Y66487D01*
X688652Y66486D01*
X688652Y66480D01*
X689705Y65746D01*
X689713Y65746D01*
X689715Y65741D01*
X690905Y65259D01*
X690912Y65261D01*
X690915Y65256D01*
X692182Y65051D01*
X692187Y65054D01*
X692190Y65051D01*
X704190Y65051D01*
X704194Y65054D01*
G37*
G36*
X659393Y816933D02*
X659393Y816933D01*
X659395Y816931D01*
X660571Y817042D01*
X660576Y817047D01*
X660580Y817044D01*
X661712Y817382D01*
X661716Y817388D01*
X661721Y817386D01*
X662765Y817938D01*
X662768Y817945D01*
X662773Y817943D01*
X663689Y818689D01*
X663690Y818696D01*
X663696Y818696D01*
X664449Y819606D01*
X664449Y819613D01*
X664454Y819614D01*
X665015Y820653D01*
X665014Y820658D01*
X665018Y820660D01*
X665017Y820661D01*
X665019Y820662D01*
X665366Y821791D01*
X665366Y821792D01*
X665367Y821793D01*
X665364Y821797D01*
X665368Y821800D01*
X665489Y822975D01*
X665485Y822982D01*
X665489Y822986D01*
X665332Y824326D01*
X665327Y824332D01*
X665330Y824337D01*
X664879Y825608D01*
X664872Y825613D01*
X664874Y825618D01*
X664152Y826757D01*
X664144Y826760D01*
X664145Y826766D01*
X663187Y827716D01*
X663179Y827717D01*
X663178Y827723D01*
X662033Y828436D01*
X662025Y828435D01*
X662023Y828441D01*
X660747Y828881D01*
X660740Y828879D01*
X660737Y828883D01*
X659395Y829029D01*
X659392Y829027D01*
X659390Y829029D01*
X653390Y829029D01*
X653387Y829027D01*
X653384Y829029D01*
X652055Y828874D01*
X652049Y828868D01*
X652045Y828871D01*
X650784Y828424D01*
X650779Y828417D01*
X650774Y828419D01*
X649644Y827702D01*
X649641Y827695D01*
X649635Y827696D01*
X648693Y826746D01*
X648692Y826737D01*
X648686Y826737D01*
X647979Y825601D01*
X647980Y825593D01*
X647974Y825591D01*
X647538Y824326D01*
X647540Y824318D01*
X647535Y824316D01*
X647391Y822985D01*
X647395Y822979D01*
X647391Y822975D01*
X647501Y821809D01*
X647506Y821804D01*
X647503Y821800D01*
X647838Y820677D01*
X647844Y820673D01*
X647842Y820669D01*
X648390Y819633D01*
X648396Y819630D01*
X648395Y819625D01*
X649134Y818717D01*
X649141Y818715D01*
X649141Y818710D01*
X650043Y817963D01*
X650051Y817963D01*
X650051Y817958D01*
X651082Y817401D01*
X651089Y817402D01*
X651091Y817397D01*
X652210Y817053D01*
X652217Y817055D01*
X652220Y817051D01*
X653385Y816931D01*
X653388Y816933D01*
X653390Y816931D01*
X659390Y816931D01*
X659393Y816933D01*
G37*
G36*
X14233Y816933D02*
X14233Y816933D01*
X14235Y816931D01*
X15411Y817042D01*
X15416Y817047D01*
X15420Y817044D01*
X16552Y817382D01*
X16556Y817388D01*
X16561Y817386D01*
X17605Y817938D01*
X17608Y817945D01*
X17613Y817943D01*
X18529Y818689D01*
X18530Y818696D01*
X18536Y818696D01*
X19289Y819606D01*
X19289Y819613D01*
X19294Y819614D01*
X19855Y820653D01*
X19854Y820658D01*
X19858Y820660D01*
X19857Y820661D01*
X19859Y820662D01*
X20206Y821791D01*
X20206Y821792D01*
X20207Y821793D01*
X20204Y821797D01*
X20208Y821800D01*
X20329Y822975D01*
X20325Y822982D01*
X20329Y822986D01*
X20172Y824326D01*
X20167Y824332D01*
X20170Y824337D01*
X19719Y825608D01*
X19712Y825613D01*
X19714Y825618D01*
X18992Y826757D01*
X18984Y826760D01*
X18985Y826766D01*
X18027Y827716D01*
X18019Y827717D01*
X18018Y827723D01*
X16873Y828436D01*
X16865Y828435D01*
X16863Y828441D01*
X15587Y828881D01*
X15580Y828879D01*
X15577Y828883D01*
X14235Y829029D01*
X14232Y829027D01*
X14230Y829029D01*
X8230Y829029D01*
X8227Y829027D01*
X8224Y829029D01*
X6895Y828874D01*
X6889Y828868D01*
X6885Y828871D01*
X5624Y828424D01*
X5619Y828417D01*
X5614Y828419D01*
X4484Y827702D01*
X4481Y827695D01*
X4475Y827696D01*
X3533Y826746D01*
X3532Y826737D01*
X3526Y826737D01*
X2819Y825601D01*
X2820Y825593D01*
X2814Y825591D01*
X2378Y824326D01*
X2380Y824318D01*
X2375Y824316D01*
X2231Y822985D01*
X2235Y822979D01*
X2231Y822975D01*
X2341Y821809D01*
X2346Y821804D01*
X2343Y821800D01*
X2678Y820677D01*
X2684Y820673D01*
X2682Y820669D01*
X3230Y819633D01*
X3236Y819630D01*
X3235Y819625D01*
X3974Y818717D01*
X3981Y818715D01*
X3981Y818710D01*
X4883Y817963D01*
X4891Y817963D01*
X4891Y817958D01*
X5922Y817401D01*
X5929Y817402D01*
X5931Y817397D01*
X7050Y817053D01*
X7057Y817055D01*
X7060Y817051D01*
X8225Y816931D01*
X8228Y816933D01*
X8230Y816931D01*
X14230Y816931D01*
X14233Y816933D01*
G37*
G36*
X659393Y498123D02*
X659393Y498123D01*
X659395Y498121D01*
X660571Y498232D01*
X660576Y498237D01*
X660580Y498234D01*
X661712Y498572D01*
X661716Y498578D01*
X661721Y498576D01*
X662765Y499128D01*
X662768Y499135D01*
X662773Y499133D01*
X663689Y499879D01*
X663690Y499886D01*
X663696Y499886D01*
X664449Y500796D01*
X664449Y500803D01*
X664454Y500804D01*
X665015Y501843D01*
X665014Y501848D01*
X665018Y501850D01*
X665017Y501851D01*
X665019Y501852D01*
X665366Y502981D01*
X665366Y502982D01*
X665367Y502983D01*
X665364Y502987D01*
X665368Y502990D01*
X665489Y504165D01*
X665485Y504172D01*
X665489Y504176D01*
X665332Y505516D01*
X665327Y505522D01*
X665330Y505527D01*
X664879Y506798D01*
X664872Y506803D01*
X664874Y506808D01*
X664152Y507947D01*
X664144Y507950D01*
X664145Y507956D01*
X663187Y508906D01*
X663179Y508907D01*
X663178Y508913D01*
X662033Y509626D01*
X662025Y509625D01*
X662023Y509631D01*
X660747Y510071D01*
X660740Y510069D01*
X660737Y510073D01*
X659395Y510219D01*
X659392Y510217D01*
X659390Y510219D01*
X653390Y510219D01*
X653387Y510217D01*
X653384Y510219D01*
X652055Y510064D01*
X652049Y510058D01*
X652045Y510061D01*
X650784Y509614D01*
X650779Y509607D01*
X650774Y509609D01*
X649644Y508892D01*
X649641Y508885D01*
X649635Y508886D01*
X648693Y507936D01*
X648692Y507927D01*
X648686Y507927D01*
X647979Y506791D01*
X647980Y506783D01*
X647974Y506781D01*
X647538Y505516D01*
X647540Y505508D01*
X647535Y505506D01*
X647391Y504175D01*
X647395Y504169D01*
X647391Y504165D01*
X647501Y502999D01*
X647506Y502994D01*
X647503Y502990D01*
X647838Y501867D01*
X647844Y501863D01*
X647842Y501859D01*
X648390Y500823D01*
X648396Y500820D01*
X648395Y500815D01*
X649134Y499907D01*
X649141Y499905D01*
X649141Y499900D01*
X650043Y499153D01*
X650051Y499153D01*
X650051Y499148D01*
X651082Y498591D01*
X651089Y498592D01*
X651091Y498587D01*
X652210Y498243D01*
X652217Y498245D01*
X652220Y498241D01*
X653385Y498121D01*
X653388Y498123D01*
X653390Y498121D01*
X659390Y498121D01*
X659393Y498123D01*
G37*
G36*
X14233Y498123D02*
X14233Y498123D01*
X14235Y498121D01*
X15411Y498232D01*
X15416Y498237D01*
X15420Y498234D01*
X16552Y498572D01*
X16556Y498578D01*
X16561Y498576D01*
X17605Y499128D01*
X17608Y499135D01*
X17613Y499133D01*
X18529Y499879D01*
X18530Y499886D01*
X18536Y499886D01*
X19289Y500796D01*
X19289Y500803D01*
X19294Y500804D01*
X19855Y501843D01*
X19854Y501848D01*
X19858Y501850D01*
X19857Y501851D01*
X19859Y501852D01*
X20206Y502981D01*
X20206Y502982D01*
X20207Y502983D01*
X20204Y502987D01*
X20208Y502990D01*
X20329Y504165D01*
X20325Y504172D01*
X20329Y504176D01*
X20172Y505516D01*
X20167Y505522D01*
X20170Y505527D01*
X19719Y506798D01*
X19712Y506803D01*
X19714Y506808D01*
X18992Y507947D01*
X18984Y507950D01*
X18985Y507956D01*
X18027Y508906D01*
X18019Y508907D01*
X18018Y508913D01*
X16873Y509626D01*
X16865Y509625D01*
X16863Y509631D01*
X15587Y510071D01*
X15580Y510069D01*
X15577Y510073D01*
X14235Y510219D01*
X14232Y510217D01*
X14230Y510219D01*
X8230Y510219D01*
X8227Y510217D01*
X8224Y510219D01*
X6895Y510064D01*
X6889Y510058D01*
X6885Y510061D01*
X5624Y509614D01*
X5619Y509607D01*
X5614Y509609D01*
X4484Y508892D01*
X4481Y508885D01*
X4475Y508886D01*
X3533Y507936D01*
X3532Y507927D01*
X3526Y507927D01*
X2819Y506791D01*
X2820Y506783D01*
X2814Y506781D01*
X2378Y505516D01*
X2380Y505508D01*
X2375Y505506D01*
X2231Y504175D01*
X2235Y504169D01*
X2231Y504165D01*
X2341Y502999D01*
X2346Y502994D01*
X2343Y502990D01*
X2678Y501867D01*
X2684Y501863D01*
X2682Y501859D01*
X3230Y500823D01*
X3236Y500820D01*
X3235Y500815D01*
X3974Y499907D01*
X3981Y499905D01*
X3981Y499900D01*
X4883Y499153D01*
X4891Y499153D01*
X4891Y499148D01*
X5922Y498591D01*
X5929Y498592D01*
X5931Y498587D01*
X7050Y498243D01*
X7057Y498245D01*
X7060Y498241D01*
X8225Y498121D01*
X8228Y498123D01*
X8230Y498121D01*
X14230Y498121D01*
X14233Y498123D01*
G37*
G36*
X659393Y730533D02*
X659393Y730533D01*
X659395Y730531D01*
X660571Y730642D01*
X660576Y730647D01*
X660580Y730644D01*
X661712Y730982D01*
X661716Y730988D01*
X661721Y730986D01*
X662765Y731538D01*
X662768Y731545D01*
X662773Y731543D01*
X663689Y732289D01*
X663690Y732296D01*
X663696Y732296D01*
X664449Y733206D01*
X664449Y733213D01*
X664454Y733214D01*
X665015Y734253D01*
X665014Y734258D01*
X665018Y734260D01*
X665017Y734261D01*
X665019Y734262D01*
X665366Y735391D01*
X665366Y735392D01*
X665367Y735393D01*
X665364Y735397D01*
X665368Y735400D01*
X665489Y736575D01*
X665485Y736582D01*
X665489Y736586D01*
X665332Y737926D01*
X665327Y737932D01*
X665330Y737937D01*
X664879Y739208D01*
X664872Y739213D01*
X664874Y739218D01*
X664152Y740357D01*
X664144Y740360D01*
X664145Y740366D01*
X663187Y741316D01*
X663179Y741317D01*
X663178Y741323D01*
X662033Y742036D01*
X662025Y742035D01*
X662023Y742041D01*
X660747Y742481D01*
X660740Y742479D01*
X660737Y742483D01*
X659395Y742629D01*
X659392Y742627D01*
X659390Y742629D01*
X653390Y742629D01*
X653387Y742627D01*
X653384Y742629D01*
X652055Y742474D01*
X652049Y742468D01*
X652045Y742471D01*
X650784Y742024D01*
X650779Y742017D01*
X650774Y742019D01*
X649644Y741302D01*
X649641Y741295D01*
X649635Y741296D01*
X648693Y740346D01*
X648692Y740337D01*
X648686Y740337D01*
X647979Y739201D01*
X647980Y739193D01*
X647974Y739191D01*
X647538Y737926D01*
X647540Y737918D01*
X647535Y737916D01*
X647391Y736585D01*
X647395Y736579D01*
X647391Y736575D01*
X647501Y735409D01*
X647506Y735404D01*
X647503Y735400D01*
X647838Y734277D01*
X647844Y734273D01*
X647842Y734269D01*
X648390Y733233D01*
X648396Y733230D01*
X648395Y733225D01*
X649134Y732317D01*
X649141Y732315D01*
X649141Y732310D01*
X650043Y731563D01*
X650051Y731563D01*
X650051Y731558D01*
X651082Y731001D01*
X651089Y731002D01*
X651091Y730997D01*
X652210Y730653D01*
X652217Y730655D01*
X652220Y730651D01*
X653385Y730531D01*
X653388Y730533D01*
X653390Y730531D01*
X659390Y730531D01*
X659393Y730533D01*
G37*
G36*
X14233Y1250003D02*
X14233Y1250003D01*
X14235Y1250001D01*
X15411Y1250112D01*
X15416Y1250117D01*
X15420Y1250114D01*
X16552Y1250452D01*
X16556Y1250458D01*
X16561Y1250456D01*
X17605Y1251008D01*
X17608Y1251015D01*
X17613Y1251013D01*
X18529Y1251759D01*
X18530Y1251766D01*
X18536Y1251766D01*
X19289Y1252676D01*
X19289Y1252683D01*
X19294Y1252684D01*
X19855Y1253723D01*
X19854Y1253728D01*
X19858Y1253730D01*
X19857Y1253731D01*
X19859Y1253732D01*
X20206Y1254861D01*
X20206Y1254862D01*
X20207Y1254863D01*
X20204Y1254867D01*
X20208Y1254870D01*
X20329Y1256045D01*
X20325Y1256052D01*
X20329Y1256056D01*
X20172Y1257396D01*
X20167Y1257402D01*
X20170Y1257407D01*
X19719Y1258678D01*
X19712Y1258683D01*
X19714Y1258688D01*
X18992Y1259827D01*
X18984Y1259830D01*
X18985Y1259836D01*
X18027Y1260786D01*
X18019Y1260787D01*
X18018Y1260793D01*
X16873Y1261506D01*
X16865Y1261505D01*
X16863Y1261511D01*
X15587Y1261951D01*
X15580Y1261949D01*
X15577Y1261953D01*
X14235Y1262099D01*
X14232Y1262097D01*
X14230Y1262099D01*
X8230Y1262099D01*
X8227Y1262097D01*
X8224Y1262099D01*
X6895Y1261944D01*
X6889Y1261938D01*
X6885Y1261941D01*
X5624Y1261494D01*
X5619Y1261487D01*
X5614Y1261489D01*
X4484Y1260772D01*
X4481Y1260765D01*
X4475Y1260766D01*
X3533Y1259816D01*
X3532Y1259807D01*
X3526Y1259807D01*
X2819Y1258671D01*
X2820Y1258663D01*
X2814Y1258661D01*
X2378Y1257396D01*
X2380Y1257388D01*
X2375Y1257386D01*
X2231Y1256055D01*
X2235Y1256049D01*
X2231Y1256045D01*
X2341Y1254879D01*
X2346Y1254874D01*
X2343Y1254870D01*
X2678Y1253747D01*
X2684Y1253743D01*
X2682Y1253739D01*
X3230Y1252703D01*
X3236Y1252700D01*
X3235Y1252695D01*
X3974Y1251787D01*
X3981Y1251785D01*
X3981Y1251780D01*
X4883Y1251033D01*
X4891Y1251033D01*
X4891Y1251028D01*
X5922Y1250471D01*
X5929Y1250472D01*
X5931Y1250467D01*
X7050Y1250123D01*
X7057Y1250125D01*
X7060Y1250121D01*
X8225Y1250001D01*
X8228Y1250003D01*
X8230Y1250001D01*
X14230Y1250001D01*
X14233Y1250003D01*
G37*
G36*
X659393Y584523D02*
X659393Y584523D01*
X659395Y584521D01*
X660571Y584632D01*
X660576Y584637D01*
X660580Y584634D01*
X661712Y584972D01*
X661716Y584978D01*
X661721Y584976D01*
X662765Y585528D01*
X662768Y585535D01*
X662773Y585533D01*
X663689Y586279D01*
X663690Y586286D01*
X663696Y586286D01*
X664449Y587196D01*
X664449Y587203D01*
X664454Y587204D01*
X665015Y588243D01*
X665014Y588248D01*
X665018Y588250D01*
X665017Y588251D01*
X665019Y588252D01*
X665366Y589381D01*
X665366Y589382D01*
X665367Y589383D01*
X665364Y589387D01*
X665368Y589390D01*
X665489Y590565D01*
X665485Y590572D01*
X665489Y590576D01*
X665332Y591916D01*
X665327Y591922D01*
X665330Y591927D01*
X664879Y593198D01*
X664872Y593203D01*
X664874Y593208D01*
X664152Y594347D01*
X664144Y594350D01*
X664145Y594356D01*
X663187Y595306D01*
X663179Y595307D01*
X663178Y595313D01*
X662033Y596026D01*
X662025Y596025D01*
X662023Y596031D01*
X660747Y596471D01*
X660740Y596469D01*
X660737Y596473D01*
X659395Y596619D01*
X659392Y596617D01*
X659390Y596619D01*
X653390Y596619D01*
X653387Y596617D01*
X653384Y596619D01*
X652055Y596464D01*
X652049Y596458D01*
X652045Y596461D01*
X650784Y596014D01*
X650779Y596007D01*
X650774Y596009D01*
X649644Y595292D01*
X649641Y595285D01*
X649635Y595286D01*
X648693Y594336D01*
X648692Y594327D01*
X648686Y594327D01*
X647979Y593191D01*
X647980Y593183D01*
X647974Y593181D01*
X647538Y591916D01*
X647540Y591908D01*
X647535Y591906D01*
X647391Y590575D01*
X647395Y590569D01*
X647391Y590565D01*
X647501Y589399D01*
X647506Y589394D01*
X647503Y589390D01*
X647838Y588267D01*
X647844Y588263D01*
X647842Y588259D01*
X648390Y587223D01*
X648396Y587220D01*
X648395Y587215D01*
X649134Y586307D01*
X649141Y586305D01*
X649141Y586300D01*
X650043Y585553D01*
X650051Y585553D01*
X650051Y585548D01*
X651082Y584991D01*
X651089Y584992D01*
X651091Y584987D01*
X652210Y584643D01*
X652217Y584645D01*
X652220Y584641D01*
X653385Y584521D01*
X653388Y584523D01*
X653390Y584521D01*
X659390Y584521D01*
X659393Y584523D01*
G37*
G36*
X659393Y1250003D02*
X659393Y1250003D01*
X659395Y1250001D01*
X660571Y1250112D01*
X660576Y1250117D01*
X660580Y1250114D01*
X661712Y1250452D01*
X661716Y1250458D01*
X661721Y1250456D01*
X662765Y1251008D01*
X662768Y1251015D01*
X662773Y1251013D01*
X663689Y1251759D01*
X663690Y1251766D01*
X663696Y1251766D01*
X664449Y1252676D01*
X664449Y1252683D01*
X664454Y1252684D01*
X665015Y1253723D01*
X665014Y1253728D01*
X665018Y1253730D01*
X665017Y1253731D01*
X665019Y1253732D01*
X665366Y1254861D01*
X665366Y1254862D01*
X665367Y1254863D01*
X665364Y1254867D01*
X665368Y1254870D01*
X665489Y1256045D01*
X665485Y1256052D01*
X665489Y1256056D01*
X665332Y1257396D01*
X665327Y1257402D01*
X665330Y1257407D01*
X664879Y1258678D01*
X664872Y1258683D01*
X664874Y1258688D01*
X664152Y1259827D01*
X664144Y1259830D01*
X664145Y1259836D01*
X663187Y1260786D01*
X663179Y1260787D01*
X663178Y1260793D01*
X662033Y1261506D01*
X662025Y1261505D01*
X662023Y1261511D01*
X660747Y1261951D01*
X660740Y1261949D01*
X660737Y1261953D01*
X659395Y1262099D01*
X659392Y1262097D01*
X659390Y1262099D01*
X653390Y1262099D01*
X653387Y1262097D01*
X653384Y1262099D01*
X652055Y1261944D01*
X652049Y1261938D01*
X652045Y1261941D01*
X650784Y1261494D01*
X650779Y1261487D01*
X650774Y1261489D01*
X649644Y1260772D01*
X649641Y1260765D01*
X649635Y1260766D01*
X648693Y1259816D01*
X648692Y1259807D01*
X648686Y1259807D01*
X647979Y1258671D01*
X647980Y1258663D01*
X647974Y1258661D01*
X647538Y1257396D01*
X647540Y1257388D01*
X647535Y1257386D01*
X647391Y1256055D01*
X647395Y1256049D01*
X647391Y1256045D01*
X647501Y1254879D01*
X647506Y1254874D01*
X647503Y1254870D01*
X647838Y1253747D01*
X647844Y1253743D01*
X647842Y1253739D01*
X648390Y1252703D01*
X648396Y1252700D01*
X648395Y1252695D01*
X649134Y1251787D01*
X649141Y1251785D01*
X649141Y1251780D01*
X650043Y1251033D01*
X650051Y1251033D01*
X650051Y1251028D01*
X651082Y1250471D01*
X651089Y1250472D01*
X651091Y1250467D01*
X652210Y1250123D01*
X652217Y1250125D01*
X652220Y1250121D01*
X653385Y1250001D01*
X653388Y1250003D01*
X653390Y1250001D01*
X659390Y1250001D01*
X659393Y1250003D01*
G37*
G36*
X14233Y584523D02*
X14233Y584523D01*
X14235Y584521D01*
X15411Y584632D01*
X15416Y584637D01*
X15420Y584634D01*
X16552Y584972D01*
X16556Y584978D01*
X16561Y584976D01*
X17605Y585528D01*
X17608Y585535D01*
X17613Y585533D01*
X18529Y586279D01*
X18530Y586286D01*
X18536Y586286D01*
X19289Y587196D01*
X19289Y587203D01*
X19294Y587204D01*
X19855Y588243D01*
X19854Y588248D01*
X19858Y588250D01*
X19857Y588251D01*
X19859Y588252D01*
X20206Y589381D01*
X20206Y589382D01*
X20207Y589383D01*
X20204Y589387D01*
X20208Y589390D01*
X20329Y590565D01*
X20325Y590572D01*
X20329Y590576D01*
X20172Y591916D01*
X20167Y591922D01*
X20170Y591927D01*
X19719Y593198D01*
X19712Y593203D01*
X19714Y593208D01*
X18992Y594347D01*
X18984Y594350D01*
X18985Y594356D01*
X18027Y595306D01*
X18019Y595307D01*
X18018Y595313D01*
X16873Y596026D01*
X16865Y596025D01*
X16863Y596031D01*
X15587Y596471D01*
X15580Y596469D01*
X15577Y596473D01*
X14235Y596619D01*
X14232Y596617D01*
X14230Y596619D01*
X8230Y596619D01*
X8227Y596617D01*
X8224Y596619D01*
X6895Y596464D01*
X6889Y596458D01*
X6885Y596461D01*
X5624Y596014D01*
X5619Y596007D01*
X5614Y596009D01*
X4484Y595292D01*
X4481Y595285D01*
X4475Y595286D01*
X3533Y594336D01*
X3532Y594327D01*
X3526Y594327D01*
X2819Y593191D01*
X2820Y593183D01*
X2814Y593181D01*
X2378Y591916D01*
X2380Y591908D01*
X2375Y591906D01*
X2231Y590575D01*
X2235Y590569D01*
X2231Y590565D01*
X2341Y589399D01*
X2346Y589394D01*
X2343Y589390D01*
X2678Y588267D01*
X2684Y588263D01*
X2682Y588259D01*
X3230Y587223D01*
X3236Y587220D01*
X3235Y587215D01*
X3974Y586307D01*
X3981Y586305D01*
X3981Y586300D01*
X4883Y585553D01*
X4891Y585553D01*
X4891Y585548D01*
X5922Y584991D01*
X5929Y584992D01*
X5931Y584987D01*
X7050Y584643D01*
X7057Y584645D01*
X7060Y584641D01*
X8225Y584521D01*
X8228Y584523D01*
X8230Y584521D01*
X14230Y584521D01*
X14233Y584523D01*
G37*
G36*
X659393Y151453D02*
X659393Y151453D01*
X659395Y151451D01*
X660571Y151562D01*
X660576Y151567D01*
X660580Y151564D01*
X661712Y151902D01*
X661716Y151908D01*
X661721Y151906D01*
X662765Y152458D01*
X662768Y152465D01*
X662773Y152463D01*
X663689Y153209D01*
X663690Y153216D01*
X663696Y153216D01*
X664449Y154126D01*
X664449Y154133D01*
X664454Y154134D01*
X665015Y155173D01*
X665014Y155178D01*
X665018Y155180D01*
X665017Y155181D01*
X665019Y155182D01*
X665366Y156311D01*
X665366Y156312D01*
X665367Y156313D01*
X665364Y156317D01*
X665368Y156320D01*
X665489Y157495D01*
X665485Y157502D01*
X665489Y157506D01*
X665332Y158846D01*
X665327Y158852D01*
X665330Y158857D01*
X664879Y160128D01*
X664872Y160133D01*
X664874Y160138D01*
X664152Y161277D01*
X664144Y161280D01*
X664145Y161286D01*
X663187Y162236D01*
X663179Y162237D01*
X663178Y162243D01*
X662033Y162956D01*
X662025Y162955D01*
X662023Y162961D01*
X660747Y163401D01*
X660740Y163399D01*
X660737Y163403D01*
X659395Y163549D01*
X659392Y163547D01*
X659390Y163549D01*
X653390Y163549D01*
X653387Y163547D01*
X653384Y163549D01*
X652055Y163394D01*
X652049Y163388D01*
X652045Y163391D01*
X650784Y162944D01*
X650779Y162937D01*
X650774Y162939D01*
X649644Y162222D01*
X649641Y162215D01*
X649635Y162216D01*
X648693Y161266D01*
X648692Y161257D01*
X648686Y161257D01*
X647979Y160121D01*
X647980Y160113D01*
X647974Y160111D01*
X647538Y158846D01*
X647540Y158838D01*
X647535Y158836D01*
X647391Y157505D01*
X647395Y157499D01*
X647391Y157495D01*
X647501Y156329D01*
X647506Y156324D01*
X647503Y156320D01*
X647838Y155197D01*
X647844Y155193D01*
X647842Y155189D01*
X648390Y154153D01*
X648396Y154150D01*
X648395Y154145D01*
X649134Y153237D01*
X649141Y153235D01*
X649141Y153230D01*
X650043Y152483D01*
X650051Y152483D01*
X650051Y152478D01*
X651082Y151921D01*
X651089Y151922D01*
X651091Y151917D01*
X652210Y151573D01*
X652217Y151575D01*
X652220Y151571D01*
X653385Y151451D01*
X653388Y151453D01*
X653390Y151451D01*
X659390Y151451D01*
X659393Y151453D01*
G37*
G36*
X659393Y1163603D02*
X659393Y1163603D01*
X659395Y1163601D01*
X660571Y1163712D01*
X660576Y1163717D01*
X660580Y1163714D01*
X661712Y1164052D01*
X661716Y1164058D01*
X661721Y1164056D01*
X662765Y1164608D01*
X662768Y1164615D01*
X662773Y1164613D01*
X663689Y1165359D01*
X663690Y1165366D01*
X663696Y1165366D01*
X664449Y1166276D01*
X664449Y1166283D01*
X664454Y1166284D01*
X665015Y1167323D01*
X665014Y1167328D01*
X665018Y1167330D01*
X665017Y1167331D01*
X665019Y1167332D01*
X665366Y1168461D01*
X665366Y1168462D01*
X665367Y1168463D01*
X665364Y1168467D01*
X665368Y1168470D01*
X665489Y1169645D01*
X665485Y1169652D01*
X665489Y1169656D01*
X665332Y1170996D01*
X665327Y1171002D01*
X665330Y1171007D01*
X664879Y1172278D01*
X664872Y1172283D01*
X664874Y1172288D01*
X664152Y1173427D01*
X664144Y1173430D01*
X664145Y1173436D01*
X663187Y1174386D01*
X663179Y1174387D01*
X663178Y1174393D01*
X662033Y1175106D01*
X662025Y1175105D01*
X662023Y1175111D01*
X660747Y1175551D01*
X660740Y1175549D01*
X660737Y1175553D01*
X659395Y1175699D01*
X659392Y1175697D01*
X659390Y1175699D01*
X653390Y1175699D01*
X653387Y1175697D01*
X653384Y1175699D01*
X652055Y1175544D01*
X652049Y1175538D01*
X652045Y1175541D01*
X650784Y1175094D01*
X650779Y1175087D01*
X650774Y1175089D01*
X649644Y1174372D01*
X649641Y1174365D01*
X649635Y1174366D01*
X648693Y1173416D01*
X648692Y1173407D01*
X648686Y1173407D01*
X647979Y1172271D01*
X647980Y1172263D01*
X647974Y1172261D01*
X647538Y1170996D01*
X647540Y1170988D01*
X647535Y1170986D01*
X647391Y1169655D01*
X647395Y1169649D01*
X647391Y1169645D01*
X647501Y1168479D01*
X647506Y1168474D01*
X647503Y1168470D01*
X647838Y1167347D01*
X647844Y1167343D01*
X647842Y1167339D01*
X648390Y1166303D01*
X648396Y1166300D01*
X648395Y1166295D01*
X649134Y1165387D01*
X649141Y1165385D01*
X649141Y1165380D01*
X650043Y1164633D01*
X650051Y1164633D01*
X650051Y1164628D01*
X651082Y1164071D01*
X651089Y1164072D01*
X651091Y1164067D01*
X652210Y1163723D01*
X652217Y1163725D01*
X652220Y1163721D01*
X653385Y1163601D01*
X653388Y1163603D01*
X653390Y1163601D01*
X659390Y1163601D01*
X659393Y1163603D01*
G37*
G36*
X14233Y151453D02*
X14233Y151453D01*
X14235Y151451D01*
X15411Y151562D01*
X15416Y151567D01*
X15420Y151564D01*
X16552Y151902D01*
X16556Y151908D01*
X16561Y151906D01*
X17605Y152458D01*
X17608Y152465D01*
X17613Y152463D01*
X18529Y153209D01*
X18530Y153216D01*
X18536Y153216D01*
X19289Y154126D01*
X19289Y154133D01*
X19294Y154134D01*
X19855Y155173D01*
X19854Y155178D01*
X19858Y155180D01*
X19857Y155181D01*
X19859Y155182D01*
X20206Y156311D01*
X20206Y156312D01*
X20207Y156313D01*
X20204Y156317D01*
X20208Y156320D01*
X20329Y157495D01*
X20325Y157502D01*
X20329Y157506D01*
X20172Y158846D01*
X20167Y158852D01*
X20170Y158857D01*
X19719Y160128D01*
X19712Y160133D01*
X19714Y160138D01*
X18992Y161277D01*
X18984Y161280D01*
X18985Y161286D01*
X18027Y162236D01*
X18019Y162237D01*
X18018Y162243D01*
X16873Y162956D01*
X16865Y162955D01*
X16863Y162961D01*
X15587Y163401D01*
X15580Y163399D01*
X15577Y163403D01*
X14235Y163549D01*
X14232Y163547D01*
X14230Y163549D01*
X8230Y163549D01*
X8227Y163547D01*
X8224Y163549D01*
X6895Y163394D01*
X6889Y163388D01*
X6885Y163391D01*
X5624Y162944D01*
X5619Y162937D01*
X5614Y162939D01*
X4484Y162222D01*
X4481Y162215D01*
X4475Y162216D01*
X3533Y161266D01*
X3532Y161257D01*
X3526Y161257D01*
X2819Y160121D01*
X2820Y160113D01*
X2814Y160111D01*
X2378Y158846D01*
X2380Y158838D01*
X2375Y158836D01*
X2231Y157505D01*
X2235Y157499D01*
X2231Y157495D01*
X2341Y156329D01*
X2346Y156324D01*
X2343Y156320D01*
X2678Y155197D01*
X2684Y155193D01*
X2682Y155189D01*
X3230Y154153D01*
X3236Y154150D01*
X3235Y154145D01*
X3974Y153237D01*
X3981Y153235D01*
X3981Y153230D01*
X4883Y152483D01*
X4891Y152483D01*
X4891Y152478D01*
X5922Y151921D01*
X5929Y151922D01*
X5931Y151917D01*
X7050Y151573D01*
X7057Y151575D01*
X7060Y151571D01*
X8225Y151451D01*
X8228Y151453D01*
X8230Y151451D01*
X14230Y151451D01*
X14233Y151453D01*
G37*
G36*
X14233Y730533D02*
X14233Y730533D01*
X14235Y730531D01*
X15411Y730642D01*
X15416Y730647D01*
X15420Y730644D01*
X16552Y730982D01*
X16556Y730988D01*
X16561Y730986D01*
X17605Y731538D01*
X17608Y731545D01*
X17613Y731543D01*
X18529Y732289D01*
X18530Y732296D01*
X18536Y732296D01*
X19289Y733206D01*
X19289Y733213D01*
X19294Y733214D01*
X19855Y734253D01*
X19854Y734258D01*
X19858Y734260D01*
X19857Y734261D01*
X19859Y734262D01*
X20206Y735391D01*
X20206Y735392D01*
X20207Y735393D01*
X20204Y735397D01*
X20208Y735400D01*
X20329Y736575D01*
X20325Y736582D01*
X20329Y736586D01*
X20172Y737926D01*
X20167Y737932D01*
X20170Y737937D01*
X19719Y739208D01*
X19712Y739213D01*
X19714Y739218D01*
X18992Y740357D01*
X18984Y740360D01*
X18985Y740366D01*
X18027Y741316D01*
X18019Y741317D01*
X18018Y741323D01*
X16873Y742036D01*
X16865Y742035D01*
X16863Y742041D01*
X15587Y742481D01*
X15580Y742479D01*
X15577Y742483D01*
X14235Y742629D01*
X14232Y742627D01*
X14230Y742629D01*
X8230Y742629D01*
X8227Y742627D01*
X8224Y742629D01*
X6895Y742474D01*
X6889Y742468D01*
X6885Y742471D01*
X5624Y742024D01*
X5619Y742017D01*
X5614Y742019D01*
X4484Y741302D01*
X4481Y741295D01*
X4475Y741296D01*
X3533Y740346D01*
X3532Y740337D01*
X3526Y740337D01*
X2819Y739201D01*
X2820Y739193D01*
X2814Y739191D01*
X2378Y737926D01*
X2380Y737918D01*
X2375Y737916D01*
X2231Y736585D01*
X2235Y736579D01*
X2231Y736575D01*
X2341Y735409D01*
X2346Y735404D01*
X2343Y735400D01*
X2678Y734277D01*
X2684Y734273D01*
X2682Y734269D01*
X3230Y733233D01*
X3236Y733230D01*
X3235Y733225D01*
X3974Y732317D01*
X3981Y732315D01*
X3981Y732310D01*
X4883Y731563D01*
X4891Y731563D01*
X4891Y731558D01*
X5922Y731001D01*
X5929Y731002D01*
X5931Y730997D01*
X7050Y730653D01*
X7057Y730655D01*
X7060Y730651D01*
X8225Y730531D01*
X8228Y730533D01*
X8230Y730531D01*
X14230Y730531D01*
X14233Y730533D01*
G37*
G36*
X659393Y65053D02*
X659393Y65053D01*
X659395Y65051D01*
X660571Y65162D01*
X660576Y65167D01*
X660580Y65164D01*
X661712Y65502D01*
X661716Y65508D01*
X661721Y65506D01*
X662765Y66058D01*
X662768Y66065D01*
X662773Y66063D01*
X663689Y66809D01*
X663690Y66816D01*
X663696Y66816D01*
X664449Y67726D01*
X664449Y67733D01*
X664454Y67734D01*
X665015Y68773D01*
X665014Y68778D01*
X665018Y68780D01*
X665017Y68781D01*
X665019Y68782D01*
X665366Y69911D01*
X665366Y69912D01*
X665367Y69913D01*
X665364Y69917D01*
X665368Y69920D01*
X665489Y71095D01*
X665485Y71102D01*
X665489Y71106D01*
X665332Y72446D01*
X665327Y72452D01*
X665330Y72457D01*
X664879Y73728D01*
X664872Y73733D01*
X664874Y73738D01*
X664152Y74877D01*
X664144Y74880D01*
X664145Y74886D01*
X663187Y75836D01*
X663179Y75837D01*
X663178Y75843D01*
X662033Y76556D01*
X662025Y76555D01*
X662023Y76561D01*
X660747Y77001D01*
X660740Y76999D01*
X660737Y77003D01*
X659395Y77149D01*
X659392Y77147D01*
X659390Y77149D01*
X653390Y77149D01*
X653387Y77147D01*
X653384Y77149D01*
X652055Y76994D01*
X652049Y76988D01*
X652045Y76991D01*
X650784Y76544D01*
X650779Y76537D01*
X650774Y76539D01*
X649644Y75822D01*
X649641Y75815D01*
X649635Y75816D01*
X648693Y74866D01*
X648692Y74857D01*
X648686Y74857D01*
X647979Y73721D01*
X647980Y73713D01*
X647974Y73711D01*
X647538Y72446D01*
X647540Y72438D01*
X647535Y72436D01*
X647391Y71105D01*
X647395Y71099D01*
X647391Y71095D01*
X647501Y69929D01*
X647506Y69924D01*
X647503Y69920D01*
X647838Y68797D01*
X647844Y68793D01*
X647842Y68789D01*
X648390Y67753D01*
X648396Y67750D01*
X648395Y67745D01*
X649134Y66837D01*
X649141Y66835D01*
X649141Y66830D01*
X650043Y66083D01*
X650051Y66083D01*
X650051Y66078D01*
X651082Y65521D01*
X651089Y65522D01*
X651091Y65517D01*
X652210Y65173D01*
X652217Y65175D01*
X652220Y65171D01*
X653385Y65051D01*
X653388Y65053D01*
X653390Y65051D01*
X659390Y65051D01*
X659393Y65053D01*
G37*
G36*
X14233Y65053D02*
X14233Y65053D01*
X14235Y65051D01*
X15411Y65162D01*
X15416Y65167D01*
X15420Y65164D01*
X16552Y65502D01*
X16556Y65508D01*
X16561Y65506D01*
X17605Y66058D01*
X17608Y66065D01*
X17613Y66063D01*
X18529Y66809D01*
X18530Y66816D01*
X18536Y66816D01*
X19289Y67726D01*
X19289Y67733D01*
X19294Y67734D01*
X19855Y68773D01*
X19854Y68778D01*
X19858Y68780D01*
X19857Y68781D01*
X19859Y68782D01*
X20206Y69911D01*
X20206Y69912D01*
X20207Y69913D01*
X20204Y69917D01*
X20208Y69920D01*
X20329Y71095D01*
X20325Y71102D01*
X20329Y71106D01*
X20172Y72446D01*
X20167Y72452D01*
X20170Y72457D01*
X19719Y73728D01*
X19712Y73733D01*
X19714Y73738D01*
X18992Y74877D01*
X18984Y74880D01*
X18985Y74886D01*
X18027Y75836D01*
X18019Y75837D01*
X18018Y75843D01*
X16873Y76556D01*
X16865Y76555D01*
X16863Y76561D01*
X15587Y77001D01*
X15580Y76999D01*
X15577Y77003D01*
X14235Y77149D01*
X14232Y77147D01*
X14230Y77149D01*
X8230Y77149D01*
X8227Y77147D01*
X8224Y77149D01*
X6895Y76994D01*
X6889Y76988D01*
X6885Y76991D01*
X5624Y76544D01*
X5619Y76537D01*
X5614Y76539D01*
X4484Y75822D01*
X4481Y75815D01*
X4475Y75816D01*
X3533Y74866D01*
X3532Y74857D01*
X3526Y74857D01*
X2819Y73721D01*
X2820Y73713D01*
X2814Y73711D01*
X2378Y72446D01*
X2380Y72438D01*
X2375Y72436D01*
X2231Y71105D01*
X2235Y71099D01*
X2231Y71095D01*
X2341Y69929D01*
X2346Y69924D01*
X2343Y69920D01*
X2678Y68797D01*
X2684Y68793D01*
X2682Y68789D01*
X3230Y67753D01*
X3236Y67750D01*
X3235Y67745D01*
X3974Y66837D01*
X3981Y66835D01*
X3981Y66830D01*
X4883Y66083D01*
X4891Y66083D01*
X4891Y66078D01*
X5922Y65521D01*
X5929Y65522D01*
X5931Y65517D01*
X7050Y65173D01*
X7057Y65175D01*
X7060Y65171D01*
X8225Y65051D01*
X8228Y65053D01*
X8230Y65051D01*
X14230Y65051D01*
X14233Y65053D01*
G37*
G36*
X14233Y1163603D02*
X14233Y1163603D01*
X14235Y1163601D01*
X15411Y1163712D01*
X15416Y1163717D01*
X15420Y1163714D01*
X16552Y1164052D01*
X16556Y1164058D01*
X16561Y1164056D01*
X17605Y1164608D01*
X17608Y1164615D01*
X17613Y1164613D01*
X18529Y1165359D01*
X18530Y1165366D01*
X18536Y1165366D01*
X19289Y1166276D01*
X19289Y1166283D01*
X19294Y1166284D01*
X19855Y1167323D01*
X19854Y1167328D01*
X19858Y1167330D01*
X19857Y1167331D01*
X19859Y1167332D01*
X20206Y1168461D01*
X20206Y1168462D01*
X20207Y1168463D01*
X20204Y1168467D01*
X20208Y1168470D01*
X20329Y1169645D01*
X20325Y1169652D01*
X20329Y1169656D01*
X20172Y1170996D01*
X20167Y1171002D01*
X20170Y1171007D01*
X19719Y1172278D01*
X19712Y1172283D01*
X19714Y1172288D01*
X18992Y1173427D01*
X18984Y1173430D01*
X18985Y1173436D01*
X18027Y1174386D01*
X18019Y1174387D01*
X18018Y1174393D01*
X16873Y1175106D01*
X16865Y1175105D01*
X16863Y1175111D01*
X15587Y1175551D01*
X15580Y1175549D01*
X15577Y1175553D01*
X14235Y1175699D01*
X14232Y1175697D01*
X14230Y1175699D01*
X8230Y1175699D01*
X8227Y1175697D01*
X8224Y1175699D01*
X6895Y1175544D01*
X6889Y1175538D01*
X6885Y1175541D01*
X5624Y1175094D01*
X5619Y1175087D01*
X5614Y1175089D01*
X4484Y1174372D01*
X4481Y1174365D01*
X4475Y1174366D01*
X3533Y1173416D01*
X3532Y1173407D01*
X3526Y1173407D01*
X2819Y1172271D01*
X2820Y1172263D01*
X2814Y1172261D01*
X2378Y1170996D01*
X2380Y1170988D01*
X2375Y1170986D01*
X2231Y1169655D01*
X2235Y1169649D01*
X2231Y1169645D01*
X2341Y1168479D01*
X2346Y1168474D01*
X2343Y1168470D01*
X2678Y1167347D01*
X2684Y1167343D01*
X2682Y1167339D01*
X3230Y1166303D01*
X3236Y1166300D01*
X3235Y1166295D01*
X3974Y1165387D01*
X3981Y1165385D01*
X3981Y1165380D01*
X4883Y1164633D01*
X4891Y1164633D01*
X4891Y1164628D01*
X5922Y1164071D01*
X5929Y1164072D01*
X5931Y1164067D01*
X7050Y1163723D01*
X7057Y1163725D01*
X7060Y1163721D01*
X8225Y1163601D01*
X8228Y1163603D01*
X8230Y1163601D01*
X14230Y1163601D01*
X14233Y1163603D01*
G37*
G36*
X749619Y717562D02*
X749619Y717562D01*
X749685Y717564D01*
X749728Y717582D01*
X749775Y717590D01*
X749832Y717624D01*
X749892Y717649D01*
X749927Y717680D01*
X749968Y717705D01*
X750010Y717756D01*
X750058Y717800D01*
X750080Y717842D01*
X750109Y717879D01*
X750130Y717941D01*
X750161Y718000D01*
X750169Y718054D01*
X750181Y718091D01*
X750180Y718131D01*
X750188Y718185D01*
X750188Y721995D01*
X750177Y722060D01*
X750175Y722126D01*
X750157Y722169D01*
X750149Y722216D01*
X750115Y722273D01*
X750090Y722333D01*
X750059Y722368D01*
X750034Y722409D01*
X749983Y722451D01*
X749939Y722499D01*
X749897Y722521D01*
X749860Y722550D01*
X749798Y722571D01*
X749739Y722602D01*
X749685Y722610D01*
X749648Y722622D01*
X749608Y722621D01*
X749554Y722629D01*
X743966Y722629D01*
X743901Y722618D01*
X743835Y722616D01*
X743792Y722598D01*
X743745Y722590D01*
X743688Y722556D01*
X743628Y722531D01*
X743593Y722500D01*
X743552Y722475D01*
X743511Y722424D01*
X743462Y722380D01*
X743440Y722338D01*
X743411Y722301D01*
X743390Y722239D01*
X743359Y722180D01*
X743351Y722126D01*
X743339Y722089D01*
X743339Y722085D01*
X743339Y722084D01*
X743340Y722049D01*
X743332Y721995D01*
X743332Y718185D01*
X743343Y718120D01*
X743345Y718054D01*
X743363Y718011D01*
X743371Y717964D01*
X743405Y717907D01*
X743430Y717847D01*
X743461Y717812D01*
X743486Y717771D01*
X743537Y717730D01*
X743581Y717681D01*
X743623Y717659D01*
X743660Y717630D01*
X743722Y717609D01*
X743781Y717578D01*
X743835Y717570D01*
X743872Y717558D01*
X743912Y717559D01*
X743966Y717551D01*
X749554Y717551D01*
X749619Y717562D01*
G37*
G36*
X104459Y717562D02*
X104459Y717562D01*
X104525Y717564D01*
X104568Y717582D01*
X104615Y717590D01*
X104672Y717624D01*
X104732Y717649D01*
X104767Y717680D01*
X104808Y717705D01*
X104850Y717756D01*
X104898Y717800D01*
X104920Y717842D01*
X104949Y717879D01*
X104970Y717941D01*
X105001Y718000D01*
X105009Y718054D01*
X105021Y718091D01*
X105020Y718131D01*
X105028Y718185D01*
X105028Y721995D01*
X105017Y722060D01*
X105015Y722126D01*
X104997Y722169D01*
X104989Y722216D01*
X104955Y722273D01*
X104930Y722333D01*
X104899Y722368D01*
X104874Y722409D01*
X104823Y722451D01*
X104779Y722499D01*
X104737Y722521D01*
X104700Y722550D01*
X104638Y722571D01*
X104579Y722602D01*
X104525Y722610D01*
X104488Y722622D01*
X104448Y722621D01*
X104394Y722629D01*
X98806Y722629D01*
X98741Y722618D01*
X98675Y722616D01*
X98632Y722598D01*
X98585Y722590D01*
X98528Y722556D01*
X98468Y722531D01*
X98433Y722500D01*
X98392Y722475D01*
X98351Y722424D01*
X98302Y722380D01*
X98280Y722338D01*
X98251Y722301D01*
X98230Y722239D01*
X98199Y722180D01*
X98191Y722126D01*
X98179Y722089D01*
X98179Y722085D01*
X98179Y722084D01*
X98180Y722049D01*
X98172Y721995D01*
X98172Y718185D01*
X98183Y718120D01*
X98185Y718054D01*
X98203Y718011D01*
X98211Y717964D01*
X98245Y717907D01*
X98270Y717847D01*
X98301Y717812D01*
X98326Y717771D01*
X98377Y717730D01*
X98421Y717681D01*
X98463Y717659D01*
X98500Y717630D01*
X98562Y717609D01*
X98621Y717578D01*
X98675Y717570D01*
X98712Y717558D01*
X98752Y717559D01*
X98806Y717551D01*
X104394Y717551D01*
X104459Y717562D01*
G37*
G36*
X749619Y52082D02*
X749619Y52082D01*
X749685Y52084D01*
X749728Y52102D01*
X749775Y52110D01*
X749832Y52144D01*
X749892Y52169D01*
X749927Y52200D01*
X749968Y52225D01*
X750010Y52276D01*
X750058Y52320D01*
X750080Y52362D01*
X750109Y52399D01*
X750130Y52461D01*
X750161Y52520D01*
X750169Y52574D01*
X750181Y52611D01*
X750180Y52651D01*
X750188Y52705D01*
X750188Y56515D01*
X750177Y56580D01*
X750175Y56646D01*
X750157Y56689D01*
X750149Y56736D01*
X750115Y56793D01*
X750090Y56853D01*
X750059Y56888D01*
X750034Y56929D01*
X749983Y56971D01*
X749939Y57019D01*
X749897Y57041D01*
X749860Y57070D01*
X749798Y57091D01*
X749739Y57122D01*
X749685Y57130D01*
X749648Y57142D01*
X749608Y57141D01*
X749554Y57149D01*
X743966Y57149D01*
X743901Y57138D01*
X743835Y57136D01*
X743792Y57118D01*
X743745Y57110D01*
X743688Y57076D01*
X743628Y57051D01*
X743593Y57020D01*
X743552Y56995D01*
X743511Y56944D01*
X743462Y56900D01*
X743440Y56858D01*
X743411Y56821D01*
X743390Y56759D01*
X743359Y56700D01*
X743351Y56646D01*
X743339Y56609D01*
X743339Y56605D01*
X743339Y56604D01*
X743340Y56569D01*
X743332Y56515D01*
X743332Y52705D01*
X743343Y52640D01*
X743345Y52574D01*
X743363Y52531D01*
X743371Y52484D01*
X743405Y52427D01*
X743430Y52367D01*
X743461Y52332D01*
X743486Y52291D01*
X743537Y52250D01*
X743581Y52201D01*
X743623Y52179D01*
X743660Y52150D01*
X743722Y52129D01*
X743781Y52098D01*
X743835Y52090D01*
X743872Y52078D01*
X743912Y52079D01*
X743966Y52071D01*
X749554Y52071D01*
X749619Y52082D01*
G37*
G36*
X104459Y52082D02*
X104459Y52082D01*
X104525Y52084D01*
X104568Y52102D01*
X104615Y52110D01*
X104672Y52144D01*
X104732Y52169D01*
X104767Y52200D01*
X104808Y52225D01*
X104850Y52276D01*
X104898Y52320D01*
X104920Y52362D01*
X104949Y52399D01*
X104970Y52461D01*
X105001Y52520D01*
X105009Y52574D01*
X105021Y52611D01*
X105020Y52651D01*
X105028Y52705D01*
X105028Y56515D01*
X105017Y56580D01*
X105015Y56646D01*
X104997Y56689D01*
X104989Y56736D01*
X104955Y56793D01*
X104930Y56853D01*
X104899Y56888D01*
X104874Y56929D01*
X104823Y56971D01*
X104779Y57019D01*
X104737Y57041D01*
X104700Y57070D01*
X104638Y57091D01*
X104579Y57122D01*
X104525Y57130D01*
X104488Y57142D01*
X104448Y57141D01*
X104394Y57149D01*
X98806Y57149D01*
X98741Y57138D01*
X98675Y57136D01*
X98632Y57118D01*
X98585Y57110D01*
X98528Y57076D01*
X98468Y57051D01*
X98433Y57020D01*
X98392Y56995D01*
X98351Y56944D01*
X98302Y56900D01*
X98280Y56858D01*
X98251Y56821D01*
X98230Y56759D01*
X98199Y56700D01*
X98191Y56646D01*
X98179Y56609D01*
X98179Y56605D01*
X98179Y56604D01*
X98180Y56569D01*
X98172Y56515D01*
X98172Y52705D01*
X98183Y52640D01*
X98185Y52574D01*
X98203Y52531D01*
X98211Y52484D01*
X98245Y52427D01*
X98270Y52367D01*
X98301Y52332D01*
X98326Y52291D01*
X98377Y52250D01*
X98421Y52201D01*
X98463Y52179D01*
X98500Y52150D01*
X98562Y52129D01*
X98621Y52098D01*
X98675Y52090D01*
X98712Y52078D01*
X98752Y52079D01*
X98806Y52071D01*
X104394Y52071D01*
X104459Y52082D01*
G37*
D10*
X58830Y106800D03*
X58830Y111800D03*
D11*
X58830Y82050D03*
X58830Y89800D03*
D10*
X58830Y96800D03*
X58830Y101800D03*
X58830Y121800D03*
X58830Y116800D03*
D11*
X58830Y146550D03*
X58830Y138800D03*
D10*
X58830Y131800D03*
X58830Y126800D03*
D12*
X47780Y143200D03*
X47780Y85400D03*
D13*
X77216Y149216D03*
X77216Y132216D03*
X73914Y73034D03*
X73914Y90034D03*
D14*
X94390Y89589D03*
X100890Y89589D03*
X107390Y89589D03*
X113890Y89589D03*
X113890Y117089D03*
X107390Y117089D03*
X100890Y117089D03*
X94390Y117089D03*
D15*
X104140Y103339D03*
D16*
X95640Y133604D03*
X112640Y133604D03*
D17*
X118110Y22860D03*
D18*
X438754Y285708D03*
D19*
X380930Y241300D03*
X403930Y241300D03*
D16*
X401184Y258064D03*
X384184Y258064D03*
D19*
X403930Y224028D03*
X380930Y224028D03*
D20*
X105410Y341630D03*
X105410Y397510D03*
X143510Y341630D03*
X143510Y397510D03*
D16*
X95640Y148844D03*
X112640Y148844D03*
D21*
X20320Y222504D03*
X28448Y222504D03*
D22*
X11416Y197866D03*
X41416Y197866D03*
D23*
X111536Y176276D03*
X83536Y176276D03*
D13*
X158750Y133740D03*
X158750Y150740D03*
X143764Y150994D03*
X143764Y133994D03*
D24*
X101600Y59690D03*
X101600Y49530D03*
D25*
X101600Y67310D03*
X101600Y41910D03*
D20*
X105410Y262890D03*
X105410Y318770D03*
X143510Y262890D03*
X143510Y318770D03*
D26*
X502158Y114808D03*
D13*
X150876Y92847D03*
X150876Y109847D03*
D27*
X134366Y112062D03*
X134366Y89062D03*
D13*
X151130Y39760D03*
X151130Y56760D03*
X135890Y39760D03*
X135890Y56760D03*
X120650Y39760D03*
X120650Y56760D03*
D28*
X302260Y54940D03*
D29*
X302260Y254940D03*
D30*
X249510Y62440D03*
D31*
X257260Y51440D03*
X257260Y258440D03*
D30*
X325010Y64940D03*
X249510Y67440D03*
X325010Y69940D03*
X249510Y72440D03*
X325010Y74940D03*
X249510Y77440D03*
X325010Y79940D03*
X249510Y82440D03*
X325010Y84940D03*
X249510Y87440D03*
X325010Y89940D03*
X249510Y92440D03*
X325010Y94940D03*
X249510Y97440D03*
X325010Y99940D03*
X249510Y102440D03*
X325010Y104940D03*
X249510Y107440D03*
X325010Y109940D03*
X249510Y112440D03*
X325010Y114940D03*
X249510Y117440D03*
X325010Y139940D03*
X249510Y142440D03*
X325010Y144940D03*
X249510Y147440D03*
X325010Y149940D03*
X249510Y152440D03*
X325010Y154940D03*
X249510Y157440D03*
X325010Y159940D03*
X249510Y162440D03*
X325010Y164940D03*
X249510Y167440D03*
X325010Y169940D03*
X249510Y172440D03*
X325010Y174940D03*
X249510Y177440D03*
X325010Y179940D03*
X249510Y182440D03*
X325010Y184940D03*
X249510Y187440D03*
X325010Y189940D03*
X249510Y192440D03*
X325010Y194940D03*
X249510Y197440D03*
X325010Y199940D03*
X249510Y202440D03*
X325010Y204940D03*
X249510Y207440D03*
X325010Y209940D03*
X249510Y212440D03*
X325010Y214940D03*
X249510Y217440D03*
X325010Y219940D03*
X249510Y222440D03*
X325010Y224940D03*
X249510Y227440D03*
X325010Y229940D03*
X249510Y232440D03*
X325010Y234940D03*
X249510Y237440D03*
X325010Y239940D03*
X249510Y242440D03*
X325010Y244940D03*
X249510Y247440D03*
D32*
X24445Y263090D02*
X17465Y263090D01*
X17465Y270070D01*
X24445Y270070D01*
X24445Y263090D01*
X24445Y267890D02*
X17465Y267890D01*
X17465Y245550D02*
X24445Y245550D01*
X17465Y245550D02*
X17465Y252530D01*
X24445Y252530D01*
X24445Y245550D01*
X24445Y250350D02*
X17465Y250350D01*
X17465Y301190D02*
X24445Y301190D01*
X17465Y301190D02*
X17465Y308170D01*
X24445Y308170D01*
X24445Y301190D01*
X24445Y305990D02*
X17465Y305990D01*
X17465Y283650D02*
X24445Y283650D01*
X17465Y283650D02*
X17465Y290630D01*
X24445Y290630D01*
X24445Y283650D01*
X24445Y288450D02*
X17465Y288450D01*
D13*
X40894Y247786D03*
X40894Y264786D03*
X40640Y286140D03*
X40640Y303140D03*
D21*
X166116Y93980D03*
X174244Y93980D03*
D10*
X58830Y539870D03*
X58830Y544870D03*
D11*
X58830Y515120D03*
X58830Y522870D03*
D10*
X58830Y529870D03*
X58830Y534870D03*
X58830Y554870D03*
X58830Y549870D03*
D11*
X58830Y579620D03*
X58830Y571870D03*
D10*
X58830Y564870D03*
X58830Y559870D03*
D12*
X47780Y576270D03*
X47780Y518470D03*
D13*
X78486Y582540D03*
X78486Y565540D03*
X78486Y506866D03*
X78486Y523866D03*
D33*
X286200Y360270D03*
X297200Y360270D03*
X308200Y360270D03*
X319200Y360270D03*
X330200Y360270D03*
X341200Y360270D03*
X352200Y360270D03*
X363200Y360270D03*
X374200Y360270D03*
X385200Y360270D03*
X396200Y360270D03*
X407200Y360270D03*
X418200Y360270D03*
X429200Y360270D03*
D34*
X457200Y368770D03*
X457200Y379770D03*
X457200Y390770D03*
X457200Y401770D03*
X457200Y412770D03*
X457200Y423770D03*
X457200Y434770D03*
X457200Y445770D03*
X457200Y456770D03*
X457200Y467770D03*
X457200Y478770D03*
X457200Y489770D03*
X457200Y500770D03*
D33*
X429200Y509270D03*
X418200Y509270D03*
X407200Y509270D03*
X396200Y509270D03*
X385200Y509270D03*
X374200Y509270D03*
X363200Y509270D03*
X352200Y509270D03*
X341200Y509270D03*
X330200Y509270D03*
X319200Y509270D03*
X308200Y509270D03*
X297200Y509270D03*
X286200Y509270D03*
D34*
X258200Y500770D03*
X258200Y489770D03*
X258200Y478770D03*
X258200Y467770D03*
X258200Y456770D03*
X258200Y445770D03*
X258200Y434770D03*
X258200Y423770D03*
X258200Y412770D03*
X258200Y401770D03*
X258200Y390770D03*
X258200Y379770D03*
X258200Y368770D03*
D35*
X347200Y424270D03*
X326200Y424270D03*
X305200Y424270D03*
X284200Y424270D03*
X347200Y403770D03*
X326200Y403770D03*
X305200Y403770D03*
X284200Y403770D03*
X347200Y383270D03*
X326200Y383270D03*
X305200Y383270D03*
X284200Y383270D03*
X347200Y486270D03*
X326200Y486270D03*
X305200Y486270D03*
X284200Y486270D03*
X347200Y465770D03*
X326200Y465770D03*
X305200Y465770D03*
X284200Y465770D03*
X347200Y445270D03*
X326200Y445270D03*
X305200Y445270D03*
X284200Y445270D03*
X368200Y445270D03*
X389200Y445270D03*
X410200Y445270D03*
X431200Y445270D03*
X368200Y465770D03*
X389200Y465770D03*
X410200Y465770D03*
X431200Y465770D03*
X368200Y486270D03*
X389200Y486270D03*
X410200Y486270D03*
X431200Y486270D03*
X368200Y383270D03*
X389200Y383270D03*
X410200Y383270D03*
X431200Y383270D03*
X368200Y403770D03*
X389200Y403770D03*
X410200Y403770D03*
X431200Y403770D03*
X368200Y424270D03*
X389200Y424270D03*
X410200Y424270D03*
X431200Y424270D03*
D36*
X220861Y410080D03*
D37*
X220861Y418080D03*
X220861Y426080D03*
D36*
X234061Y410080D03*
D37*
X234061Y418080D03*
X234061Y426080D03*
D38*
X233961Y434080D03*
D36*
X220861Y434080D03*
X220861Y472170D03*
D37*
X220861Y480170D03*
X220861Y488170D03*
D36*
X234061Y472170D03*
D37*
X234061Y480170D03*
X234061Y488170D03*
D38*
X233961Y496170D03*
D36*
X220861Y496170D03*
X490240Y496960D03*
D37*
X490240Y488960D03*
X490240Y480960D03*
D36*
X477040Y496960D03*
D37*
X477040Y488960D03*
X477040Y480960D03*
D38*
X477140Y472960D03*
D36*
X490240Y472960D03*
D39*
X116920Y542290D03*
X126920Y542290D03*
X116920Y554990D03*
X126920Y554990D03*
D40*
X87390Y553640D03*
D41*
X87140Y548640D03*
X87140Y543640D03*
X95740Y543640D03*
X95740Y548640D03*
X95740Y553640D03*
D42*
X532944Y372700D03*
D43*
X486944Y330200D03*
D42*
X532944Y287700D03*
D16*
X334908Y324612D03*
X351908Y324612D03*
X335162Y340614D03*
X352162Y340614D03*
D39*
X298530Y340360D03*
X308530Y340360D03*
D13*
X40640Y396630D03*
X40640Y413630D03*
X40640Y322970D03*
X40640Y339970D03*
D32*
X24445Y407870D02*
X17465Y407870D01*
X17465Y414850D01*
X24445Y414850D01*
X24445Y407870D01*
X24445Y412670D02*
X17465Y412670D01*
X17465Y390330D02*
X24445Y390330D01*
X17465Y390330D02*
X17465Y397310D01*
X24445Y397310D01*
X24445Y390330D01*
X24445Y395130D02*
X17465Y395130D01*
X17465Y334210D02*
X24445Y334210D01*
X17465Y334210D02*
X17465Y341190D01*
X24445Y341190D01*
X24445Y334210D01*
X24445Y339010D02*
X17465Y339010D01*
X17465Y316670D02*
X24445Y316670D01*
X17465Y316670D02*
X17465Y323650D01*
X24445Y323650D01*
X24445Y316670D01*
X24445Y321470D02*
X17465Y321470D01*
D13*
X40640Y361070D03*
X40640Y378070D03*
D32*
X24445Y372310D02*
X17465Y372310D01*
X17465Y379290D01*
X24445Y379290D01*
X24445Y372310D01*
X24445Y377110D02*
X17465Y377110D01*
X17465Y354770D02*
X24445Y354770D01*
X17465Y354770D02*
X17465Y361750D01*
X24445Y361750D01*
X24445Y354770D01*
X24445Y359570D02*
X17465Y359570D01*
D44*
X554910Y518100D03*
X554910Y574100D03*
D45*
X518160Y531100D03*
X518160Y541100D03*
X518160Y551100D03*
X518160Y561100D03*
D25*
X369570Y642874D03*
X394970Y642874D03*
X420370Y642874D03*
X445770Y642874D03*
X471170Y642874D03*
X496570Y642874D03*
X63500Y642620D03*
X88900Y642620D03*
X114300Y642620D03*
X139700Y642620D03*
X165100Y642620D03*
X190500Y642620D03*
X215900Y642620D03*
X241300Y642620D03*
X266700Y642620D03*
X292100Y642620D03*
X317500Y642620D03*
X342900Y642620D03*
D27*
X124714Y442398D03*
X124714Y465398D03*
D13*
X141732Y445652D03*
X141732Y462652D03*
D46*
X66590Y456280D03*
D16*
X334890Y546862D03*
X317890Y546862D03*
X317890Y531622D03*
X334890Y531622D03*
X374532Y530606D03*
X391532Y530606D03*
D17*
X506730Y585470D03*
D47*
X25400Y635000D03*
X543560Y635000D03*
X25400Y25400D03*
X543560Y25400D03*
D48*
X189230Y17780D03*
X201930Y17780D03*
X214630Y17780D03*
X227330Y17780D03*
X176530Y17780D03*
X189230Y30480D03*
X201930Y30480D03*
X214630Y30480D03*
X227330Y30480D03*
X176530Y30480D03*
D19*
X36900Y172720D03*
X13900Y172720D03*
D27*
X22098Y451542D03*
X22098Y474542D03*
D49*
X529082Y228600D03*
X529082Y203200D03*
X529082Y177800D03*
D25*
X355600Y15240D03*
X381000Y15240D03*
X406400Y15240D03*
X431800Y15240D03*
X457200Y15240D03*
X482600Y15240D03*
D10*
X703990Y106800D03*
X703990Y111800D03*
D11*
X703990Y82050D03*
X703990Y89800D03*
D10*
X703990Y96800D03*
X703990Y101800D03*
X703990Y121800D03*
X703990Y116800D03*
D11*
X703990Y146550D03*
X703990Y138800D03*
D10*
X703990Y131800D03*
X703990Y126800D03*
D12*
X692940Y143200D03*
X692940Y85400D03*
D13*
X722376Y149216D03*
X722376Y132216D03*
X719074Y73034D03*
X719074Y90034D03*
D14*
X739550Y89589D03*
X746050Y89589D03*
X752550Y89589D03*
X759050Y89589D03*
X759050Y117089D03*
X752550Y117089D03*
X746050Y117089D03*
X739550Y117089D03*
D15*
X749300Y103339D03*
D16*
X740800Y133604D03*
X757800Y133604D03*
D17*
X763270Y22860D03*
D18*
X1083914Y285708D03*
D19*
X1026090Y241300D03*
X1049090Y241300D03*
D16*
X1046344Y258064D03*
X1029344Y258064D03*
D19*
X1049090Y224028D03*
X1026090Y224028D03*
D20*
X750570Y341630D03*
X750570Y397510D03*
X788670Y341630D03*
X788670Y397510D03*
D16*
X740800Y148844D03*
X757800Y148844D03*
D21*
X665480Y222504D03*
X673608Y222504D03*
D22*
X656576Y197866D03*
X686576Y197866D03*
D23*
X756696Y176276D03*
X728696Y176276D03*
D13*
X803910Y133740D03*
X803910Y150740D03*
X788924Y150994D03*
X788924Y133994D03*
D24*
X746760Y59690D03*
X746760Y49530D03*
D25*
X746760Y67310D03*
X746760Y41910D03*
D20*
X750570Y262890D03*
X750570Y318770D03*
X788670Y262890D03*
X788670Y318770D03*
D26*
X1147318Y114808D03*
D13*
X796036Y92847D03*
X796036Y109847D03*
D27*
X779526Y112062D03*
X779526Y89062D03*
D13*
X796290Y39760D03*
X796290Y56760D03*
X781050Y39760D03*
X781050Y56760D03*
X765810Y39760D03*
X765810Y56760D03*
D28*
X947420Y54940D03*
D29*
X947420Y254940D03*
D30*
X894670Y62440D03*
D31*
X902420Y51440D03*
X902420Y258440D03*
D30*
X970170Y64940D03*
X894670Y67440D03*
X970170Y69940D03*
X894670Y72440D03*
X970170Y74940D03*
X894670Y77440D03*
X970170Y79940D03*
X894670Y82440D03*
X970170Y84940D03*
X894670Y87440D03*
X970170Y89940D03*
X894670Y92440D03*
X970170Y94940D03*
X894670Y97440D03*
X970170Y99940D03*
X894670Y102440D03*
X970170Y104940D03*
X894670Y107440D03*
X970170Y109940D03*
X894670Y112440D03*
X970170Y114940D03*
X894670Y117440D03*
X970170Y139940D03*
X894670Y142440D03*
X970170Y144940D03*
X894670Y147440D03*
X970170Y149940D03*
X894670Y152440D03*
X970170Y154940D03*
X894670Y157440D03*
X970170Y159940D03*
X894670Y162440D03*
X970170Y164940D03*
X894670Y167440D03*
X970170Y169940D03*
X894670Y172440D03*
X970170Y174940D03*
X894670Y177440D03*
X970170Y179940D03*
X894670Y182440D03*
X970170Y184940D03*
X894670Y187440D03*
X970170Y189940D03*
X894670Y192440D03*
X970170Y194940D03*
X894670Y197440D03*
X970170Y199940D03*
X894670Y202440D03*
X970170Y204940D03*
X894670Y207440D03*
X970170Y209940D03*
X894670Y212440D03*
X970170Y214940D03*
X894670Y217440D03*
X970170Y219940D03*
X894670Y222440D03*
X970170Y224940D03*
X894670Y227440D03*
X970170Y229940D03*
X894670Y232440D03*
X970170Y234940D03*
X894670Y237440D03*
X970170Y239940D03*
X894670Y242440D03*
X970170Y244940D03*
X894670Y247440D03*
D32*
X669605Y263090D02*
X662625Y263090D01*
X662625Y270070D01*
X669605Y270070D01*
X669605Y263090D01*
X669605Y267890D02*
X662625Y267890D01*
X662625Y245550D02*
X669605Y245550D01*
X662625Y245550D02*
X662625Y252530D01*
X669605Y252530D01*
X669605Y245550D01*
X669605Y250350D02*
X662625Y250350D01*
X662625Y301190D02*
X669605Y301190D01*
X662625Y301190D02*
X662625Y308170D01*
X669605Y308170D01*
X669605Y301190D01*
X669605Y305990D02*
X662625Y305990D01*
X662625Y283650D02*
X669605Y283650D01*
X662625Y283650D02*
X662625Y290630D01*
X669605Y290630D01*
X669605Y283650D01*
X669605Y288450D02*
X662625Y288450D01*
D13*
X686054Y247786D03*
X686054Y264786D03*
X685800Y286140D03*
X685800Y303140D03*
D21*
X811276Y93980D03*
X819404Y93980D03*
D10*
X703990Y539870D03*
X703990Y544870D03*
D11*
X703990Y515120D03*
X703990Y522870D03*
D10*
X703990Y529870D03*
X703990Y534870D03*
X703990Y554870D03*
X703990Y549870D03*
D11*
X703990Y579620D03*
X703990Y571870D03*
D10*
X703990Y564870D03*
X703990Y559870D03*
D12*
X692940Y576270D03*
X692940Y518470D03*
D13*
X723646Y582540D03*
X723646Y565540D03*
X723646Y506866D03*
X723646Y523866D03*
D33*
X931360Y360270D03*
X942360Y360270D03*
X953360Y360270D03*
X964360Y360270D03*
X975360Y360270D03*
X986360Y360270D03*
X997360Y360270D03*
X1008360Y360270D03*
X1019360Y360270D03*
X1030360Y360270D03*
X1041360Y360270D03*
X1052360Y360270D03*
X1063360Y360270D03*
X1074360Y360270D03*
D34*
X1102360Y368770D03*
X1102360Y379770D03*
X1102360Y390770D03*
X1102360Y401770D03*
X1102360Y412770D03*
X1102360Y423770D03*
X1102360Y434770D03*
X1102360Y445770D03*
X1102360Y456770D03*
X1102360Y467770D03*
X1102360Y478770D03*
X1102360Y489770D03*
X1102360Y500770D03*
D33*
X1074360Y509270D03*
X1063360Y509270D03*
X1052360Y509270D03*
X1041360Y509270D03*
X1030360Y509270D03*
X1019360Y509270D03*
X1008360Y509270D03*
X997360Y509270D03*
X986360Y509270D03*
X975360Y509270D03*
X964360Y509270D03*
X953360Y509270D03*
X942360Y509270D03*
X931360Y509270D03*
D34*
X903360Y500770D03*
X903360Y489770D03*
X903360Y478770D03*
X903360Y467770D03*
X903360Y456770D03*
X903360Y445770D03*
X903360Y434770D03*
X903360Y423770D03*
X903360Y412770D03*
X903360Y401770D03*
X903360Y390770D03*
X903360Y379770D03*
X903360Y368770D03*
D35*
X992360Y424270D03*
X971360Y424270D03*
X950360Y424270D03*
X929360Y424270D03*
X992360Y403770D03*
X971360Y403770D03*
X950360Y403770D03*
X929360Y403770D03*
X992360Y383270D03*
X971360Y383270D03*
X950360Y383270D03*
X929360Y383270D03*
X992360Y486270D03*
X971360Y486270D03*
X950360Y486270D03*
X929360Y486270D03*
X992360Y465770D03*
X971360Y465770D03*
X950360Y465770D03*
X929360Y465770D03*
X992360Y445270D03*
X971360Y445270D03*
X950360Y445270D03*
X929360Y445270D03*
X1013360Y445270D03*
X1034360Y445270D03*
X1055360Y445270D03*
X1076360Y445270D03*
X1013360Y465770D03*
X1034360Y465770D03*
X1055360Y465770D03*
X1076360Y465770D03*
X1013360Y486270D03*
X1034360Y486270D03*
X1055360Y486270D03*
X1076360Y486270D03*
X1013360Y383270D03*
X1034360Y383270D03*
X1055360Y383270D03*
X1076360Y383270D03*
X1013360Y403770D03*
X1034360Y403770D03*
X1055360Y403770D03*
X1076360Y403770D03*
X1013360Y424270D03*
X1034360Y424270D03*
X1055360Y424270D03*
X1076360Y424270D03*
D36*
X866021Y410080D03*
D37*
X866021Y418080D03*
X866021Y426080D03*
D36*
X879221Y410080D03*
D37*
X879221Y418080D03*
X879221Y426080D03*
D38*
X879121Y434080D03*
D36*
X866021Y434080D03*
X866021Y472170D03*
D37*
X866021Y480170D03*
X866021Y488170D03*
D36*
X879221Y472170D03*
D37*
X879221Y480170D03*
X879221Y488170D03*
D38*
X879121Y496170D03*
D36*
X866021Y496170D03*
X1135400Y496960D03*
D37*
X1135400Y488960D03*
X1135400Y480960D03*
D36*
X1122200Y496960D03*
D37*
X1122200Y488960D03*
X1122200Y480960D03*
D38*
X1122300Y472960D03*
D36*
X1135400Y472960D03*
D39*
X762080Y542290D03*
X772080Y542290D03*
X762080Y554990D03*
X772080Y554990D03*
D40*
X732550Y553640D03*
D41*
X732300Y548640D03*
X732300Y543640D03*
X740900Y543640D03*
X740900Y548640D03*
X740900Y553640D03*
D42*
X1178104Y372700D03*
D43*
X1132104Y330200D03*
D42*
X1178104Y287700D03*
D16*
X980068Y324612D03*
X997068Y324612D03*
X980322Y340614D03*
X997322Y340614D03*
D39*
X943690Y340360D03*
X953690Y340360D03*
D13*
X685800Y396630D03*
X685800Y413630D03*
X685800Y322970D03*
X685800Y339970D03*
D32*
X669605Y407870D02*
X662625Y407870D01*
X662625Y414850D01*
X669605Y414850D01*
X669605Y407870D01*
X669605Y412670D02*
X662625Y412670D01*
X662625Y390330D02*
X669605Y390330D01*
X662625Y390330D02*
X662625Y397310D01*
X669605Y397310D01*
X669605Y390330D01*
X669605Y395130D02*
X662625Y395130D01*
X662625Y334210D02*
X669605Y334210D01*
X662625Y334210D02*
X662625Y341190D01*
X669605Y341190D01*
X669605Y334210D01*
X669605Y339010D02*
X662625Y339010D01*
X662625Y316670D02*
X669605Y316670D01*
X662625Y316670D02*
X662625Y323650D01*
X669605Y323650D01*
X669605Y316670D01*
X669605Y321470D02*
X662625Y321470D01*
D13*
X685800Y361070D03*
X685800Y378070D03*
D32*
X669605Y372310D02*
X662625Y372310D01*
X662625Y379290D01*
X669605Y379290D01*
X669605Y372310D01*
X669605Y377110D02*
X662625Y377110D01*
X662625Y354770D02*
X669605Y354770D01*
X662625Y354770D02*
X662625Y361750D01*
X669605Y361750D01*
X669605Y354770D01*
X669605Y359570D02*
X662625Y359570D01*
D44*
X1200070Y518100D03*
X1200070Y574100D03*
D45*
X1163320Y531100D03*
X1163320Y541100D03*
X1163320Y551100D03*
X1163320Y561100D03*
D25*
X1014730Y642874D03*
X1040130Y642874D03*
X1065530Y642874D03*
X1090930Y642874D03*
X1116330Y642874D03*
X1141730Y642874D03*
X708660Y642620D03*
X734060Y642620D03*
X759460Y642620D03*
X784860Y642620D03*
X810260Y642620D03*
X835660Y642620D03*
X861060Y642620D03*
X886460Y642620D03*
X911860Y642620D03*
X937260Y642620D03*
X962660Y642620D03*
X988060Y642620D03*
D27*
X769874Y442398D03*
X769874Y465398D03*
D13*
X786892Y445652D03*
X786892Y462652D03*
D46*
X711750Y456280D03*
D16*
X980050Y546862D03*
X963050Y546862D03*
X963050Y531622D03*
X980050Y531622D03*
X1019692Y530606D03*
X1036692Y530606D03*
D17*
X1151890Y585470D03*
D47*
X670560Y635000D03*
X1188720Y635000D03*
X670560Y25400D03*
X1188720Y25400D03*
D48*
X834390Y17780D03*
X847090Y17780D03*
X859790Y17780D03*
X872490Y17780D03*
X821690Y17780D03*
X834390Y30480D03*
X847090Y30480D03*
X859790Y30480D03*
X872490Y30480D03*
X821690Y30480D03*
D19*
X682060Y172720D03*
X659060Y172720D03*
D27*
X667258Y451542D03*
X667258Y474542D03*
D49*
X1174242Y228600D03*
X1174242Y203200D03*
X1174242Y177800D03*
D25*
X1000760Y15240D03*
X1026160Y15240D03*
X1051560Y15240D03*
X1076960Y15240D03*
X1102360Y15240D03*
X1127760Y15240D03*
D10*
X58830Y772280D03*
X58830Y777280D03*
D11*
X58830Y747530D03*
X58830Y755280D03*
D10*
X58830Y762280D03*
X58830Y767280D03*
X58830Y787280D03*
X58830Y782280D03*
D11*
X58830Y812030D03*
X58830Y804280D03*
D10*
X58830Y797280D03*
X58830Y792280D03*
D12*
X47780Y808680D03*
X47780Y750880D03*
D13*
X77216Y814696D03*
X77216Y797696D03*
X73914Y738514D03*
X73914Y755514D03*
D14*
X94390Y755069D03*
X100890Y755069D03*
X107390Y755069D03*
X113890Y755069D03*
X113890Y782569D03*
X107390Y782569D03*
X100890Y782569D03*
X94390Y782569D03*
D15*
X104140Y768819D03*
D16*
X95640Y799084D03*
X112640Y799084D03*
D17*
X118110Y688340D03*
D18*
X438754Y951188D03*
D19*
X380930Y906780D03*
X403930Y906780D03*
D16*
X401184Y923544D03*
X384184Y923544D03*
D19*
X403930Y889508D03*
X380930Y889508D03*
D20*
X105410Y1007110D03*
X105410Y1062990D03*
X143510Y1007110D03*
X143510Y1062990D03*
D16*
X95640Y814324D03*
X112640Y814324D03*
D21*
X20320Y887984D03*
X28448Y887984D03*
D22*
X11416Y863346D03*
X41416Y863346D03*
D23*
X111536Y841756D03*
X83536Y841756D03*
D13*
X158750Y799220D03*
X158750Y816220D03*
X143764Y816474D03*
X143764Y799474D03*
D24*
X101600Y725170D03*
X101600Y715010D03*
D25*
X101600Y732790D03*
X101600Y707390D03*
D20*
X105410Y928370D03*
X105410Y984250D03*
X143510Y928370D03*
X143510Y984250D03*
D26*
X502158Y780288D03*
D13*
X150876Y758327D03*
X150876Y775327D03*
D27*
X134366Y777542D03*
X134366Y754542D03*
D13*
X151130Y705240D03*
X151130Y722240D03*
X135890Y705240D03*
X135890Y722240D03*
X120650Y705240D03*
X120650Y722240D03*
D28*
X302260Y720420D03*
D29*
X302260Y920420D03*
D30*
X249510Y727920D03*
D31*
X257260Y716920D03*
X257260Y923920D03*
D30*
X325010Y730420D03*
X249510Y732920D03*
X325010Y735420D03*
X249510Y737920D03*
X325010Y740420D03*
X249510Y742920D03*
X325010Y745420D03*
X249510Y747920D03*
X325010Y750420D03*
X249510Y752920D03*
X325010Y755420D03*
X249510Y757920D03*
X325010Y760420D03*
X249510Y762920D03*
X325010Y765420D03*
X249510Y767920D03*
X325010Y770420D03*
X249510Y772920D03*
X325010Y775420D03*
X249510Y777920D03*
X325010Y780420D03*
X249510Y782920D03*
X325010Y805420D03*
X249510Y807920D03*
X325010Y810420D03*
X249510Y812920D03*
X325010Y815420D03*
X249510Y817920D03*
X325010Y820420D03*
X249510Y822920D03*
X325010Y825420D03*
X249510Y827920D03*
X325010Y830420D03*
X249510Y832920D03*
X325010Y835420D03*
X249510Y837920D03*
X325010Y840420D03*
X249510Y842920D03*
X325010Y845420D03*
X249510Y847920D03*
X325010Y850420D03*
X249510Y852920D03*
X325010Y855420D03*
X249510Y857920D03*
X325010Y860420D03*
X249510Y862920D03*
X325010Y865420D03*
X249510Y867920D03*
X325010Y870420D03*
X249510Y872920D03*
X325010Y875420D03*
X249510Y877920D03*
X325010Y880420D03*
X249510Y882920D03*
X325010Y885420D03*
X249510Y887920D03*
X325010Y890420D03*
X249510Y892920D03*
X325010Y895420D03*
X249510Y897920D03*
X325010Y900420D03*
X249510Y902920D03*
X325010Y905420D03*
X249510Y907920D03*
X325010Y910420D03*
X249510Y912920D03*
D32*
X24445Y928570D02*
X17465Y928570D01*
X17465Y935550D01*
X24445Y935550D01*
X24445Y928570D01*
X24445Y933370D02*
X17465Y933370D01*
X17465Y911030D02*
X24445Y911030D01*
X17465Y911030D02*
X17465Y918010D01*
X24445Y918010D01*
X24445Y911030D01*
X24445Y915830D02*
X17465Y915830D01*
X17465Y966670D02*
X24445Y966670D01*
X17465Y966670D02*
X17465Y973650D01*
X24445Y973650D01*
X24445Y966670D01*
X24445Y971470D02*
X17465Y971470D01*
X17465Y949130D02*
X24445Y949130D01*
X17465Y949130D02*
X17465Y956110D01*
X24445Y956110D01*
X24445Y949130D01*
X24445Y953930D02*
X17465Y953930D01*
D13*
X40894Y913266D03*
X40894Y930266D03*
X40640Y951620D03*
X40640Y968620D03*
D21*
X166116Y759460D03*
X174244Y759460D03*
D10*
X58830Y1205350D03*
X58830Y1210350D03*
D11*
X58830Y1180600D03*
X58830Y1188350D03*
D10*
X58830Y1195350D03*
X58830Y1200350D03*
X58830Y1220350D03*
X58830Y1215350D03*
D11*
X58830Y1245100D03*
X58830Y1237350D03*
D10*
X58830Y1230350D03*
X58830Y1225350D03*
D12*
X47780Y1241750D03*
X47780Y1183950D03*
D13*
X78486Y1248020D03*
X78486Y1231020D03*
X78486Y1172346D03*
X78486Y1189346D03*
D33*
X286200Y1025750D03*
X297200Y1025750D03*
X308200Y1025750D03*
X319200Y1025750D03*
X330200Y1025750D03*
X341200Y1025750D03*
X352200Y1025750D03*
X363200Y1025750D03*
X374200Y1025750D03*
X385200Y1025750D03*
X396200Y1025750D03*
X407200Y1025750D03*
X418200Y1025750D03*
X429200Y1025750D03*
D34*
X457200Y1034250D03*
X457200Y1045250D03*
X457200Y1056250D03*
X457200Y1067250D03*
X457200Y1078250D03*
X457200Y1089250D03*
X457200Y1100250D03*
X457200Y1111250D03*
X457200Y1122250D03*
X457200Y1133250D03*
X457200Y1144250D03*
X457200Y1155250D03*
X457200Y1166250D03*
D33*
X429200Y1174750D03*
X418200Y1174750D03*
X407200Y1174750D03*
X396200Y1174750D03*
X385200Y1174750D03*
X374200Y1174750D03*
X363200Y1174750D03*
X352200Y1174750D03*
X341200Y1174750D03*
X330200Y1174750D03*
X319200Y1174750D03*
X308200Y1174750D03*
X297200Y1174750D03*
X286200Y1174750D03*
D34*
X258200Y1166250D03*
X258200Y1155250D03*
X258200Y1144250D03*
X258200Y1133250D03*
X258200Y1122250D03*
X258200Y1111250D03*
X258200Y1100250D03*
X258200Y1089250D03*
X258200Y1078250D03*
X258200Y1067250D03*
X258200Y1056250D03*
X258200Y1045250D03*
X258200Y1034250D03*
D35*
X347200Y1089750D03*
X326200Y1089750D03*
X305200Y1089750D03*
X284200Y1089750D03*
X347200Y1069250D03*
X326200Y1069250D03*
X305200Y1069250D03*
X284200Y1069250D03*
X347200Y1048750D03*
X326200Y1048750D03*
X305200Y1048750D03*
X284200Y1048750D03*
X347200Y1151750D03*
X326200Y1151750D03*
X305200Y1151750D03*
X284200Y1151750D03*
X347200Y1131250D03*
X326200Y1131250D03*
X305200Y1131250D03*
X284200Y1131250D03*
X347200Y1110750D03*
X326200Y1110750D03*
X305200Y1110750D03*
X284200Y1110750D03*
X368200Y1110750D03*
X389200Y1110750D03*
X410200Y1110750D03*
X431200Y1110750D03*
X368200Y1131250D03*
X389200Y1131250D03*
X410200Y1131250D03*
X431200Y1131250D03*
X368200Y1151750D03*
X389200Y1151750D03*
X410200Y1151750D03*
X431200Y1151750D03*
X368200Y1048750D03*
X389200Y1048750D03*
X410200Y1048750D03*
X431200Y1048750D03*
X368200Y1069250D03*
X389200Y1069250D03*
X410200Y1069250D03*
X431200Y1069250D03*
X368200Y1089750D03*
X389200Y1089750D03*
X410200Y1089750D03*
X431200Y1089750D03*
D36*
X220861Y1075560D03*
D37*
X220861Y1083560D03*
X220861Y1091560D03*
D36*
X234061Y1075560D03*
D37*
X234061Y1083560D03*
X234061Y1091560D03*
D38*
X233961Y1099560D03*
D36*
X220861Y1099560D03*
X220861Y1137650D03*
D37*
X220861Y1145650D03*
X220861Y1153650D03*
D36*
X234061Y1137650D03*
D37*
X234061Y1145650D03*
X234061Y1153650D03*
D38*
X233961Y1161650D03*
D36*
X220861Y1161650D03*
X490240Y1162440D03*
D37*
X490240Y1154440D03*
X490240Y1146440D03*
D36*
X477040Y1162440D03*
D37*
X477040Y1154440D03*
X477040Y1146440D03*
D38*
X477140Y1138440D03*
D36*
X490240Y1138440D03*
D39*
X116920Y1207770D03*
X126920Y1207770D03*
X116920Y1220470D03*
X126920Y1220470D03*
D40*
X87390Y1219120D03*
D41*
X87140Y1214120D03*
X87140Y1209120D03*
X95740Y1209120D03*
X95740Y1214120D03*
X95740Y1219120D03*
D42*
X532944Y1038180D03*
D43*
X486944Y995680D03*
D42*
X532944Y953180D03*
D16*
X334908Y990092D03*
X351908Y990092D03*
X335162Y1006094D03*
X352162Y1006094D03*
D39*
X298530Y1005840D03*
X308530Y1005840D03*
D13*
X40640Y1062110D03*
X40640Y1079110D03*
X40640Y988450D03*
X40640Y1005450D03*
D32*
X24445Y1073350D02*
X17465Y1073350D01*
X17465Y1080330D01*
X24445Y1080330D01*
X24445Y1073350D01*
X24445Y1078150D02*
X17465Y1078150D01*
X17465Y1055810D02*
X24445Y1055810D01*
X17465Y1055810D02*
X17465Y1062790D01*
X24445Y1062790D01*
X24445Y1055810D01*
X24445Y1060610D02*
X17465Y1060610D01*
X17465Y999690D02*
X24445Y999690D01*
X17465Y999690D02*
X17465Y1006670D01*
X24445Y1006670D01*
X24445Y999690D01*
X24445Y1004490D02*
X17465Y1004490D01*
X17465Y982150D02*
X24445Y982150D01*
X17465Y982150D02*
X17465Y989130D01*
X24445Y989130D01*
X24445Y982150D01*
X24445Y986950D02*
X17465Y986950D01*
D13*
X40640Y1026550D03*
X40640Y1043550D03*
D32*
X24445Y1037790D02*
X17465Y1037790D01*
X17465Y1044770D01*
X24445Y1044770D01*
X24445Y1037790D01*
X24445Y1042590D02*
X17465Y1042590D01*
X17465Y1020250D02*
X24445Y1020250D01*
X17465Y1020250D02*
X17465Y1027230D01*
X24445Y1027230D01*
X24445Y1020250D01*
X24445Y1025050D02*
X17465Y1025050D01*
D44*
X554910Y1183580D03*
X554910Y1239580D03*
D45*
X518160Y1196580D03*
X518160Y1206580D03*
X518160Y1216580D03*
X518160Y1226580D03*
D25*
X369570Y1308354D03*
X394970Y1308354D03*
X420370Y1308354D03*
X445770Y1308354D03*
X471170Y1308354D03*
X496570Y1308354D03*
X63500Y1308100D03*
X88900Y1308100D03*
X114300Y1308100D03*
X139700Y1308100D03*
X165100Y1308100D03*
X190500Y1308100D03*
X215900Y1308100D03*
X241300Y1308100D03*
X266700Y1308100D03*
X292100Y1308100D03*
X317500Y1308100D03*
X342900Y1308100D03*
D27*
X124714Y1107878D03*
X124714Y1130878D03*
D13*
X141732Y1111132D03*
X141732Y1128132D03*
D46*
X66590Y1121760D03*
D16*
X334890Y1212342D03*
X317890Y1212342D03*
X317890Y1197102D03*
X334890Y1197102D03*
X374532Y1196086D03*
X391532Y1196086D03*
D17*
X506730Y1250950D03*
D47*
X25400Y1300480D03*
X543560Y1300480D03*
X25400Y690880D03*
X543560Y690880D03*
D48*
X189230Y683260D03*
X201930Y683260D03*
X214630Y683260D03*
X227330Y683260D03*
X176530Y683260D03*
X189230Y695960D03*
X201930Y695960D03*
X214630Y695960D03*
X227330Y695960D03*
X176530Y695960D03*
D19*
X36900Y838200D03*
X13900Y838200D03*
D27*
X22098Y1117022D03*
X22098Y1140022D03*
D49*
X529082Y894080D03*
X529082Y868680D03*
X529082Y843280D03*
D25*
X355600Y680720D03*
X381000Y680720D03*
X406400Y680720D03*
X431800Y680720D03*
X457200Y680720D03*
X482600Y680720D03*
D10*
X703990Y772280D03*
X703990Y777280D03*
D11*
X703990Y747530D03*
X703990Y755280D03*
D10*
X703990Y762280D03*
X703990Y767280D03*
X703990Y787280D03*
X703990Y782280D03*
D11*
X703990Y812030D03*
X703990Y804280D03*
D10*
X703990Y797280D03*
X703990Y792280D03*
D12*
X692940Y808680D03*
X692940Y750880D03*
D13*
X722376Y814696D03*
X722376Y797696D03*
X719074Y738514D03*
X719074Y755514D03*
D14*
X739550Y755069D03*
X746050Y755069D03*
X752550Y755069D03*
X759050Y755069D03*
X759050Y782569D03*
X752550Y782569D03*
X746050Y782569D03*
X739550Y782569D03*
D15*
X749300Y768819D03*
D16*
X740800Y799084D03*
X757800Y799084D03*
D17*
X763270Y688340D03*
D18*
X1083914Y951188D03*
D19*
X1026090Y906780D03*
X1049090Y906780D03*
D16*
X1046344Y923544D03*
X1029344Y923544D03*
D19*
X1049090Y889508D03*
X1026090Y889508D03*
D20*
X750570Y1007110D03*
X750570Y1062990D03*
X788670Y1007110D03*
X788670Y1062990D03*
D16*
X740800Y814324D03*
X757800Y814324D03*
D21*
X665480Y887984D03*
X673608Y887984D03*
D22*
X656576Y863346D03*
X686576Y863346D03*
D23*
X756696Y841756D03*
X728696Y841756D03*
D13*
X803910Y799220D03*
X803910Y816220D03*
X788924Y816474D03*
X788924Y799474D03*
D24*
X746760Y725170D03*
X746760Y715010D03*
D25*
X746760Y732790D03*
X746760Y707390D03*
D20*
X750570Y928370D03*
X750570Y984250D03*
X788670Y928370D03*
X788670Y984250D03*
D26*
X1147318Y780288D03*
D13*
X796036Y758327D03*
X796036Y775327D03*
D27*
X779526Y777542D03*
X779526Y754542D03*
D13*
X796290Y705240D03*
X796290Y722240D03*
X781050Y705240D03*
X781050Y722240D03*
X765810Y705240D03*
X765810Y722240D03*
D28*
X947420Y720420D03*
D29*
X947420Y920420D03*
D30*
X894670Y727920D03*
D31*
X902420Y716920D03*
X902420Y923920D03*
D30*
X970170Y730420D03*
X894670Y732920D03*
X970170Y735420D03*
X894670Y737920D03*
X970170Y740420D03*
X894670Y742920D03*
X970170Y745420D03*
X894670Y747920D03*
X970170Y750420D03*
X894670Y752920D03*
X970170Y755420D03*
X894670Y757920D03*
X970170Y760420D03*
X894670Y762920D03*
X970170Y765420D03*
X894670Y767920D03*
X970170Y770420D03*
X894670Y772920D03*
X970170Y775420D03*
X894670Y777920D03*
X970170Y780420D03*
X894670Y782920D03*
X970170Y805420D03*
X894670Y807920D03*
X970170Y810420D03*
X894670Y812920D03*
X970170Y815420D03*
X894670Y817920D03*
X970170Y820420D03*
X894670Y822920D03*
X970170Y825420D03*
X894670Y827920D03*
X970170Y830420D03*
X894670Y832920D03*
X970170Y835420D03*
X894670Y837920D03*
X970170Y840420D03*
X894670Y842920D03*
X970170Y845420D03*
X894670Y847920D03*
X970170Y850420D03*
X894670Y852920D03*
X970170Y855420D03*
X894670Y857920D03*
X970170Y860420D03*
X894670Y862920D03*
X970170Y865420D03*
X894670Y867920D03*
X970170Y870420D03*
X894670Y872920D03*
X970170Y875420D03*
X894670Y877920D03*
X970170Y880420D03*
X894670Y882920D03*
X970170Y885420D03*
X894670Y887920D03*
X970170Y890420D03*
X894670Y892920D03*
X970170Y895420D03*
X894670Y897920D03*
X970170Y900420D03*
X894670Y902920D03*
X970170Y905420D03*
X894670Y907920D03*
X970170Y910420D03*
X894670Y912920D03*
D32*
X669605Y928570D02*
X662625Y928570D01*
X662625Y935550D01*
X669605Y935550D01*
X669605Y928570D01*
X669605Y933370D02*
X662625Y933370D01*
X662625Y911030D02*
X669605Y911030D01*
X662625Y911030D02*
X662625Y918010D01*
X669605Y918010D01*
X669605Y911030D01*
X669605Y915830D02*
X662625Y915830D01*
X662625Y966670D02*
X669605Y966670D01*
X662625Y966670D02*
X662625Y973650D01*
X669605Y973650D01*
X669605Y966670D01*
X669605Y971470D02*
X662625Y971470D01*
X662625Y949130D02*
X669605Y949130D01*
X662625Y949130D02*
X662625Y956110D01*
X669605Y956110D01*
X669605Y949130D01*
X669605Y953930D02*
X662625Y953930D01*
D13*
X686054Y913266D03*
X686054Y930266D03*
X685800Y951620D03*
X685800Y968620D03*
D21*
X811276Y759460D03*
X819404Y759460D03*
D10*
X703990Y1205350D03*
X703990Y1210350D03*
D11*
X703990Y1180600D03*
X703990Y1188350D03*
D10*
X703990Y1195350D03*
X703990Y1200350D03*
X703990Y1220350D03*
X703990Y1215350D03*
D11*
X703990Y1245100D03*
X703990Y1237350D03*
D10*
X703990Y1230350D03*
X703990Y1225350D03*
D12*
X692940Y1241750D03*
X692940Y1183950D03*
D13*
X723646Y1248020D03*
X723646Y1231020D03*
X723646Y1172346D03*
X723646Y1189346D03*
D33*
X931360Y1025750D03*
X942360Y1025750D03*
X953360Y1025750D03*
X964360Y1025750D03*
X975360Y1025750D03*
X986360Y1025750D03*
X997360Y1025750D03*
X1008360Y1025750D03*
X1019360Y1025750D03*
X1030360Y1025750D03*
X1041360Y1025750D03*
X1052360Y1025750D03*
X1063360Y1025750D03*
X1074360Y1025750D03*
D34*
X1102360Y1034250D03*
X1102360Y1045250D03*
X1102360Y1056250D03*
X1102360Y1067250D03*
X1102360Y1078250D03*
X1102360Y1089250D03*
X1102360Y1100250D03*
X1102360Y1111250D03*
X1102360Y1122250D03*
X1102360Y1133250D03*
X1102360Y1144250D03*
X1102360Y1155250D03*
X1102360Y1166250D03*
D33*
X1074360Y1174750D03*
X1063360Y1174750D03*
X1052360Y1174750D03*
X1041360Y1174750D03*
X1030360Y1174750D03*
X1019360Y1174750D03*
X1008360Y1174750D03*
X997360Y1174750D03*
X986360Y1174750D03*
X975360Y1174750D03*
X964360Y1174750D03*
X953360Y1174750D03*
X942360Y1174750D03*
X931360Y1174750D03*
D34*
X903360Y1166250D03*
X903360Y1155250D03*
X903360Y1144250D03*
X903360Y1133250D03*
X903360Y1122250D03*
X903360Y1111250D03*
X903360Y1100250D03*
X903360Y1089250D03*
X903360Y1078250D03*
X903360Y1067250D03*
X903360Y1056250D03*
X903360Y1045250D03*
X903360Y1034250D03*
D35*
X992360Y1089750D03*
X971360Y1089750D03*
X950360Y1089750D03*
X929360Y1089750D03*
X992360Y1069250D03*
X971360Y1069250D03*
X950360Y1069250D03*
X929360Y1069250D03*
X992360Y1048750D03*
X971360Y1048750D03*
X950360Y1048750D03*
X929360Y1048750D03*
X992360Y1151750D03*
X971360Y1151750D03*
X950360Y1151750D03*
X929360Y1151750D03*
X992360Y1131250D03*
X971360Y1131250D03*
X950360Y1131250D03*
X929360Y1131250D03*
X992360Y1110750D03*
X971360Y1110750D03*
X950360Y1110750D03*
X929360Y1110750D03*
X1013360Y1110750D03*
X1034360Y1110750D03*
X1055360Y1110750D03*
X1076360Y1110750D03*
X1013360Y1131250D03*
X1034360Y1131250D03*
X1055360Y1131250D03*
X1076360Y1131250D03*
X1013360Y1151750D03*
X1034360Y1151750D03*
X1055360Y1151750D03*
X1076360Y1151750D03*
X1013360Y1048750D03*
X1034360Y1048750D03*
X1055360Y1048750D03*
X1076360Y1048750D03*
X1013360Y1069250D03*
X1034360Y1069250D03*
X1055360Y1069250D03*
X1076360Y1069250D03*
X1013360Y1089750D03*
X1034360Y1089750D03*
X1055360Y1089750D03*
X1076360Y1089750D03*
D36*
X866021Y1075560D03*
D37*
X866021Y1083560D03*
X866021Y1091560D03*
D36*
X879221Y1075560D03*
D37*
X879221Y1083560D03*
X879221Y1091560D03*
D38*
X879121Y1099560D03*
D36*
X866021Y1099560D03*
X866021Y1137650D03*
D37*
X866021Y1145650D03*
X866021Y1153650D03*
D36*
X879221Y1137650D03*
D37*
X879221Y1145650D03*
X879221Y1153650D03*
D38*
X879121Y1161650D03*
D36*
X866021Y1161650D03*
X1135400Y1162440D03*
D37*
X1135400Y1154440D03*
X1135400Y1146440D03*
D36*
X1122200Y1162440D03*
D37*
X1122200Y1154440D03*
X1122200Y1146440D03*
D38*
X1122300Y1138440D03*
D36*
X1135400Y1138440D03*
D39*
X762080Y1207770D03*
X772080Y1207770D03*
X762080Y1220470D03*
X772080Y1220470D03*
D40*
X732550Y1219120D03*
D41*
X732300Y1214120D03*
X732300Y1209120D03*
X740900Y1209120D03*
X740900Y1214120D03*
X740900Y1219120D03*
D42*
X1178104Y1038180D03*
D43*
X1132104Y995680D03*
D42*
X1178104Y953180D03*
D16*
X980068Y990092D03*
X997068Y990092D03*
X980322Y1006094D03*
X997322Y1006094D03*
D39*
X943690Y1005840D03*
X953690Y1005840D03*
D13*
X685800Y1062110D03*
X685800Y1079110D03*
X685800Y988450D03*
X685800Y1005450D03*
D32*
X669605Y1073350D02*
X662625Y1073350D01*
X662625Y1080330D01*
X669605Y1080330D01*
X669605Y1073350D01*
X669605Y1078150D02*
X662625Y1078150D01*
X662625Y1055810D02*
X669605Y1055810D01*
X662625Y1055810D02*
X662625Y1062790D01*
X669605Y1062790D01*
X669605Y1055810D01*
X669605Y1060610D02*
X662625Y1060610D01*
X662625Y999690D02*
X669605Y999690D01*
X662625Y999690D02*
X662625Y1006670D01*
X669605Y1006670D01*
X669605Y999690D01*
X669605Y1004490D02*
X662625Y1004490D01*
X662625Y982150D02*
X669605Y982150D01*
X662625Y982150D02*
X662625Y989130D01*
X669605Y989130D01*
X669605Y982150D01*
X669605Y986950D02*
X662625Y986950D01*
D13*
X685800Y1026550D03*
X685800Y1043550D03*
D32*
X669605Y1037790D02*
X662625Y1037790D01*
X662625Y1044770D01*
X669605Y1044770D01*
X669605Y1037790D01*
X669605Y1042590D02*
X662625Y1042590D01*
X662625Y1020250D02*
X669605Y1020250D01*
X662625Y1020250D02*
X662625Y1027230D01*
X669605Y1027230D01*
X669605Y1020250D01*
X669605Y1025050D02*
X662625Y1025050D01*
D44*
X1200070Y1183580D03*
X1200070Y1239580D03*
D45*
X1163320Y1196580D03*
X1163320Y1206580D03*
X1163320Y1216580D03*
X1163320Y1226580D03*
D25*
X1014730Y1308354D03*
X1040130Y1308354D03*
X1065530Y1308354D03*
X1090930Y1308354D03*
X1116330Y1308354D03*
X1141730Y1308354D03*
X708660Y1308100D03*
X734060Y1308100D03*
X759460Y1308100D03*
X784860Y1308100D03*
X810260Y1308100D03*
X835660Y1308100D03*
X861060Y1308100D03*
X886460Y1308100D03*
X911860Y1308100D03*
X937260Y1308100D03*
X962660Y1308100D03*
X988060Y1308100D03*
D27*
X769874Y1107878D03*
X769874Y1130878D03*
D13*
X786892Y1111132D03*
X786892Y1128132D03*
D46*
X711750Y1121760D03*
D16*
X980050Y1212342D03*
X963050Y1212342D03*
X963050Y1197102D03*
X980050Y1197102D03*
X1019692Y1196086D03*
X1036692Y1196086D03*
D17*
X1151890Y1250950D03*
D47*
X670560Y1300480D03*
X1188720Y1300480D03*
X670560Y690880D03*
X1188720Y690880D03*
D48*
X834390Y683260D03*
X847090Y683260D03*
X859790Y683260D03*
X872490Y683260D03*
X821690Y683260D03*
X834390Y695960D03*
X847090Y695960D03*
X859790Y695960D03*
X872490Y695960D03*
X821690Y695960D03*
D19*
X682060Y838200D03*
X659060Y838200D03*
D27*
X667258Y1117022D03*
X667258Y1140022D03*
D49*
X1174242Y894080D03*
X1174242Y868680D03*
X1174242Y843280D03*
D25*
X1000760Y680720D03*
X1026160Y680720D03*
X1051560Y680720D03*
X1076960Y680720D03*
X1102360Y680720D03*
X1127760Y680720D03*
D48*
X139700Y1346835D03*
X1287145Y1346835D03*
D50*
X130645Y-20955D02*
X130648Y-20733D01*
X130656Y-20511D01*
X130670Y-20289D01*
X130689Y-20067D01*
X130713Y-19847D01*
X130743Y-19626D01*
X130778Y-19407D01*
X130819Y-19188D01*
X130865Y-18971D01*
X130916Y-18755D01*
X130973Y-18540D01*
X131035Y-18326D01*
X131102Y-18115D01*
X131174Y-17904D01*
X131252Y-17696D01*
X131334Y-17490D01*
X131422Y-17286D01*
X131514Y-17083D01*
X131612Y-16884D01*
X131714Y-16687D01*
X131821Y-16492D01*
X131933Y-16300D01*
X132050Y-16111D01*
X132171Y-15924D01*
X132297Y-15741D01*
X132427Y-15561D01*
X132562Y-15384D01*
X132700Y-15211D01*
X132843Y-15041D01*
X132991Y-14874D01*
X133142Y-14711D01*
X133297Y-14552D01*
X133456Y-14397D01*
X133619Y-14246D01*
X133786Y-14098D01*
X133956Y-13955D01*
X134129Y-13817D01*
X134306Y-13682D01*
X134486Y-13552D01*
X134669Y-13426D01*
X134856Y-13305D01*
X135045Y-13188D01*
X135237Y-13076D01*
X135432Y-12969D01*
X135629Y-12867D01*
X135828Y-12769D01*
X136031Y-12677D01*
X136235Y-12589D01*
X136441Y-12507D01*
X136649Y-12429D01*
X136860Y-12357D01*
X137071Y-12290D01*
X137285Y-12228D01*
X137500Y-12171D01*
X137716Y-12120D01*
X137933Y-12074D01*
X138152Y-12033D01*
X138371Y-11998D01*
X138592Y-11968D01*
X138812Y-11944D01*
X139034Y-11925D01*
X139256Y-11911D01*
X139478Y-11903D01*
X139700Y-11900D01*
X139922Y-11903D01*
X140144Y-11911D01*
X140366Y-11925D01*
X140588Y-11944D01*
X140808Y-11968D01*
X141029Y-11998D01*
X141248Y-12033D01*
X141467Y-12074D01*
X141684Y-12120D01*
X141900Y-12171D01*
X142115Y-12228D01*
X142329Y-12290D01*
X142540Y-12357D01*
X142751Y-12429D01*
X142959Y-12507D01*
X143165Y-12589D01*
X143369Y-12677D01*
X143572Y-12769D01*
X143771Y-12867D01*
X143968Y-12969D01*
X144163Y-13076D01*
X144355Y-13188D01*
X144544Y-13305D01*
X144731Y-13426D01*
X144914Y-13552D01*
X145094Y-13682D01*
X145271Y-13817D01*
X145444Y-13955D01*
X145614Y-14098D01*
X145781Y-14246D01*
X145944Y-14397D01*
X146103Y-14552D01*
X146258Y-14711D01*
X146409Y-14874D01*
X146557Y-15041D01*
X146700Y-15211D01*
X146838Y-15384D01*
X146973Y-15561D01*
X147103Y-15741D01*
X147229Y-15924D01*
X147350Y-16111D01*
X147467Y-16300D01*
X147579Y-16492D01*
X147686Y-16687D01*
X147788Y-16884D01*
X147886Y-17083D01*
X147978Y-17286D01*
X148066Y-17490D01*
X148148Y-17696D01*
X148226Y-17904D01*
X148298Y-18115D01*
X148365Y-18326D01*
X148427Y-18540D01*
X148484Y-18755D01*
X148535Y-18971D01*
X148581Y-19188D01*
X148622Y-19407D01*
X148657Y-19626D01*
X148687Y-19847D01*
X148711Y-20067D01*
X148730Y-20289D01*
X148744Y-20511D01*
X148752Y-20733D01*
X148755Y-20955D01*
X148752Y-21177D01*
X148744Y-21399D01*
X148730Y-21621D01*
X148711Y-21843D01*
X148687Y-22063D01*
X148657Y-22284D01*
X148622Y-22503D01*
X148581Y-22722D01*
X148535Y-22939D01*
X148484Y-23155D01*
X148427Y-23370D01*
X148365Y-23584D01*
X148298Y-23795D01*
X148226Y-24006D01*
X148148Y-24214D01*
X148066Y-24420D01*
X147978Y-24624D01*
X147886Y-24827D01*
X147788Y-25026D01*
X147686Y-25223D01*
X147579Y-25418D01*
X147467Y-25610D01*
X147350Y-25799D01*
X147229Y-25986D01*
X147103Y-26169D01*
X146973Y-26349D01*
X146838Y-26526D01*
X146700Y-26699D01*
X146557Y-26869D01*
X146409Y-27036D01*
X146258Y-27199D01*
X146103Y-27358D01*
X145944Y-27513D01*
X145781Y-27664D01*
X145614Y-27812D01*
X145444Y-27955D01*
X145271Y-28093D01*
X145094Y-28228D01*
X144914Y-28358D01*
X144731Y-28484D01*
X144544Y-28605D01*
X144355Y-28722D01*
X144163Y-28834D01*
X143968Y-28941D01*
X143771Y-29043D01*
X143572Y-29141D01*
X143369Y-29233D01*
X143165Y-29321D01*
X142959Y-29403D01*
X142751Y-29481D01*
X142540Y-29553D01*
X142329Y-29620D01*
X142115Y-29682D01*
X141900Y-29739D01*
X141684Y-29790D01*
X141467Y-29836D01*
X141248Y-29877D01*
X141029Y-29912D01*
X140808Y-29942D01*
X140588Y-29966D01*
X140366Y-29985D01*
X140144Y-29999D01*
X139922Y-30007D01*
X139700Y-30010D01*
X139478Y-30007D01*
X139256Y-29999D01*
X139034Y-29985D01*
X138812Y-29966D01*
X138592Y-29942D01*
X138371Y-29912D01*
X138152Y-29877D01*
X137933Y-29836D01*
X137716Y-29790D01*
X137500Y-29739D01*
X137285Y-29682D01*
X137071Y-29620D01*
X136860Y-29553D01*
X136649Y-29481D01*
X136441Y-29403D01*
X136235Y-29321D01*
X136031Y-29233D01*
X135828Y-29141D01*
X135629Y-29043D01*
X135432Y-28941D01*
X135237Y-28834D01*
X135045Y-28722D01*
X134856Y-28605D01*
X134669Y-28484D01*
X134486Y-28358D01*
X134306Y-28228D01*
X134129Y-28093D01*
X133956Y-27955D01*
X133786Y-27812D01*
X133619Y-27664D01*
X133456Y-27513D01*
X133297Y-27358D01*
X133142Y-27199D01*
X132991Y-27036D01*
X132843Y-26869D01*
X132700Y-26699D01*
X132562Y-26526D01*
X132427Y-26349D01*
X132297Y-26169D01*
X132171Y-25986D01*
X132050Y-25799D01*
X131933Y-25610D01*
X131821Y-25418D01*
X131714Y-25223D01*
X131612Y-25026D01*
X131514Y-24827D01*
X131422Y-24624D01*
X131334Y-24420D01*
X131252Y-24214D01*
X131174Y-24006D01*
X131102Y-23795D01*
X131035Y-23584D01*
X130973Y-23370D01*
X130916Y-23155D01*
X130865Y-22939D01*
X130819Y-22722D01*
X130778Y-22503D01*
X130743Y-22284D01*
X130713Y-22063D01*
X130689Y-21843D01*
X130670Y-21621D01*
X130656Y-21399D01*
X130648Y-21177D01*
X130645Y-20955D01*
D51*
X139700Y-20955D03*
M02*
