G04 EAGLE Gerber RS-274X export*
G75*
%MOMM*%
%FSLAX34Y34*%
%LPD*%
%INSoldermask Bottom*%
%IPPOS*%
%AMOC8*
5,1,8,0,0,1.08239X$1,22.5*%
G01*
%ADD10C,0.853200*%
%ADD11C,0.838200*%
%ADD12C,2.082800*%
%ADD13C,6.203200*%
%ADD14C,1.303200*%
%ADD15C,1.803200*%
%ADD16R,1.473200X0.863600*%
%ADD17C,1.473200*%
%ADD18R,0.838200X1.473200*%
%ADD19C,3.251200*%
%ADD20C,1.203200*%
%ADD21R,4.203200X1.703200*%
%ADD22C,1.270000*%
%ADD23C,1.703200*%

G36*
X664910Y1068082D02*
X664910Y1068082D01*
X664976Y1068084D01*
X665019Y1068102D01*
X665066Y1068110D01*
X665123Y1068144D01*
X665183Y1068169D01*
X665218Y1068200D01*
X665259Y1068225D01*
X665301Y1068276D01*
X665349Y1068320D01*
X665371Y1068362D01*
X665400Y1068399D01*
X665421Y1068461D01*
X665452Y1068520D01*
X665460Y1068574D01*
X665472Y1068611D01*
X665471Y1068651D01*
X665479Y1068705D01*
X665479Y1072515D01*
X665468Y1072580D01*
X665466Y1072646D01*
X665448Y1072689D01*
X665440Y1072736D01*
X665406Y1072793D01*
X665381Y1072853D01*
X665350Y1072888D01*
X665325Y1072929D01*
X665274Y1072971D01*
X665230Y1073019D01*
X665188Y1073041D01*
X665151Y1073070D01*
X665089Y1073091D01*
X665030Y1073122D01*
X664976Y1073130D01*
X664939Y1073142D01*
X664899Y1073141D01*
X664845Y1073149D01*
X662305Y1073149D01*
X662240Y1073138D01*
X662174Y1073136D01*
X662131Y1073118D01*
X662084Y1073110D01*
X662027Y1073076D01*
X661967Y1073051D01*
X661932Y1073020D01*
X661891Y1072995D01*
X661850Y1072944D01*
X661801Y1072900D01*
X661779Y1072858D01*
X661750Y1072821D01*
X661729Y1072759D01*
X661698Y1072700D01*
X661690Y1072646D01*
X661678Y1072609D01*
X661678Y1072605D01*
X661678Y1072604D01*
X661679Y1072569D01*
X661671Y1072515D01*
X661671Y1068705D01*
X661682Y1068640D01*
X661684Y1068574D01*
X661702Y1068531D01*
X661710Y1068484D01*
X661744Y1068427D01*
X661769Y1068367D01*
X661800Y1068332D01*
X661825Y1068291D01*
X661876Y1068250D01*
X661920Y1068201D01*
X661962Y1068179D01*
X661999Y1068150D01*
X662061Y1068129D01*
X662120Y1068098D01*
X662174Y1068090D01*
X662211Y1068078D01*
X662251Y1068079D01*
X662305Y1068071D01*
X664845Y1068071D01*
X664910Y1068082D01*
G37*
G36*
X22290Y1068082D02*
X22290Y1068082D01*
X22356Y1068084D01*
X22399Y1068102D01*
X22446Y1068110D01*
X22503Y1068144D01*
X22563Y1068169D01*
X22598Y1068200D01*
X22639Y1068225D01*
X22681Y1068276D01*
X22729Y1068320D01*
X22751Y1068362D01*
X22780Y1068399D01*
X22801Y1068461D01*
X22832Y1068520D01*
X22840Y1068574D01*
X22852Y1068611D01*
X22851Y1068651D01*
X22859Y1068705D01*
X22859Y1072515D01*
X22848Y1072580D01*
X22846Y1072646D01*
X22828Y1072689D01*
X22820Y1072736D01*
X22786Y1072793D01*
X22761Y1072853D01*
X22730Y1072888D01*
X22705Y1072929D01*
X22654Y1072971D01*
X22610Y1073019D01*
X22568Y1073041D01*
X22531Y1073070D01*
X22469Y1073091D01*
X22410Y1073122D01*
X22356Y1073130D01*
X22319Y1073142D01*
X22279Y1073141D01*
X22225Y1073149D01*
X19685Y1073149D01*
X19620Y1073138D01*
X19554Y1073136D01*
X19511Y1073118D01*
X19464Y1073110D01*
X19407Y1073076D01*
X19347Y1073051D01*
X19312Y1073020D01*
X19271Y1072995D01*
X19230Y1072944D01*
X19181Y1072900D01*
X19159Y1072858D01*
X19130Y1072821D01*
X19109Y1072759D01*
X19078Y1072700D01*
X19070Y1072646D01*
X19058Y1072609D01*
X19058Y1072605D01*
X19058Y1072604D01*
X19059Y1072569D01*
X19051Y1072515D01*
X19051Y1068705D01*
X19062Y1068640D01*
X19064Y1068574D01*
X19082Y1068531D01*
X19090Y1068484D01*
X19124Y1068427D01*
X19149Y1068367D01*
X19180Y1068332D01*
X19205Y1068291D01*
X19256Y1068250D01*
X19300Y1068201D01*
X19342Y1068179D01*
X19379Y1068150D01*
X19441Y1068129D01*
X19500Y1068098D01*
X19554Y1068090D01*
X19591Y1068078D01*
X19631Y1068079D01*
X19685Y1068071D01*
X22225Y1068071D01*
X22290Y1068082D01*
G37*
G36*
X664910Y1032522D02*
X664910Y1032522D01*
X664976Y1032524D01*
X665019Y1032542D01*
X665066Y1032550D01*
X665123Y1032584D01*
X665183Y1032609D01*
X665218Y1032640D01*
X665259Y1032665D01*
X665301Y1032716D01*
X665349Y1032760D01*
X665371Y1032802D01*
X665400Y1032839D01*
X665421Y1032901D01*
X665452Y1032960D01*
X665460Y1033014D01*
X665472Y1033051D01*
X665471Y1033091D01*
X665479Y1033145D01*
X665479Y1036955D01*
X665468Y1037020D01*
X665466Y1037086D01*
X665448Y1037129D01*
X665440Y1037176D01*
X665406Y1037233D01*
X665381Y1037293D01*
X665350Y1037328D01*
X665325Y1037369D01*
X665274Y1037411D01*
X665230Y1037459D01*
X665188Y1037481D01*
X665151Y1037510D01*
X665089Y1037531D01*
X665030Y1037562D01*
X664976Y1037570D01*
X664939Y1037582D01*
X664899Y1037581D01*
X664845Y1037589D01*
X662305Y1037589D01*
X662240Y1037578D01*
X662174Y1037576D01*
X662131Y1037558D01*
X662084Y1037550D01*
X662027Y1037516D01*
X661967Y1037491D01*
X661932Y1037460D01*
X661891Y1037435D01*
X661850Y1037384D01*
X661801Y1037340D01*
X661779Y1037298D01*
X661750Y1037261D01*
X661729Y1037199D01*
X661698Y1037140D01*
X661690Y1037086D01*
X661678Y1037049D01*
X661678Y1037045D01*
X661678Y1037044D01*
X661679Y1037009D01*
X661671Y1036955D01*
X661671Y1033145D01*
X661682Y1033080D01*
X661684Y1033014D01*
X661702Y1032971D01*
X661710Y1032924D01*
X661744Y1032867D01*
X661769Y1032807D01*
X661800Y1032772D01*
X661825Y1032731D01*
X661876Y1032690D01*
X661920Y1032641D01*
X661962Y1032619D01*
X661999Y1032590D01*
X662061Y1032569D01*
X662120Y1032538D01*
X662174Y1032530D01*
X662211Y1032518D01*
X662251Y1032519D01*
X662305Y1032511D01*
X664845Y1032511D01*
X664910Y1032522D01*
G37*
G36*
X22290Y1032522D02*
X22290Y1032522D01*
X22356Y1032524D01*
X22399Y1032542D01*
X22446Y1032550D01*
X22503Y1032584D01*
X22563Y1032609D01*
X22598Y1032640D01*
X22639Y1032665D01*
X22681Y1032716D01*
X22729Y1032760D01*
X22751Y1032802D01*
X22780Y1032839D01*
X22801Y1032901D01*
X22832Y1032960D01*
X22840Y1033014D01*
X22852Y1033051D01*
X22851Y1033091D01*
X22859Y1033145D01*
X22859Y1036955D01*
X22848Y1037020D01*
X22846Y1037086D01*
X22828Y1037129D01*
X22820Y1037176D01*
X22786Y1037233D01*
X22761Y1037293D01*
X22730Y1037328D01*
X22705Y1037369D01*
X22654Y1037411D01*
X22610Y1037459D01*
X22568Y1037481D01*
X22531Y1037510D01*
X22469Y1037531D01*
X22410Y1037562D01*
X22356Y1037570D01*
X22319Y1037582D01*
X22279Y1037581D01*
X22225Y1037589D01*
X19685Y1037589D01*
X19620Y1037578D01*
X19554Y1037576D01*
X19511Y1037558D01*
X19464Y1037550D01*
X19407Y1037516D01*
X19347Y1037491D01*
X19312Y1037460D01*
X19271Y1037435D01*
X19230Y1037384D01*
X19181Y1037340D01*
X19159Y1037298D01*
X19130Y1037261D01*
X19109Y1037199D01*
X19078Y1037140D01*
X19070Y1037086D01*
X19058Y1037049D01*
X19058Y1037045D01*
X19058Y1037044D01*
X19059Y1037009D01*
X19051Y1036955D01*
X19051Y1033145D01*
X19062Y1033080D01*
X19064Y1033014D01*
X19082Y1032971D01*
X19090Y1032924D01*
X19124Y1032867D01*
X19149Y1032807D01*
X19180Y1032772D01*
X19205Y1032731D01*
X19256Y1032690D01*
X19300Y1032641D01*
X19342Y1032619D01*
X19379Y1032590D01*
X19441Y1032569D01*
X19500Y1032538D01*
X19554Y1032530D01*
X19591Y1032518D01*
X19631Y1032519D01*
X19685Y1032511D01*
X22225Y1032511D01*
X22290Y1032522D01*
G37*
G36*
X22290Y994422D02*
X22290Y994422D01*
X22356Y994424D01*
X22399Y994442D01*
X22446Y994450D01*
X22503Y994484D01*
X22563Y994509D01*
X22598Y994540D01*
X22639Y994565D01*
X22681Y994616D01*
X22729Y994660D01*
X22751Y994702D01*
X22780Y994739D01*
X22801Y994801D01*
X22832Y994860D01*
X22840Y994914D01*
X22852Y994951D01*
X22851Y994991D01*
X22859Y995045D01*
X22859Y998855D01*
X22848Y998920D01*
X22846Y998986D01*
X22828Y999029D01*
X22820Y999076D01*
X22786Y999133D01*
X22761Y999193D01*
X22730Y999228D01*
X22705Y999269D01*
X22654Y999311D01*
X22610Y999359D01*
X22568Y999381D01*
X22531Y999410D01*
X22469Y999431D01*
X22410Y999462D01*
X22356Y999470D01*
X22319Y999482D01*
X22279Y999481D01*
X22225Y999489D01*
X19685Y999489D01*
X19620Y999478D01*
X19554Y999476D01*
X19511Y999458D01*
X19464Y999450D01*
X19407Y999416D01*
X19347Y999391D01*
X19312Y999360D01*
X19271Y999335D01*
X19230Y999284D01*
X19181Y999240D01*
X19159Y999198D01*
X19130Y999161D01*
X19109Y999099D01*
X19078Y999040D01*
X19070Y998986D01*
X19058Y998949D01*
X19058Y998945D01*
X19058Y998944D01*
X19059Y998909D01*
X19051Y998855D01*
X19051Y995045D01*
X19062Y994980D01*
X19064Y994914D01*
X19082Y994871D01*
X19090Y994824D01*
X19124Y994767D01*
X19149Y994707D01*
X19180Y994672D01*
X19205Y994631D01*
X19256Y994590D01*
X19300Y994541D01*
X19342Y994519D01*
X19379Y994490D01*
X19441Y994469D01*
X19500Y994438D01*
X19554Y994430D01*
X19591Y994418D01*
X19631Y994419D01*
X19685Y994411D01*
X22225Y994411D01*
X22290Y994422D01*
G37*
G36*
X664910Y994422D02*
X664910Y994422D01*
X664976Y994424D01*
X665019Y994442D01*
X665066Y994450D01*
X665123Y994484D01*
X665183Y994509D01*
X665218Y994540D01*
X665259Y994565D01*
X665301Y994616D01*
X665349Y994660D01*
X665371Y994702D01*
X665400Y994739D01*
X665421Y994801D01*
X665452Y994860D01*
X665460Y994914D01*
X665472Y994951D01*
X665471Y994991D01*
X665479Y995045D01*
X665479Y998855D01*
X665468Y998920D01*
X665466Y998986D01*
X665448Y999029D01*
X665440Y999076D01*
X665406Y999133D01*
X665381Y999193D01*
X665350Y999228D01*
X665325Y999269D01*
X665274Y999311D01*
X665230Y999359D01*
X665188Y999381D01*
X665151Y999410D01*
X665089Y999431D01*
X665030Y999462D01*
X664976Y999470D01*
X664939Y999482D01*
X664899Y999481D01*
X664845Y999489D01*
X662305Y999489D01*
X662240Y999478D01*
X662174Y999476D01*
X662131Y999458D01*
X662084Y999450D01*
X662027Y999416D01*
X661967Y999391D01*
X661932Y999360D01*
X661891Y999335D01*
X661850Y999284D01*
X661801Y999240D01*
X661779Y999198D01*
X661750Y999161D01*
X661729Y999099D01*
X661698Y999040D01*
X661690Y998986D01*
X661678Y998949D01*
X661678Y998945D01*
X661678Y998944D01*
X661679Y998909D01*
X661671Y998855D01*
X661671Y995045D01*
X661682Y994980D01*
X661684Y994914D01*
X661702Y994871D01*
X661710Y994824D01*
X661744Y994767D01*
X661769Y994707D01*
X661800Y994672D01*
X661825Y994631D01*
X661876Y994590D01*
X661920Y994541D01*
X661962Y994519D01*
X661999Y994490D01*
X662061Y994469D01*
X662120Y994438D01*
X662174Y994430D01*
X662211Y994418D01*
X662251Y994419D01*
X662305Y994411D01*
X664845Y994411D01*
X664910Y994422D01*
G37*
G36*
X22290Y958862D02*
X22290Y958862D01*
X22356Y958864D01*
X22399Y958882D01*
X22446Y958890D01*
X22503Y958924D01*
X22563Y958949D01*
X22598Y958980D01*
X22639Y959005D01*
X22681Y959056D01*
X22729Y959100D01*
X22751Y959142D01*
X22780Y959179D01*
X22801Y959241D01*
X22832Y959300D01*
X22840Y959354D01*
X22852Y959391D01*
X22851Y959431D01*
X22859Y959485D01*
X22859Y963295D01*
X22848Y963360D01*
X22846Y963426D01*
X22828Y963469D01*
X22820Y963516D01*
X22786Y963573D01*
X22761Y963633D01*
X22730Y963668D01*
X22705Y963709D01*
X22654Y963751D01*
X22610Y963799D01*
X22568Y963821D01*
X22531Y963850D01*
X22469Y963871D01*
X22410Y963902D01*
X22356Y963910D01*
X22319Y963922D01*
X22279Y963921D01*
X22225Y963929D01*
X19685Y963929D01*
X19620Y963918D01*
X19554Y963916D01*
X19511Y963898D01*
X19464Y963890D01*
X19407Y963856D01*
X19347Y963831D01*
X19312Y963800D01*
X19271Y963775D01*
X19230Y963724D01*
X19181Y963680D01*
X19159Y963638D01*
X19130Y963601D01*
X19109Y963539D01*
X19078Y963480D01*
X19070Y963426D01*
X19058Y963389D01*
X19058Y963385D01*
X19058Y963384D01*
X19059Y963349D01*
X19051Y963295D01*
X19051Y959485D01*
X19062Y959420D01*
X19064Y959354D01*
X19082Y959311D01*
X19090Y959264D01*
X19124Y959207D01*
X19149Y959147D01*
X19180Y959112D01*
X19205Y959071D01*
X19256Y959030D01*
X19300Y958981D01*
X19342Y958959D01*
X19379Y958930D01*
X19441Y958909D01*
X19500Y958878D01*
X19554Y958870D01*
X19591Y958858D01*
X19631Y958859D01*
X19685Y958851D01*
X22225Y958851D01*
X22290Y958862D01*
G37*
G36*
X664910Y958862D02*
X664910Y958862D01*
X664976Y958864D01*
X665019Y958882D01*
X665066Y958890D01*
X665123Y958924D01*
X665183Y958949D01*
X665218Y958980D01*
X665259Y959005D01*
X665301Y959056D01*
X665349Y959100D01*
X665371Y959142D01*
X665400Y959179D01*
X665421Y959241D01*
X665452Y959300D01*
X665460Y959354D01*
X665472Y959391D01*
X665471Y959431D01*
X665479Y959485D01*
X665479Y963295D01*
X665468Y963360D01*
X665466Y963426D01*
X665448Y963469D01*
X665440Y963516D01*
X665406Y963573D01*
X665381Y963633D01*
X665350Y963668D01*
X665325Y963709D01*
X665274Y963751D01*
X665230Y963799D01*
X665188Y963821D01*
X665151Y963850D01*
X665089Y963871D01*
X665030Y963902D01*
X664976Y963910D01*
X664939Y963922D01*
X664899Y963921D01*
X664845Y963929D01*
X662305Y963929D01*
X662240Y963918D01*
X662174Y963916D01*
X662131Y963898D01*
X662084Y963890D01*
X662027Y963856D01*
X661967Y963831D01*
X661932Y963800D01*
X661891Y963775D01*
X661850Y963724D01*
X661801Y963680D01*
X661779Y963638D01*
X661750Y963601D01*
X661729Y963539D01*
X661698Y963480D01*
X661690Y963426D01*
X661678Y963389D01*
X661678Y963385D01*
X661678Y963384D01*
X661679Y963349D01*
X661671Y963295D01*
X661671Y959485D01*
X661682Y959420D01*
X661684Y959354D01*
X661702Y959311D01*
X661710Y959264D01*
X661744Y959207D01*
X661769Y959147D01*
X661800Y959112D01*
X661825Y959071D01*
X661876Y959030D01*
X661920Y958981D01*
X661962Y958959D01*
X661999Y958930D01*
X662061Y958909D01*
X662120Y958878D01*
X662174Y958870D01*
X662211Y958858D01*
X662251Y958859D01*
X662305Y958851D01*
X664845Y958851D01*
X664910Y958862D01*
G37*
G36*
X23560Y920762D02*
X23560Y920762D01*
X23626Y920764D01*
X23669Y920782D01*
X23716Y920790D01*
X23773Y920824D01*
X23833Y920849D01*
X23868Y920880D01*
X23909Y920905D01*
X23951Y920956D01*
X23999Y921000D01*
X24021Y921042D01*
X24050Y921079D01*
X24071Y921141D01*
X24102Y921200D01*
X24110Y921254D01*
X24122Y921291D01*
X24121Y921331D01*
X24129Y921385D01*
X24129Y925195D01*
X24118Y925260D01*
X24116Y925326D01*
X24098Y925369D01*
X24090Y925416D01*
X24056Y925473D01*
X24031Y925533D01*
X24000Y925568D01*
X23975Y925609D01*
X23924Y925651D01*
X23880Y925699D01*
X23838Y925721D01*
X23801Y925750D01*
X23739Y925771D01*
X23680Y925802D01*
X23626Y925810D01*
X23589Y925822D01*
X23549Y925821D01*
X23495Y925829D01*
X20955Y925829D01*
X20890Y925818D01*
X20824Y925816D01*
X20781Y925798D01*
X20734Y925790D01*
X20677Y925756D01*
X20617Y925731D01*
X20582Y925700D01*
X20541Y925675D01*
X20500Y925624D01*
X20451Y925580D01*
X20429Y925538D01*
X20400Y925501D01*
X20379Y925439D01*
X20348Y925380D01*
X20340Y925326D01*
X20328Y925289D01*
X20328Y925285D01*
X20328Y925284D01*
X20329Y925249D01*
X20321Y925195D01*
X20321Y921385D01*
X20332Y921320D01*
X20334Y921254D01*
X20352Y921211D01*
X20360Y921164D01*
X20394Y921107D01*
X20419Y921047D01*
X20450Y921012D01*
X20475Y920971D01*
X20526Y920930D01*
X20570Y920881D01*
X20612Y920859D01*
X20649Y920830D01*
X20711Y920809D01*
X20770Y920778D01*
X20824Y920770D01*
X20861Y920758D01*
X20901Y920759D01*
X20955Y920751D01*
X23495Y920751D01*
X23560Y920762D01*
G37*
G36*
X666180Y920762D02*
X666180Y920762D01*
X666246Y920764D01*
X666289Y920782D01*
X666336Y920790D01*
X666393Y920824D01*
X666453Y920849D01*
X666488Y920880D01*
X666529Y920905D01*
X666571Y920956D01*
X666619Y921000D01*
X666641Y921042D01*
X666670Y921079D01*
X666691Y921141D01*
X666722Y921200D01*
X666730Y921254D01*
X666742Y921291D01*
X666741Y921331D01*
X666749Y921385D01*
X666749Y925195D01*
X666738Y925260D01*
X666736Y925326D01*
X666718Y925369D01*
X666710Y925416D01*
X666676Y925473D01*
X666651Y925533D01*
X666620Y925568D01*
X666595Y925609D01*
X666544Y925651D01*
X666500Y925699D01*
X666458Y925721D01*
X666421Y925750D01*
X666359Y925771D01*
X666300Y925802D01*
X666246Y925810D01*
X666209Y925822D01*
X666169Y925821D01*
X666115Y925829D01*
X663575Y925829D01*
X663510Y925818D01*
X663444Y925816D01*
X663401Y925798D01*
X663354Y925790D01*
X663297Y925756D01*
X663237Y925731D01*
X663202Y925700D01*
X663161Y925675D01*
X663120Y925624D01*
X663071Y925580D01*
X663049Y925538D01*
X663020Y925501D01*
X662999Y925439D01*
X662968Y925380D01*
X662960Y925326D01*
X662948Y925289D01*
X662948Y925285D01*
X662948Y925284D01*
X662949Y925249D01*
X662941Y925195D01*
X662941Y921385D01*
X662952Y921320D01*
X662954Y921254D01*
X662972Y921211D01*
X662980Y921164D01*
X663014Y921107D01*
X663039Y921047D01*
X663070Y921012D01*
X663095Y920971D01*
X663146Y920930D01*
X663190Y920881D01*
X663232Y920859D01*
X663269Y920830D01*
X663331Y920809D01*
X663390Y920778D01*
X663444Y920770D01*
X663481Y920758D01*
X663521Y920759D01*
X663575Y920751D01*
X666115Y920751D01*
X666180Y920762D01*
G37*
G36*
X664910Y402602D02*
X664910Y402602D01*
X664976Y402604D01*
X665019Y402622D01*
X665066Y402630D01*
X665123Y402664D01*
X665183Y402689D01*
X665218Y402720D01*
X665259Y402745D01*
X665301Y402796D01*
X665349Y402840D01*
X665371Y402882D01*
X665400Y402919D01*
X665421Y402981D01*
X665452Y403040D01*
X665460Y403094D01*
X665472Y403131D01*
X665471Y403171D01*
X665479Y403225D01*
X665479Y407035D01*
X665468Y407100D01*
X665466Y407166D01*
X665448Y407209D01*
X665440Y407256D01*
X665406Y407313D01*
X665381Y407373D01*
X665350Y407408D01*
X665325Y407449D01*
X665274Y407491D01*
X665230Y407539D01*
X665188Y407561D01*
X665151Y407590D01*
X665089Y407611D01*
X665030Y407642D01*
X664976Y407650D01*
X664939Y407662D01*
X664899Y407661D01*
X664845Y407669D01*
X662305Y407669D01*
X662240Y407658D01*
X662174Y407656D01*
X662131Y407638D01*
X662084Y407630D01*
X662027Y407596D01*
X661967Y407571D01*
X661932Y407540D01*
X661891Y407515D01*
X661850Y407464D01*
X661801Y407420D01*
X661779Y407378D01*
X661750Y407341D01*
X661729Y407279D01*
X661698Y407220D01*
X661690Y407166D01*
X661678Y407129D01*
X661678Y407125D01*
X661678Y407124D01*
X661679Y407089D01*
X661671Y407035D01*
X661671Y403225D01*
X661682Y403160D01*
X661684Y403094D01*
X661702Y403051D01*
X661710Y403004D01*
X661744Y402947D01*
X661769Y402887D01*
X661800Y402852D01*
X661825Y402811D01*
X661876Y402770D01*
X661920Y402721D01*
X661962Y402699D01*
X661999Y402670D01*
X662061Y402649D01*
X662120Y402618D01*
X662174Y402610D01*
X662211Y402598D01*
X662251Y402599D01*
X662305Y402591D01*
X664845Y402591D01*
X664910Y402602D01*
G37*
G36*
X22290Y402602D02*
X22290Y402602D01*
X22356Y402604D01*
X22399Y402622D01*
X22446Y402630D01*
X22503Y402664D01*
X22563Y402689D01*
X22598Y402720D01*
X22639Y402745D01*
X22681Y402796D01*
X22729Y402840D01*
X22751Y402882D01*
X22780Y402919D01*
X22801Y402981D01*
X22832Y403040D01*
X22840Y403094D01*
X22852Y403131D01*
X22851Y403171D01*
X22859Y403225D01*
X22859Y407035D01*
X22848Y407100D01*
X22846Y407166D01*
X22828Y407209D01*
X22820Y407256D01*
X22786Y407313D01*
X22761Y407373D01*
X22730Y407408D01*
X22705Y407449D01*
X22654Y407491D01*
X22610Y407539D01*
X22568Y407561D01*
X22531Y407590D01*
X22469Y407611D01*
X22410Y407642D01*
X22356Y407650D01*
X22319Y407662D01*
X22279Y407661D01*
X22225Y407669D01*
X19685Y407669D01*
X19620Y407658D01*
X19554Y407656D01*
X19511Y407638D01*
X19464Y407630D01*
X19407Y407596D01*
X19347Y407571D01*
X19312Y407540D01*
X19271Y407515D01*
X19230Y407464D01*
X19181Y407420D01*
X19159Y407378D01*
X19130Y407341D01*
X19109Y407279D01*
X19078Y407220D01*
X19070Y407166D01*
X19058Y407129D01*
X19058Y407125D01*
X19058Y407124D01*
X19059Y407089D01*
X19051Y407035D01*
X19051Y403225D01*
X19062Y403160D01*
X19064Y403094D01*
X19082Y403051D01*
X19090Y403004D01*
X19124Y402947D01*
X19149Y402887D01*
X19180Y402852D01*
X19205Y402811D01*
X19256Y402770D01*
X19300Y402721D01*
X19342Y402699D01*
X19379Y402670D01*
X19441Y402649D01*
X19500Y402618D01*
X19554Y402610D01*
X19591Y402598D01*
X19631Y402599D01*
X19685Y402591D01*
X22225Y402591D01*
X22290Y402602D01*
G37*
G36*
X664910Y367042D02*
X664910Y367042D01*
X664976Y367044D01*
X665019Y367062D01*
X665066Y367070D01*
X665123Y367104D01*
X665183Y367129D01*
X665218Y367160D01*
X665259Y367185D01*
X665301Y367236D01*
X665349Y367280D01*
X665371Y367322D01*
X665400Y367359D01*
X665421Y367421D01*
X665452Y367480D01*
X665460Y367534D01*
X665472Y367571D01*
X665471Y367611D01*
X665479Y367665D01*
X665479Y371475D01*
X665468Y371540D01*
X665466Y371606D01*
X665448Y371649D01*
X665440Y371696D01*
X665406Y371753D01*
X665381Y371813D01*
X665350Y371848D01*
X665325Y371889D01*
X665274Y371931D01*
X665230Y371979D01*
X665188Y372001D01*
X665151Y372030D01*
X665089Y372051D01*
X665030Y372082D01*
X664976Y372090D01*
X664939Y372102D01*
X664899Y372101D01*
X664845Y372109D01*
X662305Y372109D01*
X662240Y372098D01*
X662174Y372096D01*
X662131Y372078D01*
X662084Y372070D01*
X662027Y372036D01*
X661967Y372011D01*
X661932Y371980D01*
X661891Y371955D01*
X661850Y371904D01*
X661801Y371860D01*
X661779Y371818D01*
X661750Y371781D01*
X661729Y371719D01*
X661698Y371660D01*
X661690Y371606D01*
X661678Y371569D01*
X661678Y371565D01*
X661678Y371564D01*
X661679Y371529D01*
X661671Y371475D01*
X661671Y367665D01*
X661682Y367600D01*
X661684Y367534D01*
X661702Y367491D01*
X661710Y367444D01*
X661744Y367387D01*
X661769Y367327D01*
X661800Y367292D01*
X661825Y367251D01*
X661876Y367210D01*
X661920Y367161D01*
X661962Y367139D01*
X661999Y367110D01*
X662061Y367089D01*
X662120Y367058D01*
X662174Y367050D01*
X662211Y367038D01*
X662251Y367039D01*
X662305Y367031D01*
X664845Y367031D01*
X664910Y367042D01*
G37*
G36*
X22290Y367042D02*
X22290Y367042D01*
X22356Y367044D01*
X22399Y367062D01*
X22446Y367070D01*
X22503Y367104D01*
X22563Y367129D01*
X22598Y367160D01*
X22639Y367185D01*
X22681Y367236D01*
X22729Y367280D01*
X22751Y367322D01*
X22780Y367359D01*
X22801Y367421D01*
X22832Y367480D01*
X22840Y367534D01*
X22852Y367571D01*
X22851Y367611D01*
X22859Y367665D01*
X22859Y371475D01*
X22848Y371540D01*
X22846Y371606D01*
X22828Y371649D01*
X22820Y371696D01*
X22786Y371753D01*
X22761Y371813D01*
X22730Y371848D01*
X22705Y371889D01*
X22654Y371931D01*
X22610Y371979D01*
X22568Y372001D01*
X22531Y372030D01*
X22469Y372051D01*
X22410Y372082D01*
X22356Y372090D01*
X22319Y372102D01*
X22279Y372101D01*
X22225Y372109D01*
X19685Y372109D01*
X19620Y372098D01*
X19554Y372096D01*
X19511Y372078D01*
X19464Y372070D01*
X19407Y372036D01*
X19347Y372011D01*
X19312Y371980D01*
X19271Y371955D01*
X19230Y371904D01*
X19181Y371860D01*
X19159Y371818D01*
X19130Y371781D01*
X19109Y371719D01*
X19078Y371660D01*
X19070Y371606D01*
X19058Y371569D01*
X19058Y371565D01*
X19058Y371564D01*
X19059Y371529D01*
X19051Y371475D01*
X19051Y367665D01*
X19062Y367600D01*
X19064Y367534D01*
X19082Y367491D01*
X19090Y367444D01*
X19124Y367387D01*
X19149Y367327D01*
X19180Y367292D01*
X19205Y367251D01*
X19256Y367210D01*
X19300Y367161D01*
X19342Y367139D01*
X19379Y367110D01*
X19441Y367089D01*
X19500Y367058D01*
X19554Y367050D01*
X19591Y367038D01*
X19631Y367039D01*
X19685Y367031D01*
X22225Y367031D01*
X22290Y367042D01*
G37*
G36*
X664910Y328942D02*
X664910Y328942D01*
X664976Y328944D01*
X665019Y328962D01*
X665066Y328970D01*
X665123Y329004D01*
X665183Y329029D01*
X665218Y329060D01*
X665259Y329085D01*
X665301Y329136D01*
X665349Y329180D01*
X665371Y329222D01*
X665400Y329259D01*
X665421Y329321D01*
X665452Y329380D01*
X665460Y329434D01*
X665472Y329471D01*
X665471Y329511D01*
X665479Y329565D01*
X665479Y333375D01*
X665468Y333440D01*
X665466Y333506D01*
X665448Y333549D01*
X665440Y333596D01*
X665406Y333653D01*
X665381Y333713D01*
X665350Y333748D01*
X665325Y333789D01*
X665274Y333831D01*
X665230Y333879D01*
X665188Y333901D01*
X665151Y333930D01*
X665089Y333951D01*
X665030Y333982D01*
X664976Y333990D01*
X664939Y334002D01*
X664899Y334001D01*
X664845Y334009D01*
X662305Y334009D01*
X662240Y333998D01*
X662174Y333996D01*
X662131Y333978D01*
X662084Y333970D01*
X662027Y333936D01*
X661967Y333911D01*
X661932Y333880D01*
X661891Y333855D01*
X661850Y333804D01*
X661801Y333760D01*
X661779Y333718D01*
X661750Y333681D01*
X661729Y333619D01*
X661698Y333560D01*
X661690Y333506D01*
X661678Y333469D01*
X661678Y333465D01*
X661678Y333464D01*
X661679Y333429D01*
X661671Y333375D01*
X661671Y329565D01*
X661682Y329500D01*
X661684Y329434D01*
X661702Y329391D01*
X661710Y329344D01*
X661744Y329287D01*
X661769Y329227D01*
X661800Y329192D01*
X661825Y329151D01*
X661876Y329110D01*
X661920Y329061D01*
X661962Y329039D01*
X661999Y329010D01*
X662061Y328989D01*
X662120Y328958D01*
X662174Y328950D01*
X662211Y328938D01*
X662251Y328939D01*
X662305Y328931D01*
X664845Y328931D01*
X664910Y328942D01*
G37*
G36*
X22290Y328942D02*
X22290Y328942D01*
X22356Y328944D01*
X22399Y328962D01*
X22446Y328970D01*
X22503Y329004D01*
X22563Y329029D01*
X22598Y329060D01*
X22639Y329085D01*
X22681Y329136D01*
X22729Y329180D01*
X22751Y329222D01*
X22780Y329259D01*
X22801Y329321D01*
X22832Y329380D01*
X22840Y329434D01*
X22852Y329471D01*
X22851Y329511D01*
X22859Y329565D01*
X22859Y333375D01*
X22848Y333440D01*
X22846Y333506D01*
X22828Y333549D01*
X22820Y333596D01*
X22786Y333653D01*
X22761Y333713D01*
X22730Y333748D01*
X22705Y333789D01*
X22654Y333831D01*
X22610Y333879D01*
X22568Y333901D01*
X22531Y333930D01*
X22469Y333951D01*
X22410Y333982D01*
X22356Y333990D01*
X22319Y334002D01*
X22279Y334001D01*
X22225Y334009D01*
X19685Y334009D01*
X19620Y333998D01*
X19554Y333996D01*
X19511Y333978D01*
X19464Y333970D01*
X19407Y333936D01*
X19347Y333911D01*
X19312Y333880D01*
X19271Y333855D01*
X19230Y333804D01*
X19181Y333760D01*
X19159Y333718D01*
X19130Y333681D01*
X19109Y333619D01*
X19078Y333560D01*
X19070Y333506D01*
X19058Y333469D01*
X19058Y333465D01*
X19058Y333464D01*
X19059Y333429D01*
X19051Y333375D01*
X19051Y329565D01*
X19062Y329500D01*
X19064Y329434D01*
X19082Y329391D01*
X19090Y329344D01*
X19124Y329287D01*
X19149Y329227D01*
X19180Y329192D01*
X19205Y329151D01*
X19256Y329110D01*
X19300Y329061D01*
X19342Y329039D01*
X19379Y329010D01*
X19441Y328989D01*
X19500Y328958D01*
X19554Y328950D01*
X19591Y328938D01*
X19631Y328939D01*
X19685Y328931D01*
X22225Y328931D01*
X22290Y328942D01*
G37*
G36*
X664910Y293382D02*
X664910Y293382D01*
X664976Y293384D01*
X665019Y293402D01*
X665066Y293410D01*
X665123Y293444D01*
X665183Y293469D01*
X665218Y293500D01*
X665259Y293525D01*
X665301Y293576D01*
X665349Y293620D01*
X665371Y293662D01*
X665400Y293699D01*
X665421Y293761D01*
X665452Y293820D01*
X665460Y293874D01*
X665472Y293911D01*
X665471Y293951D01*
X665479Y294005D01*
X665479Y297815D01*
X665468Y297880D01*
X665466Y297946D01*
X665448Y297989D01*
X665440Y298036D01*
X665406Y298093D01*
X665381Y298153D01*
X665350Y298188D01*
X665325Y298229D01*
X665274Y298271D01*
X665230Y298319D01*
X665188Y298341D01*
X665151Y298370D01*
X665089Y298391D01*
X665030Y298422D01*
X664976Y298430D01*
X664939Y298442D01*
X664899Y298441D01*
X664845Y298449D01*
X662305Y298449D01*
X662240Y298438D01*
X662174Y298436D01*
X662131Y298418D01*
X662084Y298410D01*
X662027Y298376D01*
X661967Y298351D01*
X661932Y298320D01*
X661891Y298295D01*
X661850Y298244D01*
X661801Y298200D01*
X661779Y298158D01*
X661750Y298121D01*
X661729Y298059D01*
X661698Y298000D01*
X661690Y297946D01*
X661678Y297909D01*
X661678Y297905D01*
X661678Y297904D01*
X661679Y297869D01*
X661671Y297815D01*
X661671Y294005D01*
X661682Y293940D01*
X661684Y293874D01*
X661702Y293831D01*
X661710Y293784D01*
X661744Y293727D01*
X661769Y293667D01*
X661800Y293632D01*
X661825Y293591D01*
X661876Y293550D01*
X661920Y293501D01*
X661962Y293479D01*
X661999Y293450D01*
X662061Y293429D01*
X662120Y293398D01*
X662174Y293390D01*
X662211Y293378D01*
X662251Y293379D01*
X662305Y293371D01*
X664845Y293371D01*
X664910Y293382D01*
G37*
G36*
X22290Y293382D02*
X22290Y293382D01*
X22356Y293384D01*
X22399Y293402D01*
X22446Y293410D01*
X22503Y293444D01*
X22563Y293469D01*
X22598Y293500D01*
X22639Y293525D01*
X22681Y293576D01*
X22729Y293620D01*
X22751Y293662D01*
X22780Y293699D01*
X22801Y293761D01*
X22832Y293820D01*
X22840Y293874D01*
X22852Y293911D01*
X22851Y293951D01*
X22859Y294005D01*
X22859Y297815D01*
X22848Y297880D01*
X22846Y297946D01*
X22828Y297989D01*
X22820Y298036D01*
X22786Y298093D01*
X22761Y298153D01*
X22730Y298188D01*
X22705Y298229D01*
X22654Y298271D01*
X22610Y298319D01*
X22568Y298341D01*
X22531Y298370D01*
X22469Y298391D01*
X22410Y298422D01*
X22356Y298430D01*
X22319Y298442D01*
X22279Y298441D01*
X22225Y298449D01*
X19685Y298449D01*
X19620Y298438D01*
X19554Y298436D01*
X19511Y298418D01*
X19464Y298410D01*
X19407Y298376D01*
X19347Y298351D01*
X19312Y298320D01*
X19271Y298295D01*
X19230Y298244D01*
X19181Y298200D01*
X19159Y298158D01*
X19130Y298121D01*
X19109Y298059D01*
X19078Y298000D01*
X19070Y297946D01*
X19058Y297909D01*
X19058Y297905D01*
X19058Y297904D01*
X19059Y297869D01*
X19051Y297815D01*
X19051Y294005D01*
X19062Y293940D01*
X19064Y293874D01*
X19082Y293831D01*
X19090Y293784D01*
X19124Y293727D01*
X19149Y293667D01*
X19180Y293632D01*
X19205Y293591D01*
X19256Y293550D01*
X19300Y293501D01*
X19342Y293479D01*
X19379Y293450D01*
X19441Y293429D01*
X19500Y293398D01*
X19554Y293390D01*
X19591Y293378D01*
X19631Y293379D01*
X19685Y293371D01*
X22225Y293371D01*
X22290Y293382D01*
G37*
G36*
X666180Y255282D02*
X666180Y255282D01*
X666246Y255284D01*
X666289Y255302D01*
X666336Y255310D01*
X666393Y255344D01*
X666453Y255369D01*
X666488Y255400D01*
X666529Y255425D01*
X666571Y255476D01*
X666619Y255520D01*
X666641Y255562D01*
X666670Y255599D01*
X666691Y255661D01*
X666722Y255720D01*
X666730Y255774D01*
X666742Y255811D01*
X666741Y255851D01*
X666749Y255905D01*
X666749Y259715D01*
X666738Y259780D01*
X666736Y259846D01*
X666718Y259889D01*
X666710Y259936D01*
X666676Y259993D01*
X666651Y260053D01*
X666620Y260088D01*
X666595Y260129D01*
X666544Y260171D01*
X666500Y260219D01*
X666458Y260241D01*
X666421Y260270D01*
X666359Y260291D01*
X666300Y260322D01*
X666246Y260330D01*
X666209Y260342D01*
X666169Y260341D01*
X666115Y260349D01*
X663575Y260349D01*
X663510Y260338D01*
X663444Y260336D01*
X663401Y260318D01*
X663354Y260310D01*
X663297Y260276D01*
X663237Y260251D01*
X663202Y260220D01*
X663161Y260195D01*
X663120Y260144D01*
X663071Y260100D01*
X663049Y260058D01*
X663020Y260021D01*
X662999Y259959D01*
X662968Y259900D01*
X662960Y259846D01*
X662948Y259809D01*
X662948Y259805D01*
X662948Y259804D01*
X662949Y259769D01*
X662941Y259715D01*
X662941Y255905D01*
X662952Y255840D01*
X662954Y255774D01*
X662972Y255731D01*
X662980Y255684D01*
X663014Y255627D01*
X663039Y255567D01*
X663070Y255532D01*
X663095Y255491D01*
X663146Y255450D01*
X663190Y255401D01*
X663232Y255379D01*
X663269Y255350D01*
X663331Y255329D01*
X663390Y255298D01*
X663444Y255290D01*
X663481Y255278D01*
X663521Y255279D01*
X663575Y255271D01*
X666115Y255271D01*
X666180Y255282D01*
G37*
G36*
X23560Y255282D02*
X23560Y255282D01*
X23626Y255284D01*
X23669Y255302D01*
X23716Y255310D01*
X23773Y255344D01*
X23833Y255369D01*
X23868Y255400D01*
X23909Y255425D01*
X23951Y255476D01*
X23999Y255520D01*
X24021Y255562D01*
X24050Y255599D01*
X24071Y255661D01*
X24102Y255720D01*
X24110Y255774D01*
X24122Y255811D01*
X24121Y255851D01*
X24129Y255905D01*
X24129Y259715D01*
X24118Y259780D01*
X24116Y259846D01*
X24098Y259889D01*
X24090Y259936D01*
X24056Y259993D01*
X24031Y260053D01*
X24000Y260088D01*
X23975Y260129D01*
X23924Y260171D01*
X23880Y260219D01*
X23838Y260241D01*
X23801Y260270D01*
X23739Y260291D01*
X23680Y260322D01*
X23626Y260330D01*
X23589Y260342D01*
X23549Y260341D01*
X23495Y260349D01*
X20955Y260349D01*
X20890Y260338D01*
X20824Y260336D01*
X20781Y260318D01*
X20734Y260310D01*
X20677Y260276D01*
X20617Y260251D01*
X20582Y260220D01*
X20541Y260195D01*
X20500Y260144D01*
X20451Y260100D01*
X20429Y260058D01*
X20400Y260021D01*
X20379Y259959D01*
X20348Y259900D01*
X20340Y259846D01*
X20328Y259809D01*
X20328Y259805D01*
X20328Y259804D01*
X20329Y259769D01*
X20321Y259715D01*
X20321Y255905D01*
X20332Y255840D01*
X20334Y255774D01*
X20352Y255731D01*
X20360Y255684D01*
X20394Y255627D01*
X20419Y255567D01*
X20450Y255532D01*
X20475Y255491D01*
X20526Y255450D01*
X20570Y255401D01*
X20612Y255379D01*
X20649Y255350D01*
X20711Y255329D01*
X20770Y255298D01*
X20824Y255290D01*
X20861Y255278D01*
X20901Y255279D01*
X20955Y255271D01*
X23495Y255271D01*
X23560Y255282D01*
G37*
D10*
X47780Y143200D03*
X47780Y85400D03*
D11*
X118110Y22860D03*
D12*
X101600Y67310D03*
X101600Y41910D03*
D13*
X502158Y114808D03*
D14*
X302260Y54940D03*
D15*
X302260Y254940D03*
D16*
X22225Y252603D03*
X22225Y263017D03*
X20955Y290703D03*
X20955Y301117D03*
D17*
X368300Y228600D03*
X254000Y12700D03*
D10*
X47780Y576270D03*
X47780Y518470D03*
D16*
X20955Y336677D03*
X20955Y326263D03*
X20955Y410337D03*
X20955Y399923D03*
X20955Y374777D03*
X20955Y364363D03*
D18*
X231571Y452190D03*
X223443Y452190D03*
D12*
X369570Y642874D03*
X394970Y642874D03*
X420370Y642874D03*
X445770Y642874D03*
X471170Y642874D03*
X496570Y642874D03*
X63500Y642620D03*
X88900Y642620D03*
X114300Y642620D03*
X139700Y642620D03*
X165100Y642620D03*
X190500Y642620D03*
X215900Y642620D03*
X241300Y642620D03*
X266700Y642620D03*
X292100Y642620D03*
X317500Y642620D03*
X342900Y642620D03*
D11*
X506730Y585470D03*
D19*
X25400Y635000D03*
X543560Y635000D03*
X25400Y25400D03*
X543560Y25400D03*
D20*
X189230Y17780D03*
X201930Y17780D03*
X214630Y17780D03*
X227330Y17780D03*
X176530Y17780D03*
X189230Y30480D03*
X201930Y30480D03*
X214630Y30480D03*
X227330Y30480D03*
X176530Y30480D03*
D21*
X529082Y228600D03*
X529082Y177800D03*
D17*
X101600Y482600D03*
D12*
X355600Y15240D03*
X381000Y15240D03*
X406400Y15240D03*
X431800Y15240D03*
X457200Y15240D03*
X482600Y15240D03*
D10*
X690400Y143200D03*
X690400Y85400D03*
D11*
X760730Y22860D03*
D12*
X744220Y67310D03*
X744220Y41910D03*
D13*
X1144778Y114808D03*
D14*
X944880Y54940D03*
D15*
X944880Y254940D03*
D16*
X664845Y252603D03*
X664845Y263017D03*
X663575Y290703D03*
X663575Y301117D03*
D17*
X1010920Y228600D03*
X896620Y12700D03*
D10*
X690400Y576270D03*
X690400Y518470D03*
D16*
X663575Y336677D03*
X663575Y326263D03*
X663575Y410337D03*
X663575Y399923D03*
X663575Y374777D03*
X663575Y364363D03*
D18*
X874191Y452190D03*
X866063Y452190D03*
D12*
X1012190Y642874D03*
X1037590Y642874D03*
X1062990Y642874D03*
X1088390Y642874D03*
X1113790Y642874D03*
X1139190Y642874D03*
X706120Y642620D03*
X731520Y642620D03*
X756920Y642620D03*
X782320Y642620D03*
X807720Y642620D03*
X833120Y642620D03*
X858520Y642620D03*
X883920Y642620D03*
X909320Y642620D03*
X934720Y642620D03*
X960120Y642620D03*
X985520Y642620D03*
D11*
X1149350Y585470D03*
D19*
X668020Y635000D03*
X1186180Y635000D03*
X668020Y25400D03*
X1186180Y25400D03*
D20*
X831850Y17780D03*
X844550Y17780D03*
X857250Y17780D03*
X869950Y17780D03*
X819150Y17780D03*
X831850Y30480D03*
X844550Y30480D03*
X857250Y30480D03*
X869950Y30480D03*
X819150Y30480D03*
D21*
X1171702Y228600D03*
X1171702Y177800D03*
D17*
X744220Y482600D03*
D12*
X998220Y15240D03*
X1023620Y15240D03*
X1049020Y15240D03*
X1074420Y15240D03*
X1099820Y15240D03*
X1125220Y15240D03*
D10*
X47780Y808680D03*
X47780Y750880D03*
D11*
X118110Y688340D03*
D12*
X101600Y732790D03*
X101600Y707390D03*
D13*
X502158Y780288D03*
D14*
X302260Y720420D03*
D15*
X302260Y920420D03*
D16*
X22225Y918083D03*
X22225Y928497D03*
X20955Y956183D03*
X20955Y966597D03*
D17*
X368300Y894080D03*
X254000Y678180D03*
D10*
X47780Y1241750D03*
X47780Y1183950D03*
D16*
X20955Y1002157D03*
X20955Y991743D03*
X20955Y1075817D03*
X20955Y1065403D03*
X20955Y1040257D03*
X20955Y1029843D03*
D18*
X231571Y1117670D03*
X223443Y1117670D03*
D12*
X369570Y1308354D03*
X394970Y1308354D03*
X420370Y1308354D03*
X445770Y1308354D03*
X471170Y1308354D03*
X496570Y1308354D03*
X63500Y1308100D03*
X88900Y1308100D03*
X114300Y1308100D03*
X139700Y1308100D03*
X165100Y1308100D03*
X190500Y1308100D03*
X215900Y1308100D03*
X241300Y1308100D03*
X266700Y1308100D03*
X292100Y1308100D03*
X317500Y1308100D03*
X342900Y1308100D03*
D11*
X506730Y1250950D03*
D19*
X25400Y1300480D03*
X543560Y1300480D03*
X25400Y690880D03*
X543560Y690880D03*
D20*
X189230Y683260D03*
X201930Y683260D03*
X214630Y683260D03*
X227330Y683260D03*
X176530Y683260D03*
X189230Y695960D03*
X201930Y695960D03*
X214630Y695960D03*
X227330Y695960D03*
X176530Y695960D03*
D21*
X529082Y894080D03*
X529082Y843280D03*
D17*
X101600Y1148080D03*
D12*
X355600Y680720D03*
X381000Y680720D03*
X406400Y680720D03*
X431800Y680720D03*
X457200Y680720D03*
X482600Y680720D03*
D10*
X690400Y808680D03*
X690400Y750880D03*
D11*
X760730Y688340D03*
D12*
X744220Y732790D03*
X744220Y707390D03*
D13*
X1144778Y780288D03*
D14*
X944880Y720420D03*
D15*
X944880Y920420D03*
D16*
X664845Y918083D03*
X664845Y928497D03*
X663575Y956183D03*
X663575Y966597D03*
D17*
X1010920Y894080D03*
X896620Y678180D03*
D10*
X690400Y1241750D03*
X690400Y1183950D03*
D16*
X663575Y1002157D03*
X663575Y991743D03*
X663575Y1075817D03*
X663575Y1065403D03*
X663575Y1040257D03*
X663575Y1029843D03*
D18*
X874191Y1117670D03*
X866063Y1117670D03*
D12*
X1012190Y1308354D03*
X1037590Y1308354D03*
X1062990Y1308354D03*
X1088390Y1308354D03*
X1113790Y1308354D03*
X1139190Y1308354D03*
X706120Y1308100D03*
X731520Y1308100D03*
X756920Y1308100D03*
X782320Y1308100D03*
X807720Y1308100D03*
X833120Y1308100D03*
X858520Y1308100D03*
X883920Y1308100D03*
X909320Y1308100D03*
X934720Y1308100D03*
X960120Y1308100D03*
X985520Y1308100D03*
D11*
X1149350Y1250950D03*
D19*
X668020Y1300480D03*
X1186180Y1300480D03*
X668020Y690880D03*
X1186180Y690880D03*
D20*
X831850Y683260D03*
X844550Y683260D03*
X857250Y683260D03*
X869950Y683260D03*
X819150Y683260D03*
X831850Y695960D03*
X844550Y695960D03*
X857250Y695960D03*
X869950Y695960D03*
X819150Y695960D03*
D21*
X1171702Y894080D03*
X1171702Y843280D03*
D17*
X744220Y1148080D03*
D12*
X998220Y680720D03*
X1023620Y680720D03*
X1049020Y680720D03*
X1074420Y680720D03*
X1099820Y680720D03*
X1125220Y680720D03*
D20*
X137160Y1346835D03*
X1279525Y1346835D03*
D22*
X128105Y-20955D02*
X128108Y-20733D01*
X128116Y-20511D01*
X128130Y-20289D01*
X128149Y-20067D01*
X128173Y-19847D01*
X128203Y-19626D01*
X128238Y-19407D01*
X128279Y-19188D01*
X128325Y-18971D01*
X128376Y-18755D01*
X128433Y-18540D01*
X128495Y-18326D01*
X128562Y-18115D01*
X128634Y-17904D01*
X128712Y-17696D01*
X128794Y-17490D01*
X128882Y-17286D01*
X128974Y-17083D01*
X129072Y-16884D01*
X129174Y-16687D01*
X129281Y-16492D01*
X129393Y-16300D01*
X129510Y-16111D01*
X129631Y-15924D01*
X129757Y-15741D01*
X129887Y-15561D01*
X130022Y-15384D01*
X130160Y-15211D01*
X130303Y-15041D01*
X130451Y-14874D01*
X130602Y-14711D01*
X130757Y-14552D01*
X130916Y-14397D01*
X131079Y-14246D01*
X131246Y-14098D01*
X131416Y-13955D01*
X131589Y-13817D01*
X131766Y-13682D01*
X131946Y-13552D01*
X132129Y-13426D01*
X132316Y-13305D01*
X132505Y-13188D01*
X132697Y-13076D01*
X132892Y-12969D01*
X133089Y-12867D01*
X133288Y-12769D01*
X133491Y-12677D01*
X133695Y-12589D01*
X133901Y-12507D01*
X134109Y-12429D01*
X134320Y-12357D01*
X134531Y-12290D01*
X134745Y-12228D01*
X134960Y-12171D01*
X135176Y-12120D01*
X135393Y-12074D01*
X135612Y-12033D01*
X135831Y-11998D01*
X136052Y-11968D01*
X136272Y-11944D01*
X136494Y-11925D01*
X136716Y-11911D01*
X136938Y-11903D01*
X137160Y-11900D01*
X137382Y-11903D01*
X137604Y-11911D01*
X137826Y-11925D01*
X138048Y-11944D01*
X138268Y-11968D01*
X138489Y-11998D01*
X138708Y-12033D01*
X138927Y-12074D01*
X139144Y-12120D01*
X139360Y-12171D01*
X139575Y-12228D01*
X139789Y-12290D01*
X140000Y-12357D01*
X140211Y-12429D01*
X140419Y-12507D01*
X140625Y-12589D01*
X140829Y-12677D01*
X141032Y-12769D01*
X141231Y-12867D01*
X141428Y-12969D01*
X141623Y-13076D01*
X141815Y-13188D01*
X142004Y-13305D01*
X142191Y-13426D01*
X142374Y-13552D01*
X142554Y-13682D01*
X142731Y-13817D01*
X142904Y-13955D01*
X143074Y-14098D01*
X143241Y-14246D01*
X143404Y-14397D01*
X143563Y-14552D01*
X143718Y-14711D01*
X143869Y-14874D01*
X144017Y-15041D01*
X144160Y-15211D01*
X144298Y-15384D01*
X144433Y-15561D01*
X144563Y-15741D01*
X144689Y-15924D01*
X144810Y-16111D01*
X144927Y-16300D01*
X145039Y-16492D01*
X145146Y-16687D01*
X145248Y-16884D01*
X145346Y-17083D01*
X145438Y-17286D01*
X145526Y-17490D01*
X145608Y-17696D01*
X145686Y-17904D01*
X145758Y-18115D01*
X145825Y-18326D01*
X145887Y-18540D01*
X145944Y-18755D01*
X145995Y-18971D01*
X146041Y-19188D01*
X146082Y-19407D01*
X146117Y-19626D01*
X146147Y-19847D01*
X146171Y-20067D01*
X146190Y-20289D01*
X146204Y-20511D01*
X146212Y-20733D01*
X146215Y-20955D01*
X146212Y-21177D01*
X146204Y-21399D01*
X146190Y-21621D01*
X146171Y-21843D01*
X146147Y-22063D01*
X146117Y-22284D01*
X146082Y-22503D01*
X146041Y-22722D01*
X145995Y-22939D01*
X145944Y-23155D01*
X145887Y-23370D01*
X145825Y-23584D01*
X145758Y-23795D01*
X145686Y-24006D01*
X145608Y-24214D01*
X145526Y-24420D01*
X145438Y-24624D01*
X145346Y-24827D01*
X145248Y-25026D01*
X145146Y-25223D01*
X145039Y-25418D01*
X144927Y-25610D01*
X144810Y-25799D01*
X144689Y-25986D01*
X144563Y-26169D01*
X144433Y-26349D01*
X144298Y-26526D01*
X144160Y-26699D01*
X144017Y-26869D01*
X143869Y-27036D01*
X143718Y-27199D01*
X143563Y-27358D01*
X143404Y-27513D01*
X143241Y-27664D01*
X143074Y-27812D01*
X142904Y-27955D01*
X142731Y-28093D01*
X142554Y-28228D01*
X142374Y-28358D01*
X142191Y-28484D01*
X142004Y-28605D01*
X141815Y-28722D01*
X141623Y-28834D01*
X141428Y-28941D01*
X141231Y-29043D01*
X141032Y-29141D01*
X140829Y-29233D01*
X140625Y-29321D01*
X140419Y-29403D01*
X140211Y-29481D01*
X140000Y-29553D01*
X139789Y-29620D01*
X139575Y-29682D01*
X139360Y-29739D01*
X139144Y-29790D01*
X138927Y-29836D01*
X138708Y-29877D01*
X138489Y-29912D01*
X138268Y-29942D01*
X138048Y-29966D01*
X137826Y-29985D01*
X137604Y-29999D01*
X137382Y-30007D01*
X137160Y-30010D01*
X136938Y-30007D01*
X136716Y-29999D01*
X136494Y-29985D01*
X136272Y-29966D01*
X136052Y-29942D01*
X135831Y-29912D01*
X135612Y-29877D01*
X135393Y-29836D01*
X135176Y-29790D01*
X134960Y-29739D01*
X134745Y-29682D01*
X134531Y-29620D01*
X134320Y-29553D01*
X134109Y-29481D01*
X133901Y-29403D01*
X133695Y-29321D01*
X133491Y-29233D01*
X133288Y-29141D01*
X133089Y-29043D01*
X132892Y-28941D01*
X132697Y-28834D01*
X132505Y-28722D01*
X132316Y-28605D01*
X132129Y-28484D01*
X131946Y-28358D01*
X131766Y-28228D01*
X131589Y-28093D01*
X131416Y-27955D01*
X131246Y-27812D01*
X131079Y-27664D01*
X130916Y-27513D01*
X130757Y-27358D01*
X130602Y-27199D01*
X130451Y-27036D01*
X130303Y-26869D01*
X130160Y-26699D01*
X130022Y-26526D01*
X129887Y-26349D01*
X129757Y-26169D01*
X129631Y-25986D01*
X129510Y-25799D01*
X129393Y-25610D01*
X129281Y-25418D01*
X129174Y-25223D01*
X129072Y-25026D01*
X128974Y-24827D01*
X128882Y-24624D01*
X128794Y-24420D01*
X128712Y-24214D01*
X128634Y-24006D01*
X128562Y-23795D01*
X128495Y-23584D01*
X128433Y-23370D01*
X128376Y-23155D01*
X128325Y-22939D01*
X128279Y-22722D01*
X128238Y-22503D01*
X128203Y-22284D01*
X128173Y-22063D01*
X128149Y-21843D01*
X128130Y-21621D01*
X128116Y-21399D01*
X128108Y-21177D01*
X128105Y-20955D01*
D23*
X137160Y-20955D03*
M02*
