G04 EAGLE Gerber RS-274X export*
G75*
%MOMM*%
%FSLAX34Y34*%
%LPD*%
%INSoldermask Top*%
%IPPOS*%
%AMOC8*
5,1,8,0,0,1.08239X$1,22.5*%
G01*
%ADD10R,1.203200X0.503200*%
%ADD11R,1.203200X0.803200*%
%ADD12C,0.853200*%
%ADD13R,1.203200X1.303200*%
%ADD14R,0.503200X0.853200*%
%ADD15R,2.553200X1.803200*%
%ADD16R,1.303200X1.203200*%
%ADD17C,0.838200*%
%ADD18R,4.200000X1.700000*%
%ADD19R,0.833200X1.033200*%
%ADD20R,0.965200X1.727200*%
%ADD21R,0.838200X1.473200*%
%ADD22R,1.203200X3.003200*%
%ADD23R,1.603200X1.803200*%
%ADD24R,1.473200X0.838200*%
%ADD25C,2.082800*%
%ADD26C,6.203200*%
%ADD27R,1.033200X0.833200*%
%ADD28C,1.303200*%
%ADD29C,1.803200*%
%ADD30R,1.753200X0.503200*%
%ADD31R,2.953200X1.403200*%
%ADD32C,0.505344*%
%ADD33R,1.053200X1.723200*%
%ADD34R,1.723200X1.053200*%
%ADD35R,1.303200X1.303200*%
%ADD36R,0.620000X0.840000*%
%ADD37R,0.620000X0.560000*%
%ADD38R,0.640000X0.840000*%
%ADD39R,0.803200X0.803200*%
%ADD40R,0.813200X0.453200*%
%ADD41R,0.763200X0.453200*%
%ADD42R,7.203200X1.353200*%
%ADD43R,2.403200X1.103200*%
%ADD44R,2.203200X1.403200*%
%ADD45R,1.553200X0.803200*%
%ADD46R,1.700000X4.200000*%
%ADD47C,3.251200*%
%ADD48C,1.203200*%
%ADD49R,4.203200X1.703200*%
%ADD50C,1.270000*%
%ADD51C,1.703200*%

G36*
X1084616Y905651D02*
X1084616Y905651D01*
X1084660Y905654D01*
X1084682Y905670D01*
X1084708Y905678D01*
X1084737Y905711D01*
X1084772Y905737D01*
X1084782Y905763D01*
X1084800Y905783D01*
X1084807Y905827D01*
X1084822Y905867D01*
X1084817Y905894D01*
X1084821Y905921D01*
X1084803Y905962D01*
X1084794Y906004D01*
X1084768Y906040D01*
X1084764Y906049D01*
X1084759Y906053D01*
X1084750Y906064D01*
X1060750Y930064D01*
X1060712Y930085D01*
X1060679Y930114D01*
X1060652Y930118D01*
X1060628Y930131D01*
X1060584Y930128D01*
X1060541Y930135D01*
X1060516Y930124D01*
X1060488Y930122D01*
X1060453Y930096D01*
X1060413Y930078D01*
X1060398Y930055D01*
X1060376Y930039D01*
X1060360Y929998D01*
X1060336Y929962D01*
X1060329Y929918D01*
X1060326Y929909D01*
X1060327Y929902D01*
X1060325Y929888D01*
X1060325Y905888D01*
X1060330Y905872D01*
X1060327Y905855D01*
X1060349Y905805D01*
X1060364Y905754D01*
X1060377Y905743D01*
X1060384Y905727D01*
X1060429Y905697D01*
X1060469Y905662D01*
X1060486Y905659D01*
X1060501Y905650D01*
X1060574Y905639D01*
X1084574Y905639D01*
X1084616Y905651D01*
G37*
G36*
X111906Y1100716D02*
X111906Y1100716D01*
X111923Y1100713D01*
X111973Y1100735D01*
X112024Y1100750D01*
X112035Y1100763D01*
X112051Y1100770D01*
X112081Y1100815D01*
X112116Y1100855D01*
X112119Y1100872D01*
X112128Y1100887D01*
X112139Y1100960D01*
X112139Y1124960D01*
X112127Y1125002D01*
X112124Y1125046D01*
X112108Y1125068D01*
X112100Y1125094D01*
X112067Y1125123D01*
X112041Y1125158D01*
X112015Y1125168D01*
X111995Y1125186D01*
X111951Y1125193D01*
X111911Y1125208D01*
X111884Y1125203D01*
X111857Y1125207D01*
X111816Y1125189D01*
X111774Y1125180D01*
X111738Y1125154D01*
X111729Y1125150D01*
X111725Y1125145D01*
X111714Y1125136D01*
X87714Y1101136D01*
X87693Y1101098D01*
X87664Y1101065D01*
X87660Y1101038D01*
X87647Y1101014D01*
X87650Y1100970D01*
X87643Y1100927D01*
X87654Y1100902D01*
X87656Y1100874D01*
X87682Y1100839D01*
X87700Y1100799D01*
X87723Y1100784D01*
X87739Y1100762D01*
X87780Y1100746D01*
X87817Y1100722D01*
X87860Y1100715D01*
X87869Y1100712D01*
X87876Y1100713D01*
X87890Y1100711D01*
X111890Y1100711D01*
X111906Y1100716D01*
G37*
G36*
X754526Y1100716D02*
X754526Y1100716D01*
X754543Y1100713D01*
X754593Y1100735D01*
X754644Y1100750D01*
X754655Y1100763D01*
X754671Y1100770D01*
X754701Y1100815D01*
X754736Y1100855D01*
X754739Y1100872D01*
X754748Y1100887D01*
X754759Y1100960D01*
X754759Y1124960D01*
X754747Y1125002D01*
X754744Y1125046D01*
X754728Y1125068D01*
X754720Y1125094D01*
X754687Y1125123D01*
X754661Y1125158D01*
X754635Y1125168D01*
X754615Y1125186D01*
X754571Y1125193D01*
X754531Y1125208D01*
X754504Y1125203D01*
X754477Y1125207D01*
X754436Y1125189D01*
X754394Y1125180D01*
X754358Y1125154D01*
X754349Y1125150D01*
X754345Y1125145D01*
X754334Y1125136D01*
X730334Y1101136D01*
X730313Y1101098D01*
X730284Y1101065D01*
X730280Y1101038D01*
X730267Y1101014D01*
X730270Y1100970D01*
X730263Y1100927D01*
X730274Y1100902D01*
X730276Y1100874D01*
X730302Y1100839D01*
X730320Y1100799D01*
X730343Y1100784D01*
X730359Y1100762D01*
X730400Y1100746D01*
X730437Y1100722D01*
X730480Y1100715D01*
X730489Y1100712D01*
X730496Y1100713D01*
X730510Y1100711D01*
X754510Y1100711D01*
X754526Y1100716D01*
G37*
G36*
X441996Y905651D02*
X441996Y905651D01*
X442040Y905654D01*
X442062Y905670D01*
X442088Y905678D01*
X442117Y905711D01*
X442152Y905737D01*
X442162Y905763D01*
X442180Y905783D01*
X442187Y905827D01*
X442202Y905867D01*
X442197Y905894D01*
X442201Y905921D01*
X442183Y905962D01*
X442174Y906004D01*
X442148Y906040D01*
X442144Y906049D01*
X442139Y906053D01*
X442130Y906064D01*
X418130Y930064D01*
X418092Y930085D01*
X418059Y930114D01*
X418032Y930118D01*
X418008Y930131D01*
X417964Y930128D01*
X417921Y930135D01*
X417896Y930124D01*
X417868Y930122D01*
X417833Y930096D01*
X417793Y930078D01*
X417778Y930055D01*
X417756Y930039D01*
X417740Y929998D01*
X417716Y929962D01*
X417709Y929918D01*
X417706Y929909D01*
X417707Y929902D01*
X417705Y929888D01*
X417705Y905888D01*
X417710Y905872D01*
X417707Y905855D01*
X417729Y905805D01*
X417744Y905754D01*
X417757Y905743D01*
X417764Y905727D01*
X417809Y905697D01*
X417849Y905662D01*
X417866Y905659D01*
X417881Y905650D01*
X417954Y905639D01*
X441954Y905639D01*
X441996Y905651D01*
G37*
G36*
X111906Y435236D02*
X111906Y435236D01*
X111923Y435233D01*
X111973Y435255D01*
X112024Y435270D01*
X112035Y435283D01*
X112051Y435290D01*
X112081Y435335D01*
X112116Y435375D01*
X112119Y435392D01*
X112128Y435407D01*
X112139Y435480D01*
X112139Y459480D01*
X112127Y459522D01*
X112124Y459566D01*
X112108Y459588D01*
X112100Y459614D01*
X112067Y459643D01*
X112041Y459678D01*
X112015Y459688D01*
X111995Y459706D01*
X111951Y459713D01*
X111911Y459728D01*
X111884Y459723D01*
X111857Y459727D01*
X111816Y459709D01*
X111774Y459700D01*
X111738Y459674D01*
X111729Y459670D01*
X111725Y459665D01*
X111714Y459656D01*
X87714Y435656D01*
X87693Y435618D01*
X87664Y435585D01*
X87660Y435558D01*
X87647Y435534D01*
X87650Y435490D01*
X87643Y435447D01*
X87654Y435422D01*
X87656Y435394D01*
X87682Y435359D01*
X87700Y435319D01*
X87723Y435304D01*
X87739Y435282D01*
X87780Y435266D01*
X87817Y435242D01*
X87860Y435235D01*
X87869Y435232D01*
X87876Y435233D01*
X87890Y435231D01*
X111890Y435231D01*
X111906Y435236D01*
G37*
G36*
X754526Y435236D02*
X754526Y435236D01*
X754543Y435233D01*
X754593Y435255D01*
X754644Y435270D01*
X754655Y435283D01*
X754671Y435290D01*
X754701Y435335D01*
X754736Y435375D01*
X754739Y435392D01*
X754748Y435407D01*
X754759Y435480D01*
X754759Y459480D01*
X754747Y459522D01*
X754744Y459566D01*
X754728Y459588D01*
X754720Y459614D01*
X754687Y459643D01*
X754661Y459678D01*
X754635Y459688D01*
X754615Y459706D01*
X754571Y459713D01*
X754531Y459728D01*
X754504Y459723D01*
X754477Y459727D01*
X754436Y459709D01*
X754394Y459700D01*
X754358Y459674D01*
X754349Y459670D01*
X754345Y459665D01*
X754334Y459656D01*
X730334Y435656D01*
X730313Y435618D01*
X730284Y435585D01*
X730280Y435558D01*
X730267Y435534D01*
X730270Y435490D01*
X730263Y435447D01*
X730274Y435422D01*
X730276Y435394D01*
X730302Y435359D01*
X730320Y435319D01*
X730343Y435304D01*
X730359Y435282D01*
X730400Y435266D01*
X730437Y435242D01*
X730480Y435235D01*
X730489Y435232D01*
X730496Y435233D01*
X730510Y435231D01*
X754510Y435231D01*
X754526Y435236D01*
G37*
G36*
X1084616Y240171D02*
X1084616Y240171D01*
X1084660Y240174D01*
X1084682Y240190D01*
X1084708Y240198D01*
X1084737Y240231D01*
X1084772Y240257D01*
X1084782Y240283D01*
X1084800Y240303D01*
X1084807Y240347D01*
X1084822Y240387D01*
X1084817Y240414D01*
X1084821Y240441D01*
X1084803Y240482D01*
X1084794Y240524D01*
X1084768Y240560D01*
X1084764Y240569D01*
X1084759Y240573D01*
X1084750Y240584D01*
X1060750Y264584D01*
X1060712Y264605D01*
X1060679Y264634D01*
X1060652Y264638D01*
X1060628Y264651D01*
X1060584Y264648D01*
X1060541Y264655D01*
X1060516Y264644D01*
X1060488Y264642D01*
X1060453Y264616D01*
X1060413Y264598D01*
X1060398Y264575D01*
X1060376Y264559D01*
X1060360Y264518D01*
X1060336Y264482D01*
X1060329Y264438D01*
X1060326Y264429D01*
X1060327Y264422D01*
X1060325Y264408D01*
X1060325Y240408D01*
X1060330Y240392D01*
X1060327Y240375D01*
X1060349Y240325D01*
X1060364Y240274D01*
X1060377Y240263D01*
X1060384Y240247D01*
X1060429Y240217D01*
X1060469Y240182D01*
X1060486Y240179D01*
X1060501Y240170D01*
X1060574Y240159D01*
X1084574Y240159D01*
X1084616Y240171D01*
G37*
G36*
X441996Y240171D02*
X441996Y240171D01*
X442040Y240174D01*
X442062Y240190D01*
X442088Y240198D01*
X442117Y240231D01*
X442152Y240257D01*
X442162Y240283D01*
X442180Y240303D01*
X442187Y240347D01*
X442202Y240387D01*
X442197Y240414D01*
X442201Y240441D01*
X442183Y240482D01*
X442174Y240524D01*
X442148Y240560D01*
X442144Y240569D01*
X442139Y240573D01*
X442130Y240584D01*
X418130Y264584D01*
X418092Y264605D01*
X418059Y264634D01*
X418032Y264638D01*
X418008Y264651D01*
X417964Y264648D01*
X417921Y264655D01*
X417896Y264644D01*
X417868Y264642D01*
X417833Y264616D01*
X417793Y264598D01*
X417778Y264575D01*
X417756Y264559D01*
X417740Y264518D01*
X417716Y264482D01*
X417709Y264438D01*
X417706Y264429D01*
X417707Y264422D01*
X417705Y264408D01*
X417705Y240408D01*
X417710Y240392D01*
X417707Y240375D01*
X417729Y240325D01*
X417744Y240274D01*
X417757Y240263D01*
X417764Y240247D01*
X417809Y240217D01*
X417849Y240182D01*
X417866Y240179D01*
X417881Y240170D01*
X417954Y240159D01*
X441954Y240159D01*
X441996Y240171D01*
G37*
G36*
X59034Y816934D02*
X59034Y816934D01*
X59037Y816931D01*
X60159Y817086D01*
X60164Y817091D01*
X60168Y817088D01*
X61239Y817459D01*
X61243Y817465D01*
X61248Y817463D01*
X62225Y818036D01*
X62228Y818042D01*
X62233Y818041D01*
X63080Y818794D01*
X63082Y818801D01*
X63087Y818801D01*
X63771Y819704D01*
X63771Y819711D01*
X63776Y819712D01*
X64271Y820731D01*
X64269Y820738D01*
X64274Y820740D01*
X64561Y821837D01*
X64559Y821841D01*
X64561Y821842D01*
X64559Y821844D01*
X64562Y821846D01*
X64629Y822977D01*
X64627Y822981D01*
X64629Y822983D01*
X64562Y824114D01*
X64557Y824119D01*
X64561Y824123D01*
X64274Y825220D01*
X64268Y825224D01*
X64271Y825229D01*
X63776Y826248D01*
X63770Y826251D01*
X63771Y826256D01*
X63087Y827159D01*
X63080Y827161D01*
X63080Y827166D01*
X62233Y827919D01*
X62226Y827919D01*
X62225Y827924D01*
X61248Y828497D01*
X61241Y828496D01*
X61239Y828501D01*
X60168Y828872D01*
X60162Y828869D01*
X60159Y828874D01*
X59037Y829029D01*
X59032Y829026D01*
X59030Y829029D01*
X47030Y829029D01*
X47025Y829026D01*
X47022Y829029D01*
X45755Y828824D01*
X45749Y828818D01*
X45745Y828821D01*
X44555Y828339D01*
X44551Y828332D01*
X44545Y828334D01*
X43492Y827600D01*
X43490Y827592D01*
X43484Y827593D01*
X42621Y826643D01*
X42620Y826634D01*
X42615Y826634D01*
X41985Y825515D01*
X41986Y825507D01*
X41980Y825505D01*
X41615Y824275D01*
X41618Y824267D01*
X41613Y824264D01*
X41531Y822983D01*
X41534Y822979D01*
X41531Y822977D01*
X41613Y821696D01*
X41619Y821690D01*
X41615Y821685D01*
X41980Y820455D01*
X41987Y820450D01*
X41985Y820445D01*
X42615Y819326D01*
X42622Y819323D01*
X42621Y819317D01*
X43484Y818367D01*
X43492Y818366D01*
X43492Y818360D01*
X44545Y817626D01*
X44553Y817626D01*
X44555Y817621D01*
X45745Y817139D01*
X45752Y817141D01*
X45755Y817136D01*
X47022Y816931D01*
X47027Y816934D01*
X47030Y816931D01*
X59030Y816931D01*
X59034Y816934D01*
G37*
G36*
X701654Y816934D02*
X701654Y816934D01*
X701657Y816931D01*
X702779Y817086D01*
X702784Y817091D01*
X702788Y817088D01*
X703859Y817459D01*
X703863Y817465D01*
X703868Y817463D01*
X704845Y818036D01*
X704848Y818042D01*
X704853Y818041D01*
X705700Y818794D01*
X705702Y818801D01*
X705707Y818801D01*
X706391Y819704D01*
X706391Y819711D01*
X706396Y819712D01*
X706891Y820731D01*
X706889Y820738D01*
X706894Y820740D01*
X707181Y821837D01*
X707179Y821841D01*
X707181Y821842D01*
X707179Y821844D01*
X707182Y821846D01*
X707249Y822977D01*
X707247Y822981D01*
X707249Y822983D01*
X707182Y824114D01*
X707177Y824119D01*
X707181Y824123D01*
X706894Y825220D01*
X706888Y825224D01*
X706891Y825229D01*
X706396Y826248D01*
X706390Y826251D01*
X706391Y826256D01*
X705707Y827159D01*
X705700Y827161D01*
X705700Y827166D01*
X704853Y827919D01*
X704846Y827919D01*
X704845Y827924D01*
X703868Y828497D01*
X703861Y828496D01*
X703859Y828501D01*
X702788Y828872D01*
X702782Y828869D01*
X702779Y828874D01*
X701657Y829029D01*
X701652Y829026D01*
X701650Y829029D01*
X689650Y829029D01*
X689645Y829026D01*
X689642Y829029D01*
X688375Y828824D01*
X688369Y828818D01*
X688365Y828821D01*
X687175Y828339D01*
X687171Y828332D01*
X687165Y828334D01*
X686112Y827600D01*
X686110Y827592D01*
X686104Y827593D01*
X685241Y826643D01*
X685240Y826634D01*
X685235Y826634D01*
X684605Y825515D01*
X684606Y825507D01*
X684600Y825505D01*
X684235Y824275D01*
X684238Y824267D01*
X684233Y824264D01*
X684151Y822983D01*
X684154Y822979D01*
X684151Y822977D01*
X684233Y821696D01*
X684239Y821690D01*
X684235Y821685D01*
X684600Y820455D01*
X684607Y820450D01*
X684605Y820445D01*
X685235Y819326D01*
X685242Y819323D01*
X685241Y819317D01*
X686104Y818367D01*
X686112Y818366D01*
X686112Y818360D01*
X687165Y817626D01*
X687173Y817626D01*
X687175Y817621D01*
X688365Y817139D01*
X688372Y817141D01*
X688375Y817136D01*
X689642Y816931D01*
X689647Y816934D01*
X689650Y816931D01*
X701650Y816931D01*
X701654Y816934D01*
G37*
G36*
X701654Y498124D02*
X701654Y498124D01*
X701657Y498121D01*
X702779Y498276D01*
X702784Y498281D01*
X702788Y498278D01*
X703859Y498649D01*
X703863Y498655D01*
X703868Y498653D01*
X704845Y499226D01*
X704848Y499232D01*
X704853Y499231D01*
X705700Y499984D01*
X705702Y499991D01*
X705707Y499991D01*
X706391Y500894D01*
X706391Y500901D01*
X706396Y500902D01*
X706891Y501921D01*
X706889Y501928D01*
X706894Y501930D01*
X707181Y503027D01*
X707179Y503031D01*
X707181Y503032D01*
X707179Y503034D01*
X707182Y503036D01*
X707249Y504167D01*
X707247Y504171D01*
X707249Y504173D01*
X707182Y505304D01*
X707177Y505309D01*
X707181Y505313D01*
X706894Y506410D01*
X706888Y506414D01*
X706891Y506419D01*
X706396Y507438D01*
X706390Y507441D01*
X706391Y507446D01*
X705707Y508349D01*
X705700Y508351D01*
X705700Y508356D01*
X704853Y509109D01*
X704846Y509109D01*
X704845Y509114D01*
X703868Y509687D01*
X703861Y509686D01*
X703859Y509691D01*
X702788Y510062D01*
X702782Y510059D01*
X702779Y510064D01*
X701657Y510219D01*
X701652Y510216D01*
X701650Y510219D01*
X689650Y510219D01*
X689645Y510216D01*
X689642Y510219D01*
X688375Y510014D01*
X688369Y510008D01*
X688365Y510011D01*
X687175Y509529D01*
X687171Y509522D01*
X687165Y509524D01*
X686112Y508790D01*
X686110Y508782D01*
X686104Y508783D01*
X685241Y507833D01*
X685240Y507824D01*
X685235Y507824D01*
X684605Y506705D01*
X684606Y506697D01*
X684600Y506695D01*
X684235Y505465D01*
X684238Y505457D01*
X684233Y505454D01*
X684151Y504173D01*
X684154Y504169D01*
X684151Y504167D01*
X684233Y502886D01*
X684239Y502880D01*
X684235Y502875D01*
X684600Y501645D01*
X684607Y501640D01*
X684605Y501635D01*
X685235Y500516D01*
X685242Y500513D01*
X685241Y500507D01*
X686104Y499557D01*
X686112Y499556D01*
X686112Y499550D01*
X687165Y498816D01*
X687173Y498816D01*
X687175Y498811D01*
X688365Y498329D01*
X688372Y498331D01*
X688375Y498326D01*
X689642Y498121D01*
X689647Y498124D01*
X689650Y498121D01*
X701650Y498121D01*
X701654Y498124D01*
G37*
G36*
X59034Y498124D02*
X59034Y498124D01*
X59037Y498121D01*
X60159Y498276D01*
X60164Y498281D01*
X60168Y498278D01*
X61239Y498649D01*
X61243Y498655D01*
X61248Y498653D01*
X62225Y499226D01*
X62228Y499232D01*
X62233Y499231D01*
X63080Y499984D01*
X63082Y499991D01*
X63087Y499991D01*
X63771Y500894D01*
X63771Y500901D01*
X63776Y500902D01*
X64271Y501921D01*
X64269Y501928D01*
X64274Y501930D01*
X64561Y503027D01*
X64559Y503031D01*
X64561Y503032D01*
X64559Y503034D01*
X64562Y503036D01*
X64629Y504167D01*
X64627Y504171D01*
X64629Y504173D01*
X64562Y505304D01*
X64557Y505309D01*
X64561Y505313D01*
X64274Y506410D01*
X64268Y506414D01*
X64271Y506419D01*
X63776Y507438D01*
X63770Y507441D01*
X63771Y507446D01*
X63087Y508349D01*
X63080Y508351D01*
X63080Y508356D01*
X62233Y509109D01*
X62226Y509109D01*
X62225Y509114D01*
X61248Y509687D01*
X61241Y509686D01*
X61239Y509691D01*
X60168Y510062D01*
X60162Y510059D01*
X60159Y510064D01*
X59037Y510219D01*
X59032Y510216D01*
X59030Y510219D01*
X47030Y510219D01*
X47025Y510216D01*
X47022Y510219D01*
X45755Y510014D01*
X45749Y510008D01*
X45745Y510011D01*
X44555Y509529D01*
X44551Y509522D01*
X44545Y509524D01*
X43492Y508790D01*
X43490Y508782D01*
X43484Y508783D01*
X42621Y507833D01*
X42620Y507824D01*
X42615Y507824D01*
X41985Y506705D01*
X41986Y506697D01*
X41980Y506695D01*
X41615Y505465D01*
X41618Y505457D01*
X41613Y505454D01*
X41531Y504173D01*
X41534Y504169D01*
X41531Y504167D01*
X41613Y502886D01*
X41619Y502880D01*
X41615Y502875D01*
X41980Y501645D01*
X41987Y501640D01*
X41985Y501635D01*
X42615Y500516D01*
X42622Y500513D01*
X42621Y500507D01*
X43484Y499557D01*
X43492Y499556D01*
X43492Y499550D01*
X44545Y498816D01*
X44553Y498816D01*
X44555Y498811D01*
X45745Y498329D01*
X45752Y498331D01*
X45755Y498326D01*
X47022Y498121D01*
X47027Y498124D01*
X47030Y498121D01*
X59030Y498121D01*
X59034Y498124D01*
G37*
G36*
X701654Y1250004D02*
X701654Y1250004D01*
X701657Y1250001D01*
X702779Y1250156D01*
X702784Y1250161D01*
X702788Y1250158D01*
X703859Y1250529D01*
X703863Y1250535D01*
X703868Y1250533D01*
X704845Y1251106D01*
X704848Y1251112D01*
X704853Y1251111D01*
X705700Y1251864D01*
X705702Y1251871D01*
X705707Y1251871D01*
X706391Y1252774D01*
X706391Y1252781D01*
X706396Y1252782D01*
X706891Y1253801D01*
X706889Y1253808D01*
X706894Y1253810D01*
X707181Y1254907D01*
X707179Y1254911D01*
X707181Y1254912D01*
X707179Y1254914D01*
X707182Y1254916D01*
X707249Y1256047D01*
X707247Y1256051D01*
X707249Y1256053D01*
X707182Y1257184D01*
X707177Y1257189D01*
X707181Y1257193D01*
X706894Y1258290D01*
X706888Y1258294D01*
X706891Y1258299D01*
X706396Y1259318D01*
X706390Y1259321D01*
X706391Y1259326D01*
X705707Y1260229D01*
X705700Y1260231D01*
X705700Y1260236D01*
X704853Y1260989D01*
X704846Y1260989D01*
X704845Y1260994D01*
X703868Y1261567D01*
X703861Y1261566D01*
X703859Y1261571D01*
X702788Y1261942D01*
X702782Y1261939D01*
X702779Y1261944D01*
X701657Y1262099D01*
X701652Y1262096D01*
X701650Y1262099D01*
X689650Y1262099D01*
X689645Y1262096D01*
X689642Y1262099D01*
X688375Y1261894D01*
X688369Y1261888D01*
X688365Y1261891D01*
X687175Y1261409D01*
X687171Y1261402D01*
X687165Y1261404D01*
X686112Y1260670D01*
X686110Y1260662D01*
X686104Y1260663D01*
X685241Y1259713D01*
X685240Y1259704D01*
X685235Y1259704D01*
X684605Y1258585D01*
X684606Y1258577D01*
X684600Y1258575D01*
X684235Y1257345D01*
X684238Y1257337D01*
X684233Y1257334D01*
X684151Y1256053D01*
X684154Y1256049D01*
X684151Y1256047D01*
X684233Y1254766D01*
X684239Y1254760D01*
X684235Y1254755D01*
X684600Y1253525D01*
X684607Y1253520D01*
X684605Y1253515D01*
X685235Y1252396D01*
X685242Y1252393D01*
X685241Y1252387D01*
X686104Y1251437D01*
X686112Y1251436D01*
X686112Y1251430D01*
X687165Y1250696D01*
X687173Y1250696D01*
X687175Y1250691D01*
X688365Y1250209D01*
X688372Y1250211D01*
X688375Y1250206D01*
X689642Y1250001D01*
X689647Y1250004D01*
X689650Y1250001D01*
X701650Y1250001D01*
X701654Y1250004D01*
G37*
G36*
X701654Y730534D02*
X701654Y730534D01*
X701657Y730531D01*
X702779Y730686D01*
X702784Y730691D01*
X702788Y730688D01*
X703859Y731059D01*
X703863Y731065D01*
X703868Y731063D01*
X704845Y731636D01*
X704848Y731642D01*
X704853Y731641D01*
X705700Y732394D01*
X705702Y732401D01*
X705707Y732401D01*
X706391Y733304D01*
X706391Y733311D01*
X706396Y733312D01*
X706891Y734331D01*
X706889Y734338D01*
X706894Y734340D01*
X707181Y735437D01*
X707179Y735441D01*
X707181Y735442D01*
X707179Y735444D01*
X707182Y735446D01*
X707249Y736577D01*
X707247Y736581D01*
X707249Y736583D01*
X707182Y737714D01*
X707177Y737719D01*
X707181Y737723D01*
X706894Y738820D01*
X706888Y738824D01*
X706891Y738829D01*
X706396Y739848D01*
X706390Y739851D01*
X706391Y739856D01*
X705707Y740759D01*
X705700Y740761D01*
X705700Y740766D01*
X704853Y741519D01*
X704846Y741519D01*
X704845Y741524D01*
X703868Y742097D01*
X703861Y742096D01*
X703859Y742101D01*
X702788Y742472D01*
X702782Y742469D01*
X702779Y742474D01*
X701657Y742629D01*
X701652Y742626D01*
X701650Y742629D01*
X689650Y742629D01*
X689645Y742626D01*
X689642Y742629D01*
X688375Y742424D01*
X688369Y742418D01*
X688365Y742421D01*
X687175Y741939D01*
X687171Y741932D01*
X687165Y741934D01*
X686112Y741200D01*
X686110Y741192D01*
X686104Y741193D01*
X685241Y740243D01*
X685240Y740234D01*
X685235Y740234D01*
X684605Y739115D01*
X684606Y739107D01*
X684600Y739105D01*
X684235Y737875D01*
X684238Y737867D01*
X684233Y737864D01*
X684151Y736583D01*
X684154Y736579D01*
X684151Y736577D01*
X684233Y735296D01*
X684239Y735290D01*
X684235Y735285D01*
X684600Y734055D01*
X684607Y734050D01*
X684605Y734045D01*
X685235Y732926D01*
X685242Y732923D01*
X685241Y732917D01*
X686104Y731967D01*
X686112Y731966D01*
X686112Y731960D01*
X687165Y731226D01*
X687173Y731226D01*
X687175Y731221D01*
X688365Y730739D01*
X688372Y730741D01*
X688375Y730736D01*
X689642Y730531D01*
X689647Y730534D01*
X689650Y730531D01*
X701650Y730531D01*
X701654Y730534D01*
G37*
G36*
X59034Y1250004D02*
X59034Y1250004D01*
X59037Y1250001D01*
X60159Y1250156D01*
X60164Y1250161D01*
X60168Y1250158D01*
X61239Y1250529D01*
X61243Y1250535D01*
X61248Y1250533D01*
X62225Y1251106D01*
X62228Y1251112D01*
X62233Y1251111D01*
X63080Y1251864D01*
X63082Y1251871D01*
X63087Y1251871D01*
X63771Y1252774D01*
X63771Y1252781D01*
X63776Y1252782D01*
X64271Y1253801D01*
X64269Y1253808D01*
X64274Y1253810D01*
X64561Y1254907D01*
X64559Y1254911D01*
X64561Y1254912D01*
X64559Y1254914D01*
X64562Y1254916D01*
X64629Y1256047D01*
X64627Y1256051D01*
X64629Y1256053D01*
X64562Y1257184D01*
X64557Y1257189D01*
X64561Y1257193D01*
X64274Y1258290D01*
X64268Y1258294D01*
X64271Y1258299D01*
X63776Y1259318D01*
X63770Y1259321D01*
X63771Y1259326D01*
X63087Y1260229D01*
X63080Y1260231D01*
X63080Y1260236D01*
X62233Y1260989D01*
X62226Y1260989D01*
X62225Y1260994D01*
X61248Y1261567D01*
X61241Y1261566D01*
X61239Y1261571D01*
X60168Y1261942D01*
X60162Y1261939D01*
X60159Y1261944D01*
X59037Y1262099D01*
X59032Y1262096D01*
X59030Y1262099D01*
X47030Y1262099D01*
X47025Y1262096D01*
X47022Y1262099D01*
X45755Y1261894D01*
X45749Y1261888D01*
X45745Y1261891D01*
X44555Y1261409D01*
X44551Y1261402D01*
X44545Y1261404D01*
X43492Y1260670D01*
X43490Y1260662D01*
X43484Y1260663D01*
X42621Y1259713D01*
X42620Y1259704D01*
X42615Y1259704D01*
X41985Y1258585D01*
X41986Y1258577D01*
X41980Y1258575D01*
X41615Y1257345D01*
X41618Y1257337D01*
X41613Y1257334D01*
X41531Y1256053D01*
X41534Y1256049D01*
X41531Y1256047D01*
X41613Y1254766D01*
X41619Y1254760D01*
X41615Y1254755D01*
X41980Y1253525D01*
X41987Y1253520D01*
X41985Y1253515D01*
X42615Y1252396D01*
X42622Y1252393D01*
X42621Y1252387D01*
X43484Y1251437D01*
X43492Y1251436D01*
X43492Y1251430D01*
X44545Y1250696D01*
X44553Y1250696D01*
X44555Y1250691D01*
X45745Y1250209D01*
X45752Y1250211D01*
X45755Y1250206D01*
X47022Y1250001D01*
X47027Y1250004D01*
X47030Y1250001D01*
X59030Y1250001D01*
X59034Y1250004D01*
G37*
G36*
X701654Y584524D02*
X701654Y584524D01*
X701657Y584521D01*
X702779Y584676D01*
X702784Y584681D01*
X702788Y584678D01*
X703859Y585049D01*
X703863Y585055D01*
X703868Y585053D01*
X704845Y585626D01*
X704848Y585632D01*
X704853Y585631D01*
X705700Y586384D01*
X705702Y586391D01*
X705707Y586391D01*
X706391Y587294D01*
X706391Y587301D01*
X706396Y587302D01*
X706891Y588321D01*
X706889Y588328D01*
X706894Y588330D01*
X707181Y589427D01*
X707179Y589431D01*
X707181Y589432D01*
X707179Y589434D01*
X707182Y589436D01*
X707249Y590567D01*
X707247Y590571D01*
X707249Y590573D01*
X707182Y591704D01*
X707177Y591709D01*
X707181Y591713D01*
X706894Y592810D01*
X706888Y592814D01*
X706891Y592819D01*
X706396Y593838D01*
X706390Y593841D01*
X706391Y593846D01*
X705707Y594749D01*
X705700Y594751D01*
X705700Y594756D01*
X704853Y595509D01*
X704846Y595509D01*
X704845Y595514D01*
X703868Y596087D01*
X703861Y596086D01*
X703859Y596091D01*
X702788Y596462D01*
X702782Y596459D01*
X702779Y596464D01*
X701657Y596619D01*
X701652Y596616D01*
X701650Y596619D01*
X689650Y596619D01*
X689645Y596616D01*
X689642Y596619D01*
X688375Y596414D01*
X688369Y596408D01*
X688365Y596411D01*
X687175Y595929D01*
X687171Y595922D01*
X687165Y595924D01*
X686112Y595190D01*
X686110Y595182D01*
X686104Y595183D01*
X685241Y594233D01*
X685240Y594224D01*
X685235Y594224D01*
X684605Y593105D01*
X684606Y593097D01*
X684600Y593095D01*
X684235Y591865D01*
X684238Y591857D01*
X684233Y591854D01*
X684151Y590573D01*
X684154Y590569D01*
X684151Y590567D01*
X684233Y589286D01*
X684239Y589280D01*
X684235Y589275D01*
X684600Y588045D01*
X684607Y588040D01*
X684605Y588035D01*
X685235Y586916D01*
X685242Y586913D01*
X685241Y586907D01*
X686104Y585957D01*
X686112Y585956D01*
X686112Y585950D01*
X687165Y585216D01*
X687173Y585216D01*
X687175Y585211D01*
X688365Y584729D01*
X688372Y584731D01*
X688375Y584726D01*
X689642Y584521D01*
X689647Y584524D01*
X689650Y584521D01*
X701650Y584521D01*
X701654Y584524D01*
G37*
G36*
X59034Y65054D02*
X59034Y65054D01*
X59037Y65051D01*
X60159Y65206D01*
X60164Y65211D01*
X60168Y65208D01*
X61239Y65579D01*
X61243Y65585D01*
X61248Y65583D01*
X62225Y66156D01*
X62228Y66162D01*
X62233Y66161D01*
X63080Y66914D01*
X63082Y66921D01*
X63087Y66921D01*
X63771Y67824D01*
X63771Y67831D01*
X63776Y67832D01*
X64271Y68851D01*
X64269Y68858D01*
X64274Y68860D01*
X64561Y69957D01*
X64559Y69961D01*
X64561Y69962D01*
X64559Y69964D01*
X64562Y69966D01*
X64629Y71097D01*
X64627Y71101D01*
X64629Y71103D01*
X64562Y72234D01*
X64557Y72239D01*
X64561Y72243D01*
X64274Y73340D01*
X64268Y73344D01*
X64271Y73349D01*
X63776Y74368D01*
X63770Y74371D01*
X63771Y74376D01*
X63087Y75279D01*
X63080Y75281D01*
X63080Y75286D01*
X62233Y76039D01*
X62226Y76039D01*
X62225Y76044D01*
X61248Y76617D01*
X61241Y76616D01*
X61239Y76621D01*
X60168Y76992D01*
X60162Y76989D01*
X60159Y76994D01*
X59037Y77149D01*
X59032Y77146D01*
X59030Y77149D01*
X47030Y77149D01*
X47025Y77146D01*
X47022Y77149D01*
X45755Y76944D01*
X45749Y76938D01*
X45745Y76941D01*
X44555Y76459D01*
X44551Y76452D01*
X44545Y76454D01*
X43492Y75720D01*
X43490Y75712D01*
X43484Y75713D01*
X42621Y74763D01*
X42620Y74754D01*
X42615Y74754D01*
X41985Y73635D01*
X41986Y73627D01*
X41980Y73625D01*
X41615Y72395D01*
X41618Y72387D01*
X41613Y72384D01*
X41531Y71103D01*
X41534Y71099D01*
X41531Y71097D01*
X41613Y69816D01*
X41619Y69810D01*
X41615Y69805D01*
X41980Y68575D01*
X41987Y68570D01*
X41985Y68565D01*
X42615Y67446D01*
X42622Y67443D01*
X42621Y67437D01*
X43484Y66487D01*
X43492Y66486D01*
X43492Y66480D01*
X44545Y65746D01*
X44553Y65746D01*
X44555Y65741D01*
X45745Y65259D01*
X45752Y65261D01*
X45755Y65256D01*
X47022Y65051D01*
X47027Y65054D01*
X47030Y65051D01*
X59030Y65051D01*
X59034Y65054D01*
G37*
G36*
X59034Y1163604D02*
X59034Y1163604D01*
X59037Y1163601D01*
X60159Y1163756D01*
X60164Y1163761D01*
X60168Y1163758D01*
X61239Y1164129D01*
X61243Y1164135D01*
X61248Y1164133D01*
X62225Y1164706D01*
X62228Y1164712D01*
X62233Y1164711D01*
X63080Y1165464D01*
X63082Y1165471D01*
X63087Y1165471D01*
X63771Y1166374D01*
X63771Y1166381D01*
X63776Y1166382D01*
X64271Y1167401D01*
X64269Y1167408D01*
X64274Y1167410D01*
X64561Y1168507D01*
X64559Y1168511D01*
X64561Y1168512D01*
X64559Y1168514D01*
X64562Y1168516D01*
X64629Y1169647D01*
X64627Y1169651D01*
X64629Y1169653D01*
X64562Y1170784D01*
X64557Y1170789D01*
X64561Y1170793D01*
X64274Y1171890D01*
X64268Y1171894D01*
X64271Y1171899D01*
X63776Y1172918D01*
X63770Y1172921D01*
X63771Y1172926D01*
X63087Y1173829D01*
X63080Y1173831D01*
X63080Y1173836D01*
X62233Y1174589D01*
X62226Y1174589D01*
X62225Y1174594D01*
X61248Y1175167D01*
X61241Y1175166D01*
X61239Y1175171D01*
X60168Y1175542D01*
X60162Y1175539D01*
X60159Y1175544D01*
X59037Y1175699D01*
X59032Y1175696D01*
X59030Y1175699D01*
X47030Y1175699D01*
X47025Y1175696D01*
X47022Y1175699D01*
X45755Y1175494D01*
X45749Y1175488D01*
X45745Y1175491D01*
X44555Y1175009D01*
X44551Y1175002D01*
X44545Y1175004D01*
X43492Y1174270D01*
X43490Y1174262D01*
X43484Y1174263D01*
X42621Y1173313D01*
X42620Y1173304D01*
X42615Y1173304D01*
X41985Y1172185D01*
X41986Y1172177D01*
X41980Y1172175D01*
X41615Y1170945D01*
X41618Y1170937D01*
X41613Y1170934D01*
X41531Y1169653D01*
X41534Y1169649D01*
X41531Y1169647D01*
X41613Y1168366D01*
X41619Y1168360D01*
X41615Y1168355D01*
X41980Y1167125D01*
X41987Y1167120D01*
X41985Y1167115D01*
X42615Y1165996D01*
X42622Y1165993D01*
X42621Y1165987D01*
X43484Y1165037D01*
X43492Y1165036D01*
X43492Y1165030D01*
X44545Y1164296D01*
X44553Y1164296D01*
X44555Y1164291D01*
X45745Y1163809D01*
X45752Y1163811D01*
X45755Y1163806D01*
X47022Y1163601D01*
X47027Y1163604D01*
X47030Y1163601D01*
X59030Y1163601D01*
X59034Y1163604D01*
G37*
G36*
X701654Y1163604D02*
X701654Y1163604D01*
X701657Y1163601D01*
X702779Y1163756D01*
X702784Y1163761D01*
X702788Y1163758D01*
X703859Y1164129D01*
X703863Y1164135D01*
X703868Y1164133D01*
X704845Y1164706D01*
X704848Y1164712D01*
X704853Y1164711D01*
X705700Y1165464D01*
X705702Y1165471D01*
X705707Y1165471D01*
X706391Y1166374D01*
X706391Y1166381D01*
X706396Y1166382D01*
X706891Y1167401D01*
X706889Y1167408D01*
X706894Y1167410D01*
X707181Y1168507D01*
X707179Y1168511D01*
X707181Y1168512D01*
X707179Y1168514D01*
X707182Y1168516D01*
X707249Y1169647D01*
X707247Y1169651D01*
X707249Y1169653D01*
X707182Y1170784D01*
X707177Y1170789D01*
X707181Y1170793D01*
X706894Y1171890D01*
X706888Y1171894D01*
X706891Y1171899D01*
X706396Y1172918D01*
X706390Y1172921D01*
X706391Y1172926D01*
X705707Y1173829D01*
X705700Y1173831D01*
X705700Y1173836D01*
X704853Y1174589D01*
X704846Y1174589D01*
X704845Y1174594D01*
X703868Y1175167D01*
X703861Y1175166D01*
X703859Y1175171D01*
X702788Y1175542D01*
X702782Y1175539D01*
X702779Y1175544D01*
X701657Y1175699D01*
X701652Y1175696D01*
X701650Y1175699D01*
X689650Y1175699D01*
X689645Y1175696D01*
X689642Y1175699D01*
X688375Y1175494D01*
X688369Y1175488D01*
X688365Y1175491D01*
X687175Y1175009D01*
X687171Y1175002D01*
X687165Y1175004D01*
X686112Y1174270D01*
X686110Y1174262D01*
X686104Y1174263D01*
X685241Y1173313D01*
X685240Y1173304D01*
X685235Y1173304D01*
X684605Y1172185D01*
X684606Y1172177D01*
X684600Y1172175D01*
X684235Y1170945D01*
X684238Y1170937D01*
X684233Y1170934D01*
X684151Y1169653D01*
X684154Y1169649D01*
X684151Y1169647D01*
X684233Y1168366D01*
X684239Y1168360D01*
X684235Y1168355D01*
X684600Y1167125D01*
X684607Y1167120D01*
X684605Y1167115D01*
X685235Y1165996D01*
X685242Y1165993D01*
X685241Y1165987D01*
X686104Y1165037D01*
X686112Y1165036D01*
X686112Y1165030D01*
X687165Y1164296D01*
X687173Y1164296D01*
X687175Y1164291D01*
X688365Y1163809D01*
X688372Y1163811D01*
X688375Y1163806D01*
X689642Y1163601D01*
X689647Y1163604D01*
X689650Y1163601D01*
X701650Y1163601D01*
X701654Y1163604D01*
G37*
G36*
X59034Y584524D02*
X59034Y584524D01*
X59037Y584521D01*
X60159Y584676D01*
X60164Y584681D01*
X60168Y584678D01*
X61239Y585049D01*
X61243Y585055D01*
X61248Y585053D01*
X62225Y585626D01*
X62228Y585632D01*
X62233Y585631D01*
X63080Y586384D01*
X63082Y586391D01*
X63087Y586391D01*
X63771Y587294D01*
X63771Y587301D01*
X63776Y587302D01*
X64271Y588321D01*
X64269Y588328D01*
X64274Y588330D01*
X64561Y589427D01*
X64559Y589431D01*
X64561Y589432D01*
X64559Y589434D01*
X64562Y589436D01*
X64629Y590567D01*
X64627Y590571D01*
X64629Y590573D01*
X64562Y591704D01*
X64557Y591709D01*
X64561Y591713D01*
X64274Y592810D01*
X64268Y592814D01*
X64271Y592819D01*
X63776Y593838D01*
X63770Y593841D01*
X63771Y593846D01*
X63087Y594749D01*
X63080Y594751D01*
X63080Y594756D01*
X62233Y595509D01*
X62226Y595509D01*
X62225Y595514D01*
X61248Y596087D01*
X61241Y596086D01*
X61239Y596091D01*
X60168Y596462D01*
X60162Y596459D01*
X60159Y596464D01*
X59037Y596619D01*
X59032Y596616D01*
X59030Y596619D01*
X47030Y596619D01*
X47025Y596616D01*
X47022Y596619D01*
X45755Y596414D01*
X45749Y596408D01*
X45745Y596411D01*
X44555Y595929D01*
X44551Y595922D01*
X44545Y595924D01*
X43492Y595190D01*
X43490Y595182D01*
X43484Y595183D01*
X42621Y594233D01*
X42620Y594224D01*
X42615Y594224D01*
X41985Y593105D01*
X41986Y593097D01*
X41980Y593095D01*
X41615Y591865D01*
X41618Y591857D01*
X41613Y591854D01*
X41531Y590573D01*
X41534Y590569D01*
X41531Y590567D01*
X41613Y589286D01*
X41619Y589280D01*
X41615Y589275D01*
X41980Y588045D01*
X41987Y588040D01*
X41985Y588035D01*
X42615Y586916D01*
X42622Y586913D01*
X42621Y586907D01*
X43484Y585957D01*
X43492Y585956D01*
X43492Y585950D01*
X44545Y585216D01*
X44553Y585216D01*
X44555Y585211D01*
X45745Y584729D01*
X45752Y584731D01*
X45755Y584726D01*
X47022Y584521D01*
X47027Y584524D01*
X47030Y584521D01*
X59030Y584521D01*
X59034Y584524D01*
G37*
G36*
X59034Y730534D02*
X59034Y730534D01*
X59037Y730531D01*
X60159Y730686D01*
X60164Y730691D01*
X60168Y730688D01*
X61239Y731059D01*
X61243Y731065D01*
X61248Y731063D01*
X62225Y731636D01*
X62228Y731642D01*
X62233Y731641D01*
X63080Y732394D01*
X63082Y732401D01*
X63087Y732401D01*
X63771Y733304D01*
X63771Y733311D01*
X63776Y733312D01*
X64271Y734331D01*
X64269Y734338D01*
X64274Y734340D01*
X64561Y735437D01*
X64559Y735441D01*
X64561Y735442D01*
X64559Y735444D01*
X64562Y735446D01*
X64629Y736577D01*
X64627Y736581D01*
X64629Y736583D01*
X64562Y737714D01*
X64557Y737719D01*
X64561Y737723D01*
X64274Y738820D01*
X64268Y738824D01*
X64271Y738829D01*
X63776Y739848D01*
X63770Y739851D01*
X63771Y739856D01*
X63087Y740759D01*
X63080Y740761D01*
X63080Y740766D01*
X62233Y741519D01*
X62226Y741519D01*
X62225Y741524D01*
X61248Y742097D01*
X61241Y742096D01*
X61239Y742101D01*
X60168Y742472D01*
X60162Y742469D01*
X60159Y742474D01*
X59037Y742629D01*
X59032Y742626D01*
X59030Y742629D01*
X47030Y742629D01*
X47025Y742626D01*
X47022Y742629D01*
X45755Y742424D01*
X45749Y742418D01*
X45745Y742421D01*
X44555Y741939D01*
X44551Y741932D01*
X44545Y741934D01*
X43492Y741200D01*
X43490Y741192D01*
X43484Y741193D01*
X42621Y740243D01*
X42620Y740234D01*
X42615Y740234D01*
X41985Y739115D01*
X41986Y739107D01*
X41980Y739105D01*
X41615Y737875D01*
X41618Y737867D01*
X41613Y737864D01*
X41531Y736583D01*
X41534Y736579D01*
X41531Y736577D01*
X41613Y735296D01*
X41619Y735290D01*
X41615Y735285D01*
X41980Y734055D01*
X41987Y734050D01*
X41985Y734045D01*
X42615Y732926D01*
X42622Y732923D01*
X42621Y732917D01*
X43484Y731967D01*
X43492Y731966D01*
X43492Y731960D01*
X44545Y731226D01*
X44553Y731226D01*
X44555Y731221D01*
X45745Y730739D01*
X45752Y730741D01*
X45755Y730736D01*
X47022Y730531D01*
X47027Y730534D01*
X47030Y730531D01*
X59030Y730531D01*
X59034Y730534D01*
G37*
G36*
X701654Y151454D02*
X701654Y151454D01*
X701657Y151451D01*
X702779Y151606D01*
X702784Y151611D01*
X702788Y151608D01*
X703859Y151979D01*
X703863Y151985D01*
X703868Y151983D01*
X704845Y152556D01*
X704848Y152562D01*
X704853Y152561D01*
X705700Y153314D01*
X705702Y153321D01*
X705707Y153321D01*
X706391Y154224D01*
X706391Y154231D01*
X706396Y154232D01*
X706891Y155251D01*
X706889Y155258D01*
X706894Y155260D01*
X707181Y156357D01*
X707179Y156361D01*
X707181Y156362D01*
X707179Y156364D01*
X707182Y156366D01*
X707249Y157497D01*
X707247Y157501D01*
X707249Y157503D01*
X707182Y158634D01*
X707177Y158639D01*
X707181Y158643D01*
X706894Y159740D01*
X706888Y159744D01*
X706891Y159749D01*
X706396Y160768D01*
X706390Y160771D01*
X706391Y160776D01*
X705707Y161679D01*
X705700Y161681D01*
X705700Y161686D01*
X704853Y162439D01*
X704846Y162439D01*
X704845Y162444D01*
X703868Y163017D01*
X703861Y163016D01*
X703859Y163021D01*
X702788Y163392D01*
X702782Y163389D01*
X702779Y163394D01*
X701657Y163549D01*
X701652Y163546D01*
X701650Y163549D01*
X689650Y163549D01*
X689645Y163546D01*
X689642Y163549D01*
X688375Y163344D01*
X688369Y163338D01*
X688365Y163341D01*
X687175Y162859D01*
X687171Y162852D01*
X687165Y162854D01*
X686112Y162120D01*
X686110Y162112D01*
X686104Y162113D01*
X685241Y161163D01*
X685240Y161154D01*
X685235Y161154D01*
X684605Y160035D01*
X684606Y160027D01*
X684600Y160025D01*
X684235Y158795D01*
X684238Y158787D01*
X684233Y158784D01*
X684151Y157503D01*
X684154Y157499D01*
X684151Y157497D01*
X684233Y156216D01*
X684239Y156210D01*
X684235Y156205D01*
X684600Y154975D01*
X684607Y154970D01*
X684605Y154965D01*
X685235Y153846D01*
X685242Y153843D01*
X685241Y153837D01*
X686104Y152887D01*
X686112Y152886D01*
X686112Y152880D01*
X687165Y152146D01*
X687173Y152146D01*
X687175Y152141D01*
X688365Y151659D01*
X688372Y151661D01*
X688375Y151656D01*
X689642Y151451D01*
X689647Y151454D01*
X689650Y151451D01*
X701650Y151451D01*
X701654Y151454D01*
G37*
G36*
X59034Y151454D02*
X59034Y151454D01*
X59037Y151451D01*
X60159Y151606D01*
X60164Y151611D01*
X60168Y151608D01*
X61239Y151979D01*
X61243Y151985D01*
X61248Y151983D01*
X62225Y152556D01*
X62228Y152562D01*
X62233Y152561D01*
X63080Y153314D01*
X63082Y153321D01*
X63087Y153321D01*
X63771Y154224D01*
X63771Y154231D01*
X63776Y154232D01*
X64271Y155251D01*
X64269Y155258D01*
X64274Y155260D01*
X64561Y156357D01*
X64559Y156361D01*
X64561Y156362D01*
X64559Y156364D01*
X64562Y156366D01*
X64629Y157497D01*
X64627Y157501D01*
X64629Y157503D01*
X64562Y158634D01*
X64557Y158639D01*
X64561Y158643D01*
X64274Y159740D01*
X64268Y159744D01*
X64271Y159749D01*
X63776Y160768D01*
X63770Y160771D01*
X63771Y160776D01*
X63087Y161679D01*
X63080Y161681D01*
X63080Y161686D01*
X62233Y162439D01*
X62226Y162439D01*
X62225Y162444D01*
X61248Y163017D01*
X61241Y163016D01*
X61239Y163021D01*
X60168Y163392D01*
X60162Y163389D01*
X60159Y163394D01*
X59037Y163549D01*
X59032Y163546D01*
X59030Y163549D01*
X47030Y163549D01*
X47025Y163546D01*
X47022Y163549D01*
X45755Y163344D01*
X45749Y163338D01*
X45745Y163341D01*
X44555Y162859D01*
X44551Y162852D01*
X44545Y162854D01*
X43492Y162120D01*
X43490Y162112D01*
X43484Y162113D01*
X42621Y161163D01*
X42620Y161154D01*
X42615Y161154D01*
X41985Y160035D01*
X41986Y160027D01*
X41980Y160025D01*
X41615Y158795D01*
X41618Y158787D01*
X41613Y158784D01*
X41531Y157503D01*
X41534Y157499D01*
X41531Y157497D01*
X41613Y156216D01*
X41619Y156210D01*
X41615Y156205D01*
X41980Y154975D01*
X41987Y154970D01*
X41985Y154965D01*
X42615Y153846D01*
X42622Y153843D01*
X42621Y153837D01*
X43484Y152887D01*
X43492Y152886D01*
X43492Y152880D01*
X44545Y152146D01*
X44553Y152146D01*
X44555Y152141D01*
X45745Y151659D01*
X45752Y151661D01*
X45755Y151656D01*
X47022Y151451D01*
X47027Y151454D01*
X47030Y151451D01*
X59030Y151451D01*
X59034Y151454D01*
G37*
G36*
X701654Y65054D02*
X701654Y65054D01*
X701657Y65051D01*
X702779Y65206D01*
X702784Y65211D01*
X702788Y65208D01*
X703859Y65579D01*
X703863Y65585D01*
X703868Y65583D01*
X704845Y66156D01*
X704848Y66162D01*
X704853Y66161D01*
X705700Y66914D01*
X705702Y66921D01*
X705707Y66921D01*
X706391Y67824D01*
X706391Y67831D01*
X706396Y67832D01*
X706891Y68851D01*
X706889Y68858D01*
X706894Y68860D01*
X707181Y69957D01*
X707179Y69961D01*
X707181Y69962D01*
X707179Y69964D01*
X707182Y69966D01*
X707249Y71097D01*
X707247Y71101D01*
X707249Y71103D01*
X707182Y72234D01*
X707177Y72239D01*
X707181Y72243D01*
X706894Y73340D01*
X706888Y73344D01*
X706891Y73349D01*
X706396Y74368D01*
X706390Y74371D01*
X706391Y74376D01*
X705707Y75279D01*
X705700Y75281D01*
X705700Y75286D01*
X704853Y76039D01*
X704846Y76039D01*
X704845Y76044D01*
X703868Y76617D01*
X703861Y76616D01*
X703859Y76621D01*
X702788Y76992D01*
X702782Y76989D01*
X702779Y76994D01*
X701657Y77149D01*
X701652Y77146D01*
X701650Y77149D01*
X689650Y77149D01*
X689645Y77146D01*
X689642Y77149D01*
X688375Y76944D01*
X688369Y76938D01*
X688365Y76941D01*
X687175Y76459D01*
X687171Y76452D01*
X687165Y76454D01*
X686112Y75720D01*
X686110Y75712D01*
X686104Y75713D01*
X685241Y74763D01*
X685240Y74754D01*
X685235Y74754D01*
X684605Y73635D01*
X684606Y73627D01*
X684600Y73625D01*
X684235Y72395D01*
X684238Y72387D01*
X684233Y72384D01*
X684151Y71103D01*
X684154Y71099D01*
X684151Y71097D01*
X684233Y69816D01*
X684239Y69810D01*
X684235Y69805D01*
X684600Y68575D01*
X684607Y68570D01*
X684605Y68565D01*
X685235Y67446D01*
X685242Y67443D01*
X685241Y67437D01*
X686104Y66487D01*
X686112Y66486D01*
X686112Y66480D01*
X687165Y65746D01*
X687173Y65746D01*
X687175Y65741D01*
X688365Y65259D01*
X688372Y65261D01*
X688375Y65256D01*
X689642Y65051D01*
X689647Y65054D01*
X689650Y65051D01*
X701650Y65051D01*
X701654Y65054D01*
G37*
G36*
X656853Y816933D02*
X656853Y816933D01*
X656855Y816931D01*
X658031Y817042D01*
X658036Y817047D01*
X658040Y817044D01*
X659172Y817382D01*
X659176Y817388D01*
X659181Y817386D01*
X660225Y817938D01*
X660228Y817945D01*
X660233Y817943D01*
X661149Y818689D01*
X661150Y818696D01*
X661156Y818696D01*
X661909Y819606D01*
X661909Y819613D01*
X661914Y819614D01*
X662475Y820653D01*
X662474Y820658D01*
X662478Y820660D01*
X662477Y820661D01*
X662479Y820662D01*
X662826Y821791D01*
X662826Y821792D01*
X662827Y821793D01*
X662824Y821797D01*
X662828Y821800D01*
X662949Y822975D01*
X662945Y822982D01*
X662949Y822986D01*
X662792Y824326D01*
X662787Y824332D01*
X662790Y824337D01*
X662339Y825608D01*
X662332Y825613D01*
X662334Y825618D01*
X661612Y826757D01*
X661604Y826760D01*
X661605Y826766D01*
X660647Y827716D01*
X660639Y827717D01*
X660638Y827723D01*
X659493Y828436D01*
X659485Y828435D01*
X659483Y828441D01*
X658207Y828881D01*
X658200Y828879D01*
X658197Y828883D01*
X656855Y829029D01*
X656852Y829027D01*
X656850Y829029D01*
X650850Y829029D01*
X650847Y829027D01*
X650844Y829029D01*
X649515Y828874D01*
X649509Y828868D01*
X649505Y828871D01*
X648244Y828424D01*
X648239Y828417D01*
X648234Y828419D01*
X647104Y827702D01*
X647101Y827695D01*
X647095Y827696D01*
X646153Y826746D01*
X646152Y826737D01*
X646146Y826737D01*
X645439Y825601D01*
X645440Y825593D01*
X645434Y825591D01*
X644998Y824326D01*
X645000Y824318D01*
X644995Y824316D01*
X644851Y822985D01*
X644855Y822979D01*
X644851Y822975D01*
X644961Y821809D01*
X644966Y821804D01*
X644963Y821800D01*
X645298Y820677D01*
X645304Y820673D01*
X645302Y820669D01*
X645850Y819633D01*
X645856Y819630D01*
X645855Y819625D01*
X646594Y818717D01*
X646601Y818715D01*
X646601Y818710D01*
X647503Y817963D01*
X647511Y817963D01*
X647511Y817958D01*
X648542Y817401D01*
X648549Y817402D01*
X648551Y817397D01*
X649670Y817053D01*
X649677Y817055D01*
X649680Y817051D01*
X650845Y816931D01*
X650848Y816933D01*
X650850Y816931D01*
X656850Y816931D01*
X656853Y816933D01*
G37*
G36*
X14233Y816933D02*
X14233Y816933D01*
X14235Y816931D01*
X15411Y817042D01*
X15416Y817047D01*
X15420Y817044D01*
X16552Y817382D01*
X16556Y817388D01*
X16561Y817386D01*
X17605Y817938D01*
X17608Y817945D01*
X17613Y817943D01*
X18529Y818689D01*
X18530Y818696D01*
X18536Y818696D01*
X19289Y819606D01*
X19289Y819613D01*
X19294Y819614D01*
X19855Y820653D01*
X19854Y820658D01*
X19858Y820660D01*
X19857Y820661D01*
X19859Y820662D01*
X20206Y821791D01*
X20206Y821792D01*
X20207Y821793D01*
X20204Y821797D01*
X20208Y821800D01*
X20329Y822975D01*
X20325Y822982D01*
X20329Y822986D01*
X20172Y824326D01*
X20167Y824332D01*
X20170Y824337D01*
X19719Y825608D01*
X19712Y825613D01*
X19714Y825618D01*
X18992Y826757D01*
X18984Y826760D01*
X18985Y826766D01*
X18027Y827716D01*
X18019Y827717D01*
X18018Y827723D01*
X16873Y828436D01*
X16865Y828435D01*
X16863Y828441D01*
X15587Y828881D01*
X15580Y828879D01*
X15577Y828883D01*
X14235Y829029D01*
X14232Y829027D01*
X14230Y829029D01*
X8230Y829029D01*
X8227Y829027D01*
X8224Y829029D01*
X6895Y828874D01*
X6889Y828868D01*
X6885Y828871D01*
X5624Y828424D01*
X5619Y828417D01*
X5614Y828419D01*
X4484Y827702D01*
X4481Y827695D01*
X4475Y827696D01*
X3533Y826746D01*
X3532Y826737D01*
X3526Y826737D01*
X2819Y825601D01*
X2820Y825593D01*
X2814Y825591D01*
X2378Y824326D01*
X2380Y824318D01*
X2375Y824316D01*
X2231Y822985D01*
X2235Y822979D01*
X2231Y822975D01*
X2341Y821809D01*
X2346Y821804D01*
X2343Y821800D01*
X2678Y820677D01*
X2684Y820673D01*
X2682Y820669D01*
X3230Y819633D01*
X3236Y819630D01*
X3235Y819625D01*
X3974Y818717D01*
X3981Y818715D01*
X3981Y818710D01*
X4883Y817963D01*
X4891Y817963D01*
X4891Y817958D01*
X5922Y817401D01*
X5929Y817402D01*
X5931Y817397D01*
X7050Y817053D01*
X7057Y817055D01*
X7060Y817051D01*
X8225Y816931D01*
X8228Y816933D01*
X8230Y816931D01*
X14230Y816931D01*
X14233Y816933D01*
G37*
G36*
X656853Y498123D02*
X656853Y498123D01*
X656855Y498121D01*
X658031Y498232D01*
X658036Y498237D01*
X658040Y498234D01*
X659172Y498572D01*
X659176Y498578D01*
X659181Y498576D01*
X660225Y499128D01*
X660228Y499135D01*
X660233Y499133D01*
X661149Y499879D01*
X661150Y499886D01*
X661156Y499886D01*
X661909Y500796D01*
X661909Y500803D01*
X661914Y500804D01*
X662475Y501843D01*
X662474Y501848D01*
X662478Y501850D01*
X662477Y501851D01*
X662479Y501852D01*
X662826Y502981D01*
X662826Y502982D01*
X662827Y502983D01*
X662824Y502987D01*
X662828Y502990D01*
X662949Y504165D01*
X662945Y504172D01*
X662949Y504176D01*
X662792Y505516D01*
X662787Y505522D01*
X662790Y505527D01*
X662339Y506798D01*
X662332Y506803D01*
X662334Y506808D01*
X661612Y507947D01*
X661604Y507950D01*
X661605Y507956D01*
X660647Y508906D01*
X660639Y508907D01*
X660638Y508913D01*
X659493Y509626D01*
X659485Y509625D01*
X659483Y509631D01*
X658207Y510071D01*
X658200Y510069D01*
X658197Y510073D01*
X656855Y510219D01*
X656852Y510217D01*
X656850Y510219D01*
X650850Y510219D01*
X650847Y510217D01*
X650844Y510219D01*
X649515Y510064D01*
X649509Y510058D01*
X649505Y510061D01*
X648244Y509614D01*
X648239Y509607D01*
X648234Y509609D01*
X647104Y508892D01*
X647101Y508885D01*
X647095Y508886D01*
X646153Y507936D01*
X646152Y507927D01*
X646146Y507927D01*
X645439Y506791D01*
X645440Y506783D01*
X645434Y506781D01*
X644998Y505516D01*
X645000Y505508D01*
X644995Y505506D01*
X644851Y504175D01*
X644855Y504169D01*
X644851Y504165D01*
X644961Y502999D01*
X644966Y502994D01*
X644963Y502990D01*
X645298Y501867D01*
X645304Y501863D01*
X645302Y501859D01*
X645850Y500823D01*
X645856Y500820D01*
X645855Y500815D01*
X646594Y499907D01*
X646601Y499905D01*
X646601Y499900D01*
X647503Y499153D01*
X647511Y499153D01*
X647511Y499148D01*
X648542Y498591D01*
X648549Y498592D01*
X648551Y498587D01*
X649670Y498243D01*
X649677Y498245D01*
X649680Y498241D01*
X650845Y498121D01*
X650848Y498123D01*
X650850Y498121D01*
X656850Y498121D01*
X656853Y498123D01*
G37*
G36*
X14233Y498123D02*
X14233Y498123D01*
X14235Y498121D01*
X15411Y498232D01*
X15416Y498237D01*
X15420Y498234D01*
X16552Y498572D01*
X16556Y498578D01*
X16561Y498576D01*
X17605Y499128D01*
X17608Y499135D01*
X17613Y499133D01*
X18529Y499879D01*
X18530Y499886D01*
X18536Y499886D01*
X19289Y500796D01*
X19289Y500803D01*
X19294Y500804D01*
X19855Y501843D01*
X19854Y501848D01*
X19858Y501850D01*
X19857Y501851D01*
X19859Y501852D01*
X20206Y502981D01*
X20206Y502982D01*
X20207Y502983D01*
X20204Y502987D01*
X20208Y502990D01*
X20329Y504165D01*
X20325Y504172D01*
X20329Y504176D01*
X20172Y505516D01*
X20167Y505522D01*
X20170Y505527D01*
X19719Y506798D01*
X19712Y506803D01*
X19714Y506808D01*
X18992Y507947D01*
X18984Y507950D01*
X18985Y507956D01*
X18027Y508906D01*
X18019Y508907D01*
X18018Y508913D01*
X16873Y509626D01*
X16865Y509625D01*
X16863Y509631D01*
X15587Y510071D01*
X15580Y510069D01*
X15577Y510073D01*
X14235Y510219D01*
X14232Y510217D01*
X14230Y510219D01*
X8230Y510219D01*
X8227Y510217D01*
X8224Y510219D01*
X6895Y510064D01*
X6889Y510058D01*
X6885Y510061D01*
X5624Y509614D01*
X5619Y509607D01*
X5614Y509609D01*
X4484Y508892D01*
X4481Y508885D01*
X4475Y508886D01*
X3533Y507936D01*
X3532Y507927D01*
X3526Y507927D01*
X2819Y506791D01*
X2820Y506783D01*
X2814Y506781D01*
X2378Y505516D01*
X2380Y505508D01*
X2375Y505506D01*
X2231Y504175D01*
X2235Y504169D01*
X2231Y504165D01*
X2341Y502999D01*
X2346Y502994D01*
X2343Y502990D01*
X2678Y501867D01*
X2684Y501863D01*
X2682Y501859D01*
X3230Y500823D01*
X3236Y500820D01*
X3235Y500815D01*
X3974Y499907D01*
X3981Y499905D01*
X3981Y499900D01*
X4883Y499153D01*
X4891Y499153D01*
X4891Y499148D01*
X5922Y498591D01*
X5929Y498592D01*
X5931Y498587D01*
X7050Y498243D01*
X7057Y498245D01*
X7060Y498241D01*
X8225Y498121D01*
X8228Y498123D01*
X8230Y498121D01*
X14230Y498121D01*
X14233Y498123D01*
G37*
G36*
X656853Y730533D02*
X656853Y730533D01*
X656855Y730531D01*
X658031Y730642D01*
X658036Y730647D01*
X658040Y730644D01*
X659172Y730982D01*
X659176Y730988D01*
X659181Y730986D01*
X660225Y731538D01*
X660228Y731545D01*
X660233Y731543D01*
X661149Y732289D01*
X661150Y732296D01*
X661156Y732296D01*
X661909Y733206D01*
X661909Y733213D01*
X661914Y733214D01*
X662475Y734253D01*
X662474Y734258D01*
X662478Y734260D01*
X662477Y734261D01*
X662479Y734262D01*
X662826Y735391D01*
X662826Y735392D01*
X662827Y735393D01*
X662824Y735397D01*
X662828Y735400D01*
X662949Y736575D01*
X662945Y736582D01*
X662949Y736586D01*
X662792Y737926D01*
X662787Y737932D01*
X662790Y737937D01*
X662339Y739208D01*
X662332Y739213D01*
X662334Y739218D01*
X661612Y740357D01*
X661604Y740360D01*
X661605Y740366D01*
X660647Y741316D01*
X660639Y741317D01*
X660638Y741323D01*
X659493Y742036D01*
X659485Y742035D01*
X659483Y742041D01*
X658207Y742481D01*
X658200Y742479D01*
X658197Y742483D01*
X656855Y742629D01*
X656852Y742627D01*
X656850Y742629D01*
X650850Y742629D01*
X650847Y742627D01*
X650844Y742629D01*
X649515Y742474D01*
X649509Y742468D01*
X649505Y742471D01*
X648244Y742024D01*
X648239Y742017D01*
X648234Y742019D01*
X647104Y741302D01*
X647101Y741295D01*
X647095Y741296D01*
X646153Y740346D01*
X646152Y740337D01*
X646146Y740337D01*
X645439Y739201D01*
X645440Y739193D01*
X645434Y739191D01*
X644998Y737926D01*
X645000Y737918D01*
X644995Y737916D01*
X644851Y736585D01*
X644855Y736579D01*
X644851Y736575D01*
X644961Y735409D01*
X644966Y735404D01*
X644963Y735400D01*
X645298Y734277D01*
X645304Y734273D01*
X645302Y734269D01*
X645850Y733233D01*
X645856Y733230D01*
X645855Y733225D01*
X646594Y732317D01*
X646601Y732315D01*
X646601Y732310D01*
X647503Y731563D01*
X647511Y731563D01*
X647511Y731558D01*
X648542Y731001D01*
X648549Y731002D01*
X648551Y730997D01*
X649670Y730653D01*
X649677Y730655D01*
X649680Y730651D01*
X650845Y730531D01*
X650848Y730533D01*
X650850Y730531D01*
X656850Y730531D01*
X656853Y730533D01*
G37*
G36*
X14233Y1250003D02*
X14233Y1250003D01*
X14235Y1250001D01*
X15411Y1250112D01*
X15416Y1250117D01*
X15420Y1250114D01*
X16552Y1250452D01*
X16556Y1250458D01*
X16561Y1250456D01*
X17605Y1251008D01*
X17608Y1251015D01*
X17613Y1251013D01*
X18529Y1251759D01*
X18530Y1251766D01*
X18536Y1251766D01*
X19289Y1252676D01*
X19289Y1252683D01*
X19294Y1252684D01*
X19855Y1253723D01*
X19854Y1253728D01*
X19858Y1253730D01*
X19857Y1253731D01*
X19859Y1253732D01*
X20206Y1254861D01*
X20206Y1254862D01*
X20207Y1254863D01*
X20204Y1254867D01*
X20208Y1254870D01*
X20329Y1256045D01*
X20325Y1256052D01*
X20329Y1256056D01*
X20172Y1257396D01*
X20167Y1257402D01*
X20170Y1257407D01*
X19719Y1258678D01*
X19712Y1258683D01*
X19714Y1258688D01*
X18992Y1259827D01*
X18984Y1259830D01*
X18985Y1259836D01*
X18027Y1260786D01*
X18019Y1260787D01*
X18018Y1260793D01*
X16873Y1261506D01*
X16865Y1261505D01*
X16863Y1261511D01*
X15587Y1261951D01*
X15580Y1261949D01*
X15577Y1261953D01*
X14235Y1262099D01*
X14232Y1262097D01*
X14230Y1262099D01*
X8230Y1262099D01*
X8227Y1262097D01*
X8224Y1262099D01*
X6895Y1261944D01*
X6889Y1261938D01*
X6885Y1261941D01*
X5624Y1261494D01*
X5619Y1261487D01*
X5614Y1261489D01*
X4484Y1260772D01*
X4481Y1260765D01*
X4475Y1260766D01*
X3533Y1259816D01*
X3532Y1259807D01*
X3526Y1259807D01*
X2819Y1258671D01*
X2820Y1258663D01*
X2814Y1258661D01*
X2378Y1257396D01*
X2380Y1257388D01*
X2375Y1257386D01*
X2231Y1256055D01*
X2235Y1256049D01*
X2231Y1256045D01*
X2341Y1254879D01*
X2346Y1254874D01*
X2343Y1254870D01*
X2678Y1253747D01*
X2684Y1253743D01*
X2682Y1253739D01*
X3230Y1252703D01*
X3236Y1252700D01*
X3235Y1252695D01*
X3974Y1251787D01*
X3981Y1251785D01*
X3981Y1251780D01*
X4883Y1251033D01*
X4891Y1251033D01*
X4891Y1251028D01*
X5922Y1250471D01*
X5929Y1250472D01*
X5931Y1250467D01*
X7050Y1250123D01*
X7057Y1250125D01*
X7060Y1250121D01*
X8225Y1250001D01*
X8228Y1250003D01*
X8230Y1250001D01*
X14230Y1250001D01*
X14233Y1250003D01*
G37*
G36*
X656853Y584523D02*
X656853Y584523D01*
X656855Y584521D01*
X658031Y584632D01*
X658036Y584637D01*
X658040Y584634D01*
X659172Y584972D01*
X659176Y584978D01*
X659181Y584976D01*
X660225Y585528D01*
X660228Y585535D01*
X660233Y585533D01*
X661149Y586279D01*
X661150Y586286D01*
X661156Y586286D01*
X661909Y587196D01*
X661909Y587203D01*
X661914Y587204D01*
X662475Y588243D01*
X662474Y588248D01*
X662478Y588250D01*
X662477Y588251D01*
X662479Y588252D01*
X662826Y589381D01*
X662826Y589382D01*
X662827Y589383D01*
X662824Y589387D01*
X662828Y589390D01*
X662949Y590565D01*
X662945Y590572D01*
X662949Y590576D01*
X662792Y591916D01*
X662787Y591922D01*
X662790Y591927D01*
X662339Y593198D01*
X662332Y593203D01*
X662334Y593208D01*
X661612Y594347D01*
X661604Y594350D01*
X661605Y594356D01*
X660647Y595306D01*
X660639Y595307D01*
X660638Y595313D01*
X659493Y596026D01*
X659485Y596025D01*
X659483Y596031D01*
X658207Y596471D01*
X658200Y596469D01*
X658197Y596473D01*
X656855Y596619D01*
X656852Y596617D01*
X656850Y596619D01*
X650850Y596619D01*
X650847Y596617D01*
X650844Y596619D01*
X649515Y596464D01*
X649509Y596458D01*
X649505Y596461D01*
X648244Y596014D01*
X648239Y596007D01*
X648234Y596009D01*
X647104Y595292D01*
X647101Y595285D01*
X647095Y595286D01*
X646153Y594336D01*
X646152Y594327D01*
X646146Y594327D01*
X645439Y593191D01*
X645440Y593183D01*
X645434Y593181D01*
X644998Y591916D01*
X645000Y591908D01*
X644995Y591906D01*
X644851Y590575D01*
X644855Y590569D01*
X644851Y590565D01*
X644961Y589399D01*
X644966Y589394D01*
X644963Y589390D01*
X645298Y588267D01*
X645304Y588263D01*
X645302Y588259D01*
X645850Y587223D01*
X645856Y587220D01*
X645855Y587215D01*
X646594Y586307D01*
X646601Y586305D01*
X646601Y586300D01*
X647503Y585553D01*
X647511Y585553D01*
X647511Y585548D01*
X648542Y584991D01*
X648549Y584992D01*
X648551Y584987D01*
X649670Y584643D01*
X649677Y584645D01*
X649680Y584641D01*
X650845Y584521D01*
X650848Y584523D01*
X650850Y584521D01*
X656850Y584521D01*
X656853Y584523D01*
G37*
G36*
X656853Y1250003D02*
X656853Y1250003D01*
X656855Y1250001D01*
X658031Y1250112D01*
X658036Y1250117D01*
X658040Y1250114D01*
X659172Y1250452D01*
X659176Y1250458D01*
X659181Y1250456D01*
X660225Y1251008D01*
X660228Y1251015D01*
X660233Y1251013D01*
X661149Y1251759D01*
X661150Y1251766D01*
X661156Y1251766D01*
X661909Y1252676D01*
X661909Y1252683D01*
X661914Y1252684D01*
X662475Y1253723D01*
X662474Y1253728D01*
X662478Y1253730D01*
X662477Y1253731D01*
X662479Y1253732D01*
X662826Y1254861D01*
X662826Y1254862D01*
X662827Y1254863D01*
X662824Y1254867D01*
X662828Y1254870D01*
X662949Y1256045D01*
X662945Y1256052D01*
X662949Y1256056D01*
X662792Y1257396D01*
X662787Y1257402D01*
X662790Y1257407D01*
X662339Y1258678D01*
X662332Y1258683D01*
X662334Y1258688D01*
X661612Y1259827D01*
X661604Y1259830D01*
X661605Y1259836D01*
X660647Y1260786D01*
X660639Y1260787D01*
X660638Y1260793D01*
X659493Y1261506D01*
X659485Y1261505D01*
X659483Y1261511D01*
X658207Y1261951D01*
X658200Y1261949D01*
X658197Y1261953D01*
X656855Y1262099D01*
X656852Y1262097D01*
X656850Y1262099D01*
X650850Y1262099D01*
X650847Y1262097D01*
X650844Y1262099D01*
X649515Y1261944D01*
X649509Y1261938D01*
X649505Y1261941D01*
X648244Y1261494D01*
X648239Y1261487D01*
X648234Y1261489D01*
X647104Y1260772D01*
X647101Y1260765D01*
X647095Y1260766D01*
X646153Y1259816D01*
X646152Y1259807D01*
X646146Y1259807D01*
X645439Y1258671D01*
X645440Y1258663D01*
X645434Y1258661D01*
X644998Y1257396D01*
X645000Y1257388D01*
X644995Y1257386D01*
X644851Y1256055D01*
X644855Y1256049D01*
X644851Y1256045D01*
X644961Y1254879D01*
X644966Y1254874D01*
X644963Y1254870D01*
X645298Y1253747D01*
X645304Y1253743D01*
X645302Y1253739D01*
X645850Y1252703D01*
X645856Y1252700D01*
X645855Y1252695D01*
X646594Y1251787D01*
X646601Y1251785D01*
X646601Y1251780D01*
X647503Y1251033D01*
X647511Y1251033D01*
X647511Y1251028D01*
X648542Y1250471D01*
X648549Y1250472D01*
X648551Y1250467D01*
X649670Y1250123D01*
X649677Y1250125D01*
X649680Y1250121D01*
X650845Y1250001D01*
X650848Y1250003D01*
X650850Y1250001D01*
X656850Y1250001D01*
X656853Y1250003D01*
G37*
G36*
X14233Y584523D02*
X14233Y584523D01*
X14235Y584521D01*
X15411Y584632D01*
X15416Y584637D01*
X15420Y584634D01*
X16552Y584972D01*
X16556Y584978D01*
X16561Y584976D01*
X17605Y585528D01*
X17608Y585535D01*
X17613Y585533D01*
X18529Y586279D01*
X18530Y586286D01*
X18536Y586286D01*
X19289Y587196D01*
X19289Y587203D01*
X19294Y587204D01*
X19855Y588243D01*
X19854Y588248D01*
X19858Y588250D01*
X19857Y588251D01*
X19859Y588252D01*
X20206Y589381D01*
X20206Y589382D01*
X20207Y589383D01*
X20204Y589387D01*
X20208Y589390D01*
X20329Y590565D01*
X20325Y590572D01*
X20329Y590576D01*
X20172Y591916D01*
X20167Y591922D01*
X20170Y591927D01*
X19719Y593198D01*
X19712Y593203D01*
X19714Y593208D01*
X18992Y594347D01*
X18984Y594350D01*
X18985Y594356D01*
X18027Y595306D01*
X18019Y595307D01*
X18018Y595313D01*
X16873Y596026D01*
X16865Y596025D01*
X16863Y596031D01*
X15587Y596471D01*
X15580Y596469D01*
X15577Y596473D01*
X14235Y596619D01*
X14232Y596617D01*
X14230Y596619D01*
X8230Y596619D01*
X8227Y596617D01*
X8224Y596619D01*
X6895Y596464D01*
X6889Y596458D01*
X6885Y596461D01*
X5624Y596014D01*
X5619Y596007D01*
X5614Y596009D01*
X4484Y595292D01*
X4481Y595285D01*
X4475Y595286D01*
X3533Y594336D01*
X3532Y594327D01*
X3526Y594327D01*
X2819Y593191D01*
X2820Y593183D01*
X2814Y593181D01*
X2378Y591916D01*
X2380Y591908D01*
X2375Y591906D01*
X2231Y590575D01*
X2235Y590569D01*
X2231Y590565D01*
X2341Y589399D01*
X2346Y589394D01*
X2343Y589390D01*
X2678Y588267D01*
X2684Y588263D01*
X2682Y588259D01*
X3230Y587223D01*
X3236Y587220D01*
X3235Y587215D01*
X3974Y586307D01*
X3981Y586305D01*
X3981Y586300D01*
X4883Y585553D01*
X4891Y585553D01*
X4891Y585548D01*
X5922Y584991D01*
X5929Y584992D01*
X5931Y584987D01*
X7050Y584643D01*
X7057Y584645D01*
X7060Y584641D01*
X8225Y584521D01*
X8228Y584523D01*
X8230Y584521D01*
X14230Y584521D01*
X14233Y584523D01*
G37*
G36*
X656853Y151453D02*
X656853Y151453D01*
X656855Y151451D01*
X658031Y151562D01*
X658036Y151567D01*
X658040Y151564D01*
X659172Y151902D01*
X659176Y151908D01*
X659181Y151906D01*
X660225Y152458D01*
X660228Y152465D01*
X660233Y152463D01*
X661149Y153209D01*
X661150Y153216D01*
X661156Y153216D01*
X661909Y154126D01*
X661909Y154133D01*
X661914Y154134D01*
X662475Y155173D01*
X662474Y155178D01*
X662478Y155180D01*
X662477Y155181D01*
X662479Y155182D01*
X662826Y156311D01*
X662826Y156312D01*
X662827Y156313D01*
X662824Y156317D01*
X662828Y156320D01*
X662949Y157495D01*
X662945Y157502D01*
X662949Y157506D01*
X662792Y158846D01*
X662787Y158852D01*
X662790Y158857D01*
X662339Y160128D01*
X662332Y160133D01*
X662334Y160138D01*
X661612Y161277D01*
X661604Y161280D01*
X661605Y161286D01*
X660647Y162236D01*
X660639Y162237D01*
X660638Y162243D01*
X659493Y162956D01*
X659485Y162955D01*
X659483Y162961D01*
X658207Y163401D01*
X658200Y163399D01*
X658197Y163403D01*
X656855Y163549D01*
X656852Y163547D01*
X656850Y163549D01*
X650850Y163549D01*
X650847Y163547D01*
X650844Y163549D01*
X649515Y163394D01*
X649509Y163388D01*
X649505Y163391D01*
X648244Y162944D01*
X648239Y162937D01*
X648234Y162939D01*
X647104Y162222D01*
X647101Y162215D01*
X647095Y162216D01*
X646153Y161266D01*
X646152Y161257D01*
X646146Y161257D01*
X645439Y160121D01*
X645440Y160113D01*
X645434Y160111D01*
X644998Y158846D01*
X645000Y158838D01*
X644995Y158836D01*
X644851Y157505D01*
X644855Y157499D01*
X644851Y157495D01*
X644961Y156329D01*
X644966Y156324D01*
X644963Y156320D01*
X645298Y155197D01*
X645304Y155193D01*
X645302Y155189D01*
X645850Y154153D01*
X645856Y154150D01*
X645855Y154145D01*
X646594Y153237D01*
X646601Y153235D01*
X646601Y153230D01*
X647503Y152483D01*
X647511Y152483D01*
X647511Y152478D01*
X648542Y151921D01*
X648549Y151922D01*
X648551Y151917D01*
X649670Y151573D01*
X649677Y151575D01*
X649680Y151571D01*
X650845Y151451D01*
X650848Y151453D01*
X650850Y151451D01*
X656850Y151451D01*
X656853Y151453D01*
G37*
G36*
X656853Y1163603D02*
X656853Y1163603D01*
X656855Y1163601D01*
X658031Y1163712D01*
X658036Y1163717D01*
X658040Y1163714D01*
X659172Y1164052D01*
X659176Y1164058D01*
X659181Y1164056D01*
X660225Y1164608D01*
X660228Y1164615D01*
X660233Y1164613D01*
X661149Y1165359D01*
X661150Y1165366D01*
X661156Y1165366D01*
X661909Y1166276D01*
X661909Y1166283D01*
X661914Y1166284D01*
X662475Y1167323D01*
X662474Y1167328D01*
X662478Y1167330D01*
X662477Y1167331D01*
X662479Y1167332D01*
X662826Y1168461D01*
X662826Y1168462D01*
X662827Y1168463D01*
X662824Y1168467D01*
X662828Y1168470D01*
X662949Y1169645D01*
X662945Y1169652D01*
X662949Y1169656D01*
X662792Y1170996D01*
X662787Y1171002D01*
X662790Y1171007D01*
X662339Y1172278D01*
X662332Y1172283D01*
X662334Y1172288D01*
X661612Y1173427D01*
X661604Y1173430D01*
X661605Y1173436D01*
X660647Y1174386D01*
X660639Y1174387D01*
X660638Y1174393D01*
X659493Y1175106D01*
X659485Y1175105D01*
X659483Y1175111D01*
X658207Y1175551D01*
X658200Y1175549D01*
X658197Y1175553D01*
X656855Y1175699D01*
X656852Y1175697D01*
X656850Y1175699D01*
X650850Y1175699D01*
X650847Y1175697D01*
X650844Y1175699D01*
X649515Y1175544D01*
X649509Y1175538D01*
X649505Y1175541D01*
X648244Y1175094D01*
X648239Y1175087D01*
X648234Y1175089D01*
X647104Y1174372D01*
X647101Y1174365D01*
X647095Y1174366D01*
X646153Y1173416D01*
X646152Y1173407D01*
X646146Y1173407D01*
X645439Y1172271D01*
X645440Y1172263D01*
X645434Y1172261D01*
X644998Y1170996D01*
X645000Y1170988D01*
X644995Y1170986D01*
X644851Y1169655D01*
X644855Y1169649D01*
X644851Y1169645D01*
X644961Y1168479D01*
X644966Y1168474D01*
X644963Y1168470D01*
X645298Y1167347D01*
X645304Y1167343D01*
X645302Y1167339D01*
X645850Y1166303D01*
X645856Y1166300D01*
X645855Y1166295D01*
X646594Y1165387D01*
X646601Y1165385D01*
X646601Y1165380D01*
X647503Y1164633D01*
X647511Y1164633D01*
X647511Y1164628D01*
X648542Y1164071D01*
X648549Y1164072D01*
X648551Y1164067D01*
X649670Y1163723D01*
X649677Y1163725D01*
X649680Y1163721D01*
X650845Y1163601D01*
X650848Y1163603D01*
X650850Y1163601D01*
X656850Y1163601D01*
X656853Y1163603D01*
G37*
G36*
X14233Y151453D02*
X14233Y151453D01*
X14235Y151451D01*
X15411Y151562D01*
X15416Y151567D01*
X15420Y151564D01*
X16552Y151902D01*
X16556Y151908D01*
X16561Y151906D01*
X17605Y152458D01*
X17608Y152465D01*
X17613Y152463D01*
X18529Y153209D01*
X18530Y153216D01*
X18536Y153216D01*
X19289Y154126D01*
X19289Y154133D01*
X19294Y154134D01*
X19855Y155173D01*
X19854Y155178D01*
X19858Y155180D01*
X19857Y155181D01*
X19859Y155182D01*
X20206Y156311D01*
X20206Y156312D01*
X20207Y156313D01*
X20204Y156317D01*
X20208Y156320D01*
X20329Y157495D01*
X20325Y157502D01*
X20329Y157506D01*
X20172Y158846D01*
X20167Y158852D01*
X20170Y158857D01*
X19719Y160128D01*
X19712Y160133D01*
X19714Y160138D01*
X18992Y161277D01*
X18984Y161280D01*
X18985Y161286D01*
X18027Y162236D01*
X18019Y162237D01*
X18018Y162243D01*
X16873Y162956D01*
X16865Y162955D01*
X16863Y162961D01*
X15587Y163401D01*
X15580Y163399D01*
X15577Y163403D01*
X14235Y163549D01*
X14232Y163547D01*
X14230Y163549D01*
X8230Y163549D01*
X8227Y163547D01*
X8224Y163549D01*
X6895Y163394D01*
X6889Y163388D01*
X6885Y163391D01*
X5624Y162944D01*
X5619Y162937D01*
X5614Y162939D01*
X4484Y162222D01*
X4481Y162215D01*
X4475Y162216D01*
X3533Y161266D01*
X3532Y161257D01*
X3526Y161257D01*
X2819Y160121D01*
X2820Y160113D01*
X2814Y160111D01*
X2378Y158846D01*
X2380Y158838D01*
X2375Y158836D01*
X2231Y157505D01*
X2235Y157499D01*
X2231Y157495D01*
X2341Y156329D01*
X2346Y156324D01*
X2343Y156320D01*
X2678Y155197D01*
X2684Y155193D01*
X2682Y155189D01*
X3230Y154153D01*
X3236Y154150D01*
X3235Y154145D01*
X3974Y153237D01*
X3981Y153235D01*
X3981Y153230D01*
X4883Y152483D01*
X4891Y152483D01*
X4891Y152478D01*
X5922Y151921D01*
X5929Y151922D01*
X5931Y151917D01*
X7050Y151573D01*
X7057Y151575D01*
X7060Y151571D01*
X8225Y151451D01*
X8228Y151453D01*
X8230Y151451D01*
X14230Y151451D01*
X14233Y151453D01*
G37*
G36*
X14233Y730533D02*
X14233Y730533D01*
X14235Y730531D01*
X15411Y730642D01*
X15416Y730647D01*
X15420Y730644D01*
X16552Y730982D01*
X16556Y730988D01*
X16561Y730986D01*
X17605Y731538D01*
X17608Y731545D01*
X17613Y731543D01*
X18529Y732289D01*
X18530Y732296D01*
X18536Y732296D01*
X19289Y733206D01*
X19289Y733213D01*
X19294Y733214D01*
X19855Y734253D01*
X19854Y734258D01*
X19858Y734260D01*
X19857Y734261D01*
X19859Y734262D01*
X20206Y735391D01*
X20206Y735392D01*
X20207Y735393D01*
X20204Y735397D01*
X20208Y735400D01*
X20329Y736575D01*
X20325Y736582D01*
X20329Y736586D01*
X20172Y737926D01*
X20167Y737932D01*
X20170Y737937D01*
X19719Y739208D01*
X19712Y739213D01*
X19714Y739218D01*
X18992Y740357D01*
X18984Y740360D01*
X18985Y740366D01*
X18027Y741316D01*
X18019Y741317D01*
X18018Y741323D01*
X16873Y742036D01*
X16865Y742035D01*
X16863Y742041D01*
X15587Y742481D01*
X15580Y742479D01*
X15577Y742483D01*
X14235Y742629D01*
X14232Y742627D01*
X14230Y742629D01*
X8230Y742629D01*
X8227Y742627D01*
X8224Y742629D01*
X6895Y742474D01*
X6889Y742468D01*
X6885Y742471D01*
X5624Y742024D01*
X5619Y742017D01*
X5614Y742019D01*
X4484Y741302D01*
X4481Y741295D01*
X4475Y741296D01*
X3533Y740346D01*
X3532Y740337D01*
X3526Y740337D01*
X2819Y739201D01*
X2820Y739193D01*
X2814Y739191D01*
X2378Y737926D01*
X2380Y737918D01*
X2375Y737916D01*
X2231Y736585D01*
X2235Y736579D01*
X2231Y736575D01*
X2341Y735409D01*
X2346Y735404D01*
X2343Y735400D01*
X2678Y734277D01*
X2684Y734273D01*
X2682Y734269D01*
X3230Y733233D01*
X3236Y733230D01*
X3235Y733225D01*
X3974Y732317D01*
X3981Y732315D01*
X3981Y732310D01*
X4883Y731563D01*
X4891Y731563D01*
X4891Y731558D01*
X5922Y731001D01*
X5929Y731002D01*
X5931Y730997D01*
X7050Y730653D01*
X7057Y730655D01*
X7060Y730651D01*
X8225Y730531D01*
X8228Y730533D01*
X8230Y730531D01*
X14230Y730531D01*
X14233Y730533D01*
G37*
G36*
X656853Y65053D02*
X656853Y65053D01*
X656855Y65051D01*
X658031Y65162D01*
X658036Y65167D01*
X658040Y65164D01*
X659172Y65502D01*
X659176Y65508D01*
X659181Y65506D01*
X660225Y66058D01*
X660228Y66065D01*
X660233Y66063D01*
X661149Y66809D01*
X661150Y66816D01*
X661156Y66816D01*
X661909Y67726D01*
X661909Y67733D01*
X661914Y67734D01*
X662475Y68773D01*
X662474Y68778D01*
X662478Y68780D01*
X662477Y68781D01*
X662479Y68782D01*
X662826Y69911D01*
X662826Y69912D01*
X662827Y69913D01*
X662824Y69917D01*
X662828Y69920D01*
X662949Y71095D01*
X662945Y71102D01*
X662949Y71106D01*
X662792Y72446D01*
X662787Y72452D01*
X662790Y72457D01*
X662339Y73728D01*
X662332Y73733D01*
X662334Y73738D01*
X661612Y74877D01*
X661604Y74880D01*
X661605Y74886D01*
X660647Y75836D01*
X660639Y75837D01*
X660638Y75843D01*
X659493Y76556D01*
X659485Y76555D01*
X659483Y76561D01*
X658207Y77001D01*
X658200Y76999D01*
X658197Y77003D01*
X656855Y77149D01*
X656852Y77147D01*
X656850Y77149D01*
X650850Y77149D01*
X650847Y77147D01*
X650844Y77149D01*
X649515Y76994D01*
X649509Y76988D01*
X649505Y76991D01*
X648244Y76544D01*
X648239Y76537D01*
X648234Y76539D01*
X647104Y75822D01*
X647101Y75815D01*
X647095Y75816D01*
X646153Y74866D01*
X646152Y74857D01*
X646146Y74857D01*
X645439Y73721D01*
X645440Y73713D01*
X645434Y73711D01*
X644998Y72446D01*
X645000Y72438D01*
X644995Y72436D01*
X644851Y71105D01*
X644855Y71099D01*
X644851Y71095D01*
X644961Y69929D01*
X644966Y69924D01*
X644963Y69920D01*
X645298Y68797D01*
X645304Y68793D01*
X645302Y68789D01*
X645850Y67753D01*
X645856Y67750D01*
X645855Y67745D01*
X646594Y66837D01*
X646601Y66835D01*
X646601Y66830D01*
X647503Y66083D01*
X647511Y66083D01*
X647511Y66078D01*
X648542Y65521D01*
X648549Y65522D01*
X648551Y65517D01*
X649670Y65173D01*
X649677Y65175D01*
X649680Y65171D01*
X650845Y65051D01*
X650848Y65053D01*
X650850Y65051D01*
X656850Y65051D01*
X656853Y65053D01*
G37*
G36*
X14233Y65053D02*
X14233Y65053D01*
X14235Y65051D01*
X15411Y65162D01*
X15416Y65167D01*
X15420Y65164D01*
X16552Y65502D01*
X16556Y65508D01*
X16561Y65506D01*
X17605Y66058D01*
X17608Y66065D01*
X17613Y66063D01*
X18529Y66809D01*
X18530Y66816D01*
X18536Y66816D01*
X19289Y67726D01*
X19289Y67733D01*
X19294Y67734D01*
X19855Y68773D01*
X19854Y68778D01*
X19858Y68780D01*
X19857Y68781D01*
X19859Y68782D01*
X20206Y69911D01*
X20206Y69912D01*
X20207Y69913D01*
X20204Y69917D01*
X20208Y69920D01*
X20329Y71095D01*
X20325Y71102D01*
X20329Y71106D01*
X20172Y72446D01*
X20167Y72452D01*
X20170Y72457D01*
X19719Y73728D01*
X19712Y73733D01*
X19714Y73738D01*
X18992Y74877D01*
X18984Y74880D01*
X18985Y74886D01*
X18027Y75836D01*
X18019Y75837D01*
X18018Y75843D01*
X16873Y76556D01*
X16865Y76555D01*
X16863Y76561D01*
X15587Y77001D01*
X15580Y76999D01*
X15577Y77003D01*
X14235Y77149D01*
X14232Y77147D01*
X14230Y77149D01*
X8230Y77149D01*
X8227Y77147D01*
X8224Y77149D01*
X6895Y76994D01*
X6889Y76988D01*
X6885Y76991D01*
X5624Y76544D01*
X5619Y76537D01*
X5614Y76539D01*
X4484Y75822D01*
X4481Y75815D01*
X4475Y75816D01*
X3533Y74866D01*
X3532Y74857D01*
X3526Y74857D01*
X2819Y73721D01*
X2820Y73713D01*
X2814Y73711D01*
X2378Y72446D01*
X2380Y72438D01*
X2375Y72436D01*
X2231Y71105D01*
X2235Y71099D01*
X2231Y71095D01*
X2341Y69929D01*
X2346Y69924D01*
X2343Y69920D01*
X2678Y68797D01*
X2684Y68793D01*
X2682Y68789D01*
X3230Y67753D01*
X3236Y67750D01*
X3235Y67745D01*
X3974Y66837D01*
X3981Y66835D01*
X3981Y66830D01*
X4883Y66083D01*
X4891Y66083D01*
X4891Y66078D01*
X5922Y65521D01*
X5929Y65522D01*
X5931Y65517D01*
X7050Y65173D01*
X7057Y65175D01*
X7060Y65171D01*
X8225Y65051D01*
X8228Y65053D01*
X8230Y65051D01*
X14230Y65051D01*
X14233Y65053D01*
G37*
G36*
X14233Y1163603D02*
X14233Y1163603D01*
X14235Y1163601D01*
X15411Y1163712D01*
X15416Y1163717D01*
X15420Y1163714D01*
X16552Y1164052D01*
X16556Y1164058D01*
X16561Y1164056D01*
X17605Y1164608D01*
X17608Y1164615D01*
X17613Y1164613D01*
X18529Y1165359D01*
X18530Y1165366D01*
X18536Y1165366D01*
X19289Y1166276D01*
X19289Y1166283D01*
X19294Y1166284D01*
X19855Y1167323D01*
X19854Y1167328D01*
X19858Y1167330D01*
X19857Y1167331D01*
X19859Y1167332D01*
X20206Y1168461D01*
X20206Y1168462D01*
X20207Y1168463D01*
X20204Y1168467D01*
X20208Y1168470D01*
X20329Y1169645D01*
X20325Y1169652D01*
X20329Y1169656D01*
X20172Y1170996D01*
X20167Y1171002D01*
X20170Y1171007D01*
X19719Y1172278D01*
X19712Y1172283D01*
X19714Y1172288D01*
X18992Y1173427D01*
X18984Y1173430D01*
X18985Y1173436D01*
X18027Y1174386D01*
X18019Y1174387D01*
X18018Y1174393D01*
X16873Y1175106D01*
X16865Y1175105D01*
X16863Y1175111D01*
X15587Y1175551D01*
X15580Y1175549D01*
X15577Y1175553D01*
X14235Y1175699D01*
X14232Y1175697D01*
X14230Y1175699D01*
X8230Y1175699D01*
X8227Y1175697D01*
X8224Y1175699D01*
X6895Y1175544D01*
X6889Y1175538D01*
X6885Y1175541D01*
X5624Y1175094D01*
X5619Y1175087D01*
X5614Y1175089D01*
X4484Y1174372D01*
X4481Y1174365D01*
X4475Y1174366D01*
X3533Y1173416D01*
X3532Y1173407D01*
X3526Y1173407D01*
X2819Y1172271D01*
X2820Y1172263D01*
X2814Y1172261D01*
X2378Y1170996D01*
X2380Y1170988D01*
X2375Y1170986D01*
X2231Y1169655D01*
X2235Y1169649D01*
X2231Y1169645D01*
X2341Y1168479D01*
X2346Y1168474D01*
X2343Y1168470D01*
X2678Y1167347D01*
X2684Y1167343D01*
X2682Y1167339D01*
X3230Y1166303D01*
X3236Y1166300D01*
X3235Y1166295D01*
X3974Y1165387D01*
X3981Y1165385D01*
X3981Y1165380D01*
X4883Y1164633D01*
X4891Y1164633D01*
X4891Y1164628D01*
X5922Y1164071D01*
X5929Y1164072D01*
X5931Y1164067D01*
X7050Y1163723D01*
X7057Y1163725D01*
X7060Y1163721D01*
X8225Y1163601D01*
X8228Y1163603D01*
X8230Y1163601D01*
X14230Y1163601D01*
X14233Y1163603D01*
G37*
G36*
X747079Y717562D02*
X747079Y717562D01*
X747145Y717564D01*
X747188Y717582D01*
X747235Y717590D01*
X747292Y717624D01*
X747352Y717649D01*
X747387Y717680D01*
X747428Y717705D01*
X747470Y717756D01*
X747518Y717800D01*
X747540Y717842D01*
X747569Y717879D01*
X747590Y717941D01*
X747621Y718000D01*
X747629Y718054D01*
X747641Y718091D01*
X747640Y718131D01*
X747648Y718185D01*
X747648Y721995D01*
X747637Y722060D01*
X747635Y722126D01*
X747617Y722169D01*
X747609Y722216D01*
X747575Y722273D01*
X747550Y722333D01*
X747519Y722368D01*
X747494Y722409D01*
X747443Y722451D01*
X747399Y722499D01*
X747357Y722521D01*
X747320Y722550D01*
X747258Y722571D01*
X747199Y722602D01*
X747145Y722610D01*
X747108Y722622D01*
X747068Y722621D01*
X747014Y722629D01*
X741426Y722629D01*
X741361Y722618D01*
X741295Y722616D01*
X741252Y722598D01*
X741205Y722590D01*
X741148Y722556D01*
X741088Y722531D01*
X741053Y722500D01*
X741012Y722475D01*
X740971Y722424D01*
X740922Y722380D01*
X740900Y722338D01*
X740871Y722301D01*
X740850Y722239D01*
X740819Y722180D01*
X740811Y722126D01*
X740799Y722089D01*
X740799Y722085D01*
X740799Y722084D01*
X740800Y722049D01*
X740792Y721995D01*
X740792Y718185D01*
X740803Y718120D01*
X740805Y718054D01*
X740823Y718011D01*
X740831Y717964D01*
X740865Y717907D01*
X740890Y717847D01*
X740921Y717812D01*
X740946Y717771D01*
X740997Y717730D01*
X741041Y717681D01*
X741083Y717659D01*
X741120Y717630D01*
X741182Y717609D01*
X741241Y717578D01*
X741295Y717570D01*
X741332Y717558D01*
X741372Y717559D01*
X741426Y717551D01*
X747014Y717551D01*
X747079Y717562D01*
G37*
G36*
X104459Y717562D02*
X104459Y717562D01*
X104525Y717564D01*
X104568Y717582D01*
X104615Y717590D01*
X104672Y717624D01*
X104732Y717649D01*
X104767Y717680D01*
X104808Y717705D01*
X104850Y717756D01*
X104898Y717800D01*
X104920Y717842D01*
X104949Y717879D01*
X104970Y717941D01*
X105001Y718000D01*
X105009Y718054D01*
X105021Y718091D01*
X105020Y718131D01*
X105028Y718185D01*
X105028Y721995D01*
X105017Y722060D01*
X105015Y722126D01*
X104997Y722169D01*
X104989Y722216D01*
X104955Y722273D01*
X104930Y722333D01*
X104899Y722368D01*
X104874Y722409D01*
X104823Y722451D01*
X104779Y722499D01*
X104737Y722521D01*
X104700Y722550D01*
X104638Y722571D01*
X104579Y722602D01*
X104525Y722610D01*
X104488Y722622D01*
X104448Y722621D01*
X104394Y722629D01*
X98806Y722629D01*
X98741Y722618D01*
X98675Y722616D01*
X98632Y722598D01*
X98585Y722590D01*
X98528Y722556D01*
X98468Y722531D01*
X98433Y722500D01*
X98392Y722475D01*
X98351Y722424D01*
X98302Y722380D01*
X98280Y722338D01*
X98251Y722301D01*
X98230Y722239D01*
X98199Y722180D01*
X98191Y722126D01*
X98179Y722089D01*
X98179Y722085D01*
X98179Y722084D01*
X98180Y722049D01*
X98172Y721995D01*
X98172Y718185D01*
X98183Y718120D01*
X98185Y718054D01*
X98203Y718011D01*
X98211Y717964D01*
X98245Y717907D01*
X98270Y717847D01*
X98301Y717812D01*
X98326Y717771D01*
X98377Y717730D01*
X98421Y717681D01*
X98463Y717659D01*
X98500Y717630D01*
X98562Y717609D01*
X98621Y717578D01*
X98675Y717570D01*
X98712Y717558D01*
X98752Y717559D01*
X98806Y717551D01*
X104394Y717551D01*
X104459Y717562D01*
G37*
G36*
X747079Y52082D02*
X747079Y52082D01*
X747145Y52084D01*
X747188Y52102D01*
X747235Y52110D01*
X747292Y52144D01*
X747352Y52169D01*
X747387Y52200D01*
X747428Y52225D01*
X747470Y52276D01*
X747518Y52320D01*
X747540Y52362D01*
X747569Y52399D01*
X747590Y52461D01*
X747621Y52520D01*
X747629Y52574D01*
X747641Y52611D01*
X747640Y52651D01*
X747648Y52705D01*
X747648Y56515D01*
X747637Y56580D01*
X747635Y56646D01*
X747617Y56689D01*
X747609Y56736D01*
X747575Y56793D01*
X747550Y56853D01*
X747519Y56888D01*
X747494Y56929D01*
X747443Y56971D01*
X747399Y57019D01*
X747357Y57041D01*
X747320Y57070D01*
X747258Y57091D01*
X747199Y57122D01*
X747145Y57130D01*
X747108Y57142D01*
X747068Y57141D01*
X747014Y57149D01*
X741426Y57149D01*
X741361Y57138D01*
X741295Y57136D01*
X741252Y57118D01*
X741205Y57110D01*
X741148Y57076D01*
X741088Y57051D01*
X741053Y57020D01*
X741012Y56995D01*
X740971Y56944D01*
X740922Y56900D01*
X740900Y56858D01*
X740871Y56821D01*
X740850Y56759D01*
X740819Y56700D01*
X740811Y56646D01*
X740799Y56609D01*
X740799Y56605D01*
X740799Y56604D01*
X740800Y56569D01*
X740792Y56515D01*
X740792Y52705D01*
X740803Y52640D01*
X740805Y52574D01*
X740823Y52531D01*
X740831Y52484D01*
X740865Y52427D01*
X740890Y52367D01*
X740921Y52332D01*
X740946Y52291D01*
X740997Y52250D01*
X741041Y52201D01*
X741083Y52179D01*
X741120Y52150D01*
X741182Y52129D01*
X741241Y52098D01*
X741295Y52090D01*
X741332Y52078D01*
X741372Y52079D01*
X741426Y52071D01*
X747014Y52071D01*
X747079Y52082D01*
G37*
G36*
X104459Y52082D02*
X104459Y52082D01*
X104525Y52084D01*
X104568Y52102D01*
X104615Y52110D01*
X104672Y52144D01*
X104732Y52169D01*
X104767Y52200D01*
X104808Y52225D01*
X104850Y52276D01*
X104898Y52320D01*
X104920Y52362D01*
X104949Y52399D01*
X104970Y52461D01*
X105001Y52520D01*
X105009Y52574D01*
X105021Y52611D01*
X105020Y52651D01*
X105028Y52705D01*
X105028Y56515D01*
X105017Y56580D01*
X105015Y56646D01*
X104997Y56689D01*
X104989Y56736D01*
X104955Y56793D01*
X104930Y56853D01*
X104899Y56888D01*
X104874Y56929D01*
X104823Y56971D01*
X104779Y57019D01*
X104737Y57041D01*
X104700Y57070D01*
X104638Y57091D01*
X104579Y57122D01*
X104525Y57130D01*
X104488Y57142D01*
X104448Y57141D01*
X104394Y57149D01*
X98806Y57149D01*
X98741Y57138D01*
X98675Y57136D01*
X98632Y57118D01*
X98585Y57110D01*
X98528Y57076D01*
X98468Y57051D01*
X98433Y57020D01*
X98392Y56995D01*
X98351Y56944D01*
X98302Y56900D01*
X98280Y56858D01*
X98251Y56821D01*
X98230Y56759D01*
X98199Y56700D01*
X98191Y56646D01*
X98179Y56609D01*
X98179Y56605D01*
X98179Y56604D01*
X98180Y56569D01*
X98172Y56515D01*
X98172Y52705D01*
X98183Y52640D01*
X98185Y52574D01*
X98203Y52531D01*
X98211Y52484D01*
X98245Y52427D01*
X98270Y52367D01*
X98301Y52332D01*
X98326Y52291D01*
X98377Y52250D01*
X98421Y52201D01*
X98463Y52179D01*
X98500Y52150D01*
X98562Y52129D01*
X98621Y52098D01*
X98675Y52090D01*
X98712Y52078D01*
X98752Y52079D01*
X98806Y52071D01*
X104394Y52071D01*
X104459Y52082D01*
G37*
D10*
X58830Y106800D03*
X58830Y111800D03*
D11*
X58830Y82050D03*
X58830Y89800D03*
D10*
X58830Y96800D03*
X58830Y101800D03*
X58830Y121800D03*
X58830Y116800D03*
D11*
X58830Y146550D03*
X58830Y138800D03*
D10*
X58830Y131800D03*
X58830Y126800D03*
D12*
X47780Y143200D03*
X47780Y85400D03*
D13*
X77216Y149216D03*
X77216Y132216D03*
X73914Y73034D03*
X73914Y90034D03*
D14*
X94390Y89589D03*
X100890Y89589D03*
X107390Y89589D03*
X113890Y89589D03*
X113890Y117089D03*
X107390Y117089D03*
X100890Y117089D03*
X94390Y117089D03*
D15*
X104140Y103339D03*
D16*
X95640Y133604D03*
X112640Y133604D03*
D17*
X118110Y22860D03*
D18*
X438754Y285708D03*
D19*
X380930Y241300D03*
X403930Y241300D03*
D16*
X401184Y258064D03*
X384184Y258064D03*
D19*
X403930Y224028D03*
X380930Y224028D03*
D20*
X105410Y341630D03*
X105410Y397510D03*
X143510Y341630D03*
X143510Y397510D03*
D16*
X95640Y148844D03*
X112640Y148844D03*
D21*
X20320Y222504D03*
X28448Y222504D03*
D22*
X11416Y197866D03*
X41416Y197866D03*
D23*
X111536Y176276D03*
X83536Y176276D03*
D13*
X158750Y133740D03*
X158750Y150740D03*
X143764Y150994D03*
X143764Y133994D03*
D24*
X101600Y59690D03*
X101600Y49530D03*
D25*
X101600Y67310D03*
X101600Y41910D03*
D20*
X105410Y262890D03*
X105410Y318770D03*
X143510Y262890D03*
X143510Y318770D03*
D26*
X502158Y114808D03*
D13*
X150876Y92847D03*
X150876Y109847D03*
D27*
X134366Y112062D03*
X134366Y89062D03*
D13*
X151130Y39760D03*
X151130Y56760D03*
X135890Y39760D03*
X135890Y56760D03*
X120650Y39760D03*
X120650Y56760D03*
D28*
X302260Y54940D03*
D29*
X302260Y254940D03*
D30*
X249510Y62440D03*
D31*
X257260Y51440D03*
X257260Y258440D03*
D30*
X325010Y64940D03*
X249510Y67440D03*
X325010Y69940D03*
X249510Y72440D03*
X325010Y74940D03*
X249510Y77440D03*
X325010Y79940D03*
X249510Y82440D03*
X325010Y84940D03*
X249510Y87440D03*
X325010Y89940D03*
X249510Y92440D03*
X325010Y94940D03*
X249510Y97440D03*
X325010Y99940D03*
X249510Y102440D03*
X325010Y104940D03*
X249510Y107440D03*
X325010Y109940D03*
X249510Y112440D03*
X325010Y114940D03*
X249510Y117440D03*
X325010Y139940D03*
X249510Y142440D03*
X325010Y144940D03*
X249510Y147440D03*
X325010Y149940D03*
X249510Y152440D03*
X325010Y154940D03*
X249510Y157440D03*
X325010Y159940D03*
X249510Y162440D03*
X325010Y164940D03*
X249510Y167440D03*
X325010Y169940D03*
X249510Y172440D03*
X325010Y174940D03*
X249510Y177440D03*
X325010Y179940D03*
X249510Y182440D03*
X325010Y184940D03*
X249510Y187440D03*
X325010Y189940D03*
X249510Y192440D03*
X325010Y194940D03*
X249510Y197440D03*
X325010Y199940D03*
X249510Y202440D03*
X325010Y204940D03*
X249510Y207440D03*
X325010Y209940D03*
X249510Y212440D03*
X325010Y214940D03*
X249510Y217440D03*
X325010Y219940D03*
X249510Y222440D03*
X325010Y224940D03*
X249510Y227440D03*
X325010Y229940D03*
X249510Y232440D03*
X325010Y234940D03*
X249510Y237440D03*
X325010Y239940D03*
X249510Y242440D03*
X325010Y244940D03*
X249510Y247440D03*
D32*
X24445Y263090D02*
X17465Y263090D01*
X17465Y270070D01*
X24445Y270070D01*
X24445Y263090D01*
X24445Y267890D02*
X17465Y267890D01*
X17465Y245550D02*
X24445Y245550D01*
X17465Y245550D02*
X17465Y252530D01*
X24445Y252530D01*
X24445Y245550D01*
X24445Y250350D02*
X17465Y250350D01*
X17465Y301190D02*
X24445Y301190D01*
X17465Y301190D02*
X17465Y308170D01*
X24445Y308170D01*
X24445Y301190D01*
X24445Y305990D02*
X17465Y305990D01*
X17465Y283650D02*
X24445Y283650D01*
X17465Y283650D02*
X17465Y290630D01*
X24445Y290630D01*
X24445Y283650D01*
X24445Y288450D02*
X17465Y288450D01*
D13*
X40894Y247786D03*
X40894Y264786D03*
X40640Y286140D03*
X40640Y303140D03*
D21*
X166116Y93980D03*
X174244Y93980D03*
D10*
X58830Y539870D03*
X58830Y544870D03*
D11*
X58830Y515120D03*
X58830Y522870D03*
D10*
X58830Y529870D03*
X58830Y534870D03*
X58830Y554870D03*
X58830Y549870D03*
D11*
X58830Y579620D03*
X58830Y571870D03*
D10*
X58830Y564870D03*
X58830Y559870D03*
D12*
X47780Y576270D03*
X47780Y518470D03*
D13*
X78486Y582540D03*
X78486Y565540D03*
X78486Y506866D03*
X78486Y523866D03*
D33*
X286200Y360270D03*
X297200Y360270D03*
X308200Y360270D03*
X319200Y360270D03*
X330200Y360270D03*
X341200Y360270D03*
X352200Y360270D03*
X363200Y360270D03*
X374200Y360270D03*
X385200Y360270D03*
X396200Y360270D03*
X407200Y360270D03*
X418200Y360270D03*
X429200Y360270D03*
D34*
X457200Y368770D03*
X457200Y379770D03*
X457200Y390770D03*
X457200Y401770D03*
X457200Y412770D03*
X457200Y423770D03*
X457200Y434770D03*
X457200Y445770D03*
X457200Y456770D03*
X457200Y467770D03*
X457200Y478770D03*
X457200Y489770D03*
X457200Y500770D03*
D33*
X429200Y509270D03*
X418200Y509270D03*
X407200Y509270D03*
X396200Y509270D03*
X385200Y509270D03*
X374200Y509270D03*
X363200Y509270D03*
X352200Y509270D03*
X341200Y509270D03*
X330200Y509270D03*
X319200Y509270D03*
X308200Y509270D03*
X297200Y509270D03*
X286200Y509270D03*
D34*
X258200Y500770D03*
X258200Y489770D03*
X258200Y478770D03*
X258200Y467770D03*
X258200Y456770D03*
X258200Y445770D03*
X258200Y434770D03*
X258200Y423770D03*
X258200Y412770D03*
X258200Y401770D03*
X258200Y390770D03*
X258200Y379770D03*
X258200Y368770D03*
D35*
X347200Y424270D03*
X326200Y424270D03*
X305200Y424270D03*
X284200Y424270D03*
X347200Y403770D03*
X326200Y403770D03*
X305200Y403770D03*
X284200Y403770D03*
X347200Y383270D03*
X326200Y383270D03*
X305200Y383270D03*
X284200Y383270D03*
X347200Y486270D03*
X326200Y486270D03*
X305200Y486270D03*
X284200Y486270D03*
X347200Y465770D03*
X326200Y465770D03*
X305200Y465770D03*
X284200Y465770D03*
X347200Y445270D03*
X326200Y445270D03*
X305200Y445270D03*
X284200Y445270D03*
X368200Y445270D03*
X389200Y445270D03*
X410200Y445270D03*
X431200Y445270D03*
X368200Y465770D03*
X389200Y465770D03*
X410200Y465770D03*
X431200Y465770D03*
X368200Y486270D03*
X389200Y486270D03*
X410200Y486270D03*
X431200Y486270D03*
X368200Y383270D03*
X389200Y383270D03*
X410200Y383270D03*
X431200Y383270D03*
X368200Y403770D03*
X389200Y403770D03*
X410200Y403770D03*
X431200Y403770D03*
X368200Y424270D03*
X389200Y424270D03*
X410200Y424270D03*
X431200Y424270D03*
D36*
X220861Y410080D03*
D37*
X220861Y418080D03*
X220861Y426080D03*
D36*
X234061Y410080D03*
D37*
X234061Y418080D03*
X234061Y426080D03*
D38*
X233961Y434080D03*
D36*
X220861Y434080D03*
X220861Y472170D03*
D37*
X220861Y480170D03*
X220861Y488170D03*
D36*
X234061Y472170D03*
D37*
X234061Y480170D03*
X234061Y488170D03*
D38*
X233961Y496170D03*
D36*
X220861Y496170D03*
X490240Y496960D03*
D37*
X490240Y488960D03*
X490240Y480960D03*
D36*
X477040Y496960D03*
D37*
X477040Y488960D03*
X477040Y480960D03*
D38*
X477140Y472960D03*
D36*
X490240Y472960D03*
D39*
X116920Y542290D03*
X126920Y542290D03*
X116920Y554990D03*
X126920Y554990D03*
D40*
X87390Y553640D03*
D41*
X87140Y548640D03*
X87140Y543640D03*
X95740Y543640D03*
X95740Y548640D03*
X95740Y553640D03*
D42*
X532944Y372700D03*
D43*
X486944Y330200D03*
D42*
X532944Y287700D03*
D16*
X334908Y324612D03*
X351908Y324612D03*
X335162Y340614D03*
X352162Y340614D03*
D39*
X298530Y340360D03*
X308530Y340360D03*
D13*
X40640Y396630D03*
X40640Y413630D03*
X40640Y322970D03*
X40640Y339970D03*
D32*
X24445Y407870D02*
X17465Y407870D01*
X17465Y414850D01*
X24445Y414850D01*
X24445Y407870D01*
X24445Y412670D02*
X17465Y412670D01*
X17465Y390330D02*
X24445Y390330D01*
X17465Y390330D02*
X17465Y397310D01*
X24445Y397310D01*
X24445Y390330D01*
X24445Y395130D02*
X17465Y395130D01*
X17465Y334210D02*
X24445Y334210D01*
X17465Y334210D02*
X17465Y341190D01*
X24445Y341190D01*
X24445Y334210D01*
X24445Y339010D02*
X17465Y339010D01*
X17465Y316670D02*
X24445Y316670D01*
X17465Y316670D02*
X17465Y323650D01*
X24445Y323650D01*
X24445Y316670D01*
X24445Y321470D02*
X17465Y321470D01*
D13*
X40640Y361070D03*
X40640Y378070D03*
D32*
X24445Y372310D02*
X17465Y372310D01*
X17465Y379290D01*
X24445Y379290D01*
X24445Y372310D01*
X24445Y377110D02*
X17465Y377110D01*
X17465Y354770D02*
X24445Y354770D01*
X17465Y354770D02*
X17465Y361750D01*
X24445Y361750D01*
X24445Y354770D01*
X24445Y359570D02*
X17465Y359570D01*
D44*
X554910Y518100D03*
X554910Y574100D03*
D45*
X518160Y531100D03*
X518160Y541100D03*
X518160Y551100D03*
X518160Y561100D03*
D25*
X369570Y642874D03*
X394970Y642874D03*
X420370Y642874D03*
X445770Y642874D03*
X471170Y642874D03*
X496570Y642874D03*
X63500Y642620D03*
X88900Y642620D03*
X114300Y642620D03*
X139700Y642620D03*
X165100Y642620D03*
X190500Y642620D03*
X215900Y642620D03*
X241300Y642620D03*
X266700Y642620D03*
X292100Y642620D03*
X317500Y642620D03*
X342900Y642620D03*
D27*
X124714Y442398D03*
X124714Y465398D03*
D13*
X141732Y445652D03*
X141732Y462652D03*
D46*
X66590Y456280D03*
D16*
X334890Y546862D03*
X317890Y546862D03*
X317890Y531622D03*
X334890Y531622D03*
X374532Y530606D03*
X391532Y530606D03*
D17*
X506730Y585470D03*
D47*
X25400Y635000D03*
X543560Y635000D03*
X25400Y25400D03*
X543560Y25400D03*
D48*
X189230Y17780D03*
X201930Y17780D03*
X214630Y17780D03*
X227330Y17780D03*
X176530Y17780D03*
X189230Y30480D03*
X201930Y30480D03*
X214630Y30480D03*
X227330Y30480D03*
X176530Y30480D03*
D19*
X36900Y172720D03*
X13900Y172720D03*
D27*
X22098Y451542D03*
X22098Y474542D03*
D49*
X529082Y228600D03*
X529082Y203200D03*
X529082Y177800D03*
D25*
X355600Y15240D03*
X381000Y15240D03*
X406400Y15240D03*
X431800Y15240D03*
X457200Y15240D03*
X482600Y15240D03*
D10*
X701450Y106800D03*
X701450Y111800D03*
D11*
X701450Y82050D03*
X701450Y89800D03*
D10*
X701450Y96800D03*
X701450Y101800D03*
X701450Y121800D03*
X701450Y116800D03*
D11*
X701450Y146550D03*
X701450Y138800D03*
D10*
X701450Y131800D03*
X701450Y126800D03*
D12*
X690400Y143200D03*
X690400Y85400D03*
D13*
X719836Y149216D03*
X719836Y132216D03*
X716534Y73034D03*
X716534Y90034D03*
D14*
X737010Y89589D03*
X743510Y89589D03*
X750010Y89589D03*
X756510Y89589D03*
X756510Y117089D03*
X750010Y117089D03*
X743510Y117089D03*
X737010Y117089D03*
D15*
X746760Y103339D03*
D16*
X738260Y133604D03*
X755260Y133604D03*
D17*
X760730Y22860D03*
D18*
X1081374Y285708D03*
D19*
X1023550Y241300D03*
X1046550Y241300D03*
D16*
X1043804Y258064D03*
X1026804Y258064D03*
D19*
X1046550Y224028D03*
X1023550Y224028D03*
D20*
X748030Y341630D03*
X748030Y397510D03*
X786130Y341630D03*
X786130Y397510D03*
D16*
X738260Y148844D03*
X755260Y148844D03*
D21*
X662940Y222504D03*
X671068Y222504D03*
D22*
X654036Y197866D03*
X684036Y197866D03*
D23*
X754156Y176276D03*
X726156Y176276D03*
D13*
X801370Y133740D03*
X801370Y150740D03*
X786384Y150994D03*
X786384Y133994D03*
D24*
X744220Y59690D03*
X744220Y49530D03*
D25*
X744220Y67310D03*
X744220Y41910D03*
D20*
X748030Y262890D03*
X748030Y318770D03*
X786130Y262890D03*
X786130Y318770D03*
D26*
X1144778Y114808D03*
D13*
X793496Y92847D03*
X793496Y109847D03*
D27*
X776986Y112062D03*
X776986Y89062D03*
D13*
X793750Y39760D03*
X793750Y56760D03*
X778510Y39760D03*
X778510Y56760D03*
X763270Y39760D03*
X763270Y56760D03*
D28*
X944880Y54940D03*
D29*
X944880Y254940D03*
D30*
X892130Y62440D03*
D31*
X899880Y51440D03*
X899880Y258440D03*
D30*
X967630Y64940D03*
X892130Y67440D03*
X967630Y69940D03*
X892130Y72440D03*
X967630Y74940D03*
X892130Y77440D03*
X967630Y79940D03*
X892130Y82440D03*
X967630Y84940D03*
X892130Y87440D03*
X967630Y89940D03*
X892130Y92440D03*
X967630Y94940D03*
X892130Y97440D03*
X967630Y99940D03*
X892130Y102440D03*
X967630Y104940D03*
X892130Y107440D03*
X967630Y109940D03*
X892130Y112440D03*
X967630Y114940D03*
X892130Y117440D03*
X967630Y139940D03*
X892130Y142440D03*
X967630Y144940D03*
X892130Y147440D03*
X967630Y149940D03*
X892130Y152440D03*
X967630Y154940D03*
X892130Y157440D03*
X967630Y159940D03*
X892130Y162440D03*
X967630Y164940D03*
X892130Y167440D03*
X967630Y169940D03*
X892130Y172440D03*
X967630Y174940D03*
X892130Y177440D03*
X967630Y179940D03*
X892130Y182440D03*
X967630Y184940D03*
X892130Y187440D03*
X967630Y189940D03*
X892130Y192440D03*
X967630Y194940D03*
X892130Y197440D03*
X967630Y199940D03*
X892130Y202440D03*
X967630Y204940D03*
X892130Y207440D03*
X967630Y209940D03*
X892130Y212440D03*
X967630Y214940D03*
X892130Y217440D03*
X967630Y219940D03*
X892130Y222440D03*
X967630Y224940D03*
X892130Y227440D03*
X967630Y229940D03*
X892130Y232440D03*
X967630Y234940D03*
X892130Y237440D03*
X967630Y239940D03*
X892130Y242440D03*
X967630Y244940D03*
X892130Y247440D03*
D32*
X667065Y263090D02*
X660085Y263090D01*
X660085Y270070D01*
X667065Y270070D01*
X667065Y263090D01*
X667065Y267890D02*
X660085Y267890D01*
X660085Y245550D02*
X667065Y245550D01*
X660085Y245550D02*
X660085Y252530D01*
X667065Y252530D01*
X667065Y245550D01*
X667065Y250350D02*
X660085Y250350D01*
X660085Y301190D02*
X667065Y301190D01*
X660085Y301190D02*
X660085Y308170D01*
X667065Y308170D01*
X667065Y301190D01*
X667065Y305990D02*
X660085Y305990D01*
X660085Y283650D02*
X667065Y283650D01*
X660085Y283650D02*
X660085Y290630D01*
X667065Y290630D01*
X667065Y283650D01*
X667065Y288450D02*
X660085Y288450D01*
D13*
X683514Y247786D03*
X683514Y264786D03*
X683260Y286140D03*
X683260Y303140D03*
D21*
X808736Y93980D03*
X816864Y93980D03*
D10*
X701450Y539870D03*
X701450Y544870D03*
D11*
X701450Y515120D03*
X701450Y522870D03*
D10*
X701450Y529870D03*
X701450Y534870D03*
X701450Y554870D03*
X701450Y549870D03*
D11*
X701450Y579620D03*
X701450Y571870D03*
D10*
X701450Y564870D03*
X701450Y559870D03*
D12*
X690400Y576270D03*
X690400Y518470D03*
D13*
X721106Y582540D03*
X721106Y565540D03*
X721106Y506866D03*
X721106Y523866D03*
D33*
X928820Y360270D03*
X939820Y360270D03*
X950820Y360270D03*
X961820Y360270D03*
X972820Y360270D03*
X983820Y360270D03*
X994820Y360270D03*
X1005820Y360270D03*
X1016820Y360270D03*
X1027820Y360270D03*
X1038820Y360270D03*
X1049820Y360270D03*
X1060820Y360270D03*
X1071820Y360270D03*
D34*
X1099820Y368770D03*
X1099820Y379770D03*
X1099820Y390770D03*
X1099820Y401770D03*
X1099820Y412770D03*
X1099820Y423770D03*
X1099820Y434770D03*
X1099820Y445770D03*
X1099820Y456770D03*
X1099820Y467770D03*
X1099820Y478770D03*
X1099820Y489770D03*
X1099820Y500770D03*
D33*
X1071820Y509270D03*
X1060820Y509270D03*
X1049820Y509270D03*
X1038820Y509270D03*
X1027820Y509270D03*
X1016820Y509270D03*
X1005820Y509270D03*
X994820Y509270D03*
X983820Y509270D03*
X972820Y509270D03*
X961820Y509270D03*
X950820Y509270D03*
X939820Y509270D03*
X928820Y509270D03*
D34*
X900820Y500770D03*
X900820Y489770D03*
X900820Y478770D03*
X900820Y467770D03*
X900820Y456770D03*
X900820Y445770D03*
X900820Y434770D03*
X900820Y423770D03*
X900820Y412770D03*
X900820Y401770D03*
X900820Y390770D03*
X900820Y379770D03*
X900820Y368770D03*
D35*
X989820Y424270D03*
X968820Y424270D03*
X947820Y424270D03*
X926820Y424270D03*
X989820Y403770D03*
X968820Y403770D03*
X947820Y403770D03*
X926820Y403770D03*
X989820Y383270D03*
X968820Y383270D03*
X947820Y383270D03*
X926820Y383270D03*
X989820Y486270D03*
X968820Y486270D03*
X947820Y486270D03*
X926820Y486270D03*
X989820Y465770D03*
X968820Y465770D03*
X947820Y465770D03*
X926820Y465770D03*
X989820Y445270D03*
X968820Y445270D03*
X947820Y445270D03*
X926820Y445270D03*
X1010820Y445270D03*
X1031820Y445270D03*
X1052820Y445270D03*
X1073820Y445270D03*
X1010820Y465770D03*
X1031820Y465770D03*
X1052820Y465770D03*
X1073820Y465770D03*
X1010820Y486270D03*
X1031820Y486270D03*
X1052820Y486270D03*
X1073820Y486270D03*
X1010820Y383270D03*
X1031820Y383270D03*
X1052820Y383270D03*
X1073820Y383270D03*
X1010820Y403770D03*
X1031820Y403770D03*
X1052820Y403770D03*
X1073820Y403770D03*
X1010820Y424270D03*
X1031820Y424270D03*
X1052820Y424270D03*
X1073820Y424270D03*
D36*
X863481Y410080D03*
D37*
X863481Y418080D03*
X863481Y426080D03*
D36*
X876681Y410080D03*
D37*
X876681Y418080D03*
X876681Y426080D03*
D38*
X876581Y434080D03*
D36*
X863481Y434080D03*
X863481Y472170D03*
D37*
X863481Y480170D03*
X863481Y488170D03*
D36*
X876681Y472170D03*
D37*
X876681Y480170D03*
X876681Y488170D03*
D38*
X876581Y496170D03*
D36*
X863481Y496170D03*
X1132860Y496960D03*
D37*
X1132860Y488960D03*
X1132860Y480960D03*
D36*
X1119660Y496960D03*
D37*
X1119660Y488960D03*
X1119660Y480960D03*
D38*
X1119760Y472960D03*
D36*
X1132860Y472960D03*
D39*
X759540Y542290D03*
X769540Y542290D03*
X759540Y554990D03*
X769540Y554990D03*
D40*
X730010Y553640D03*
D41*
X729760Y548640D03*
X729760Y543640D03*
X738360Y543640D03*
X738360Y548640D03*
X738360Y553640D03*
D42*
X1175564Y372700D03*
D43*
X1129564Y330200D03*
D42*
X1175564Y287700D03*
D16*
X977528Y324612D03*
X994528Y324612D03*
X977782Y340614D03*
X994782Y340614D03*
D39*
X941150Y340360D03*
X951150Y340360D03*
D13*
X683260Y396630D03*
X683260Y413630D03*
X683260Y322970D03*
X683260Y339970D03*
D32*
X667065Y407870D02*
X660085Y407870D01*
X660085Y414850D01*
X667065Y414850D01*
X667065Y407870D01*
X667065Y412670D02*
X660085Y412670D01*
X660085Y390330D02*
X667065Y390330D01*
X660085Y390330D02*
X660085Y397310D01*
X667065Y397310D01*
X667065Y390330D01*
X667065Y395130D02*
X660085Y395130D01*
X660085Y334210D02*
X667065Y334210D01*
X660085Y334210D02*
X660085Y341190D01*
X667065Y341190D01*
X667065Y334210D01*
X667065Y339010D02*
X660085Y339010D01*
X660085Y316670D02*
X667065Y316670D01*
X660085Y316670D02*
X660085Y323650D01*
X667065Y323650D01*
X667065Y316670D01*
X667065Y321470D02*
X660085Y321470D01*
D13*
X683260Y361070D03*
X683260Y378070D03*
D32*
X667065Y372310D02*
X660085Y372310D01*
X660085Y379290D01*
X667065Y379290D01*
X667065Y372310D01*
X667065Y377110D02*
X660085Y377110D01*
X660085Y354770D02*
X667065Y354770D01*
X660085Y354770D02*
X660085Y361750D01*
X667065Y361750D01*
X667065Y354770D01*
X667065Y359570D02*
X660085Y359570D01*
D44*
X1197530Y518100D03*
X1197530Y574100D03*
D45*
X1160780Y531100D03*
X1160780Y541100D03*
X1160780Y551100D03*
X1160780Y561100D03*
D25*
X1012190Y642874D03*
X1037590Y642874D03*
X1062990Y642874D03*
X1088390Y642874D03*
X1113790Y642874D03*
X1139190Y642874D03*
X706120Y642620D03*
X731520Y642620D03*
X756920Y642620D03*
X782320Y642620D03*
X807720Y642620D03*
X833120Y642620D03*
X858520Y642620D03*
X883920Y642620D03*
X909320Y642620D03*
X934720Y642620D03*
X960120Y642620D03*
X985520Y642620D03*
D27*
X767334Y442398D03*
X767334Y465398D03*
D13*
X784352Y445652D03*
X784352Y462652D03*
D46*
X709210Y456280D03*
D16*
X977510Y546862D03*
X960510Y546862D03*
X960510Y531622D03*
X977510Y531622D03*
X1017152Y530606D03*
X1034152Y530606D03*
D17*
X1149350Y585470D03*
D47*
X668020Y635000D03*
X1186180Y635000D03*
X668020Y25400D03*
X1186180Y25400D03*
D48*
X831850Y17780D03*
X844550Y17780D03*
X857250Y17780D03*
X869950Y17780D03*
X819150Y17780D03*
X831850Y30480D03*
X844550Y30480D03*
X857250Y30480D03*
X869950Y30480D03*
X819150Y30480D03*
D19*
X679520Y172720D03*
X656520Y172720D03*
D27*
X664718Y451542D03*
X664718Y474542D03*
D49*
X1171702Y228600D03*
X1171702Y203200D03*
X1171702Y177800D03*
D25*
X998220Y15240D03*
X1023620Y15240D03*
X1049020Y15240D03*
X1074420Y15240D03*
X1099820Y15240D03*
X1125220Y15240D03*
D10*
X58830Y772280D03*
X58830Y777280D03*
D11*
X58830Y747530D03*
X58830Y755280D03*
D10*
X58830Y762280D03*
X58830Y767280D03*
X58830Y787280D03*
X58830Y782280D03*
D11*
X58830Y812030D03*
X58830Y804280D03*
D10*
X58830Y797280D03*
X58830Y792280D03*
D12*
X47780Y808680D03*
X47780Y750880D03*
D13*
X77216Y814696D03*
X77216Y797696D03*
X73914Y738514D03*
X73914Y755514D03*
D14*
X94390Y755069D03*
X100890Y755069D03*
X107390Y755069D03*
X113890Y755069D03*
X113890Y782569D03*
X107390Y782569D03*
X100890Y782569D03*
X94390Y782569D03*
D15*
X104140Y768819D03*
D16*
X95640Y799084D03*
X112640Y799084D03*
D17*
X118110Y688340D03*
D18*
X438754Y951188D03*
D19*
X380930Y906780D03*
X403930Y906780D03*
D16*
X401184Y923544D03*
X384184Y923544D03*
D19*
X403930Y889508D03*
X380930Y889508D03*
D20*
X105410Y1007110D03*
X105410Y1062990D03*
X143510Y1007110D03*
X143510Y1062990D03*
D16*
X95640Y814324D03*
X112640Y814324D03*
D21*
X20320Y887984D03*
X28448Y887984D03*
D22*
X11416Y863346D03*
X41416Y863346D03*
D23*
X111536Y841756D03*
X83536Y841756D03*
D13*
X158750Y799220D03*
X158750Y816220D03*
X143764Y816474D03*
X143764Y799474D03*
D24*
X101600Y725170D03*
X101600Y715010D03*
D25*
X101600Y732790D03*
X101600Y707390D03*
D20*
X105410Y928370D03*
X105410Y984250D03*
X143510Y928370D03*
X143510Y984250D03*
D26*
X502158Y780288D03*
D13*
X150876Y758327D03*
X150876Y775327D03*
D27*
X134366Y777542D03*
X134366Y754542D03*
D13*
X151130Y705240D03*
X151130Y722240D03*
X135890Y705240D03*
X135890Y722240D03*
X120650Y705240D03*
X120650Y722240D03*
D28*
X302260Y720420D03*
D29*
X302260Y920420D03*
D30*
X249510Y727920D03*
D31*
X257260Y716920D03*
X257260Y923920D03*
D30*
X325010Y730420D03*
X249510Y732920D03*
X325010Y735420D03*
X249510Y737920D03*
X325010Y740420D03*
X249510Y742920D03*
X325010Y745420D03*
X249510Y747920D03*
X325010Y750420D03*
X249510Y752920D03*
X325010Y755420D03*
X249510Y757920D03*
X325010Y760420D03*
X249510Y762920D03*
X325010Y765420D03*
X249510Y767920D03*
X325010Y770420D03*
X249510Y772920D03*
X325010Y775420D03*
X249510Y777920D03*
X325010Y780420D03*
X249510Y782920D03*
X325010Y805420D03*
X249510Y807920D03*
X325010Y810420D03*
X249510Y812920D03*
X325010Y815420D03*
X249510Y817920D03*
X325010Y820420D03*
X249510Y822920D03*
X325010Y825420D03*
X249510Y827920D03*
X325010Y830420D03*
X249510Y832920D03*
X325010Y835420D03*
X249510Y837920D03*
X325010Y840420D03*
X249510Y842920D03*
X325010Y845420D03*
X249510Y847920D03*
X325010Y850420D03*
X249510Y852920D03*
X325010Y855420D03*
X249510Y857920D03*
X325010Y860420D03*
X249510Y862920D03*
X325010Y865420D03*
X249510Y867920D03*
X325010Y870420D03*
X249510Y872920D03*
X325010Y875420D03*
X249510Y877920D03*
X325010Y880420D03*
X249510Y882920D03*
X325010Y885420D03*
X249510Y887920D03*
X325010Y890420D03*
X249510Y892920D03*
X325010Y895420D03*
X249510Y897920D03*
X325010Y900420D03*
X249510Y902920D03*
X325010Y905420D03*
X249510Y907920D03*
X325010Y910420D03*
X249510Y912920D03*
D32*
X24445Y928570D02*
X17465Y928570D01*
X17465Y935550D01*
X24445Y935550D01*
X24445Y928570D01*
X24445Y933370D02*
X17465Y933370D01*
X17465Y911030D02*
X24445Y911030D01*
X17465Y911030D02*
X17465Y918010D01*
X24445Y918010D01*
X24445Y911030D01*
X24445Y915830D02*
X17465Y915830D01*
X17465Y966670D02*
X24445Y966670D01*
X17465Y966670D02*
X17465Y973650D01*
X24445Y973650D01*
X24445Y966670D01*
X24445Y971470D02*
X17465Y971470D01*
X17465Y949130D02*
X24445Y949130D01*
X17465Y949130D02*
X17465Y956110D01*
X24445Y956110D01*
X24445Y949130D01*
X24445Y953930D02*
X17465Y953930D01*
D13*
X40894Y913266D03*
X40894Y930266D03*
X40640Y951620D03*
X40640Y968620D03*
D21*
X166116Y759460D03*
X174244Y759460D03*
D10*
X58830Y1205350D03*
X58830Y1210350D03*
D11*
X58830Y1180600D03*
X58830Y1188350D03*
D10*
X58830Y1195350D03*
X58830Y1200350D03*
X58830Y1220350D03*
X58830Y1215350D03*
D11*
X58830Y1245100D03*
X58830Y1237350D03*
D10*
X58830Y1230350D03*
X58830Y1225350D03*
D12*
X47780Y1241750D03*
X47780Y1183950D03*
D13*
X78486Y1248020D03*
X78486Y1231020D03*
X78486Y1172346D03*
X78486Y1189346D03*
D33*
X286200Y1025750D03*
X297200Y1025750D03*
X308200Y1025750D03*
X319200Y1025750D03*
X330200Y1025750D03*
X341200Y1025750D03*
X352200Y1025750D03*
X363200Y1025750D03*
X374200Y1025750D03*
X385200Y1025750D03*
X396200Y1025750D03*
X407200Y1025750D03*
X418200Y1025750D03*
X429200Y1025750D03*
D34*
X457200Y1034250D03*
X457200Y1045250D03*
X457200Y1056250D03*
X457200Y1067250D03*
X457200Y1078250D03*
X457200Y1089250D03*
X457200Y1100250D03*
X457200Y1111250D03*
X457200Y1122250D03*
X457200Y1133250D03*
X457200Y1144250D03*
X457200Y1155250D03*
X457200Y1166250D03*
D33*
X429200Y1174750D03*
X418200Y1174750D03*
X407200Y1174750D03*
X396200Y1174750D03*
X385200Y1174750D03*
X374200Y1174750D03*
X363200Y1174750D03*
X352200Y1174750D03*
X341200Y1174750D03*
X330200Y1174750D03*
X319200Y1174750D03*
X308200Y1174750D03*
X297200Y1174750D03*
X286200Y1174750D03*
D34*
X258200Y1166250D03*
X258200Y1155250D03*
X258200Y1144250D03*
X258200Y1133250D03*
X258200Y1122250D03*
X258200Y1111250D03*
X258200Y1100250D03*
X258200Y1089250D03*
X258200Y1078250D03*
X258200Y1067250D03*
X258200Y1056250D03*
X258200Y1045250D03*
X258200Y1034250D03*
D35*
X347200Y1089750D03*
X326200Y1089750D03*
X305200Y1089750D03*
X284200Y1089750D03*
X347200Y1069250D03*
X326200Y1069250D03*
X305200Y1069250D03*
X284200Y1069250D03*
X347200Y1048750D03*
X326200Y1048750D03*
X305200Y1048750D03*
X284200Y1048750D03*
X347200Y1151750D03*
X326200Y1151750D03*
X305200Y1151750D03*
X284200Y1151750D03*
X347200Y1131250D03*
X326200Y1131250D03*
X305200Y1131250D03*
X284200Y1131250D03*
X347200Y1110750D03*
X326200Y1110750D03*
X305200Y1110750D03*
X284200Y1110750D03*
X368200Y1110750D03*
X389200Y1110750D03*
X410200Y1110750D03*
X431200Y1110750D03*
X368200Y1131250D03*
X389200Y1131250D03*
X410200Y1131250D03*
X431200Y1131250D03*
X368200Y1151750D03*
X389200Y1151750D03*
X410200Y1151750D03*
X431200Y1151750D03*
X368200Y1048750D03*
X389200Y1048750D03*
X410200Y1048750D03*
X431200Y1048750D03*
X368200Y1069250D03*
X389200Y1069250D03*
X410200Y1069250D03*
X431200Y1069250D03*
X368200Y1089750D03*
X389200Y1089750D03*
X410200Y1089750D03*
X431200Y1089750D03*
D36*
X220861Y1075560D03*
D37*
X220861Y1083560D03*
X220861Y1091560D03*
D36*
X234061Y1075560D03*
D37*
X234061Y1083560D03*
X234061Y1091560D03*
D38*
X233961Y1099560D03*
D36*
X220861Y1099560D03*
X220861Y1137650D03*
D37*
X220861Y1145650D03*
X220861Y1153650D03*
D36*
X234061Y1137650D03*
D37*
X234061Y1145650D03*
X234061Y1153650D03*
D38*
X233961Y1161650D03*
D36*
X220861Y1161650D03*
X490240Y1162440D03*
D37*
X490240Y1154440D03*
X490240Y1146440D03*
D36*
X477040Y1162440D03*
D37*
X477040Y1154440D03*
X477040Y1146440D03*
D38*
X477140Y1138440D03*
D36*
X490240Y1138440D03*
D39*
X116920Y1207770D03*
X126920Y1207770D03*
X116920Y1220470D03*
X126920Y1220470D03*
D40*
X87390Y1219120D03*
D41*
X87140Y1214120D03*
X87140Y1209120D03*
X95740Y1209120D03*
X95740Y1214120D03*
X95740Y1219120D03*
D42*
X532944Y1038180D03*
D43*
X486944Y995680D03*
D42*
X532944Y953180D03*
D16*
X334908Y990092D03*
X351908Y990092D03*
X335162Y1006094D03*
X352162Y1006094D03*
D39*
X298530Y1005840D03*
X308530Y1005840D03*
D13*
X40640Y1062110D03*
X40640Y1079110D03*
X40640Y988450D03*
X40640Y1005450D03*
D32*
X24445Y1073350D02*
X17465Y1073350D01*
X17465Y1080330D01*
X24445Y1080330D01*
X24445Y1073350D01*
X24445Y1078150D02*
X17465Y1078150D01*
X17465Y1055810D02*
X24445Y1055810D01*
X17465Y1055810D02*
X17465Y1062790D01*
X24445Y1062790D01*
X24445Y1055810D01*
X24445Y1060610D02*
X17465Y1060610D01*
X17465Y999690D02*
X24445Y999690D01*
X17465Y999690D02*
X17465Y1006670D01*
X24445Y1006670D01*
X24445Y999690D01*
X24445Y1004490D02*
X17465Y1004490D01*
X17465Y982150D02*
X24445Y982150D01*
X17465Y982150D02*
X17465Y989130D01*
X24445Y989130D01*
X24445Y982150D01*
X24445Y986950D02*
X17465Y986950D01*
D13*
X40640Y1026550D03*
X40640Y1043550D03*
D32*
X24445Y1037790D02*
X17465Y1037790D01*
X17465Y1044770D01*
X24445Y1044770D01*
X24445Y1037790D01*
X24445Y1042590D02*
X17465Y1042590D01*
X17465Y1020250D02*
X24445Y1020250D01*
X17465Y1020250D02*
X17465Y1027230D01*
X24445Y1027230D01*
X24445Y1020250D01*
X24445Y1025050D02*
X17465Y1025050D01*
D44*
X554910Y1183580D03*
X554910Y1239580D03*
D45*
X518160Y1196580D03*
X518160Y1206580D03*
X518160Y1216580D03*
X518160Y1226580D03*
D25*
X369570Y1308354D03*
X394970Y1308354D03*
X420370Y1308354D03*
X445770Y1308354D03*
X471170Y1308354D03*
X496570Y1308354D03*
X63500Y1308100D03*
X88900Y1308100D03*
X114300Y1308100D03*
X139700Y1308100D03*
X165100Y1308100D03*
X190500Y1308100D03*
X215900Y1308100D03*
X241300Y1308100D03*
X266700Y1308100D03*
X292100Y1308100D03*
X317500Y1308100D03*
X342900Y1308100D03*
D27*
X124714Y1107878D03*
X124714Y1130878D03*
D13*
X141732Y1111132D03*
X141732Y1128132D03*
D46*
X66590Y1121760D03*
D16*
X334890Y1212342D03*
X317890Y1212342D03*
X317890Y1197102D03*
X334890Y1197102D03*
X374532Y1196086D03*
X391532Y1196086D03*
D17*
X506730Y1250950D03*
D47*
X25400Y1300480D03*
X543560Y1300480D03*
X25400Y690880D03*
X543560Y690880D03*
D48*
X189230Y683260D03*
X201930Y683260D03*
X214630Y683260D03*
X227330Y683260D03*
X176530Y683260D03*
X189230Y695960D03*
X201930Y695960D03*
X214630Y695960D03*
X227330Y695960D03*
X176530Y695960D03*
D19*
X36900Y838200D03*
X13900Y838200D03*
D27*
X22098Y1117022D03*
X22098Y1140022D03*
D49*
X529082Y894080D03*
X529082Y868680D03*
X529082Y843280D03*
D25*
X355600Y680720D03*
X381000Y680720D03*
X406400Y680720D03*
X431800Y680720D03*
X457200Y680720D03*
X482600Y680720D03*
D10*
X701450Y772280D03*
X701450Y777280D03*
D11*
X701450Y747530D03*
X701450Y755280D03*
D10*
X701450Y762280D03*
X701450Y767280D03*
X701450Y787280D03*
X701450Y782280D03*
D11*
X701450Y812030D03*
X701450Y804280D03*
D10*
X701450Y797280D03*
X701450Y792280D03*
D12*
X690400Y808680D03*
X690400Y750880D03*
D13*
X719836Y814696D03*
X719836Y797696D03*
X716534Y738514D03*
X716534Y755514D03*
D14*
X737010Y755069D03*
X743510Y755069D03*
X750010Y755069D03*
X756510Y755069D03*
X756510Y782569D03*
X750010Y782569D03*
X743510Y782569D03*
X737010Y782569D03*
D15*
X746760Y768819D03*
D16*
X738260Y799084D03*
X755260Y799084D03*
D17*
X760730Y688340D03*
D18*
X1081374Y951188D03*
D19*
X1023550Y906780D03*
X1046550Y906780D03*
D16*
X1043804Y923544D03*
X1026804Y923544D03*
D19*
X1046550Y889508D03*
X1023550Y889508D03*
D20*
X748030Y1007110D03*
X748030Y1062990D03*
X786130Y1007110D03*
X786130Y1062990D03*
D16*
X738260Y814324D03*
X755260Y814324D03*
D21*
X662940Y887984D03*
X671068Y887984D03*
D22*
X654036Y863346D03*
X684036Y863346D03*
D23*
X754156Y841756D03*
X726156Y841756D03*
D13*
X801370Y799220D03*
X801370Y816220D03*
X786384Y816474D03*
X786384Y799474D03*
D24*
X744220Y725170D03*
X744220Y715010D03*
D25*
X744220Y732790D03*
X744220Y707390D03*
D20*
X748030Y928370D03*
X748030Y984250D03*
X786130Y928370D03*
X786130Y984250D03*
D26*
X1144778Y780288D03*
D13*
X793496Y758327D03*
X793496Y775327D03*
D27*
X776986Y777542D03*
X776986Y754542D03*
D13*
X793750Y705240D03*
X793750Y722240D03*
X778510Y705240D03*
X778510Y722240D03*
X763270Y705240D03*
X763270Y722240D03*
D28*
X944880Y720420D03*
D29*
X944880Y920420D03*
D30*
X892130Y727920D03*
D31*
X899880Y716920D03*
X899880Y923920D03*
D30*
X967630Y730420D03*
X892130Y732920D03*
X967630Y735420D03*
X892130Y737920D03*
X967630Y740420D03*
X892130Y742920D03*
X967630Y745420D03*
X892130Y747920D03*
X967630Y750420D03*
X892130Y752920D03*
X967630Y755420D03*
X892130Y757920D03*
X967630Y760420D03*
X892130Y762920D03*
X967630Y765420D03*
X892130Y767920D03*
X967630Y770420D03*
X892130Y772920D03*
X967630Y775420D03*
X892130Y777920D03*
X967630Y780420D03*
X892130Y782920D03*
X967630Y805420D03*
X892130Y807920D03*
X967630Y810420D03*
X892130Y812920D03*
X967630Y815420D03*
X892130Y817920D03*
X967630Y820420D03*
X892130Y822920D03*
X967630Y825420D03*
X892130Y827920D03*
X967630Y830420D03*
X892130Y832920D03*
X967630Y835420D03*
X892130Y837920D03*
X967630Y840420D03*
X892130Y842920D03*
X967630Y845420D03*
X892130Y847920D03*
X967630Y850420D03*
X892130Y852920D03*
X967630Y855420D03*
X892130Y857920D03*
X967630Y860420D03*
X892130Y862920D03*
X967630Y865420D03*
X892130Y867920D03*
X967630Y870420D03*
X892130Y872920D03*
X967630Y875420D03*
X892130Y877920D03*
X967630Y880420D03*
X892130Y882920D03*
X967630Y885420D03*
X892130Y887920D03*
X967630Y890420D03*
X892130Y892920D03*
X967630Y895420D03*
X892130Y897920D03*
X967630Y900420D03*
X892130Y902920D03*
X967630Y905420D03*
X892130Y907920D03*
X967630Y910420D03*
X892130Y912920D03*
D32*
X667065Y928570D02*
X660085Y928570D01*
X660085Y935550D01*
X667065Y935550D01*
X667065Y928570D01*
X667065Y933370D02*
X660085Y933370D01*
X660085Y911030D02*
X667065Y911030D01*
X660085Y911030D02*
X660085Y918010D01*
X667065Y918010D01*
X667065Y911030D01*
X667065Y915830D02*
X660085Y915830D01*
X660085Y966670D02*
X667065Y966670D01*
X660085Y966670D02*
X660085Y973650D01*
X667065Y973650D01*
X667065Y966670D01*
X667065Y971470D02*
X660085Y971470D01*
X660085Y949130D02*
X667065Y949130D01*
X660085Y949130D02*
X660085Y956110D01*
X667065Y956110D01*
X667065Y949130D01*
X667065Y953930D02*
X660085Y953930D01*
D13*
X683514Y913266D03*
X683514Y930266D03*
X683260Y951620D03*
X683260Y968620D03*
D21*
X808736Y759460D03*
X816864Y759460D03*
D10*
X701450Y1205350D03*
X701450Y1210350D03*
D11*
X701450Y1180600D03*
X701450Y1188350D03*
D10*
X701450Y1195350D03*
X701450Y1200350D03*
X701450Y1220350D03*
X701450Y1215350D03*
D11*
X701450Y1245100D03*
X701450Y1237350D03*
D10*
X701450Y1230350D03*
X701450Y1225350D03*
D12*
X690400Y1241750D03*
X690400Y1183950D03*
D13*
X721106Y1248020D03*
X721106Y1231020D03*
X721106Y1172346D03*
X721106Y1189346D03*
D33*
X928820Y1025750D03*
X939820Y1025750D03*
X950820Y1025750D03*
X961820Y1025750D03*
X972820Y1025750D03*
X983820Y1025750D03*
X994820Y1025750D03*
X1005820Y1025750D03*
X1016820Y1025750D03*
X1027820Y1025750D03*
X1038820Y1025750D03*
X1049820Y1025750D03*
X1060820Y1025750D03*
X1071820Y1025750D03*
D34*
X1099820Y1034250D03*
X1099820Y1045250D03*
X1099820Y1056250D03*
X1099820Y1067250D03*
X1099820Y1078250D03*
X1099820Y1089250D03*
X1099820Y1100250D03*
X1099820Y1111250D03*
X1099820Y1122250D03*
X1099820Y1133250D03*
X1099820Y1144250D03*
X1099820Y1155250D03*
X1099820Y1166250D03*
D33*
X1071820Y1174750D03*
X1060820Y1174750D03*
X1049820Y1174750D03*
X1038820Y1174750D03*
X1027820Y1174750D03*
X1016820Y1174750D03*
X1005820Y1174750D03*
X994820Y1174750D03*
X983820Y1174750D03*
X972820Y1174750D03*
X961820Y1174750D03*
X950820Y1174750D03*
X939820Y1174750D03*
X928820Y1174750D03*
D34*
X900820Y1166250D03*
X900820Y1155250D03*
X900820Y1144250D03*
X900820Y1133250D03*
X900820Y1122250D03*
X900820Y1111250D03*
X900820Y1100250D03*
X900820Y1089250D03*
X900820Y1078250D03*
X900820Y1067250D03*
X900820Y1056250D03*
X900820Y1045250D03*
X900820Y1034250D03*
D35*
X989820Y1089750D03*
X968820Y1089750D03*
X947820Y1089750D03*
X926820Y1089750D03*
X989820Y1069250D03*
X968820Y1069250D03*
X947820Y1069250D03*
X926820Y1069250D03*
X989820Y1048750D03*
X968820Y1048750D03*
X947820Y1048750D03*
X926820Y1048750D03*
X989820Y1151750D03*
X968820Y1151750D03*
X947820Y1151750D03*
X926820Y1151750D03*
X989820Y1131250D03*
X968820Y1131250D03*
X947820Y1131250D03*
X926820Y1131250D03*
X989820Y1110750D03*
X968820Y1110750D03*
X947820Y1110750D03*
X926820Y1110750D03*
X1010820Y1110750D03*
X1031820Y1110750D03*
X1052820Y1110750D03*
X1073820Y1110750D03*
X1010820Y1131250D03*
X1031820Y1131250D03*
X1052820Y1131250D03*
X1073820Y1131250D03*
X1010820Y1151750D03*
X1031820Y1151750D03*
X1052820Y1151750D03*
X1073820Y1151750D03*
X1010820Y1048750D03*
X1031820Y1048750D03*
X1052820Y1048750D03*
X1073820Y1048750D03*
X1010820Y1069250D03*
X1031820Y1069250D03*
X1052820Y1069250D03*
X1073820Y1069250D03*
X1010820Y1089750D03*
X1031820Y1089750D03*
X1052820Y1089750D03*
X1073820Y1089750D03*
D36*
X863481Y1075560D03*
D37*
X863481Y1083560D03*
X863481Y1091560D03*
D36*
X876681Y1075560D03*
D37*
X876681Y1083560D03*
X876681Y1091560D03*
D38*
X876581Y1099560D03*
D36*
X863481Y1099560D03*
X863481Y1137650D03*
D37*
X863481Y1145650D03*
X863481Y1153650D03*
D36*
X876681Y1137650D03*
D37*
X876681Y1145650D03*
X876681Y1153650D03*
D38*
X876581Y1161650D03*
D36*
X863481Y1161650D03*
X1132860Y1162440D03*
D37*
X1132860Y1154440D03*
X1132860Y1146440D03*
D36*
X1119660Y1162440D03*
D37*
X1119660Y1154440D03*
X1119660Y1146440D03*
D38*
X1119760Y1138440D03*
D36*
X1132860Y1138440D03*
D39*
X759540Y1207770D03*
X769540Y1207770D03*
X759540Y1220470D03*
X769540Y1220470D03*
D40*
X730010Y1219120D03*
D41*
X729760Y1214120D03*
X729760Y1209120D03*
X738360Y1209120D03*
X738360Y1214120D03*
X738360Y1219120D03*
D42*
X1175564Y1038180D03*
D43*
X1129564Y995680D03*
D42*
X1175564Y953180D03*
D16*
X977528Y990092D03*
X994528Y990092D03*
X977782Y1006094D03*
X994782Y1006094D03*
D39*
X941150Y1005840D03*
X951150Y1005840D03*
D13*
X683260Y1062110D03*
X683260Y1079110D03*
X683260Y988450D03*
X683260Y1005450D03*
D32*
X667065Y1073350D02*
X660085Y1073350D01*
X660085Y1080330D01*
X667065Y1080330D01*
X667065Y1073350D01*
X667065Y1078150D02*
X660085Y1078150D01*
X660085Y1055810D02*
X667065Y1055810D01*
X660085Y1055810D02*
X660085Y1062790D01*
X667065Y1062790D01*
X667065Y1055810D01*
X667065Y1060610D02*
X660085Y1060610D01*
X660085Y999690D02*
X667065Y999690D01*
X660085Y999690D02*
X660085Y1006670D01*
X667065Y1006670D01*
X667065Y999690D01*
X667065Y1004490D02*
X660085Y1004490D01*
X660085Y982150D02*
X667065Y982150D01*
X660085Y982150D02*
X660085Y989130D01*
X667065Y989130D01*
X667065Y982150D01*
X667065Y986950D02*
X660085Y986950D01*
D13*
X683260Y1026550D03*
X683260Y1043550D03*
D32*
X667065Y1037790D02*
X660085Y1037790D01*
X660085Y1044770D01*
X667065Y1044770D01*
X667065Y1037790D01*
X667065Y1042590D02*
X660085Y1042590D01*
X660085Y1020250D02*
X667065Y1020250D01*
X660085Y1020250D02*
X660085Y1027230D01*
X667065Y1027230D01*
X667065Y1020250D01*
X667065Y1025050D02*
X660085Y1025050D01*
D44*
X1197530Y1183580D03*
X1197530Y1239580D03*
D45*
X1160780Y1196580D03*
X1160780Y1206580D03*
X1160780Y1216580D03*
X1160780Y1226580D03*
D25*
X1012190Y1308354D03*
X1037590Y1308354D03*
X1062990Y1308354D03*
X1088390Y1308354D03*
X1113790Y1308354D03*
X1139190Y1308354D03*
X706120Y1308100D03*
X731520Y1308100D03*
X756920Y1308100D03*
X782320Y1308100D03*
X807720Y1308100D03*
X833120Y1308100D03*
X858520Y1308100D03*
X883920Y1308100D03*
X909320Y1308100D03*
X934720Y1308100D03*
X960120Y1308100D03*
X985520Y1308100D03*
D27*
X767334Y1107878D03*
X767334Y1130878D03*
D13*
X784352Y1111132D03*
X784352Y1128132D03*
D46*
X709210Y1121760D03*
D16*
X977510Y1212342D03*
X960510Y1212342D03*
X960510Y1197102D03*
X977510Y1197102D03*
X1017152Y1196086D03*
X1034152Y1196086D03*
D17*
X1149350Y1250950D03*
D47*
X668020Y1300480D03*
X1186180Y1300480D03*
X668020Y690880D03*
X1186180Y690880D03*
D48*
X831850Y683260D03*
X844550Y683260D03*
X857250Y683260D03*
X869950Y683260D03*
X819150Y683260D03*
X831850Y695960D03*
X844550Y695960D03*
X857250Y695960D03*
X869950Y695960D03*
X819150Y695960D03*
D19*
X679520Y838200D03*
X656520Y838200D03*
D27*
X664718Y1117022D03*
X664718Y1140022D03*
D49*
X1171702Y894080D03*
X1171702Y868680D03*
X1171702Y843280D03*
D25*
X998220Y680720D03*
X1023620Y680720D03*
X1049020Y680720D03*
X1074420Y680720D03*
X1099820Y680720D03*
X1125220Y680720D03*
D48*
X137160Y1346835D03*
X1279525Y1346835D03*
D50*
X128105Y-20955D02*
X128108Y-20733D01*
X128116Y-20511D01*
X128130Y-20289D01*
X128149Y-20067D01*
X128173Y-19847D01*
X128203Y-19626D01*
X128238Y-19407D01*
X128279Y-19188D01*
X128325Y-18971D01*
X128376Y-18755D01*
X128433Y-18540D01*
X128495Y-18326D01*
X128562Y-18115D01*
X128634Y-17904D01*
X128712Y-17696D01*
X128794Y-17490D01*
X128882Y-17286D01*
X128974Y-17083D01*
X129072Y-16884D01*
X129174Y-16687D01*
X129281Y-16492D01*
X129393Y-16300D01*
X129510Y-16111D01*
X129631Y-15924D01*
X129757Y-15741D01*
X129887Y-15561D01*
X130022Y-15384D01*
X130160Y-15211D01*
X130303Y-15041D01*
X130451Y-14874D01*
X130602Y-14711D01*
X130757Y-14552D01*
X130916Y-14397D01*
X131079Y-14246D01*
X131246Y-14098D01*
X131416Y-13955D01*
X131589Y-13817D01*
X131766Y-13682D01*
X131946Y-13552D01*
X132129Y-13426D01*
X132316Y-13305D01*
X132505Y-13188D01*
X132697Y-13076D01*
X132892Y-12969D01*
X133089Y-12867D01*
X133288Y-12769D01*
X133491Y-12677D01*
X133695Y-12589D01*
X133901Y-12507D01*
X134109Y-12429D01*
X134320Y-12357D01*
X134531Y-12290D01*
X134745Y-12228D01*
X134960Y-12171D01*
X135176Y-12120D01*
X135393Y-12074D01*
X135612Y-12033D01*
X135831Y-11998D01*
X136052Y-11968D01*
X136272Y-11944D01*
X136494Y-11925D01*
X136716Y-11911D01*
X136938Y-11903D01*
X137160Y-11900D01*
X137382Y-11903D01*
X137604Y-11911D01*
X137826Y-11925D01*
X138048Y-11944D01*
X138268Y-11968D01*
X138489Y-11998D01*
X138708Y-12033D01*
X138927Y-12074D01*
X139144Y-12120D01*
X139360Y-12171D01*
X139575Y-12228D01*
X139789Y-12290D01*
X140000Y-12357D01*
X140211Y-12429D01*
X140419Y-12507D01*
X140625Y-12589D01*
X140829Y-12677D01*
X141032Y-12769D01*
X141231Y-12867D01*
X141428Y-12969D01*
X141623Y-13076D01*
X141815Y-13188D01*
X142004Y-13305D01*
X142191Y-13426D01*
X142374Y-13552D01*
X142554Y-13682D01*
X142731Y-13817D01*
X142904Y-13955D01*
X143074Y-14098D01*
X143241Y-14246D01*
X143404Y-14397D01*
X143563Y-14552D01*
X143718Y-14711D01*
X143869Y-14874D01*
X144017Y-15041D01*
X144160Y-15211D01*
X144298Y-15384D01*
X144433Y-15561D01*
X144563Y-15741D01*
X144689Y-15924D01*
X144810Y-16111D01*
X144927Y-16300D01*
X145039Y-16492D01*
X145146Y-16687D01*
X145248Y-16884D01*
X145346Y-17083D01*
X145438Y-17286D01*
X145526Y-17490D01*
X145608Y-17696D01*
X145686Y-17904D01*
X145758Y-18115D01*
X145825Y-18326D01*
X145887Y-18540D01*
X145944Y-18755D01*
X145995Y-18971D01*
X146041Y-19188D01*
X146082Y-19407D01*
X146117Y-19626D01*
X146147Y-19847D01*
X146171Y-20067D01*
X146190Y-20289D01*
X146204Y-20511D01*
X146212Y-20733D01*
X146215Y-20955D01*
X146212Y-21177D01*
X146204Y-21399D01*
X146190Y-21621D01*
X146171Y-21843D01*
X146147Y-22063D01*
X146117Y-22284D01*
X146082Y-22503D01*
X146041Y-22722D01*
X145995Y-22939D01*
X145944Y-23155D01*
X145887Y-23370D01*
X145825Y-23584D01*
X145758Y-23795D01*
X145686Y-24006D01*
X145608Y-24214D01*
X145526Y-24420D01*
X145438Y-24624D01*
X145346Y-24827D01*
X145248Y-25026D01*
X145146Y-25223D01*
X145039Y-25418D01*
X144927Y-25610D01*
X144810Y-25799D01*
X144689Y-25986D01*
X144563Y-26169D01*
X144433Y-26349D01*
X144298Y-26526D01*
X144160Y-26699D01*
X144017Y-26869D01*
X143869Y-27036D01*
X143718Y-27199D01*
X143563Y-27358D01*
X143404Y-27513D01*
X143241Y-27664D01*
X143074Y-27812D01*
X142904Y-27955D01*
X142731Y-28093D01*
X142554Y-28228D01*
X142374Y-28358D01*
X142191Y-28484D01*
X142004Y-28605D01*
X141815Y-28722D01*
X141623Y-28834D01*
X141428Y-28941D01*
X141231Y-29043D01*
X141032Y-29141D01*
X140829Y-29233D01*
X140625Y-29321D01*
X140419Y-29403D01*
X140211Y-29481D01*
X140000Y-29553D01*
X139789Y-29620D01*
X139575Y-29682D01*
X139360Y-29739D01*
X139144Y-29790D01*
X138927Y-29836D01*
X138708Y-29877D01*
X138489Y-29912D01*
X138268Y-29942D01*
X138048Y-29966D01*
X137826Y-29985D01*
X137604Y-29999D01*
X137382Y-30007D01*
X137160Y-30010D01*
X136938Y-30007D01*
X136716Y-29999D01*
X136494Y-29985D01*
X136272Y-29966D01*
X136052Y-29942D01*
X135831Y-29912D01*
X135612Y-29877D01*
X135393Y-29836D01*
X135176Y-29790D01*
X134960Y-29739D01*
X134745Y-29682D01*
X134531Y-29620D01*
X134320Y-29553D01*
X134109Y-29481D01*
X133901Y-29403D01*
X133695Y-29321D01*
X133491Y-29233D01*
X133288Y-29141D01*
X133089Y-29043D01*
X132892Y-28941D01*
X132697Y-28834D01*
X132505Y-28722D01*
X132316Y-28605D01*
X132129Y-28484D01*
X131946Y-28358D01*
X131766Y-28228D01*
X131589Y-28093D01*
X131416Y-27955D01*
X131246Y-27812D01*
X131079Y-27664D01*
X130916Y-27513D01*
X130757Y-27358D01*
X130602Y-27199D01*
X130451Y-27036D01*
X130303Y-26869D01*
X130160Y-26699D01*
X130022Y-26526D01*
X129887Y-26349D01*
X129757Y-26169D01*
X129631Y-25986D01*
X129510Y-25799D01*
X129393Y-25610D01*
X129281Y-25418D01*
X129174Y-25223D01*
X129072Y-25026D01*
X128974Y-24827D01*
X128882Y-24624D01*
X128794Y-24420D01*
X128712Y-24214D01*
X128634Y-24006D01*
X128562Y-23795D01*
X128495Y-23584D01*
X128433Y-23370D01*
X128376Y-23155D01*
X128325Y-22939D01*
X128279Y-22722D01*
X128238Y-22503D01*
X128203Y-22284D01*
X128173Y-22063D01*
X128149Y-21843D01*
X128130Y-21621D01*
X128116Y-21399D01*
X128108Y-21177D01*
X128105Y-20955D01*
D51*
X137160Y-20955D03*
M02*
