M48
;GenerationSoftware,Autodesk,EAGLE,9.6.2*%
;CreationDate,2021-01-15T21:57:18Z*%
FMAT,2
ICI,OFF
METRIC,TZ,000.000
T10C0.305
T9C0.381
T8C0.400
T7C0.508
T6C0.650
T5C1.016
T4C1.100
T3C1.600
T2C3.048
T1C3.800
%
G90
M71
T1
X50216Y78029
X114732Y11481
X50216Y11481
X114732Y78029
T2
X2540Y63500
X54356Y63500
X2540Y2540
X54356Y2540
X67056Y63500
X118872Y63500
X67056Y2540
X118872Y2540
X67056Y130048
X118872Y130048
X67056Y69088
X118872Y69088
X2540Y130048
X54356Y130048
X2540Y69088
X54356Y69088
T3
X30226Y25494
X94742Y92042
X94742Y25494
X30226Y92042
T4
X94742Y72042
X94742Y5494
X30226Y72042
X30226Y5494
T5
X83566Y64262
X86106Y64262
X88646Y64262
X91186Y64262
X93726Y64262
X96266Y64262
X98806Y64262
X100076Y1524
X102616Y1524
X105156Y1524
X107696Y1524
X110236Y1524
X112776Y1524
X10160Y73279
X10160Y70739
X36957Y130835
X39497Y130835
X42037Y130835
X112776Y68072
X44577Y130835
X47117Y130835
X49657Y130835
X6350Y130810
X8890Y130810
X11430Y130810
X13970Y130810
X16510Y130810
X19050Y130810
X104013Y64287
X21590Y130810
X24130Y130810
X26670Y130810
X29210Y130810
X31750Y130810
X34290Y130810
X35560Y68072
X38100Y68072
X40640Y68072
X43180Y68072
X45720Y68072
X48260Y68072
X74676Y73279
X74676Y70739
X101473Y130835
X104013Y130835
X10160Y6731
X10160Y4191
X109093Y130835
X111633Y130835
X114173Y130835
X70866Y130810
X36957Y64287
X39497Y64287
X42037Y64287
X44577Y64287
X47117Y64287
X49657Y64287
X6350Y64262
X8890Y64262
X11430Y64262
X13970Y64262
X16510Y64262
X19050Y64262
X21590Y64262
X24130Y64262
X26670Y64262
X29210Y64262
X31750Y64262
X34290Y64262
X73406Y130810
X75946Y130810
X78486Y130810
X81026Y130810
X83566Y130810
X86106Y130810
X88646Y130810
X91186Y130810
X93726Y130810
X96266Y130810
X35560Y1524
X38100Y1524
X40640Y1524
X43180Y1524
X45720Y1524
X48260Y1524
X98806Y130810
X100076Y68072
X102616Y68072
X105156Y68072
X74676Y6731
X74676Y4191
X107696Y68072
X110236Y68072
X101473Y64287
X106553Y130835
X106553Y64287
X109093Y64287
X111633Y64287
X114173Y64287
X70866Y64262
X73406Y64262
X75946Y64262
X78486Y64262
X81026Y64262
T6
X4778Y51847
X4778Y8540
X69294Y80868
X4778Y57627
X69294Y118395
X69294Y14320
X4778Y14320
X69294Y8540
X69294Y57627
X69294Y51847
X4778Y80868
X4778Y75088
X4778Y124175
X4778Y118395
X69294Y75088
X69294Y124175
T7
X21463Y68326
X20193Y68326
X18923Y68326
X85979Y3048
X18923Y69596
X84709Y3048
X83439Y68326
X83439Y3048
X82169Y1778
X87249Y1778
X84709Y1778
X83439Y1778
X85979Y1778
X84709Y69596
X83439Y69596
X82169Y68326
X87249Y68326
X85979Y68326
X84709Y68326
X82169Y3048
X17653Y68326
X22733Y68326
X87249Y3048
X21463Y1778
X22733Y1778
X17653Y1778
X17653Y3048
X18923Y3048
X20193Y3048
X21463Y3048
X22733Y3048
X18923Y1778
X20193Y1778
X85979Y69596
X87249Y69596
X82169Y69596
X20193Y69596
X21463Y69596
X22733Y69596
X17653Y69596
T8
X5308Y15748
X65644Y15748
X65644Y7112
X69824Y7112
X69824Y15748
X65644Y59055
X65644Y50419
X65644Y82296
X65644Y73660
X69824Y73660
X69824Y82296
X69824Y50419
X65644Y125603
X65644Y116967
X69824Y116967
X69824Y125603
X1128Y82296
X1128Y73660
X5308Y82296
X69824Y59055
X1128Y125603
X1128Y116967
X5308Y116967
X5308Y73660
X1128Y15748
X1128Y7112
X5308Y7112
X1128Y59055
X1128Y50419
X5308Y50419
X5308Y59055
X5308Y125603
T9
X22758Y71882
X74676Y112268
X88570Y110998
X30734Y119634
X87274Y5334
X100838Y53086
X24054Y44450
X95250Y53086
X72390Y10668
X95250Y119634
X22758Y5334
X36322Y53086
X30734Y53086
X7874Y10668
X74676Y45720
X10160Y45720
X87274Y71882
X10160Y112268
X100838Y119634
X24054Y110998
X72390Y77216
X7874Y77216
X36322Y119634
X88570Y44450
T10
X49606Y7137
X55956Y7137
X49606Y17043
X55931Y15545
X49606Y4851
X49606Y1549
X55880Y14427
X55956Y12217
X55956Y9931
X12776Y23647
X8966Y23647
X12776Y21107
X8966Y21107
X17094Y21107
X17094Y18567
X17094Y16281
X12938Y16256
X8966Y28219
X8966Y25679
X8966Y31013
X8966Y33553
X8966Y36347
X8966Y38887
X12522Y39903
X12446Y26670
X40716Y59461
X43510Y53873
X47066Y53873
X51892Y51079
X53924Y51079
X53924Y53619
X55702Y53619
X55702Y60223
X53670Y60223
X51537Y60350
X49759Y60350
X51664Y57455
X47727Y60350
X47727Y62382
X49759Y62382
X44272Y52095
X47066Y52095
X47066Y50825
X41148Y27432
X37338Y27432
X44704Y30226
X35306Y25146
X37084Y25146
X45923Y22733
X33604Y1549
X29794Y1549
X36652Y59715
X34112Y59715
X38430Y61747
X34620Y61747
X31826Y61747
X27254Y61747
X29540Y61747
X29540Y59461
X27254Y59461
X31826Y60477
X46050Y35585
X27000Y34061
X27000Y32537
X25476Y34061
X25476Y35585
X36398Y33553
X37668Y33553
X39192Y34061
X19812Y49174
X5410Y37363
X5410Y33553
X16332Y10693
X50470Y54762
X7350Y16053
X23800Y37160
X8712Y2311
X23520Y17272
X19507Y57556
X8712Y45237
X26441Y11684
X26543Y23266
X53924Y55905
X48336Y45745
X23520Y46330
X53670Y24663
X55448Y25933
X53670Y25933
X51638Y25933
X55956Y4851
X14554Y1295
X10236Y1295
X6426Y1295
X47828Y24790
X34036Y6477
X34138Y25502
X6604Y19050
X50470Y53137
X24486Y54610
X42037Y60401
X42037Y53137
X17628Y11811
X7366Y11201
X17221Y11074
X28677Y19926
X26626Y20041
X49657Y55601
X25400Y60960
X20884Y47188
X37008Y23978
X31318Y24003
X23114Y11684
X24943Y2540
X23622Y11176
X18796Y14427
X18796Y15773
X23368Y6198
X29718Y6985
X23114Y53162
X23241Y57760
X26416Y21946
X26441Y20726
X20941Y42628
X19913Y41066
X34798Y23114
X34798Y21844
X34798Y9906
X30518Y10198
X21336Y48006
X28651Y19126
X26670Y19253
X50089Y56134
X25908Y61722
X21348Y43416
X22631Y32715
X22657Y36322
X20433Y41790
X23190Y39116
X15240Y43688
X5080Y32258
X5105Y39675
X49276Y54280
X25146Y58217
X14224Y56642
X16281Y46507
X5080Y36068
X49784Y54813
X25171Y58928
X13716Y57226
X15748Y45822
X20955Y45314
X17551Y56134
X21514Y45745
X18237Y55982
X26924Y52324
X34722Y52375
X5080Y24892
X5080Y28702
X23597Y52553
X23647Y57226
X23368Y19236
X28118Y17297
X11049Y54864
X10160Y61341
X31242Y10465
X37338Y10414
X30988Y16535
X36805Y16027
X30963Y15672
X36322Y15494
X31039Y14046
X36322Y14224
X71882Y5207
X75819Y8001
X74930Y10135
X76200Y10160
X73660Y10160
X76962Y7112
X78359Y7112
X81839Y13386
X77013Y14122
X77454Y18542
X90805Y7747
X88214Y24740
X90881Y24740
X79883Y7112
X90957Y14224
X88036Y14224
X72085Y54889
X90957Y17224
X95555Y14884
X108788Y50571
X91770Y51333
X102438Y49555
X102438Y47523
X102438Y45491
X102438Y43459
X102438Y41427
X102438Y39395
X102438Y37363
X104470Y37363
X104470Y39395
X104470Y41427
X104470Y43459
X104470Y45491
X104470Y47523
X104470Y49555
X106502Y49555
X106756Y47523
X106756Y45491
X106756Y43459
X106756Y41427
X106756Y39395
X106756Y37363
X108788Y37363
X108788Y39395
X108788Y41427
X108788Y43459
X108788Y45491
X108788Y47523
X100152Y49555
X100152Y47523
X100152Y45491
X100152Y43459
X100152Y41427
X100152Y39395
X100152Y37363
X98120Y37363
X96088Y37363
X93980Y37414
X94056Y39395
X94056Y41427
X94056Y43459
X94056Y45491
X94056Y47523
X94056Y49555
X96088Y49555
X96088Y47523
X96088Y45491
X96088Y43459
X96088Y41427
X96088Y39395
X98120Y39395
X98120Y41427
X98120Y43459
X98120Y45491
X98120Y47523
X98120Y49555
X91770Y37363
X91770Y39395
X91770Y41427
X91770Y43459
X91770Y45491
X91770Y47523
X91770Y49555
X108788Y35585
X93040Y34061
X93040Y32791
X93040Y31775
X93548Y30759
X94564Y29997
X95834Y29235
X97358Y29235
X98882Y29235
X100660Y29235
X102184Y29235
X103962Y29235
X105232Y29997
X105994Y30810
X108026Y31775
X109296Y31775
X110566Y31775
X111836Y31775
X112852Y31775
X112852Y34315
X111836Y34315
X110566Y34315
X109296Y34315
X108026Y34315
X106629Y34239
X105486Y33807
X104470Y33045
X103454Y32283
X102184Y31775
X100914Y31775
X96850Y31775
X95834Y32283
X95377Y33172
X106883Y31521
X77038Y50063
X77038Y52603
X77292Y57175
X74752Y57175
X74752Y59207
X71958Y60477
X69164Y48793
X74498Y52603
X74498Y50063
X71882Y49276
X68834Y44958
X68834Y42926
X77038Y47777
X120218Y38633
X118440Y38633
X116408Y38633
X114376Y38633
X113995Y27584
X115392Y27330
X118440Y27330
X119583Y27330
X112852Y27457
X112852Y28981
X112852Y30251
X112852Y35585
X112852Y37109
X112852Y38633
X120218Y41173
X120218Y43967
X120218Y46253
X120218Y48793
X116408Y41173
X116408Y43967
X116408Y46253
X116408Y48793
X118440Y41173
X118440Y43967
X118440Y46253
X118440Y48793
X114376Y41173
X114376Y43967
X112852Y41173
X116154Y24663
X117450Y14935
X114122Y19837
X110871Y27356
X107391Y27305
X103632Y27432
X99822Y27432
X96520Y27432
X110998Y28956
X110998Y30226
X107442Y30226
X105664Y28880
X109220Y27305
X98044Y27432
X96596Y57429
X99136Y57429
X102438Y57175
X99644Y53873
X105232Y53873
X105232Y57175
X107772Y57175
X111328Y57175
X114376Y57175
X118186Y57429
X120218Y55905
X91516Y35585
X66802Y42926
X71120Y42926
X71120Y40640
X83134Y54127
X85420Y54127
X83388Y52095
X82118Y60223
X85420Y60223
X107874Y59461
X107772Y62001
X109804Y59461
X109296Y62001
X91262Y54127
X94691Y53924
X88468Y51079
X84150Y34315
X84150Y31775
X84150Y29489
X84150Y27203
X86436Y24663
X86436Y29489
X86436Y27203
X88468Y28880
X88976Y27203
X86436Y30759
X87706Y22631
X106248Y19837
X102438Y19837
X106248Y17043
X102438Y17043
X106248Y14503
X103200Y14249
X106248Y11963
X103200Y11709
X106248Y9677
X103200Y9423
X106248Y7137
X99619Y7366
X107696Y5207
X100178Y12243
X110312Y20472
X110312Y17043
X110312Y14503
X110312Y11963
X110312Y9677
X110312Y7137
X110312Y4851
X114122Y7137
X120472Y7137
X114122Y17043
X120447Y15545
X114122Y4851
X114122Y1549
X120396Y14427
X120472Y12217
X120472Y9931
X77292Y23647
X73482Y23647
X77292Y21107
X73482Y21107
X81610Y21107
X81610Y18567
X81610Y16281
X77454Y16256
X73482Y28219
X73482Y25679
X73482Y31013
X73482Y33553
X73482Y36347
X73482Y38887
X77038Y39903
X76962Y26670
X105232Y59461
X108026Y53873
X111582Y53873
X116408Y51079
X118440Y51079
X118440Y53619
X120218Y53619
X120218Y60223
X118186Y60223
X116053Y60350
X114275Y60350
X116180Y57455
X112243Y60350
X112243Y62382
X114275Y62382
X108788Y52095
X111582Y52095
X111582Y50825
X105664Y27432
X101854Y27432
X109220Y30226
X99822Y25146
X101600Y25146
X110439Y22733
X98120Y1549
X94310Y1549
X101168Y59715
X98628Y59715
X102946Y61747
X99136Y61747
X96342Y61747
X91770Y61747
X94056Y61747
X94056Y59461
X91770Y59461
X96342Y60477
X110566Y35585
X91516Y34061
X91516Y32537
X89992Y34061
X89992Y35585
X100914Y33553
X102184Y33553
X103708Y34061
X84328Y49174
X69926Y37363
X69926Y33553
X80848Y10693
X114986Y54762
X71866Y16053
X88316Y37160
X73228Y2311
X88036Y17272
X84023Y57556
X73228Y45237
X90957Y11684
X91059Y23266
X118440Y55905
X112852Y45745
X88036Y46330
X118186Y24663
X119964Y25933
X118186Y25933
X116154Y25933
X120472Y4851
X79070Y1295
X74752Y1295
X70942Y1295
X112344Y24790
X98552Y6477
X98654Y25502
X71120Y19050
X114986Y53137
X89002Y54610
X106553Y60401
X106553Y53137
X82144Y11811
X71882Y11201
X81737Y11074
X93193Y19926
X91142Y20041
X114173Y55601
X89916Y60960
X85400Y47188
X101524Y23978
X95834Y24003
X87630Y11684
X89459Y2540
X88138Y11176
X83312Y14427
X83312Y15773
X87884Y6198
X94234Y6985
X87630Y53162
X87757Y57760
X90932Y21946
X90957Y20726
X85457Y42628
X84429Y41066
X99314Y23114
X99314Y21844
X99314Y9906
X95034Y10198
X85852Y48006
X93167Y19126
X91186Y19253
X114605Y56134
X90424Y61722
X85864Y43416
X87147Y32715
X87173Y36322
X84949Y41790
X87706Y39116
X79756Y43688
X69596Y32258
X69621Y39675
X113792Y54280
X89662Y58217
X78740Y56642
X80797Y46507
X69596Y36068
X114300Y54813
X89687Y58928
X78232Y57226
X80264Y45822
X85471Y45314
X82067Y56134
X86030Y45745
X82753Y55982
X91440Y52324
X99238Y52375
X69596Y24892
X69596Y28702
X88113Y52553
X88163Y57226
X87884Y19236
X92634Y17297
X75565Y54864
X74676Y61341
X95758Y10465
X101854Y10414
X95504Y16535
X101321Y16027
X95479Y15672
X100838Y15494
X95555Y14046
X100838Y14224
X7366Y71755
X11303Y74549
X10414Y76683
X11684Y76708
X9144Y76708
X12446Y73660
X13843Y73660
X17323Y79934
X12497Y80670
X12938Y85090
X26289Y74295
X23698Y91288
X26365Y91288
X15367Y73660
X26441Y80772
X23520Y80772
X7569Y121437
X26441Y83772
X31039Y81432
X44272Y117119
X27254Y117881
X37922Y116103
X37922Y114071
X37922Y112039
X37922Y110007
X37922Y107975
X37922Y105943
X37922Y103911
X39954Y103911
X39954Y105943
X39954Y107975
X39954Y110007
X39954Y112039
X39954Y114071
X39954Y116103
X41986Y116103
X42240Y114071
X42240Y112039
X42240Y110007
X42240Y107975
X42240Y105943
X42240Y103911
X44272Y103911
X44272Y105943
X44272Y107975
X44272Y110007
X44272Y112039
X44272Y114071
X35636Y116103
X35636Y114071
X35636Y112039
X35636Y110007
X35636Y107975
X35636Y105943
X35636Y103911
X33604Y103911
X31572Y103911
X29464Y103962
X29540Y105943
X29540Y107975
X29540Y110007
X29540Y112039
X29540Y114071
X29540Y116103
X31572Y116103
X31572Y114071
X31572Y112039
X31572Y110007
X31572Y107975
X31572Y105943
X33604Y105943
X33604Y107975
X33604Y110007
X33604Y112039
X33604Y114071
X33604Y116103
X27254Y103911
X27254Y105943
X27254Y107975
X27254Y110007
X27254Y112039
X27254Y114071
X27254Y116103
X44272Y102133
X28524Y100609
X28524Y99339
X28524Y98323
X29032Y97307
X30048Y96545
X31318Y95783
X32842Y95783
X34366Y95783
X36144Y95783
X37668Y95783
X39446Y95783
X40716Y96545
X41478Y97358
X43510Y98323
X44780Y98323
X46050Y98323
X47320Y98323
X48336Y98323
X48336Y100863
X47320Y100863
X46050Y100863
X44780Y100863
X43510Y100863
X42113Y100787
X40970Y100355
X39954Y99593
X38938Y98831
X37668Y98323
X36398Y98323
X32334Y98323
X31318Y98831
X30861Y99720
X42367Y98069
X12522Y116611
X12522Y119151
X12776Y123723
X10236Y123723
X10236Y125755
X7442Y127025
X4648Y115341
X9982Y119151
X9982Y116611
X7366Y115824
X4318Y111506
X4318Y109474
X12522Y114325
X55702Y105181
X53924Y105181
X51892Y105181
X49860Y105181
X49479Y94132
X50876Y93878
X53924Y93878
X55067Y93878
X48336Y94005
X48336Y95529
X48336Y96799
X48336Y102133
X48336Y103657
X48336Y105181
X55702Y107721
X55702Y110515
X55702Y112801
X55702Y115341
X51892Y107721
X51892Y110515
X51892Y112801
X51892Y115341
X53924Y107721
X53924Y110515
X53924Y112801
X53924Y115341
X49860Y107721
X49860Y110515
X48336Y107721
X51638Y91211
X52934Y81483
X49606Y86385
X46355Y93904
X42875Y93853
X39116Y93980
X35306Y93980
X32004Y93980
X46482Y95504
X46482Y96774
X42926Y96774
X41148Y95428
X44704Y93853
X33528Y93980
X32080Y123977
X34620Y123977
X37922Y123723
X35128Y120421
X40716Y120421
X40716Y123723
X43256Y123723
X46812Y123723
X49860Y123723
X53670Y123977
X55702Y122453
X27000Y102133
X2286Y109474
X6604Y109474
X6604Y107188
X18618Y120675
X20904Y120675
X18872Y118643
X17602Y126771
X20904Y126771
X43358Y126009
X43256Y128549
X45288Y126009
X44780Y128549
X26746Y120675
X30175Y120472
X23952Y117627
X19634Y100863
X19634Y98323
X19634Y96037
X19634Y93751
X21920Y91211
X21920Y96037
X21920Y93751
X23952Y95428
X24460Y93751
X21920Y97307
X23190Y89179
X41732Y86385
X37922Y86385
X41732Y83591
X37922Y83591
X41732Y81051
X38684Y80797
X41732Y78511
X38684Y78257
X41732Y76225
X38684Y75971
X41732Y73685
X35103Y73914
X43180Y71755
X35662Y78791
X45796Y87020
X45796Y83591
X45796Y81051
X45796Y78511
X45796Y76225
X45796Y73685
X45796Y71399
X49606Y73685
X55956Y73685
X49606Y83591
X55931Y82093
X49606Y71399
X49606Y68097
X55880Y80975
X55956Y78765
X55956Y76479
X12776Y90195
X8966Y90195
X12776Y87655
X8966Y87655
X17094Y87655
X17094Y85115
X17094Y82829
X12938Y82804
X8966Y94767
X8966Y92227
X8966Y97561
X8966Y100101
X8966Y102895
X8966Y105435
X12522Y106451
X12446Y93218
X40716Y126009
X43510Y120421
X47066Y120421
X51892Y117627
X53924Y117627
X53924Y120167
X55702Y120167
X55702Y126771
X53670Y126771
X51537Y126898
X49759Y126898
X51664Y124003
X47727Y126898
X47727Y128930
X49759Y128930
X44272Y118643
X47066Y118643
X47066Y117373
X41148Y93980
X37338Y93980
X44704Y96774
X35306Y91694
X37084Y91694
X45923Y89281
X33604Y68097
X29794Y68097
X36652Y126263
X34112Y126263
X38430Y128295
X34620Y128295
X31826Y128295
X27254Y128295
X29540Y128295
X29540Y126009
X27254Y126009
X31826Y127025
X46050Y102133
X27000Y100609
X27000Y99085
X25476Y100609
X25476Y102133
X36398Y100101
X37668Y100101
X39192Y100609
X19812Y115722
X5410Y103911
X5410Y100101
X16332Y77241
X50470Y121310
X7350Y82601
X23800Y103708
X8712Y68859
X23520Y83820
X19507Y124104
X8712Y111785
X26441Y78232
X26543Y89814
X53924Y122453
X48336Y112293
X23520Y112878
X53670Y91211
X55448Y92481
X53670Y92481
X51638Y92481
X55956Y71399
X14554Y67843
X10236Y67843
X6426Y67843
X47828Y91338
X34036Y73025
X34138Y92050
X7366Y5207
X11303Y8001
X10414Y10135
X6604Y85598
X50470Y119685
X24486Y121158
X42037Y126949
X42037Y119685
X17628Y78359
X7366Y77749
X17221Y77622
X11684Y10160
X28677Y86474
X26626Y86589
X49657Y122149
X25400Y127508
X20884Y113736
X37008Y90526
X31318Y90551
X23114Y78232
X24943Y69088
X23622Y77724
X18796Y80975
X18796Y82321
X23368Y72746
X29718Y73533
X23114Y119710
X23241Y124308
X26416Y88494
X26441Y87274
X20941Y109176
X19913Y107614
X34798Y89662
X34798Y88392
X34798Y76454
X30518Y76746
X21336Y114554
X28651Y85674
X26670Y85801
X50089Y122682
X25908Y128270
X21348Y109964
X22631Y99263
X22657Y102870
X20433Y108338
X23190Y105664
X15240Y110236
X5080Y98806
X5105Y106223
X49276Y120828
X25146Y124765
X14224Y123190
X16281Y113055
X5080Y102616
X9144Y10160
X49784Y121361
X25171Y125476
X13716Y123774
X15748Y112370
X20955Y111862
X17551Y122682
X21514Y112293
X18237Y122530
X26924Y118872
X34722Y118923
X12446Y7112
X5080Y91440
X5080Y95250
X23597Y119101
X23647Y123774
X23368Y85784
X28118Y83845
X11049Y121412
X10160Y127889
X31242Y77013
X37338Y76962
X30988Y83083
X36805Y82575
X30963Y82220
X36322Y82042
X31039Y80594
X36322Y80772
X71882Y71755
X75819Y74549
X74930Y76683
X76200Y76708
X73660Y76708
X76962Y73660
X78359Y73660
X81839Y79934
X77013Y80670
X77454Y85090
X90805Y74295
X88214Y91288
X90881Y91288
X79883Y73660
X90957Y80772
X88036Y80772
X72085Y121437
X90957Y83772
X95555Y81432
X108788Y117119
X91770Y117881
X102438Y116103
X102438Y114071
X102438Y112039
X102438Y110007
X102438Y107975
X102438Y105943
X102438Y103911
X104470Y103911
X104470Y105943
X104470Y107975
X104470Y110007
X104470Y112039
X104470Y114071
X104470Y116103
X106502Y116103
X106756Y114071
X106756Y112039
X106756Y110007
X106756Y107975
X106756Y105943
X106756Y103911
X108788Y103911
X108788Y105943
X108788Y107975
X108788Y110007
X108788Y112039
X108788Y114071
X100152Y116103
X100152Y114071
X100152Y112039
X100152Y110007
X100152Y107975
X100152Y105943
X100152Y103911
X98120Y103911
X96088Y103911
X93980Y103962
X94056Y105943
X94056Y107975
X94056Y110007
X94056Y112039
X94056Y114071
X94056Y116103
X96088Y116103
X96088Y114071
X96088Y112039
X96088Y110007
X96088Y107975
X96088Y105943
X98120Y105943
X98120Y107975
X98120Y110007
X98120Y112039
X98120Y114071
X98120Y116103
X91770Y103911
X91770Y105943
X91770Y107975
X91770Y110007
X91770Y112039
X91770Y114071
X91770Y116103
X108788Y102133
X93040Y100609
X93040Y99339
X93040Y98323
X93548Y97307
X94564Y96545
X95834Y95783
X97358Y95783
X98882Y95783
X100660Y95783
X102184Y95783
X103962Y95783
X105232Y96545
X105994Y97358
X108026Y98323
X109296Y98323
X110566Y98323
X111836Y98323
X112852Y98323
X112852Y100863
X111836Y100863
X110566Y100863
X109296Y100863
X108026Y100863
X106629Y100787
X105486Y100355
X104470Y99593
X103454Y98831
X102184Y98323
X100914Y98323
X96850Y98323
X95834Y98831
X95377Y99720
X106883Y98069
X77038Y116611
X77038Y119151
X77292Y123723
X74752Y123723
X74752Y125755
X71958Y127025
X69164Y115341
X74498Y119151
X74498Y116611
X71882Y115824
X68834Y111506
X68834Y109474
X77038Y114325
X120218Y105181
X118440Y105181
X116408Y105181
X114376Y105181
X113995Y94132
X115392Y93878
X118440Y93878
X119583Y93878
X112852Y94005
X112852Y95529
X112852Y96799
X112852Y102133
X112852Y103657
X112852Y105181
X120218Y107721
X120218Y110515
X120218Y112801
X120218Y115341
X116408Y107721
X116408Y110515
X116408Y112801
X116408Y115341
X118440Y107721
X118440Y110515
X118440Y112801
X118440Y115341
X114376Y107721
X114376Y110515
X112852Y107721
X116154Y91211
X117450Y81483
X114122Y86385
X110871Y93904
X107391Y93853
X103632Y93980
X13843Y7112
X96520Y93980
X110998Y95504
X110998Y96774
X107442Y96774
X105664Y95428
X109220Y93853
X98044Y93980
X96596Y123977
X99136Y123977
X102438Y123723
X99644Y120421
X105232Y120421
X105232Y123723
X107772Y123723
X111328Y123723
X114376Y123723
X118186Y123977
X120218Y122453
X91516Y102133
X66802Y109474
X71120Y109474
X71120Y107188
X83134Y120675
X85420Y120675
X83388Y118643
X82118Y126771
X85420Y126771
X107874Y126009
X107772Y128549
X109804Y126009
X109296Y128549
X91262Y120675
X94691Y120472
X88468Y117627
X84150Y100863
X84150Y98323
X84150Y96037
X84150Y93751
X86436Y91211
X86436Y96037
X86436Y93751
X88468Y95428
X88976Y93751
X86436Y97307
X87706Y89179
X106248Y86385
X102438Y86385
X106248Y83591
X102438Y83591
X106248Y81051
X103200Y80797
X106248Y78511
X103200Y78257
X106248Y76225
X103200Y75971
X106248Y73685
X99619Y73914
X107696Y71755
X100178Y78791
X110312Y87020
X110312Y83591
X110312Y81051
X110312Y78511
X110312Y76225
X110312Y73685
X110312Y71399
X114122Y73685
X120472Y73685
X114122Y83591
X120447Y82093
X114122Y71399
X114122Y68097
X120396Y80975
X120472Y78765
X120472Y76479
X77292Y90195
X73482Y90195
X77292Y87655
X73482Y87655
X81610Y87655
X81610Y85115
X81610Y82829
X77454Y82804
X73482Y94767
X73482Y92227
X73482Y97561
X73482Y100101
X73482Y102895
X73482Y105435
X77038Y106451
X76962Y93218
X105232Y126009
X108026Y120421
X111582Y120421
X116408Y117627
X118440Y117627
X118440Y120167
X120218Y120167
X120218Y126771
X118186Y126771
X116053Y126898
X114275Y126898
X116180Y124003
X112243Y126898
X112243Y128930
X114275Y128930
X108788Y118643
X111582Y118643
X111582Y117373
X105664Y93980
X101854Y93980
X109220Y96774
X99822Y91694
X101600Y91694
X110439Y89281
X98120Y68097
X94310Y68097
X101168Y126263
X98628Y126263
X102946Y128295
X99136Y128295
X96342Y128295
X91770Y128295
X94056Y128295
X94056Y126009
X91770Y126009
X96342Y127025
X110566Y102133
X91516Y100609
X91516Y99085
X89992Y100609
X89992Y102133
X100914Y100101
X102184Y100101
X103708Y100609
X84328Y115722
X69926Y103911
X69926Y100101
X80848Y77241
X114986Y121310
X71866Y82601
X88316Y103708
X73228Y68859
X88036Y83820
X84023Y124104
X73228Y111785
X90957Y78232
X91059Y89814
X118440Y122453
X112852Y112293
X88036Y112878
X118186Y91211
X119964Y92481
X118186Y92481
X116154Y92481
X120472Y71399
X79070Y67843
X74752Y67843
X70942Y67843
X112344Y91338
X98552Y73025
X98654Y92050
X17323Y13386
X12497Y14122
X12938Y18542
X71120Y85598
X114986Y119685
X89002Y121158
X106553Y126949
X106553Y119685
X82144Y78359
X71882Y77749
X81737Y77622
X26289Y7747
X93193Y86474
X91142Y86589
X114173Y122149
X89916Y127508
X85400Y113736
X101524Y90526
X95834Y90551
X87630Y78232
X89459Y69088
X88138Y77724
X83312Y80975
X83312Y82321
X87884Y72746
X94234Y73533
X87630Y119710
X87757Y124308
X90932Y88494
X90957Y87274
X85457Y109176
X84429Y107614
X99314Y89662
X99314Y88392
X99314Y76454
X95034Y76746
X85852Y114554
X93167Y85674
X91186Y85801
X114605Y122682
X90424Y128270
X85864Y109964
X87147Y99263
X87173Y102870
X84949Y108338
X87706Y105664
X79756Y110236
X69596Y98806
X69621Y106223
X113792Y120828
X89662Y124765
X78740Y123190
X80797Y113055
X69596Y102616
X23698Y24740
X114300Y121361
X89687Y125476
X78232Y123774
X80264Y112370
X85471Y111862
X82067Y122682
X86030Y112293
X82753Y122530
X91440Y118872
X99238Y118923
X26365Y24740
X69596Y91440
X69596Y95250
X88113Y119101
X99822Y93980
X87884Y85784
X92634Y83845
X75565Y121412
X74676Y127889
X95758Y77013
X101854Y76962
X95504Y83083
X101321Y82575
X95479Y82220
X100838Y82042
X95555Y80594
X100838Y80772
X15367Y7112
X26441Y14224
X23520Y14224
X7569Y54889
X26441Y17224
X31039Y14884
X44272Y50571
X27254Y51333
X37922Y49555
X37922Y47523
X37922Y45491
X37922Y43459
X37922Y41427
X37922Y39395
X37922Y37363
X39954Y37363
X39954Y39395
X39954Y41427
X39954Y43459
X39954Y45491
X39954Y47523
X39954Y49555
X41986Y49555
X42240Y47523
X42240Y45491
X42240Y43459
X42240Y41427
X42240Y39395
X42240Y37363
X44272Y37363
X44272Y39395
X44272Y41427
X44272Y43459
X44272Y45491
X44272Y47523
X35636Y49555
X35636Y47523
X35636Y45491
X35636Y43459
X35636Y41427
X35636Y39395
X35636Y37363
X33604Y37363
X31572Y37363
X29464Y37414
X29540Y39395
X29540Y41427
X29540Y43459
X29540Y45491
X29540Y47523
X29540Y49555
X31572Y49555
X31572Y47523
X31572Y45491
X31572Y43459
X31572Y41427
X31572Y39395
X33604Y39395
X33604Y41427
X33604Y43459
X33604Y45491
X33604Y47523
X33604Y49555
X27254Y37363
X27254Y39395
X27254Y41427
X27254Y43459
X27254Y45491
X27254Y47523
X27254Y49555
X44272Y35585
X28524Y34061
X28524Y32791
X28524Y31775
X29032Y30759
X30048Y29997
X31318Y29235
X32842Y29235
X34366Y29235
X36144Y29235
X37668Y29235
X39446Y29235
X40716Y29997
X41478Y30810
X43510Y31775
X44780Y31775
X46050Y31775
X47320Y31775
X48336Y31775
X48336Y34315
X47320Y34315
X46050Y34315
X44780Y34315
X43510Y34315
X42113Y34239
X40970Y33807
X39954Y33045
X38938Y32283
X37668Y31775
X36398Y31775
X32334Y31775
X31318Y32283
X30861Y33172
X42367Y31521
X12522Y50063
X12522Y52603
X12776Y57175
X10236Y57175
X10236Y59207
X7442Y60477
X4648Y48793
X9982Y52603
X9982Y50063
X7366Y49276
X4318Y44958
X4318Y42926
X12522Y47777
X55702Y38633
X53924Y38633
X51892Y38633
X49860Y38633
X49479Y27584
X50876Y27330
X53924Y27330
X55067Y27330
X48336Y27457
X48336Y28981
X48336Y30251
X48336Y35585
X48336Y37109
X48336Y38633
X55702Y41173
X55702Y43967
X55702Y46253
X55702Y48793
X51892Y41173
X51892Y43967
X51892Y46253
X51892Y48793
X53924Y41173
X53924Y43967
X53924Y46253
X53924Y48793
X49860Y41173
X49860Y43967
X48336Y41173
X51638Y24663
X52934Y14935
X49606Y19837
X46355Y27356
X42875Y27305
X39116Y27432
X35306Y27432
X32004Y27432
X46482Y28956
X46482Y30226
X42926Y30226
X41148Y28880
X44704Y27305
X33528Y27432
X32080Y57429
X34620Y57429
X37922Y57175
X35128Y53873
X40716Y53873
X40716Y57175
X43256Y57175
X46812Y57175
X49860Y57175
X53670Y57429
X55702Y55905
X27000Y35585
X2286Y42926
X6604Y42926
X6604Y40640
X18618Y54127
X20904Y54127
X18872Y52095
X17602Y60223
X20904Y60223
X43358Y59461
X43256Y62001
X45288Y59461
X44780Y62001
X26746Y54127
X30175Y53924
X23952Y51079
X19634Y34315
X19634Y31775
X19634Y29489
X19634Y27203
X21920Y24663
X21920Y29489
X21920Y27203
X23952Y28880
X24460Y27203
X21920Y30759
X23190Y22631
X41732Y19837
X37922Y19837
X41732Y17043
X37922Y17043
X41732Y14503
X38684Y14249
X41732Y11963
X38684Y11709
X41732Y9677
X38684Y9423
X41732Y7137
X35103Y7366
X43180Y5207
X35662Y12243
X45796Y20472
X45796Y17043
X45796Y14503
X45796Y11963
X45796Y9677
X45796Y7137
X45796Y4851
X88163Y123774
M30