M48
;GenerationSoftware,Autodesk,EAGLE,9.6.2*%
;CreationDate,2020-12-11T15:37:39Z*%
FMAT,2
ICI,OFF
METRIC,TZ,000.000
T10C0.305
T9C0.381
T8C0.400
T7C0.508
T6C0.650
T5C1.016
T4C1.100
T3C1.600
T2C3.048
T1C3.800
%
G90
M71
T1
X50216Y11481
T2
X2540Y63500
X54356Y63500
X2540Y2540
X54356Y2540
T3
X30226Y25494
T4
X30226Y5494
T5
X26670Y64262
X24130Y64262
X21590Y64262
X19050Y64262
X16510Y64262
X36957Y64287
X44577Y64287
X42037Y64287
X39497Y64287
X13970Y64262
X11430Y64262
X8890Y64262
X6350Y64262
X49657Y64287
X10160Y6731
X10160Y4191
X47117Y64287
X29210Y64262
X31750Y64262
X34290Y64262
T6
X4778Y14320
X4778Y8540
X4778Y57627
X4778Y51847
T7
X17653Y3048
X18923Y1778
X20193Y1778
X21463Y1778
X22733Y1778
X17653Y1778
X18923Y3048
X20193Y3048
X21463Y3048
X22733Y3048
T8
X1128Y59055
X5308Y15748
X5308Y7112
X1128Y7112
X1128Y15748
X5308Y59055
X5308Y50419
X1128Y50419
T9
X30734Y53086
X24054Y44450
X7874Y10668
X22758Y5334
X36322Y53086
T10
X35636Y37363
X33604Y37363
X31572Y37363
X29464Y37414
X29540Y39395
X29540Y41427
X29540Y43459
X29540Y45491
X29540Y47523
X29540Y49555
X31572Y49555
X31572Y47523
X31572Y45491
X31572Y43459
X31572Y41427
X31572Y39395
X33604Y39395
X33604Y41427
X33604Y43459
X33604Y45491
X33604Y47523
X33604Y49555
X27254Y37363
X27254Y39395
X27254Y41427
X27254Y43459
X27254Y45491
X27254Y47523
X27254Y49555
X44272Y35585
X28524Y34061
X28524Y32791
X28524Y31775
X29032Y30759
X30048Y29997
X31318Y29235
X32842Y29235
X34366Y29235
X36144Y29235
X37668Y29235
X39446Y29235
X40716Y29997
X41478Y30810
X43510Y31775
X44780Y31775
X46050Y31775
X47320Y31775
X48336Y31775
X48336Y34315
X47320Y34315
X46050Y34315
X44780Y34315
X43510Y34315
X42113Y34239
X40970Y33807
X39954Y33045
X38938Y32283
X37668Y31775
X36398Y31775
X32334Y31775
X31318Y32283
X30861Y33172
X42367Y31521
X12522Y50063
X12522Y52603
X12776Y57175
X10236Y57175
X10236Y59207
X7442Y60477
X4648Y48793
X9982Y52603
X9982Y50063
X7366Y49276
X4318Y44958
X4318Y42926
X9982Y47777
X12522Y47777
X55702Y38633
X53924Y38633
X51892Y38633
X49860Y38633
X49606Y27457
X51638Y27457
X53416Y27457
X55448Y27457
X48336Y27457
X48336Y28981
X48336Y30251
X48336Y35585
X48336Y37109
X48336Y38633
X55702Y41173
X55702Y43967
X55702Y46253
X55702Y48793
X51892Y41173
X51892Y43967
X51892Y46253
X51892Y48793
X53924Y41173
X53924Y43967
X53924Y46253
X53924Y48793
X49860Y41173
X49860Y43967
X48336Y41173
X51638Y24663
X53188Y16078
X49606Y19837
X46482Y27432
X42926Y27432
X39116Y27432
X35306Y27432
X32004Y27432
X46482Y28956
X46482Y30226
X42926Y30226
X42926Y28956
X41148Y28880
X44704Y27432
X33528Y27432
X32080Y57429
X34620Y57429
X37922Y57175
X35128Y53873
X40716Y53873
X40716Y57175
X43256Y57175
X46812Y57175
X49860Y57175
X53670Y57429
X55702Y55905
X27000Y35585
X2286Y42926
X2286Y44958
X6604Y42926
X6604Y40640
X18618Y54127
X20904Y54127
X18872Y52095
X17602Y60223
X20904Y60223
X43358Y59461
X43256Y62001
X45288Y59461
X44780Y62001
X26746Y54127
X30175Y53924
X23952Y51079
X19634Y34315
X19634Y31775
X19634Y29489
X19634Y27203
X21920Y24663
X21920Y29489
X21920Y27203
X23952Y28880
X24460Y27203
X21920Y30759
X23190Y22631
X41732Y19837
X37922Y19837
X41732Y17043
X37922Y17043
X41732Y14503
X37922Y14503
X41732Y11963
X37922Y11963
X41732Y9677
X37922Y9677
X41732Y7137
X37922Y7137
X41732Y4851
X37922Y4851
X41732Y1549
X37922Y1549
X47066Y20472
X45796Y17043
X45796Y14503
X45796Y11963
X45796Y9677
X45796Y7137
X45796Y4851
X45796Y1549
X49606Y7137
X55956Y7137
X49606Y17043
X55931Y15545
X49606Y4851
X49606Y1549
X55880Y14427
X55956Y12217
X55956Y9931
X44704Y28956
X12776Y23647
X8966Y23647
X12776Y21107
X8966Y21107
X17094Y21107
X17094Y18567
X17094Y16281
X12938Y16256
X8966Y28219
X8966Y25679
X8966Y31013
X8966Y33553
X8966Y36347
X8966Y38887
X12522Y39903
X12446Y26670
X40716Y59461
X43510Y53873
X47066Y53873
X51892Y51079
X53924Y51079
X53924Y53619
X55702Y53619
X55702Y60223
X53670Y60223
X51537Y60350
X49759Y60350
X51664Y57455
X47727Y60350
X47727Y62382
X49759Y62382
X44272Y52095
X47066Y52095
X47066Y50825
X41148Y27432
X37338Y27432
X44704Y30226
X35306Y25146
X37084Y25146
X45034Y22758
X33604Y1549
X29794Y1549
X36652Y59715
X34112Y59715
X38430Y61747
X34620Y61747
X31826Y61747
X27254Y61747
X29540Y61747
X29540Y59461
X27254Y59461
X31826Y60477
X46050Y35585
X27000Y34061
X27000Y32537
X25476Y34061
X25476Y35585
X36398Y33553
X37668Y33553
X39192Y34061
X19812Y49174
X5410Y37363
X5410Y33553
X16332Y10693
X50470Y54762
X7350Y16053
X23800Y37160
X8712Y2311
X23520Y17272
X19507Y57556
X8712Y45237
X26441Y11684
X26441Y22479
X53924Y55905
X48336Y45745
X23520Y46330
X53670Y24663
X55448Y25933
X53670Y25933
X51638Y25933
X55956Y4851
X14554Y1295
X10236Y1295
X6426Y1295
X34036Y6477
X34138Y25502
X7366Y5207
X11303Y8001
X10414Y10135
X11684Y10160
X50470Y53137
X24486Y54610
X42037Y60401
X42037Y53137
X17628Y11811
X7366Y11201
X17221Y11074
X9144Y10160
X37008Y23978
X31318Y24003
X23114Y11684
X24943Y2540
X23622Y11176
X18796Y14427
X18796Y15773
X23368Y6198
X29718Y6985
X23114Y53162
X23241Y57760
X26416Y21590
X26162Y20345
X20941Y42628
X19913Y41066
X21336Y48006
X29108Y19660
X26670Y19812
X50089Y56134
X25908Y61722
X49657Y55601
X25400Y60960
X20884Y47188
X21348Y43416
X22631Y32715
X22657Y36322
X20433Y41790
X23190Y39116
X15240Y43688
X5080Y32258
X5105Y39675
X49276Y54280
X25146Y58217
X14224Y56642
X16281Y46507
X5080Y36068
X12446Y7112
X49784Y54813
X25171Y58928
X13716Y57226
X15748Y45822
X20955Y45314
X17551Y56134
X21514Y45745
X18237Y55982
X26924Y52324
X34722Y52375
X6604Y19050
X5080Y28702
X23597Y52553
X23647Y57226
X23368Y19236
X28118Y18567
X11049Y54864
X10160Y61341
X13843Y7112
X17323Y13386
X12497Y14122
X12938Y18542
X26289Y7747
X23698Y24740
X26365Y24740
X15367Y7112
X26441Y14224
X23520Y14224
X8001Y54864
X26441Y17224
X31013Y14986
X44272Y50571
X27254Y51333
X37922Y49555
X37922Y47523
X37922Y45491
X37922Y43459
X37922Y41427
X37922Y39395
X37922Y37363
X39954Y37363
X39954Y39395
X39954Y41427
X39954Y43459
X39954Y45491
X39954Y47523
X39954Y49555
X41986Y49555
X42240Y47523
X42240Y45491
X42240Y43459
X42240Y41427
X42240Y39395
X42240Y37363
X44272Y37363
X44272Y39395
X44272Y41427
X44272Y43459
X44272Y45491
X44272Y47523
X35636Y49555
X35636Y47523
X35636Y45491
X35636Y43459
X35636Y41427
X35636Y39395
X5080Y24892
M30