M48
;GenerationSoftware,Autodesk,EAGLE,9.6.2*%
;CreationDate,2021-01-14T17:17:18Z*%
FMAT,2
ICI,OFF
METRIC,TZ,000.000
T10C0.305
T9C0.381
T8C0.400
T7C0.508
T6C0.650
T5C1.016
T4C1.100
T3C1.600
T2C3.048
T1C3.800
%
G90
M71
T1
X50216Y78029
X114478Y11481
X50216Y11481
X114478Y78029
T2
X2540Y63500
X54356Y63500
X2540Y2540
X54356Y2540
X66802Y63500
X118618Y63500
X66802Y2540
X118618Y2540
X66802Y130048
X118618Y130048
X66802Y69088
X118618Y69088
X2540Y130048
X54356Y130048
X2540Y69088
X54356Y69088
T3
X30226Y25494
X94488Y92042
X94488Y25494
X30226Y92042
T4
X94488Y72042
X94488Y5494
X30226Y72042
X30226Y5494
T5
X83312Y64262
X85852Y64262
X88392Y64262
X90932Y64262
X93472Y64262
X96012Y64262
X98552Y64262
X99822Y1524
X102362Y1524
X104902Y1524
X107442Y1524
X109982Y1524
X112522Y1524
X10160Y73279
X10160Y70739
X36957Y130835
X39497Y130835
X42037Y130835
X112522Y68072
X44577Y130835
X47117Y130835
X49657Y130835
X6350Y130810
X8890Y130810
X11430Y130810
X13970Y130810
X16510Y130810
X19050Y130810
X103759Y64287
X21590Y130810
X24130Y130810
X26670Y130810
X29210Y130810
X31750Y130810
X34290Y130810
X35560Y68072
X38100Y68072
X40640Y68072
X43180Y68072
X45720Y68072
X48260Y68072
X74422Y73279
X74422Y70739
X101219Y130835
X103759Y130835
X10160Y6731
X10160Y4191
X108839Y130835
X111379Y130835
X113919Y130835
X70612Y130810
X36957Y64287
X39497Y64287
X42037Y64287
X44577Y64287
X47117Y64287
X49657Y64287
X6350Y64262
X8890Y64262
X11430Y64262
X13970Y64262
X16510Y64262
X19050Y64262
X21590Y64262
X24130Y64262
X26670Y64262
X29210Y64262
X31750Y64262
X34290Y64262
X73152Y130810
X75692Y130810
X78232Y130810
X80772Y130810
X83312Y130810
X85852Y130810
X88392Y130810
X90932Y130810
X93472Y130810
X96012Y130810
X35560Y1524
X38100Y1524
X40640Y1524
X43180Y1524
X45720Y1524
X48260Y1524
X98552Y130810
X99822Y68072
X102362Y68072
X104902Y68072
X74422Y6731
X74422Y4191
X107442Y68072
X109982Y68072
X101219Y64287
X106299Y130835
X106299Y64287
X108839Y64287
X111379Y64287
X113919Y64287
X70612Y64262
X73152Y64262
X75692Y64262
X78232Y64262
X80772Y64262
T6
X4778Y51847
X4778Y8540
X69040Y80868
X4778Y57627
X69040Y118395
X69040Y14320
X4778Y14320
X69040Y8540
X69040Y57627
X69040Y51847
X4778Y80868
X4778Y75088
X4778Y124175
X4778Y118395
X69040Y75088
X69040Y124175
T7
X21463Y68326
X20193Y68326
X18923Y68326
X85725Y3048
X18923Y69596
X84455Y3048
X83185Y68326
X83185Y3048
X81915Y1778
X86995Y1778
X84455Y1778
X83185Y1778
X85725Y1778
X84455Y69596
X83185Y69596
X81915Y68326
X86995Y68326
X85725Y68326
X84455Y68326
X81915Y3048
X17653Y68326
X22733Y68326
X86995Y3048
X21463Y1778
X22733Y1778
X17653Y1778
X17653Y3048
X18923Y3048
X20193Y3048
X21463Y3048
X22733Y3048
X18923Y1778
X20193Y1778
X85725Y69596
X86995Y69596
X81915Y69596
X20193Y69596
X21463Y69596
X22733Y69596
X17653Y69596
T8
X5308Y15748
X65390Y15748
X65390Y7112
X69570Y7112
X69570Y15748
X65390Y59055
X65390Y50419
X65390Y82296
X65390Y73660
X69570Y73660
X69570Y82296
X69570Y50419
X65390Y125603
X65390Y116967
X69570Y116967
X69570Y125603
X1128Y82296
X1128Y73660
X5308Y82296
X69570Y59055
X1128Y125603
X1128Y116967
X5308Y116967
X5308Y73660
X1128Y15748
X1128Y7112
X5308Y7112
X1128Y59055
X1128Y50419
X5308Y50419
X5308Y59055
X5308Y125603
T9
X22758Y71882
X74422Y112268
X88316Y110998
X30734Y119634
X87020Y5334
X100584Y53086
X24054Y44450
X94996Y53086
X72136Y10668
X94996Y119634
X22758Y5334
X36322Y53086
X30734Y53086
X7874Y10668
X74422Y45720
X10160Y45720
X87020Y71882
X10160Y112268
X100584Y119634
X24054Y110998
X72136Y77216
X7874Y77216
X36322Y119634
X88316Y44450
T10
X49606Y7137
X55956Y7137
X49606Y17043
X55931Y15545
X49606Y4851
X49606Y1549
X55880Y14427
X55956Y12217
X55956Y9931
X12776Y23647
X8966Y23647
X12776Y21107
X8966Y21107
X17094Y21107
X17094Y18567
X17094Y16281
X12938Y16256
X8966Y28219
X8966Y25679
X8966Y31013
X8966Y33553
X8966Y36347
X8966Y38887
X12522Y39903
X12446Y26670
X40716Y59461
X43510Y53873
X47066Y53873
X51892Y51079
X53924Y51079
X53924Y53619
X55702Y53619
X55702Y60223
X53670Y60223
X51537Y60350
X49759Y60350
X51664Y57455
X47727Y60350
X47727Y62382
X49759Y62382
X44272Y52095
X47066Y52095
X47066Y50825
X41148Y27432
X37338Y27432
X44704Y30226
X35306Y25146
X37084Y25146
X45923Y22733
X33604Y1549
X29794Y1549
X36652Y59715
X34112Y59715
X38430Y61747
X34620Y61747
X31826Y61747
X27254Y61747
X29540Y61747
X29540Y59461
X27254Y59461
X31826Y60477
X46050Y35585
X27000Y34061
X27000Y32537
X25476Y34061
X25476Y35585
X36398Y33553
X37668Y33553
X39192Y34061
X19812Y49174
X5410Y37363
X5410Y33553
X16332Y10693
X50470Y54762
X7350Y16053
X23800Y37160
X8712Y2311
X23520Y17272
X19507Y57556
X8712Y45237
X26441Y11684
X26543Y23266
X53924Y55905
X48336Y45745
X23520Y46330
X53670Y24663
X55448Y25933
X53670Y25933
X51638Y25933
X55956Y4851
X14554Y1295
X10236Y1295
X6426Y1295
X47828Y24790
X34036Y6477
X34138Y25502
X6604Y19050
X50470Y53137
X24486Y54610
X42037Y60401
X42037Y53137
X17628Y11811
X7366Y11201
X17221Y11074
X28677Y19926
X26626Y20041
X49657Y55601
X25400Y60960
X20884Y47188
X37008Y23978
X31318Y24003
X23114Y11684
X24943Y2540
X23622Y11176
X18796Y14427
X18796Y15773
X23368Y6198
X29718Y6985
X23114Y53162
X23241Y57760
X26416Y21946
X26441Y20726
X20941Y42628
X19913Y41066
X34798Y23114
X34798Y21844
X34798Y9906
X30518Y10198
X21336Y48006
X28651Y19126
X26670Y19253
X50089Y56134
X25908Y61722
X21348Y43416
X22631Y32715
X22657Y36322
X20433Y41790
X23190Y39116
X15240Y43688
X5080Y32258
X5105Y39675
X49276Y54280
X25146Y58217
X14224Y56642
X16281Y46507
X5080Y36068
X49784Y54813
X25171Y58928
X13716Y57226
X15748Y45822
X20955Y45314
X17551Y56134
X21514Y45745
X18237Y55982
X26924Y52324
X34722Y52375
X5080Y24892
X5080Y28702
X23597Y52553
X23647Y57226
X23368Y19236
X28118Y17297
X11049Y54864
X10160Y61341
X31242Y10465
X37338Y10414
X30988Y16535
X36805Y16027
X30963Y15672
X36322Y15494
X31039Y14046
X36322Y14224
X71628Y5207
X75565Y8001
X74676Y10135
X75946Y10160
X73406Y10160
X76708Y7112
X78105Y7112
X81585Y13386
X76759Y14122
X77200Y18542
X90551Y7747
X87960Y24740
X90627Y24740
X79629Y7112
X90703Y14224
X87782Y14224
X71831Y54889
X90703Y17224
X95301Y14884
X108534Y50571
X91516Y51333
X102184Y49555
X102184Y47523
X102184Y45491
X102184Y43459
X102184Y41427
X102184Y39395
X102184Y37363
X104216Y37363
X104216Y39395
X104216Y41427
X104216Y43459
X104216Y45491
X104216Y47523
X104216Y49555
X106248Y49555
X106502Y47523
X106502Y45491
X106502Y43459
X106502Y41427
X106502Y39395
X106502Y37363
X108534Y37363
X108534Y39395
X108534Y41427
X108534Y43459
X108534Y45491
X108534Y47523
X99898Y49555
X99898Y47523
X99898Y45491
X99898Y43459
X99898Y41427
X99898Y39395
X99898Y37363
X97866Y37363
X95834Y37363
X93726Y37414
X93802Y39395
X93802Y41427
X93802Y43459
X93802Y45491
X93802Y47523
X93802Y49555
X95834Y49555
X95834Y47523
X95834Y45491
X95834Y43459
X95834Y41427
X95834Y39395
X97866Y39395
X97866Y41427
X97866Y43459
X97866Y45491
X97866Y47523
X97866Y49555
X91516Y37363
X91516Y39395
X91516Y41427
X91516Y43459
X91516Y45491
X91516Y47523
X91516Y49555
X108534Y35585
X92786Y34061
X92786Y32791
X92786Y31775
X93294Y30759
X94310Y29997
X95580Y29235
X97104Y29235
X98628Y29235
X100406Y29235
X101930Y29235
X103708Y29235
X104978Y29997
X105740Y30810
X107772Y31775
X109042Y31775
X110312Y31775
X111582Y31775
X112598Y31775
X112598Y34315
X111582Y34315
X110312Y34315
X109042Y34315
X107772Y34315
X106375Y34239
X105232Y33807
X104216Y33045
X103200Y32283
X101930Y31775
X100660Y31775
X96596Y31775
X95580Y32283
X95123Y33172
X106629Y31521
X76784Y50063
X76784Y52603
X77038Y57175
X74498Y57175
X74498Y59207
X71704Y60477
X68910Y48793
X74244Y52603
X74244Y50063
X71628Y49276
X68580Y44958
X68580Y42926
X76784Y47777
X119964Y38633
X118186Y38633
X116154Y38633
X114122Y38633
X113741Y27584
X115138Y27330
X118186Y27330
X119329Y27330
X112598Y27457
X112598Y28981
X112598Y30251
X112598Y35585
X112598Y37109
X112598Y38633
X119964Y41173
X119964Y43967
X119964Y46253
X119964Y48793
X116154Y41173
X116154Y43967
X116154Y46253
X116154Y48793
X118186Y41173
X118186Y43967
X118186Y46253
X118186Y48793
X114122Y41173
X114122Y43967
X112598Y41173
X115900Y24663
X117196Y14935
X113868Y19837
X110617Y27356
X107137Y27305
X103378Y27432
X99568Y27432
X96266Y27432
X110744Y28956
X110744Y30226
X107188Y30226
X105410Y28880
X108966Y27305
X97790Y27432
X96342Y57429
X98882Y57429
X102184Y57175
X99390Y53873
X104978Y53873
X104978Y57175
X107518Y57175
X111074Y57175
X114122Y57175
X117932Y57429
X119964Y55905
X91262Y35585
X66548Y42926
X70866Y42926
X70866Y40640
X82880Y54127
X85166Y54127
X83134Y52095
X81864Y60223
X85166Y60223
X107620Y59461
X107518Y62001
X109550Y59461
X109042Y62001
X91008Y54127
X94437Y53924
X88214Y51079
X83896Y34315
X83896Y31775
X83896Y29489
X83896Y27203
X86182Y24663
X86182Y29489
X86182Y27203
X88214Y28880
X88722Y27203
X86182Y30759
X87452Y22631
X105994Y19837
X102184Y19837
X105994Y17043
X102184Y17043
X105994Y14503
X102946Y14249
X105994Y11963
X102946Y11709
X105994Y9677
X102946Y9423
X105994Y7137
X99365Y7366
X107442Y5207
X99924Y12243
X110058Y20472
X110058Y17043
X110058Y14503
X110058Y11963
X110058Y9677
X110058Y7137
X110058Y4851
X113868Y7137
X120218Y7137
X113868Y17043
X120193Y15545
X113868Y4851
X113868Y1549
X120142Y14427
X120218Y12217
X120218Y9931
X77038Y23647
X73228Y23647
X77038Y21107
X73228Y21107
X81356Y21107
X81356Y18567
X81356Y16281
X77200Y16256
X73228Y28219
X73228Y25679
X73228Y31013
X73228Y33553
X73228Y36347
X73228Y38887
X76784Y39903
X76708Y26670
X104978Y59461
X107772Y53873
X111328Y53873
X116154Y51079
X118186Y51079
X118186Y53619
X119964Y53619
X119964Y60223
X117932Y60223
X115799Y60350
X114021Y60350
X115926Y57455
X111989Y60350
X111989Y62382
X114021Y62382
X108534Y52095
X111328Y52095
X111328Y50825
X105410Y27432
X101600Y27432
X108966Y30226
X99568Y25146
X101346Y25146
X110185Y22733
X97866Y1549
X94056Y1549
X100914Y59715
X98374Y59715
X102692Y61747
X98882Y61747
X96088Y61747
X91516Y61747
X93802Y61747
X93802Y59461
X91516Y59461
X96088Y60477
X110312Y35585
X91262Y34061
X91262Y32537
X89738Y34061
X89738Y35585
X100660Y33553
X101930Y33553
X103454Y34061
X84074Y49174
X69672Y37363
X69672Y33553
X80594Y10693
X114732Y54762
X71612Y16053
X88062Y37160
X72974Y2311
X87782Y17272
X83769Y57556
X72974Y45237
X90703Y11684
X90805Y23266
X118186Y55905
X112598Y45745
X87782Y46330
X117932Y24663
X119710Y25933
X117932Y25933
X115900Y25933
X120218Y4851
X78816Y1295
X74498Y1295
X70688Y1295
X112090Y24790
X98298Y6477
X98400Y25502
X70866Y19050
X114732Y53137
X88748Y54610
X106299Y60401
X106299Y53137
X81890Y11811
X71628Y11201
X81483Y11074
X92939Y19926
X90888Y20041
X113919Y55601
X89662Y60960
X85146Y47188
X101270Y23978
X95580Y24003
X87376Y11684
X89205Y2540
X87884Y11176
X83058Y14427
X83058Y15773
X87630Y6198
X93980Y6985
X87376Y53162
X87503Y57760
X90678Y21946
X90703Y20726
X85203Y42628
X84175Y41066
X99060Y23114
X99060Y21844
X99060Y9906
X94780Y10198
X85598Y48006
X92913Y19126
X90932Y19253
X114351Y56134
X90170Y61722
X85610Y43416
X86893Y32715
X86919Y36322
X84695Y41790
X87452Y39116
X79502Y43688
X69342Y32258
X69367Y39675
X113538Y54280
X89408Y58217
X78486Y56642
X80543Y46507
X69342Y36068
X114046Y54813
X89433Y58928
X77978Y57226
X80010Y45822
X85217Y45314
X81813Y56134
X85776Y45745
X82499Y55982
X91186Y52324
X98984Y52375
X69342Y24892
X69342Y28702
X87859Y52553
X87909Y57226
X87630Y19236
X92380Y17297
X75311Y54864
X74422Y61341
X95504Y10465
X101600Y10414
X95250Y16535
X101067Y16027
X95225Y15672
X100584Y15494
X95301Y14046
X100584Y14224
X7366Y71755
X11303Y74549
X10414Y76683
X11684Y76708
X9144Y76708
X12446Y73660
X13843Y73660
X17323Y79934
X12497Y80670
X12938Y85090
X26289Y74295
X23698Y91288
X26365Y91288
X15367Y73660
X26441Y80772
X23520Y80772
X7569Y121437
X26441Y83772
X31039Y81432
X44272Y117119
X27254Y117881
X37922Y116103
X37922Y114071
X37922Y112039
X37922Y110007
X37922Y107975
X37922Y105943
X37922Y103911
X39954Y103911
X39954Y105943
X39954Y107975
X39954Y110007
X39954Y112039
X39954Y114071
X39954Y116103
X41986Y116103
X42240Y114071
X42240Y112039
X42240Y110007
X42240Y107975
X42240Y105943
X42240Y103911
X44272Y103911
X44272Y105943
X44272Y107975
X44272Y110007
X44272Y112039
X44272Y114071
X35636Y116103
X35636Y114071
X35636Y112039
X35636Y110007
X35636Y107975
X35636Y105943
X35636Y103911
X33604Y103911
X31572Y103911
X29464Y103962
X29540Y105943
X29540Y107975
X29540Y110007
X29540Y112039
X29540Y114071
X29540Y116103
X31572Y116103
X31572Y114071
X31572Y112039
X31572Y110007
X31572Y107975
X31572Y105943
X33604Y105943
X33604Y107975
X33604Y110007
X33604Y112039
X33604Y114071
X33604Y116103
X27254Y103911
X27254Y105943
X27254Y107975
X27254Y110007
X27254Y112039
X27254Y114071
X27254Y116103
X44272Y102133
X28524Y100609
X28524Y99339
X28524Y98323
X29032Y97307
X30048Y96545
X31318Y95783
X32842Y95783
X34366Y95783
X36144Y95783
X37668Y95783
X39446Y95783
X40716Y96545
X41478Y97358
X43510Y98323
X44780Y98323
X46050Y98323
X47320Y98323
X48336Y98323
X48336Y100863
X47320Y100863
X46050Y100863
X44780Y100863
X43510Y100863
X42113Y100787
X40970Y100355
X39954Y99593
X38938Y98831
X37668Y98323
X36398Y98323
X32334Y98323
X31318Y98831
X30861Y99720
X42367Y98069
X12522Y116611
X12522Y119151
X12776Y123723
X10236Y123723
X10236Y125755
X7442Y127025
X4648Y115341
X9982Y119151
X9982Y116611
X7366Y115824
X4318Y111506
X4318Y109474
X12522Y114325
X55702Y105181
X53924Y105181
X51892Y105181
X49860Y105181
X49479Y94132
X50876Y93878
X53924Y93878
X55067Y93878
X48336Y94005
X48336Y95529
X48336Y96799
X48336Y102133
X48336Y103657
X48336Y105181
X55702Y107721
X55702Y110515
X55702Y112801
X55702Y115341
X51892Y107721
X51892Y110515
X51892Y112801
X51892Y115341
X53924Y107721
X53924Y110515
X53924Y112801
X53924Y115341
X49860Y107721
X49860Y110515
X48336Y107721
X51638Y91211
X52934Y81483
X49606Y86385
X46355Y93904
X42875Y93853
X39116Y93980
X35306Y93980
X32004Y93980
X46482Y95504
X46482Y96774
X42926Y96774
X41148Y95428
X44704Y93853
X33528Y93980
X32080Y123977
X34620Y123977
X37922Y123723
X35128Y120421
X40716Y120421
X40716Y123723
X43256Y123723
X46812Y123723
X49860Y123723
X53670Y123977
X55702Y122453
X27000Y102133
X2286Y109474
X6604Y109474
X6604Y107188
X18618Y120675
X20904Y120675
X18872Y118643
X17602Y126771
X20904Y126771
X43358Y126009
X43256Y128549
X45288Y126009
X44780Y128549
X26746Y120675
X30175Y120472
X23952Y117627
X19634Y100863
X19634Y98323
X19634Y96037
X19634Y93751
X21920Y91211
X21920Y96037
X21920Y93751
X23952Y95428
X24460Y93751
X21920Y97307
X23190Y89179
X41732Y86385
X37922Y86385
X41732Y83591
X37922Y83591
X41732Y81051
X38684Y80797
X41732Y78511
X38684Y78257
X41732Y76225
X38684Y75971
X41732Y73685
X35103Y73914
X43180Y71755
X35662Y78791
X45796Y87020
X45796Y83591
X45796Y81051
X45796Y78511
X45796Y76225
X45796Y73685
X45796Y71399
X49606Y73685
X55956Y73685
X49606Y83591
X55931Y82093
X49606Y71399
X49606Y68097
X55880Y80975
X55956Y78765
X55956Y76479
X12776Y90195
X8966Y90195
X12776Y87655
X8966Y87655
X17094Y87655
X17094Y85115
X17094Y82829
X12938Y82804
X8966Y94767
X8966Y92227
X8966Y97561
X8966Y100101
X8966Y102895
X8966Y105435
X12522Y106451
X12446Y93218
X40716Y126009
X43510Y120421
X47066Y120421
X51892Y117627
X53924Y117627
X53924Y120167
X55702Y120167
X55702Y126771
X53670Y126771
X51537Y126898
X49759Y126898
X51664Y124003
X47727Y126898
X47727Y128930
X49759Y128930
X44272Y118643
X47066Y118643
X47066Y117373
X41148Y93980
X37338Y93980
X44704Y96774
X35306Y91694
X37084Y91694
X45923Y89281
X33604Y68097
X29794Y68097
X36652Y126263
X34112Y126263
X38430Y128295
X34620Y128295
X31826Y128295
X27254Y128295
X29540Y128295
X29540Y126009
X27254Y126009
X31826Y127025
X46050Y102133
X27000Y100609
X27000Y99085
X25476Y100609
X25476Y102133
X36398Y100101
X37668Y100101
X39192Y100609
X19812Y115722
X5410Y103911
X5410Y100101
X16332Y77241
X50470Y121310
X7350Y82601
X23800Y103708
X8712Y68859
X23520Y83820
X19507Y124104
X8712Y111785
X26441Y78232
X26543Y89814
X53924Y122453
X48336Y112293
X23520Y112878
X53670Y91211
X55448Y92481
X53670Y92481
X51638Y92481
X55956Y71399
X14554Y67843
X10236Y67843
X6426Y67843
X47828Y91338
X34036Y73025
X34138Y92050
X7366Y5207
X11303Y8001
X10414Y10135
X6604Y85598
X50470Y119685
X24486Y121158
X42037Y126949
X42037Y119685
X17628Y78359
X7366Y77749
X17221Y77622
X11684Y10160
X28677Y86474
X26626Y86589
X49657Y122149
X25400Y127508
X20884Y113736
X37008Y90526
X31318Y90551
X23114Y78232
X24943Y69088
X23622Y77724
X18796Y80975
X18796Y82321
X23368Y72746
X29718Y73533
X23114Y119710
X23241Y124308
X26416Y88494
X26441Y87274
X20941Y109176
X19913Y107614
X34798Y89662
X34798Y88392
X34798Y76454
X30518Y76746
X21336Y114554
X28651Y85674
X26670Y85801
X50089Y122682
X25908Y128270
X21348Y109964
X22631Y99263
X22657Y102870
X20433Y108338
X23190Y105664
X15240Y110236
X5080Y98806
X5105Y106223
X49276Y120828
X25146Y124765
X14224Y123190
X16281Y113055
X5080Y102616
X9144Y10160
X49784Y121361
X25171Y125476
X13716Y123774
X15748Y112370
X20955Y111862
X17551Y122682
X21514Y112293
X18237Y122530
X26924Y118872
X34722Y118923
X12446Y7112
X5080Y91440
X5080Y95250
X23597Y119101
X23647Y123774
X23368Y85784
X28118Y83845
X11049Y121412
X10160Y127889
X31242Y77013
X37338Y76962
X30988Y83083
X36805Y82575
X30963Y82220
X36322Y82042
X31039Y80594
X36322Y80772
X71628Y71755
X75565Y74549
X74676Y76683
X75946Y76708
X73406Y76708
X76708Y73660
X78105Y73660
X81585Y79934
X76759Y80670
X77200Y85090
X90551Y74295
X87960Y91288
X90627Y91288
X79629Y73660
X90703Y80772
X87782Y80772
X71831Y121437
X90703Y83772
X95301Y81432
X108534Y117119
X91516Y117881
X102184Y116103
X102184Y114071
X102184Y112039
X102184Y110007
X102184Y107975
X102184Y105943
X102184Y103911
X104216Y103911
X104216Y105943
X104216Y107975
X104216Y110007
X104216Y112039
X104216Y114071
X104216Y116103
X106248Y116103
X106502Y114071
X106502Y112039
X106502Y110007
X106502Y107975
X106502Y105943
X106502Y103911
X108534Y103911
X108534Y105943
X108534Y107975
X108534Y110007
X108534Y112039
X108534Y114071
X99898Y116103
X99898Y114071
X99898Y112039
X99898Y110007
X99898Y107975
X99898Y105943
X99898Y103911
X97866Y103911
X95834Y103911
X93726Y103962
X93802Y105943
X93802Y107975
X93802Y110007
X93802Y112039
X93802Y114071
X93802Y116103
X95834Y116103
X95834Y114071
X95834Y112039
X95834Y110007
X95834Y107975
X95834Y105943
X97866Y105943
X97866Y107975
X97866Y110007
X97866Y112039
X97866Y114071
X97866Y116103
X91516Y103911
X91516Y105943
X91516Y107975
X91516Y110007
X91516Y112039
X91516Y114071
X91516Y116103
X108534Y102133
X92786Y100609
X92786Y99339
X92786Y98323
X93294Y97307
X94310Y96545
X95580Y95783
X97104Y95783
X98628Y95783
X100406Y95783
X101930Y95783
X103708Y95783
X104978Y96545
X105740Y97358
X107772Y98323
X109042Y98323
X110312Y98323
X111582Y98323
X112598Y98323
X112598Y100863
X111582Y100863
X110312Y100863
X109042Y100863
X107772Y100863
X106375Y100787
X105232Y100355
X104216Y99593
X103200Y98831
X101930Y98323
X100660Y98323
X96596Y98323
X95580Y98831
X95123Y99720
X106629Y98069
X76784Y116611
X76784Y119151
X77038Y123723
X74498Y123723
X74498Y125755
X71704Y127025
X68910Y115341
X74244Y119151
X74244Y116611
X71628Y115824
X68580Y111506
X68580Y109474
X76784Y114325
X119964Y105181
X118186Y105181
X116154Y105181
X114122Y105181
X113741Y94132
X115138Y93878
X118186Y93878
X119329Y93878
X112598Y94005
X112598Y95529
X112598Y96799
X112598Y102133
X112598Y103657
X112598Y105181
X119964Y107721
X119964Y110515
X119964Y112801
X119964Y115341
X116154Y107721
X116154Y110515
X116154Y112801
X116154Y115341
X118186Y107721
X118186Y110515
X118186Y112801
X118186Y115341
X114122Y107721
X114122Y110515
X112598Y107721
X115900Y91211
X117196Y81483
X113868Y86385
X110617Y93904
X107137Y93853
X103378Y93980
X13843Y7112
X96266Y93980
X110744Y95504
X110744Y96774
X107188Y96774
X105410Y95428
X108966Y93853
X97790Y93980
X96342Y123977
X98882Y123977
X102184Y123723
X99390Y120421
X104978Y120421
X104978Y123723
X107518Y123723
X111074Y123723
X114122Y123723
X117932Y123977
X119964Y122453
X91262Y102133
X66548Y109474
X70866Y109474
X70866Y107188
X82880Y120675
X85166Y120675
X83134Y118643
X81864Y126771
X85166Y126771
X107620Y126009
X107518Y128549
X109550Y126009
X109042Y128549
X91008Y120675
X94437Y120472
X88214Y117627
X83896Y100863
X83896Y98323
X83896Y96037
X83896Y93751
X86182Y91211
X86182Y96037
X86182Y93751
X88214Y95428
X88722Y93751
X86182Y97307
X87452Y89179
X105994Y86385
X102184Y86385
X105994Y83591
X102184Y83591
X105994Y81051
X102946Y80797
X105994Y78511
X102946Y78257
X105994Y76225
X102946Y75971
X105994Y73685
X99365Y73914
X107442Y71755
X99924Y78791
X110058Y87020
X110058Y83591
X110058Y81051
X110058Y78511
X110058Y76225
X110058Y73685
X110058Y71399
X113868Y73685
X120218Y73685
X113868Y83591
X120193Y82093
X113868Y71399
X113868Y68097
X120142Y80975
X120218Y78765
X120218Y76479
X77038Y90195
X73228Y90195
X77038Y87655
X73228Y87655
X81356Y87655
X81356Y85115
X81356Y82829
X77200Y82804
X73228Y94767
X73228Y92227
X73228Y97561
X73228Y100101
X73228Y102895
X73228Y105435
X76784Y106451
X76708Y93218
X104978Y126009
X107772Y120421
X111328Y120421
X116154Y117627
X118186Y117627
X118186Y120167
X119964Y120167
X119964Y126771
X117932Y126771
X115799Y126898
X114021Y126898
X115926Y124003
X111989Y126898
X111989Y128930
X114021Y128930
X108534Y118643
X111328Y118643
X111328Y117373
X105410Y93980
X101600Y93980
X108966Y96774
X99568Y91694
X101346Y91694
X110185Y89281
X97866Y68097
X94056Y68097
X100914Y126263
X98374Y126263
X102692Y128295
X98882Y128295
X96088Y128295
X91516Y128295
X93802Y128295
X93802Y126009
X91516Y126009
X96088Y127025
X110312Y102133
X91262Y100609
X91262Y99085
X89738Y100609
X89738Y102133
X100660Y100101
X101930Y100101
X103454Y100609
X84074Y115722
X69672Y103911
X69672Y100101
X80594Y77241
X114732Y121310
X71612Y82601
X88062Y103708
X72974Y68859
X87782Y83820
X83769Y124104
X72974Y111785
X90703Y78232
X90805Y89814
X118186Y122453
X112598Y112293
X87782Y112878
X117932Y91211
X119710Y92481
X117932Y92481
X115900Y92481
X120218Y71399
X78816Y67843
X74498Y67843
X70688Y67843
X112090Y91338
X98298Y73025
X98400Y92050
X17323Y13386
X12497Y14122
X12938Y18542
X70866Y85598
X114732Y119685
X88748Y121158
X106299Y126949
X106299Y119685
X81890Y78359
X71628Y77749
X81483Y77622
X26289Y7747
X92939Y86474
X90888Y86589
X113919Y122149
X89662Y127508
X85146Y113736
X101270Y90526
X95580Y90551
X87376Y78232
X89205Y69088
X87884Y77724
X83058Y80975
X83058Y82321
X87630Y72746
X93980Y73533
X87376Y119710
X87503Y124308
X90678Y88494
X90703Y87274
X85203Y109176
X84175Y107614
X99060Y89662
X99060Y88392
X99060Y76454
X94780Y76746
X85598Y114554
X92913Y85674
X90932Y85801
X114351Y122682
X90170Y128270
X85610Y109964
X86893Y99263
X86919Y102870
X84695Y108338
X87452Y105664
X79502Y110236
X69342Y98806
X69367Y106223
X113538Y120828
X89408Y124765
X78486Y123190
X80543Y113055
X69342Y102616
X23698Y24740
X114046Y121361
X89433Y125476
X77978Y123774
X80010Y112370
X85217Y111862
X81813Y122682
X85776Y112293
X82499Y122530
X91186Y118872
X98984Y118923
X26365Y24740
X69342Y91440
X69342Y95250
X87859Y119101
X99568Y93980
X87630Y85784
X92380Y83845
X75311Y121412
X74422Y127889
X95504Y77013
X101600Y76962
X95250Y83083
X101067Y82575
X95225Y82220
X100584Y82042
X95301Y80594
X100584Y80772
X15367Y7112
X26441Y14224
X23520Y14224
X7569Y54889
X26441Y17224
X31039Y14884
X44272Y50571
X27254Y51333
X37922Y49555
X37922Y47523
X37922Y45491
X37922Y43459
X37922Y41427
X37922Y39395
X37922Y37363
X39954Y37363
X39954Y39395
X39954Y41427
X39954Y43459
X39954Y45491
X39954Y47523
X39954Y49555
X41986Y49555
X42240Y47523
X42240Y45491
X42240Y43459
X42240Y41427
X42240Y39395
X42240Y37363
X44272Y37363
X44272Y39395
X44272Y41427
X44272Y43459
X44272Y45491
X44272Y47523
X35636Y49555
X35636Y47523
X35636Y45491
X35636Y43459
X35636Y41427
X35636Y39395
X35636Y37363
X33604Y37363
X31572Y37363
X29464Y37414
X29540Y39395
X29540Y41427
X29540Y43459
X29540Y45491
X29540Y47523
X29540Y49555
X31572Y49555
X31572Y47523
X31572Y45491
X31572Y43459
X31572Y41427
X31572Y39395
X33604Y39395
X33604Y41427
X33604Y43459
X33604Y45491
X33604Y47523
X33604Y49555
X27254Y37363
X27254Y39395
X27254Y41427
X27254Y43459
X27254Y45491
X27254Y47523
X27254Y49555
X44272Y35585
X28524Y34061
X28524Y32791
X28524Y31775
X29032Y30759
X30048Y29997
X31318Y29235
X32842Y29235
X34366Y29235
X36144Y29235
X37668Y29235
X39446Y29235
X40716Y29997
X41478Y30810
X43510Y31775
X44780Y31775
X46050Y31775
X47320Y31775
X48336Y31775
X48336Y34315
X47320Y34315
X46050Y34315
X44780Y34315
X43510Y34315
X42113Y34239
X40970Y33807
X39954Y33045
X38938Y32283
X37668Y31775
X36398Y31775
X32334Y31775
X31318Y32283
X30861Y33172
X42367Y31521
X12522Y50063
X12522Y52603
X12776Y57175
X10236Y57175
X10236Y59207
X7442Y60477
X4648Y48793
X9982Y52603
X9982Y50063
X7366Y49276
X4318Y44958
X4318Y42926
X12522Y47777
X55702Y38633
X53924Y38633
X51892Y38633
X49860Y38633
X49479Y27584
X50876Y27330
X53924Y27330
X55067Y27330
X48336Y27457
X48336Y28981
X48336Y30251
X48336Y35585
X48336Y37109
X48336Y38633
X55702Y41173
X55702Y43967
X55702Y46253
X55702Y48793
X51892Y41173
X51892Y43967
X51892Y46253
X51892Y48793
X53924Y41173
X53924Y43967
X53924Y46253
X53924Y48793
X49860Y41173
X49860Y43967
X48336Y41173
X51638Y24663
X52934Y14935
X49606Y19837
X46355Y27356
X42875Y27305
X39116Y27432
X35306Y27432
X32004Y27432
X46482Y28956
X46482Y30226
X42926Y30226
X41148Y28880
X44704Y27305
X33528Y27432
X32080Y57429
X34620Y57429
X37922Y57175
X35128Y53873
X40716Y53873
X40716Y57175
X43256Y57175
X46812Y57175
X49860Y57175
X53670Y57429
X55702Y55905
X27000Y35585
X2286Y42926
X6604Y42926
X6604Y40640
X18618Y54127
X20904Y54127
X18872Y52095
X17602Y60223
X20904Y60223
X43358Y59461
X43256Y62001
X45288Y59461
X44780Y62001
X26746Y54127
X30175Y53924
X23952Y51079
X19634Y34315
X19634Y31775
X19634Y29489
X19634Y27203
X21920Y24663
X21920Y29489
X21920Y27203
X23952Y28880
X24460Y27203
X21920Y30759
X23190Y22631
X41732Y19837
X37922Y19837
X41732Y17043
X37922Y17043
X41732Y14503
X38684Y14249
X41732Y11963
X38684Y11709
X41732Y9677
X38684Y9423
X41732Y7137
X35103Y7366
X43180Y5207
X35662Y12243
X45796Y20472
X45796Y17043
X45796Y14503
X45796Y11963
X45796Y9677
X45796Y7137
X45796Y4851
X87909Y123774
M30