G04 EAGLE Gerber RS-274X export*
G75*
%MOMM*%
%FSLAX34Y34*%
%LPD*%
%INSoldermask Bottom*%
%IPPOS*%
%AMOC8*
5,1,8,0,0,1.08239X$1,22.5*%
G01*
%ADD10C,0.853200*%
%ADD11C,0.838200*%
%ADD12C,2.082800*%
%ADD13C,6.203200*%
%ADD14C,1.303200*%
%ADD15C,1.803200*%
%ADD16R,1.473200X0.863600*%
%ADD17C,1.473200*%
%ADD18R,0.838200X1.473200*%
%ADD19C,3.251200*%
%ADD20C,1.203200*%
%ADD21R,4.203200X1.703200*%

G36*
X22290Y402602D02*
X22290Y402602D01*
X22356Y402604D01*
X22399Y402622D01*
X22446Y402630D01*
X22503Y402664D01*
X22563Y402689D01*
X22598Y402720D01*
X22639Y402745D01*
X22681Y402796D01*
X22729Y402840D01*
X22751Y402882D01*
X22780Y402919D01*
X22801Y402981D01*
X22832Y403040D01*
X22840Y403094D01*
X22852Y403131D01*
X22851Y403171D01*
X22859Y403225D01*
X22859Y407035D01*
X22848Y407100D01*
X22846Y407166D01*
X22828Y407209D01*
X22820Y407256D01*
X22786Y407313D01*
X22761Y407373D01*
X22730Y407408D01*
X22705Y407449D01*
X22654Y407491D01*
X22610Y407539D01*
X22568Y407561D01*
X22531Y407590D01*
X22469Y407611D01*
X22410Y407642D01*
X22356Y407650D01*
X22319Y407662D01*
X22279Y407661D01*
X22225Y407669D01*
X19685Y407669D01*
X19620Y407658D01*
X19554Y407656D01*
X19511Y407638D01*
X19464Y407630D01*
X19407Y407596D01*
X19347Y407571D01*
X19312Y407540D01*
X19271Y407515D01*
X19230Y407464D01*
X19181Y407420D01*
X19159Y407378D01*
X19130Y407341D01*
X19109Y407279D01*
X19078Y407220D01*
X19070Y407166D01*
X19058Y407129D01*
X19058Y407125D01*
X19058Y407124D01*
X19059Y407089D01*
X19051Y407035D01*
X19051Y403225D01*
X19062Y403160D01*
X19064Y403094D01*
X19082Y403051D01*
X19090Y403004D01*
X19124Y402947D01*
X19149Y402887D01*
X19180Y402852D01*
X19205Y402811D01*
X19256Y402770D01*
X19300Y402721D01*
X19342Y402699D01*
X19379Y402670D01*
X19441Y402649D01*
X19500Y402618D01*
X19554Y402610D01*
X19591Y402598D01*
X19631Y402599D01*
X19685Y402591D01*
X22225Y402591D01*
X22290Y402602D01*
G37*
G36*
X22290Y367042D02*
X22290Y367042D01*
X22356Y367044D01*
X22399Y367062D01*
X22446Y367070D01*
X22503Y367104D01*
X22563Y367129D01*
X22598Y367160D01*
X22639Y367185D01*
X22681Y367236D01*
X22729Y367280D01*
X22751Y367322D01*
X22780Y367359D01*
X22801Y367421D01*
X22832Y367480D01*
X22840Y367534D01*
X22852Y367571D01*
X22851Y367611D01*
X22859Y367665D01*
X22859Y371475D01*
X22848Y371540D01*
X22846Y371606D01*
X22828Y371649D01*
X22820Y371696D01*
X22786Y371753D01*
X22761Y371813D01*
X22730Y371848D01*
X22705Y371889D01*
X22654Y371931D01*
X22610Y371979D01*
X22568Y372001D01*
X22531Y372030D01*
X22469Y372051D01*
X22410Y372082D01*
X22356Y372090D01*
X22319Y372102D01*
X22279Y372101D01*
X22225Y372109D01*
X19685Y372109D01*
X19620Y372098D01*
X19554Y372096D01*
X19511Y372078D01*
X19464Y372070D01*
X19407Y372036D01*
X19347Y372011D01*
X19312Y371980D01*
X19271Y371955D01*
X19230Y371904D01*
X19181Y371860D01*
X19159Y371818D01*
X19130Y371781D01*
X19109Y371719D01*
X19078Y371660D01*
X19070Y371606D01*
X19058Y371569D01*
X19058Y371565D01*
X19058Y371564D01*
X19059Y371529D01*
X19051Y371475D01*
X19051Y367665D01*
X19062Y367600D01*
X19064Y367534D01*
X19082Y367491D01*
X19090Y367444D01*
X19124Y367387D01*
X19149Y367327D01*
X19180Y367292D01*
X19205Y367251D01*
X19256Y367210D01*
X19300Y367161D01*
X19342Y367139D01*
X19379Y367110D01*
X19441Y367089D01*
X19500Y367058D01*
X19554Y367050D01*
X19591Y367038D01*
X19631Y367039D01*
X19685Y367031D01*
X22225Y367031D01*
X22290Y367042D01*
G37*
G36*
X22290Y328942D02*
X22290Y328942D01*
X22356Y328944D01*
X22399Y328962D01*
X22446Y328970D01*
X22503Y329004D01*
X22563Y329029D01*
X22598Y329060D01*
X22639Y329085D01*
X22681Y329136D01*
X22729Y329180D01*
X22751Y329222D01*
X22780Y329259D01*
X22801Y329321D01*
X22832Y329380D01*
X22840Y329434D01*
X22852Y329471D01*
X22851Y329511D01*
X22859Y329565D01*
X22859Y333375D01*
X22848Y333440D01*
X22846Y333506D01*
X22828Y333549D01*
X22820Y333596D01*
X22786Y333653D01*
X22761Y333713D01*
X22730Y333748D01*
X22705Y333789D01*
X22654Y333831D01*
X22610Y333879D01*
X22568Y333901D01*
X22531Y333930D01*
X22469Y333951D01*
X22410Y333982D01*
X22356Y333990D01*
X22319Y334002D01*
X22279Y334001D01*
X22225Y334009D01*
X19685Y334009D01*
X19620Y333998D01*
X19554Y333996D01*
X19511Y333978D01*
X19464Y333970D01*
X19407Y333936D01*
X19347Y333911D01*
X19312Y333880D01*
X19271Y333855D01*
X19230Y333804D01*
X19181Y333760D01*
X19159Y333718D01*
X19130Y333681D01*
X19109Y333619D01*
X19078Y333560D01*
X19070Y333506D01*
X19058Y333469D01*
X19058Y333465D01*
X19058Y333464D01*
X19059Y333429D01*
X19051Y333375D01*
X19051Y329565D01*
X19062Y329500D01*
X19064Y329434D01*
X19082Y329391D01*
X19090Y329344D01*
X19124Y329287D01*
X19149Y329227D01*
X19180Y329192D01*
X19205Y329151D01*
X19256Y329110D01*
X19300Y329061D01*
X19342Y329039D01*
X19379Y329010D01*
X19441Y328989D01*
X19500Y328958D01*
X19554Y328950D01*
X19591Y328938D01*
X19631Y328939D01*
X19685Y328931D01*
X22225Y328931D01*
X22290Y328942D01*
G37*
G36*
X22290Y293382D02*
X22290Y293382D01*
X22356Y293384D01*
X22399Y293402D01*
X22446Y293410D01*
X22503Y293444D01*
X22563Y293469D01*
X22598Y293500D01*
X22639Y293525D01*
X22681Y293576D01*
X22729Y293620D01*
X22751Y293662D01*
X22780Y293699D01*
X22801Y293761D01*
X22832Y293820D01*
X22840Y293874D01*
X22852Y293911D01*
X22851Y293951D01*
X22859Y294005D01*
X22859Y297815D01*
X22848Y297880D01*
X22846Y297946D01*
X22828Y297989D01*
X22820Y298036D01*
X22786Y298093D01*
X22761Y298153D01*
X22730Y298188D01*
X22705Y298229D01*
X22654Y298271D01*
X22610Y298319D01*
X22568Y298341D01*
X22531Y298370D01*
X22469Y298391D01*
X22410Y298422D01*
X22356Y298430D01*
X22319Y298442D01*
X22279Y298441D01*
X22225Y298449D01*
X19685Y298449D01*
X19620Y298438D01*
X19554Y298436D01*
X19511Y298418D01*
X19464Y298410D01*
X19407Y298376D01*
X19347Y298351D01*
X19312Y298320D01*
X19271Y298295D01*
X19230Y298244D01*
X19181Y298200D01*
X19159Y298158D01*
X19130Y298121D01*
X19109Y298059D01*
X19078Y298000D01*
X19070Y297946D01*
X19058Y297909D01*
X19058Y297905D01*
X19058Y297904D01*
X19059Y297869D01*
X19051Y297815D01*
X19051Y294005D01*
X19062Y293940D01*
X19064Y293874D01*
X19082Y293831D01*
X19090Y293784D01*
X19124Y293727D01*
X19149Y293667D01*
X19180Y293632D01*
X19205Y293591D01*
X19256Y293550D01*
X19300Y293501D01*
X19342Y293479D01*
X19379Y293450D01*
X19441Y293429D01*
X19500Y293398D01*
X19554Y293390D01*
X19591Y293378D01*
X19631Y293379D01*
X19685Y293371D01*
X22225Y293371D01*
X22290Y293382D01*
G37*
G36*
X23560Y255282D02*
X23560Y255282D01*
X23626Y255284D01*
X23669Y255302D01*
X23716Y255310D01*
X23773Y255344D01*
X23833Y255369D01*
X23868Y255400D01*
X23909Y255425D01*
X23951Y255476D01*
X23999Y255520D01*
X24021Y255562D01*
X24050Y255599D01*
X24071Y255661D01*
X24102Y255720D01*
X24110Y255774D01*
X24122Y255811D01*
X24121Y255851D01*
X24129Y255905D01*
X24129Y259715D01*
X24118Y259780D01*
X24116Y259846D01*
X24098Y259889D01*
X24090Y259936D01*
X24056Y259993D01*
X24031Y260053D01*
X24000Y260088D01*
X23975Y260129D01*
X23924Y260171D01*
X23880Y260219D01*
X23838Y260241D01*
X23801Y260270D01*
X23739Y260291D01*
X23680Y260322D01*
X23626Y260330D01*
X23589Y260342D01*
X23549Y260341D01*
X23495Y260349D01*
X20955Y260349D01*
X20890Y260338D01*
X20824Y260336D01*
X20781Y260318D01*
X20734Y260310D01*
X20677Y260276D01*
X20617Y260251D01*
X20582Y260220D01*
X20541Y260195D01*
X20500Y260144D01*
X20451Y260100D01*
X20429Y260058D01*
X20400Y260021D01*
X20379Y259959D01*
X20348Y259900D01*
X20340Y259846D01*
X20328Y259809D01*
X20328Y259805D01*
X20328Y259804D01*
X20329Y259769D01*
X20321Y259715D01*
X20321Y255905D01*
X20332Y255840D01*
X20334Y255774D01*
X20352Y255731D01*
X20360Y255684D01*
X20394Y255627D01*
X20419Y255567D01*
X20450Y255532D01*
X20475Y255491D01*
X20526Y255450D01*
X20570Y255401D01*
X20612Y255379D01*
X20649Y255350D01*
X20711Y255329D01*
X20770Y255298D01*
X20824Y255290D01*
X20861Y255278D01*
X20901Y255279D01*
X20955Y255271D01*
X23495Y255271D01*
X23560Y255282D01*
G37*
D10*
X47780Y143200D03*
X47780Y85400D03*
D11*
X118110Y22860D03*
D12*
X101600Y67310D03*
X101600Y41910D03*
D13*
X502158Y114808D03*
D14*
X302260Y54940D03*
D15*
X302260Y254940D03*
D16*
X22225Y252603D03*
X22225Y263017D03*
X20955Y290703D03*
X20955Y301117D03*
D17*
X368300Y228600D03*
X254000Y12700D03*
D10*
X47780Y576270D03*
X47780Y518470D03*
D16*
X20955Y336677D03*
X20955Y326263D03*
X20955Y410337D03*
X20955Y399923D03*
X20955Y374777D03*
X20955Y364363D03*
D18*
X231571Y452190D03*
X223443Y452190D03*
D12*
X369570Y642874D03*
X394970Y642874D03*
X420370Y642874D03*
X445770Y642874D03*
X471170Y642874D03*
X496570Y642874D03*
X63500Y642620D03*
X88900Y642620D03*
X114300Y642620D03*
X139700Y642620D03*
X165100Y642620D03*
X190500Y642620D03*
X215900Y642620D03*
X241300Y642620D03*
X266700Y642620D03*
X292100Y642620D03*
X317500Y642620D03*
X342900Y642620D03*
D11*
X506730Y585470D03*
D19*
X25400Y635000D03*
X543560Y635000D03*
X25400Y25400D03*
X543560Y25400D03*
D20*
X189230Y17780D03*
X201930Y17780D03*
X214630Y17780D03*
X227330Y17780D03*
X176530Y17780D03*
X189230Y30480D03*
X201930Y30480D03*
X214630Y30480D03*
X227330Y30480D03*
X176530Y30480D03*
D21*
X529082Y228600D03*
X529082Y177800D03*
M02*
