G04 EAGLE Gerber RS-274X export*
G75*
%MOMM*%
%FSLAX34Y34*%
%LPD*%
%IN*%
%IPPOS*%
%AMOC8*
5,1,8,0,0,1.08239X$1,22.5*%
G01*
%ADD10C,0.254000*%
%ADD11C,0.000000*%
%ADD12C,0.600000*%
%ADD13C,0.152400*%
%ADD14C,0.076200*%
%ADD15C,0.254000*%


D10*
X0Y660400D02*
X568960Y660400D01*
X568960Y364998D01*
X568960Y294386D02*
X568960Y245364D01*
X568706Y161290D02*
X568960Y0D01*
X0Y0D01*
X0Y660400D01*
X497840Y364998D02*
X497840Y294386D01*
X568960Y294386D01*
X568960Y364998D02*
X497840Y364998D01*
X550672Y245364D02*
X568960Y245364D01*
X550672Y245364D02*
X550418Y161290D01*
X568706Y161290D01*
D11*
X44530Y143200D02*
X44532Y143313D01*
X44538Y143427D01*
X44548Y143540D01*
X44562Y143652D01*
X44579Y143764D01*
X44601Y143876D01*
X44627Y143986D01*
X44656Y144096D01*
X44689Y144204D01*
X44726Y144312D01*
X44767Y144417D01*
X44811Y144522D01*
X44859Y144625D01*
X44910Y144726D01*
X44965Y144825D01*
X45024Y144922D01*
X45086Y145017D01*
X45151Y145110D01*
X45219Y145201D01*
X45290Y145289D01*
X45365Y145375D01*
X45442Y145458D01*
X45522Y145538D01*
X45605Y145615D01*
X45691Y145690D01*
X45779Y145761D01*
X45870Y145829D01*
X45963Y145894D01*
X46058Y145956D01*
X46155Y146015D01*
X46254Y146070D01*
X46355Y146121D01*
X46458Y146169D01*
X46563Y146213D01*
X46668Y146254D01*
X46776Y146291D01*
X46884Y146324D01*
X46994Y146353D01*
X47104Y146379D01*
X47216Y146401D01*
X47328Y146418D01*
X47440Y146432D01*
X47553Y146442D01*
X47667Y146448D01*
X47780Y146450D01*
X47893Y146448D01*
X48007Y146442D01*
X48120Y146432D01*
X48232Y146418D01*
X48344Y146401D01*
X48456Y146379D01*
X48566Y146353D01*
X48676Y146324D01*
X48784Y146291D01*
X48892Y146254D01*
X48997Y146213D01*
X49102Y146169D01*
X49205Y146121D01*
X49306Y146070D01*
X49405Y146015D01*
X49502Y145956D01*
X49597Y145894D01*
X49690Y145829D01*
X49781Y145761D01*
X49869Y145690D01*
X49955Y145615D01*
X50038Y145538D01*
X50118Y145458D01*
X50195Y145375D01*
X50270Y145289D01*
X50341Y145201D01*
X50409Y145110D01*
X50474Y145017D01*
X50536Y144922D01*
X50595Y144825D01*
X50650Y144726D01*
X50701Y144625D01*
X50749Y144522D01*
X50793Y144417D01*
X50834Y144312D01*
X50871Y144204D01*
X50904Y144096D01*
X50933Y143986D01*
X50959Y143876D01*
X50981Y143764D01*
X50998Y143652D01*
X51012Y143540D01*
X51022Y143427D01*
X51028Y143313D01*
X51030Y143200D01*
X51028Y143087D01*
X51022Y142973D01*
X51012Y142860D01*
X50998Y142748D01*
X50981Y142636D01*
X50959Y142524D01*
X50933Y142414D01*
X50904Y142304D01*
X50871Y142196D01*
X50834Y142088D01*
X50793Y141983D01*
X50749Y141878D01*
X50701Y141775D01*
X50650Y141674D01*
X50595Y141575D01*
X50536Y141478D01*
X50474Y141383D01*
X50409Y141290D01*
X50341Y141199D01*
X50270Y141111D01*
X50195Y141025D01*
X50118Y140942D01*
X50038Y140862D01*
X49955Y140785D01*
X49869Y140710D01*
X49781Y140639D01*
X49690Y140571D01*
X49597Y140506D01*
X49502Y140444D01*
X49405Y140385D01*
X49306Y140330D01*
X49205Y140279D01*
X49102Y140231D01*
X48997Y140187D01*
X48892Y140146D01*
X48784Y140109D01*
X48676Y140076D01*
X48566Y140047D01*
X48456Y140021D01*
X48344Y139999D01*
X48232Y139982D01*
X48120Y139968D01*
X48007Y139958D01*
X47893Y139952D01*
X47780Y139950D01*
X47667Y139952D01*
X47553Y139958D01*
X47440Y139968D01*
X47328Y139982D01*
X47216Y139999D01*
X47104Y140021D01*
X46994Y140047D01*
X46884Y140076D01*
X46776Y140109D01*
X46668Y140146D01*
X46563Y140187D01*
X46458Y140231D01*
X46355Y140279D01*
X46254Y140330D01*
X46155Y140385D01*
X46058Y140444D01*
X45963Y140506D01*
X45870Y140571D01*
X45779Y140639D01*
X45691Y140710D01*
X45605Y140785D01*
X45522Y140862D01*
X45442Y140942D01*
X45365Y141025D01*
X45290Y141111D01*
X45219Y141199D01*
X45151Y141290D01*
X45086Y141383D01*
X45024Y141478D01*
X44965Y141575D01*
X44910Y141674D01*
X44859Y141775D01*
X44811Y141878D01*
X44767Y141983D01*
X44726Y142088D01*
X44689Y142196D01*
X44656Y142304D01*
X44627Y142414D01*
X44601Y142524D01*
X44579Y142636D01*
X44562Y142748D01*
X44548Y142860D01*
X44538Y142973D01*
X44532Y143087D01*
X44530Y143200D01*
X44530Y85400D02*
X44532Y85513D01*
X44538Y85627D01*
X44548Y85740D01*
X44562Y85852D01*
X44579Y85964D01*
X44601Y86076D01*
X44627Y86186D01*
X44656Y86296D01*
X44689Y86404D01*
X44726Y86512D01*
X44767Y86617D01*
X44811Y86722D01*
X44859Y86825D01*
X44910Y86926D01*
X44965Y87025D01*
X45024Y87122D01*
X45086Y87217D01*
X45151Y87310D01*
X45219Y87401D01*
X45290Y87489D01*
X45365Y87575D01*
X45442Y87658D01*
X45522Y87738D01*
X45605Y87815D01*
X45691Y87890D01*
X45779Y87961D01*
X45870Y88029D01*
X45963Y88094D01*
X46058Y88156D01*
X46155Y88215D01*
X46254Y88270D01*
X46355Y88321D01*
X46458Y88369D01*
X46563Y88413D01*
X46668Y88454D01*
X46776Y88491D01*
X46884Y88524D01*
X46994Y88553D01*
X47104Y88579D01*
X47216Y88601D01*
X47328Y88618D01*
X47440Y88632D01*
X47553Y88642D01*
X47667Y88648D01*
X47780Y88650D01*
X47893Y88648D01*
X48007Y88642D01*
X48120Y88632D01*
X48232Y88618D01*
X48344Y88601D01*
X48456Y88579D01*
X48566Y88553D01*
X48676Y88524D01*
X48784Y88491D01*
X48892Y88454D01*
X48997Y88413D01*
X49102Y88369D01*
X49205Y88321D01*
X49306Y88270D01*
X49405Y88215D01*
X49502Y88156D01*
X49597Y88094D01*
X49690Y88029D01*
X49781Y87961D01*
X49869Y87890D01*
X49955Y87815D01*
X50038Y87738D01*
X50118Y87658D01*
X50195Y87575D01*
X50270Y87489D01*
X50341Y87401D01*
X50409Y87310D01*
X50474Y87217D01*
X50536Y87122D01*
X50595Y87025D01*
X50650Y86926D01*
X50701Y86825D01*
X50749Y86722D01*
X50793Y86617D01*
X50834Y86512D01*
X50871Y86404D01*
X50904Y86296D01*
X50933Y86186D01*
X50959Y86076D01*
X50981Y85964D01*
X50998Y85852D01*
X51012Y85740D01*
X51022Y85627D01*
X51028Y85513D01*
X51030Y85400D01*
X51028Y85287D01*
X51022Y85173D01*
X51012Y85060D01*
X50998Y84948D01*
X50981Y84836D01*
X50959Y84724D01*
X50933Y84614D01*
X50904Y84504D01*
X50871Y84396D01*
X50834Y84288D01*
X50793Y84183D01*
X50749Y84078D01*
X50701Y83975D01*
X50650Y83874D01*
X50595Y83775D01*
X50536Y83678D01*
X50474Y83583D01*
X50409Y83490D01*
X50341Y83399D01*
X50270Y83311D01*
X50195Y83225D01*
X50118Y83142D01*
X50038Y83062D01*
X49955Y82985D01*
X49869Y82910D01*
X49781Y82839D01*
X49690Y82771D01*
X49597Y82706D01*
X49502Y82644D01*
X49405Y82585D01*
X49306Y82530D01*
X49205Y82479D01*
X49102Y82431D01*
X48997Y82387D01*
X48892Y82346D01*
X48784Y82309D01*
X48676Y82276D01*
X48566Y82247D01*
X48456Y82221D01*
X48344Y82199D01*
X48232Y82182D01*
X48120Y82168D01*
X48007Y82158D01*
X47893Y82152D01*
X47780Y82150D01*
X47667Y82152D01*
X47553Y82158D01*
X47440Y82168D01*
X47328Y82182D01*
X47216Y82199D01*
X47104Y82221D01*
X46994Y82247D01*
X46884Y82276D01*
X46776Y82309D01*
X46668Y82346D01*
X46563Y82387D01*
X46458Y82431D01*
X46355Y82479D01*
X46254Y82530D01*
X46155Y82585D01*
X46058Y82644D01*
X45963Y82706D01*
X45870Y82771D01*
X45779Y82839D01*
X45691Y82910D01*
X45605Y82985D01*
X45522Y83062D01*
X45442Y83142D01*
X45365Y83225D01*
X45290Y83311D01*
X45219Y83399D01*
X45151Y83490D01*
X45086Y83583D01*
X45024Y83678D01*
X44965Y83775D01*
X44910Y83874D01*
X44859Y83975D01*
X44811Y84078D01*
X44767Y84183D01*
X44726Y84288D01*
X44689Y84396D01*
X44656Y84504D01*
X44627Y84614D01*
X44601Y84724D01*
X44579Y84836D01*
X44562Y84948D01*
X44548Y85060D01*
X44538Y85173D01*
X44532Y85287D01*
X44530Y85400D01*
D12*
X47580Y157480D02*
X58580Y157480D01*
X58580Y71120D02*
X47580Y71120D01*
X14430Y157480D02*
X8230Y157480D01*
X8230Y71120D02*
X14430Y71120D01*
D11*
X296760Y54940D02*
X296762Y55088D01*
X296768Y55236D01*
X296778Y55384D01*
X296792Y55532D01*
X296810Y55679D01*
X296832Y55826D01*
X296858Y55972D01*
X296887Y56117D01*
X296921Y56262D01*
X296959Y56405D01*
X297000Y56548D01*
X297045Y56689D01*
X297095Y56829D01*
X297147Y56967D01*
X297204Y57105D01*
X297264Y57240D01*
X297328Y57374D01*
X297395Y57506D01*
X297466Y57636D01*
X297541Y57765D01*
X297619Y57891D01*
X297700Y58015D01*
X297784Y58137D01*
X297872Y58256D01*
X297963Y58373D01*
X298057Y58488D01*
X298155Y58600D01*
X298255Y58709D01*
X298358Y58816D01*
X298464Y58920D01*
X298572Y59021D01*
X298684Y59119D01*
X298798Y59214D01*
X298914Y59305D01*
X299033Y59394D01*
X299154Y59479D01*
X299278Y59561D01*
X299404Y59640D01*
X299531Y59715D01*
X299661Y59787D01*
X299793Y59856D01*
X299926Y59920D01*
X300061Y59981D01*
X300198Y60039D01*
X300336Y60093D01*
X300476Y60143D01*
X300617Y60189D01*
X300759Y60231D01*
X300902Y60270D01*
X301046Y60304D01*
X301192Y60335D01*
X301337Y60362D01*
X301484Y60385D01*
X301631Y60404D01*
X301779Y60419D01*
X301926Y60430D01*
X302075Y60437D01*
X302223Y60440D01*
X302371Y60439D01*
X302519Y60434D01*
X302667Y60425D01*
X302815Y60412D01*
X302963Y60395D01*
X303109Y60374D01*
X303256Y60349D01*
X303401Y60320D01*
X303546Y60288D01*
X303689Y60251D01*
X303832Y60211D01*
X303974Y60166D01*
X304114Y60118D01*
X304253Y60066D01*
X304390Y60011D01*
X304526Y59951D01*
X304661Y59888D01*
X304793Y59822D01*
X304924Y59752D01*
X305053Y59678D01*
X305179Y59601D01*
X305304Y59521D01*
X305426Y59437D01*
X305547Y59350D01*
X305664Y59260D01*
X305780Y59166D01*
X305892Y59070D01*
X306002Y58971D01*
X306110Y58868D01*
X306214Y58763D01*
X306316Y58655D01*
X306414Y58544D01*
X306510Y58431D01*
X306603Y58315D01*
X306692Y58197D01*
X306778Y58076D01*
X306861Y57953D01*
X306941Y57828D01*
X307017Y57701D01*
X307090Y57571D01*
X307159Y57440D01*
X307224Y57307D01*
X307287Y57173D01*
X307345Y57036D01*
X307400Y56898D01*
X307450Y56759D01*
X307498Y56618D01*
X307541Y56477D01*
X307581Y56334D01*
X307616Y56190D01*
X307648Y56045D01*
X307676Y55899D01*
X307700Y55753D01*
X307720Y55606D01*
X307736Y55458D01*
X307748Y55311D01*
X307756Y55162D01*
X307760Y55014D01*
X307760Y54866D01*
X307756Y54718D01*
X307748Y54569D01*
X307736Y54422D01*
X307720Y54274D01*
X307700Y54127D01*
X307676Y53981D01*
X307648Y53835D01*
X307616Y53690D01*
X307581Y53546D01*
X307541Y53403D01*
X307498Y53262D01*
X307450Y53121D01*
X307400Y52982D01*
X307345Y52844D01*
X307287Y52707D01*
X307224Y52573D01*
X307159Y52440D01*
X307090Y52309D01*
X307017Y52179D01*
X306941Y52052D01*
X306861Y51927D01*
X306778Y51804D01*
X306692Y51683D01*
X306603Y51565D01*
X306510Y51449D01*
X306414Y51336D01*
X306316Y51225D01*
X306214Y51117D01*
X306110Y51012D01*
X306002Y50909D01*
X305892Y50810D01*
X305780Y50714D01*
X305664Y50620D01*
X305547Y50530D01*
X305426Y50443D01*
X305304Y50359D01*
X305179Y50279D01*
X305053Y50202D01*
X304924Y50128D01*
X304793Y50058D01*
X304661Y49992D01*
X304526Y49929D01*
X304390Y49869D01*
X304253Y49814D01*
X304114Y49762D01*
X303974Y49714D01*
X303832Y49669D01*
X303689Y49629D01*
X303546Y49592D01*
X303401Y49560D01*
X303256Y49531D01*
X303109Y49506D01*
X302963Y49485D01*
X302815Y49468D01*
X302667Y49455D01*
X302519Y49446D01*
X302371Y49441D01*
X302223Y49440D01*
X302075Y49443D01*
X301926Y49450D01*
X301779Y49461D01*
X301631Y49476D01*
X301484Y49495D01*
X301337Y49518D01*
X301192Y49545D01*
X301046Y49576D01*
X300902Y49610D01*
X300759Y49649D01*
X300617Y49691D01*
X300476Y49737D01*
X300336Y49787D01*
X300198Y49841D01*
X300061Y49899D01*
X299926Y49960D01*
X299793Y50024D01*
X299661Y50093D01*
X299531Y50165D01*
X299404Y50240D01*
X299278Y50319D01*
X299154Y50401D01*
X299033Y50486D01*
X298914Y50575D01*
X298798Y50666D01*
X298684Y50761D01*
X298572Y50859D01*
X298464Y50960D01*
X298358Y51064D01*
X298255Y51171D01*
X298155Y51280D01*
X298057Y51392D01*
X297963Y51507D01*
X297872Y51624D01*
X297784Y51743D01*
X297700Y51865D01*
X297619Y51989D01*
X297541Y52115D01*
X297466Y52244D01*
X297395Y52374D01*
X297328Y52506D01*
X297264Y52640D01*
X297204Y52775D01*
X297147Y52913D01*
X297095Y53051D01*
X297045Y53191D01*
X297000Y53332D01*
X296959Y53475D01*
X296921Y53618D01*
X296887Y53763D01*
X296858Y53908D01*
X296832Y54054D01*
X296810Y54201D01*
X296792Y54348D01*
X296778Y54496D01*
X296768Y54644D01*
X296762Y54792D01*
X296760Y54940D01*
X294260Y254940D02*
X294262Y255136D01*
X294270Y255333D01*
X294282Y255529D01*
X294299Y255724D01*
X294320Y255919D01*
X294347Y256114D01*
X294378Y256308D01*
X294414Y256501D01*
X294454Y256693D01*
X294500Y256884D01*
X294550Y257074D01*
X294604Y257262D01*
X294664Y257449D01*
X294728Y257635D01*
X294796Y257819D01*
X294869Y258001D01*
X294946Y258182D01*
X295028Y258360D01*
X295114Y258537D01*
X295205Y258711D01*
X295299Y258883D01*
X295398Y259053D01*
X295501Y259220D01*
X295608Y259385D01*
X295719Y259546D01*
X295834Y259706D01*
X295953Y259862D01*
X296076Y260015D01*
X296202Y260165D01*
X296332Y260312D01*
X296466Y260456D01*
X296603Y260597D01*
X296744Y260734D01*
X296888Y260868D01*
X297035Y260998D01*
X297185Y261124D01*
X297338Y261247D01*
X297494Y261366D01*
X297654Y261481D01*
X297815Y261592D01*
X297980Y261699D01*
X298147Y261802D01*
X298317Y261901D01*
X298489Y261995D01*
X298663Y262086D01*
X298840Y262172D01*
X299018Y262254D01*
X299199Y262331D01*
X299381Y262404D01*
X299565Y262472D01*
X299751Y262536D01*
X299938Y262596D01*
X300126Y262650D01*
X300316Y262700D01*
X300507Y262746D01*
X300699Y262786D01*
X300892Y262822D01*
X301086Y262853D01*
X301281Y262880D01*
X301476Y262901D01*
X301671Y262918D01*
X301867Y262930D01*
X302064Y262938D01*
X302260Y262940D01*
X302456Y262938D01*
X302653Y262930D01*
X302849Y262918D01*
X303044Y262901D01*
X303239Y262880D01*
X303434Y262853D01*
X303628Y262822D01*
X303821Y262786D01*
X304013Y262746D01*
X304204Y262700D01*
X304394Y262650D01*
X304582Y262596D01*
X304769Y262536D01*
X304955Y262472D01*
X305139Y262404D01*
X305321Y262331D01*
X305502Y262254D01*
X305680Y262172D01*
X305857Y262086D01*
X306031Y261995D01*
X306203Y261901D01*
X306373Y261802D01*
X306540Y261699D01*
X306705Y261592D01*
X306866Y261481D01*
X307026Y261366D01*
X307182Y261247D01*
X307335Y261124D01*
X307485Y260998D01*
X307632Y260868D01*
X307776Y260734D01*
X307917Y260597D01*
X308054Y260456D01*
X308188Y260312D01*
X308318Y260165D01*
X308444Y260015D01*
X308567Y259862D01*
X308686Y259706D01*
X308801Y259546D01*
X308912Y259385D01*
X309019Y259220D01*
X309122Y259053D01*
X309221Y258883D01*
X309315Y258711D01*
X309406Y258537D01*
X309492Y258360D01*
X309574Y258182D01*
X309651Y258001D01*
X309724Y257819D01*
X309792Y257635D01*
X309856Y257449D01*
X309916Y257262D01*
X309970Y257074D01*
X310020Y256884D01*
X310066Y256693D01*
X310106Y256501D01*
X310142Y256308D01*
X310173Y256114D01*
X310200Y255919D01*
X310221Y255724D01*
X310238Y255529D01*
X310250Y255333D01*
X310258Y255136D01*
X310260Y254940D01*
X310258Y254744D01*
X310250Y254547D01*
X310238Y254351D01*
X310221Y254156D01*
X310200Y253961D01*
X310173Y253766D01*
X310142Y253572D01*
X310106Y253379D01*
X310066Y253187D01*
X310020Y252996D01*
X309970Y252806D01*
X309916Y252618D01*
X309856Y252431D01*
X309792Y252245D01*
X309724Y252061D01*
X309651Y251879D01*
X309574Y251698D01*
X309492Y251520D01*
X309406Y251343D01*
X309315Y251169D01*
X309221Y250997D01*
X309122Y250827D01*
X309019Y250660D01*
X308912Y250495D01*
X308801Y250334D01*
X308686Y250174D01*
X308567Y250018D01*
X308444Y249865D01*
X308318Y249715D01*
X308188Y249568D01*
X308054Y249424D01*
X307917Y249283D01*
X307776Y249146D01*
X307632Y249012D01*
X307485Y248882D01*
X307335Y248756D01*
X307182Y248633D01*
X307026Y248514D01*
X306866Y248399D01*
X306705Y248288D01*
X306540Y248181D01*
X306373Y248078D01*
X306203Y247979D01*
X306031Y247885D01*
X305857Y247794D01*
X305680Y247708D01*
X305502Y247626D01*
X305321Y247549D01*
X305139Y247476D01*
X304955Y247408D01*
X304769Y247344D01*
X304582Y247284D01*
X304394Y247230D01*
X304204Y247180D01*
X304013Y247134D01*
X303821Y247094D01*
X303628Y247058D01*
X303434Y247027D01*
X303239Y247000D01*
X303044Y246979D01*
X302849Y246962D01*
X302653Y246950D01*
X302456Y246942D01*
X302260Y246940D01*
X302064Y246942D01*
X301867Y246950D01*
X301671Y246962D01*
X301476Y246979D01*
X301281Y247000D01*
X301086Y247027D01*
X300892Y247058D01*
X300699Y247094D01*
X300507Y247134D01*
X300316Y247180D01*
X300126Y247230D01*
X299938Y247284D01*
X299751Y247344D01*
X299565Y247408D01*
X299381Y247476D01*
X299199Y247549D01*
X299018Y247626D01*
X298840Y247708D01*
X298663Y247794D01*
X298489Y247885D01*
X298317Y247979D01*
X298147Y248078D01*
X297980Y248181D01*
X297815Y248288D01*
X297654Y248399D01*
X297494Y248514D01*
X297338Y248633D01*
X297185Y248756D01*
X297035Y248882D01*
X296888Y249012D01*
X296744Y249146D01*
X296603Y249283D01*
X296466Y249424D01*
X296332Y249568D01*
X296202Y249715D01*
X296076Y249865D01*
X295953Y250018D01*
X295834Y250174D01*
X295719Y250334D01*
X295608Y250495D01*
X295501Y250660D01*
X295398Y250827D01*
X295299Y250997D01*
X295205Y251169D01*
X295114Y251343D01*
X295028Y251520D01*
X294946Y251698D01*
X294869Y251879D01*
X294796Y252061D01*
X294728Y252245D01*
X294664Y252431D01*
X294604Y252618D01*
X294550Y252806D01*
X294500Y252996D01*
X294454Y253187D01*
X294414Y253379D01*
X294378Y253572D01*
X294347Y253766D01*
X294320Y253961D01*
X294299Y254156D01*
X294282Y254351D01*
X294270Y254547D01*
X294262Y254744D01*
X294260Y254940D01*
X44530Y576270D02*
X44532Y576383D01*
X44538Y576497D01*
X44548Y576610D01*
X44562Y576722D01*
X44579Y576834D01*
X44601Y576946D01*
X44627Y577056D01*
X44656Y577166D01*
X44689Y577274D01*
X44726Y577382D01*
X44767Y577487D01*
X44811Y577592D01*
X44859Y577695D01*
X44910Y577796D01*
X44965Y577895D01*
X45024Y577992D01*
X45086Y578087D01*
X45151Y578180D01*
X45219Y578271D01*
X45290Y578359D01*
X45365Y578445D01*
X45442Y578528D01*
X45522Y578608D01*
X45605Y578685D01*
X45691Y578760D01*
X45779Y578831D01*
X45870Y578899D01*
X45963Y578964D01*
X46058Y579026D01*
X46155Y579085D01*
X46254Y579140D01*
X46355Y579191D01*
X46458Y579239D01*
X46563Y579283D01*
X46668Y579324D01*
X46776Y579361D01*
X46884Y579394D01*
X46994Y579423D01*
X47104Y579449D01*
X47216Y579471D01*
X47328Y579488D01*
X47440Y579502D01*
X47553Y579512D01*
X47667Y579518D01*
X47780Y579520D01*
X47893Y579518D01*
X48007Y579512D01*
X48120Y579502D01*
X48232Y579488D01*
X48344Y579471D01*
X48456Y579449D01*
X48566Y579423D01*
X48676Y579394D01*
X48784Y579361D01*
X48892Y579324D01*
X48997Y579283D01*
X49102Y579239D01*
X49205Y579191D01*
X49306Y579140D01*
X49405Y579085D01*
X49502Y579026D01*
X49597Y578964D01*
X49690Y578899D01*
X49781Y578831D01*
X49869Y578760D01*
X49955Y578685D01*
X50038Y578608D01*
X50118Y578528D01*
X50195Y578445D01*
X50270Y578359D01*
X50341Y578271D01*
X50409Y578180D01*
X50474Y578087D01*
X50536Y577992D01*
X50595Y577895D01*
X50650Y577796D01*
X50701Y577695D01*
X50749Y577592D01*
X50793Y577487D01*
X50834Y577382D01*
X50871Y577274D01*
X50904Y577166D01*
X50933Y577056D01*
X50959Y576946D01*
X50981Y576834D01*
X50998Y576722D01*
X51012Y576610D01*
X51022Y576497D01*
X51028Y576383D01*
X51030Y576270D01*
X51028Y576157D01*
X51022Y576043D01*
X51012Y575930D01*
X50998Y575818D01*
X50981Y575706D01*
X50959Y575594D01*
X50933Y575484D01*
X50904Y575374D01*
X50871Y575266D01*
X50834Y575158D01*
X50793Y575053D01*
X50749Y574948D01*
X50701Y574845D01*
X50650Y574744D01*
X50595Y574645D01*
X50536Y574548D01*
X50474Y574453D01*
X50409Y574360D01*
X50341Y574269D01*
X50270Y574181D01*
X50195Y574095D01*
X50118Y574012D01*
X50038Y573932D01*
X49955Y573855D01*
X49869Y573780D01*
X49781Y573709D01*
X49690Y573641D01*
X49597Y573576D01*
X49502Y573514D01*
X49405Y573455D01*
X49306Y573400D01*
X49205Y573349D01*
X49102Y573301D01*
X48997Y573257D01*
X48892Y573216D01*
X48784Y573179D01*
X48676Y573146D01*
X48566Y573117D01*
X48456Y573091D01*
X48344Y573069D01*
X48232Y573052D01*
X48120Y573038D01*
X48007Y573028D01*
X47893Y573022D01*
X47780Y573020D01*
X47667Y573022D01*
X47553Y573028D01*
X47440Y573038D01*
X47328Y573052D01*
X47216Y573069D01*
X47104Y573091D01*
X46994Y573117D01*
X46884Y573146D01*
X46776Y573179D01*
X46668Y573216D01*
X46563Y573257D01*
X46458Y573301D01*
X46355Y573349D01*
X46254Y573400D01*
X46155Y573455D01*
X46058Y573514D01*
X45963Y573576D01*
X45870Y573641D01*
X45779Y573709D01*
X45691Y573780D01*
X45605Y573855D01*
X45522Y573932D01*
X45442Y574012D01*
X45365Y574095D01*
X45290Y574181D01*
X45219Y574269D01*
X45151Y574360D01*
X45086Y574453D01*
X45024Y574548D01*
X44965Y574645D01*
X44910Y574744D01*
X44859Y574845D01*
X44811Y574948D01*
X44767Y575053D01*
X44726Y575158D01*
X44689Y575266D01*
X44656Y575374D01*
X44627Y575484D01*
X44601Y575594D01*
X44579Y575706D01*
X44562Y575818D01*
X44548Y575930D01*
X44538Y576043D01*
X44532Y576157D01*
X44530Y576270D01*
X44530Y518470D02*
X44532Y518583D01*
X44538Y518697D01*
X44548Y518810D01*
X44562Y518922D01*
X44579Y519034D01*
X44601Y519146D01*
X44627Y519256D01*
X44656Y519366D01*
X44689Y519474D01*
X44726Y519582D01*
X44767Y519687D01*
X44811Y519792D01*
X44859Y519895D01*
X44910Y519996D01*
X44965Y520095D01*
X45024Y520192D01*
X45086Y520287D01*
X45151Y520380D01*
X45219Y520471D01*
X45290Y520559D01*
X45365Y520645D01*
X45442Y520728D01*
X45522Y520808D01*
X45605Y520885D01*
X45691Y520960D01*
X45779Y521031D01*
X45870Y521099D01*
X45963Y521164D01*
X46058Y521226D01*
X46155Y521285D01*
X46254Y521340D01*
X46355Y521391D01*
X46458Y521439D01*
X46563Y521483D01*
X46668Y521524D01*
X46776Y521561D01*
X46884Y521594D01*
X46994Y521623D01*
X47104Y521649D01*
X47216Y521671D01*
X47328Y521688D01*
X47440Y521702D01*
X47553Y521712D01*
X47667Y521718D01*
X47780Y521720D01*
X47893Y521718D01*
X48007Y521712D01*
X48120Y521702D01*
X48232Y521688D01*
X48344Y521671D01*
X48456Y521649D01*
X48566Y521623D01*
X48676Y521594D01*
X48784Y521561D01*
X48892Y521524D01*
X48997Y521483D01*
X49102Y521439D01*
X49205Y521391D01*
X49306Y521340D01*
X49405Y521285D01*
X49502Y521226D01*
X49597Y521164D01*
X49690Y521099D01*
X49781Y521031D01*
X49869Y520960D01*
X49955Y520885D01*
X50038Y520808D01*
X50118Y520728D01*
X50195Y520645D01*
X50270Y520559D01*
X50341Y520471D01*
X50409Y520380D01*
X50474Y520287D01*
X50536Y520192D01*
X50595Y520095D01*
X50650Y519996D01*
X50701Y519895D01*
X50749Y519792D01*
X50793Y519687D01*
X50834Y519582D01*
X50871Y519474D01*
X50904Y519366D01*
X50933Y519256D01*
X50959Y519146D01*
X50981Y519034D01*
X50998Y518922D01*
X51012Y518810D01*
X51022Y518697D01*
X51028Y518583D01*
X51030Y518470D01*
X51028Y518357D01*
X51022Y518243D01*
X51012Y518130D01*
X50998Y518018D01*
X50981Y517906D01*
X50959Y517794D01*
X50933Y517684D01*
X50904Y517574D01*
X50871Y517466D01*
X50834Y517358D01*
X50793Y517253D01*
X50749Y517148D01*
X50701Y517045D01*
X50650Y516944D01*
X50595Y516845D01*
X50536Y516748D01*
X50474Y516653D01*
X50409Y516560D01*
X50341Y516469D01*
X50270Y516381D01*
X50195Y516295D01*
X50118Y516212D01*
X50038Y516132D01*
X49955Y516055D01*
X49869Y515980D01*
X49781Y515909D01*
X49690Y515841D01*
X49597Y515776D01*
X49502Y515714D01*
X49405Y515655D01*
X49306Y515600D01*
X49205Y515549D01*
X49102Y515501D01*
X48997Y515457D01*
X48892Y515416D01*
X48784Y515379D01*
X48676Y515346D01*
X48566Y515317D01*
X48456Y515291D01*
X48344Y515269D01*
X48232Y515252D01*
X48120Y515238D01*
X48007Y515228D01*
X47893Y515222D01*
X47780Y515220D01*
X47667Y515222D01*
X47553Y515228D01*
X47440Y515238D01*
X47328Y515252D01*
X47216Y515269D01*
X47104Y515291D01*
X46994Y515317D01*
X46884Y515346D01*
X46776Y515379D01*
X46668Y515416D01*
X46563Y515457D01*
X46458Y515501D01*
X46355Y515549D01*
X46254Y515600D01*
X46155Y515655D01*
X46058Y515714D01*
X45963Y515776D01*
X45870Y515841D01*
X45779Y515909D01*
X45691Y515980D01*
X45605Y516055D01*
X45522Y516132D01*
X45442Y516212D01*
X45365Y516295D01*
X45290Y516381D01*
X45219Y516469D01*
X45151Y516560D01*
X45086Y516653D01*
X45024Y516748D01*
X44965Y516845D01*
X44910Y516944D01*
X44859Y517045D01*
X44811Y517148D01*
X44767Y517253D01*
X44726Y517358D01*
X44689Y517466D01*
X44656Y517574D01*
X44627Y517684D01*
X44601Y517794D01*
X44579Y517906D01*
X44562Y518018D01*
X44548Y518130D01*
X44538Y518243D01*
X44532Y518357D01*
X44530Y518470D01*
D12*
X47580Y590550D02*
X58580Y590550D01*
X58580Y504190D02*
X47580Y504190D01*
X14430Y590550D02*
X8230Y590550D01*
X8230Y504190D02*
X14430Y504190D01*
D13*
X497944Y366200D02*
X567944Y366200D01*
X497944Y366200D02*
X497702Y366197D01*
X497461Y366188D01*
X497220Y366174D01*
X496979Y366153D01*
X496739Y366127D01*
X496499Y366095D01*
X496260Y366057D01*
X496023Y366014D01*
X495786Y365964D01*
X495551Y365909D01*
X495317Y365849D01*
X495085Y365782D01*
X494854Y365711D01*
X494625Y365633D01*
X494398Y365550D01*
X494173Y365462D01*
X493950Y365368D01*
X493730Y365269D01*
X493512Y365164D01*
X493297Y365055D01*
X493084Y364940D01*
X492874Y364820D01*
X492668Y364695D01*
X492464Y364565D01*
X492263Y364430D01*
X492066Y364290D01*
X491872Y364146D01*
X491682Y363997D01*
X491496Y363843D01*
X491313Y363685D01*
X491134Y363523D01*
X490959Y363356D01*
X490788Y363185D01*
X490621Y363010D01*
X490459Y362831D01*
X490301Y362648D01*
X490147Y362462D01*
X489998Y362272D01*
X489854Y362078D01*
X489714Y361881D01*
X489579Y361680D01*
X489449Y361476D01*
X489324Y361270D01*
X489204Y361060D01*
X489089Y360847D01*
X488980Y360632D01*
X488875Y360414D01*
X488776Y360194D01*
X488682Y359971D01*
X488594Y359746D01*
X488511Y359519D01*
X488433Y359290D01*
X488362Y359059D01*
X488295Y358827D01*
X488235Y358593D01*
X488180Y358358D01*
X488130Y358121D01*
X488087Y357884D01*
X488049Y357645D01*
X488017Y357405D01*
X487991Y357165D01*
X487970Y356924D01*
X487956Y356683D01*
X487947Y356442D01*
X487944Y356200D01*
X487944Y355200D01*
X487947Y354958D01*
X487956Y354717D01*
X487970Y354476D01*
X487991Y354235D01*
X488017Y353995D01*
X488049Y353755D01*
X488087Y353516D01*
X488130Y353279D01*
X488180Y353042D01*
X488235Y352807D01*
X488295Y352573D01*
X488362Y352341D01*
X488433Y352110D01*
X488511Y351881D01*
X488594Y351654D01*
X488682Y351429D01*
X488776Y351206D01*
X488875Y350986D01*
X488980Y350768D01*
X489089Y350553D01*
X489204Y350340D01*
X489324Y350130D01*
X489449Y349924D01*
X489579Y349720D01*
X489714Y349519D01*
X489854Y349322D01*
X489998Y349128D01*
X490147Y348938D01*
X490301Y348752D01*
X490459Y348569D01*
X490621Y348390D01*
X490788Y348215D01*
X490959Y348044D01*
X491134Y347877D01*
X491313Y347715D01*
X491496Y347557D01*
X491682Y347403D01*
X491872Y347254D01*
X492066Y347110D01*
X492263Y346970D01*
X492464Y346835D01*
X492668Y346705D01*
X492874Y346580D01*
X493084Y346460D01*
X493297Y346345D01*
X493512Y346236D01*
X493730Y346131D01*
X493950Y346032D01*
X494173Y345938D01*
X494398Y345850D01*
X494625Y345767D01*
X494854Y345689D01*
X495085Y345618D01*
X495317Y345551D01*
X495551Y345491D01*
X495786Y345436D01*
X496023Y345386D01*
X496260Y345343D01*
X496499Y345305D01*
X496739Y345273D01*
X496979Y345247D01*
X497220Y345226D01*
X497461Y345212D01*
X497702Y345203D01*
X497944Y345200D01*
X497944Y315200D01*
X497944Y294200D02*
X567944Y294200D01*
D14*
X541393Y321587D02*
X537155Y321587D01*
X537155Y322764D01*
X537157Y322831D01*
X537163Y322898D01*
X537172Y322965D01*
X537186Y323031D01*
X537203Y323096D01*
X537223Y323160D01*
X537248Y323222D01*
X537276Y323283D01*
X537307Y323343D01*
X537342Y323400D01*
X537380Y323456D01*
X537421Y323509D01*
X537465Y323560D01*
X537512Y323608D01*
X537561Y323654D01*
X537613Y323696D01*
X537668Y323736D01*
X537724Y323772D01*
X537783Y323805D01*
X537843Y323835D01*
X537905Y323861D01*
X537968Y323883D01*
X538033Y323902D01*
X538098Y323918D01*
X538164Y323929D01*
X538231Y323937D01*
X538298Y323941D01*
X538366Y323941D01*
X538433Y323937D01*
X538500Y323929D01*
X538566Y323918D01*
X538631Y323902D01*
X538696Y323883D01*
X538759Y323861D01*
X538821Y323835D01*
X538881Y323805D01*
X538940Y323772D01*
X538996Y323736D01*
X539051Y323696D01*
X539103Y323654D01*
X539152Y323608D01*
X539199Y323560D01*
X539243Y323509D01*
X539284Y323456D01*
X539322Y323400D01*
X539357Y323343D01*
X539388Y323283D01*
X539416Y323222D01*
X539441Y323160D01*
X539461Y323096D01*
X539478Y323031D01*
X539492Y322965D01*
X539501Y322898D01*
X539507Y322831D01*
X539509Y322764D01*
X539509Y321587D01*
X539509Y322999D02*
X541393Y323941D01*
X540451Y325980D02*
X539509Y325980D01*
X539449Y325982D01*
X539389Y325988D01*
X539329Y325997D01*
X539270Y326011D01*
X539212Y326028D01*
X539155Y326049D01*
X539100Y326073D01*
X539047Y326101D01*
X538995Y326133D01*
X538946Y326167D01*
X538898Y326205D01*
X538854Y326245D01*
X538812Y326289D01*
X538773Y326335D01*
X538736Y326383D01*
X538703Y326434D01*
X538674Y326486D01*
X538648Y326541D01*
X538625Y326597D01*
X538606Y326654D01*
X538591Y326712D01*
X538579Y326772D01*
X538571Y326832D01*
X538567Y326892D01*
X538567Y326952D01*
X538571Y327012D01*
X538579Y327072D01*
X538591Y327132D01*
X538606Y327190D01*
X538625Y327247D01*
X538648Y327303D01*
X538674Y327358D01*
X538703Y327410D01*
X538736Y327461D01*
X538773Y327509D01*
X538812Y327555D01*
X538854Y327599D01*
X538898Y327639D01*
X538946Y327677D01*
X538995Y327711D01*
X539047Y327743D01*
X539100Y327771D01*
X539155Y327795D01*
X539212Y327816D01*
X539270Y327833D01*
X539329Y327847D01*
X539389Y327856D01*
X539449Y327862D01*
X539509Y327864D01*
X539509Y327863D02*
X540451Y327863D01*
X540451Y327864D02*
X540511Y327862D01*
X540571Y327856D01*
X540631Y327847D01*
X540690Y327833D01*
X540748Y327816D01*
X540805Y327795D01*
X540860Y327771D01*
X540913Y327743D01*
X540965Y327711D01*
X541014Y327677D01*
X541062Y327639D01*
X541106Y327599D01*
X541148Y327555D01*
X541187Y327509D01*
X541224Y327461D01*
X541257Y327410D01*
X541286Y327358D01*
X541312Y327303D01*
X541335Y327247D01*
X541354Y327190D01*
X541369Y327132D01*
X541381Y327072D01*
X541389Y327012D01*
X541393Y326952D01*
X541393Y326892D01*
X541389Y326832D01*
X541381Y326772D01*
X541369Y326712D01*
X541354Y326654D01*
X541335Y326597D01*
X541312Y326541D01*
X541286Y326486D01*
X541257Y326434D01*
X541224Y326383D01*
X541187Y326335D01*
X541148Y326289D01*
X541106Y326245D01*
X541062Y326205D01*
X541014Y326167D01*
X540965Y326133D01*
X540913Y326101D01*
X540860Y326073D01*
X540805Y326049D01*
X540748Y326028D01*
X540690Y326011D01*
X540631Y325997D01*
X540571Y325988D01*
X540511Y325982D01*
X540451Y325980D01*
X540687Y330030D02*
X538568Y330030D01*
X540687Y330030D02*
X540737Y330032D01*
X540787Y330037D01*
X540837Y330046D01*
X540886Y330059D01*
X540934Y330075D01*
X540980Y330094D01*
X541025Y330116D01*
X541069Y330142D01*
X541110Y330171D01*
X541149Y330202D01*
X541186Y330237D01*
X541221Y330274D01*
X541252Y330313D01*
X541281Y330354D01*
X541307Y330398D01*
X541329Y330443D01*
X541348Y330489D01*
X541364Y330537D01*
X541377Y330586D01*
X541386Y330636D01*
X541391Y330686D01*
X541393Y330736D01*
X541393Y331913D01*
X538568Y331913D01*
X538568Y333663D02*
X538568Y335075D01*
X537155Y334133D02*
X540687Y334133D01*
X540687Y334134D02*
X540737Y334136D01*
X540787Y334141D01*
X540837Y334150D01*
X540886Y334163D01*
X540934Y334179D01*
X540980Y334198D01*
X541025Y334220D01*
X541069Y334246D01*
X541110Y334275D01*
X541149Y334306D01*
X541186Y334341D01*
X541221Y334378D01*
X541252Y334417D01*
X541281Y334458D01*
X541307Y334502D01*
X541329Y334547D01*
X541348Y334593D01*
X541364Y334641D01*
X541377Y334690D01*
X541386Y334740D01*
X541391Y334790D01*
X541393Y334840D01*
X541393Y335075D01*
X541393Y337636D02*
X541393Y338813D01*
X541393Y337636D02*
X541391Y337586D01*
X541386Y337536D01*
X541377Y337486D01*
X541364Y337437D01*
X541348Y337389D01*
X541329Y337343D01*
X541307Y337298D01*
X541281Y337254D01*
X541252Y337213D01*
X541221Y337174D01*
X541186Y337137D01*
X541149Y337102D01*
X541110Y337071D01*
X541069Y337042D01*
X541025Y337016D01*
X540980Y336994D01*
X540934Y336975D01*
X540886Y336959D01*
X540837Y336946D01*
X540787Y336937D01*
X540737Y336932D01*
X540687Y336930D01*
X539509Y336930D01*
X539449Y336932D01*
X539389Y336938D01*
X539329Y336947D01*
X539270Y336961D01*
X539212Y336978D01*
X539155Y336999D01*
X539100Y337023D01*
X539047Y337051D01*
X538995Y337083D01*
X538946Y337117D01*
X538898Y337155D01*
X538854Y337195D01*
X538812Y337239D01*
X538773Y337285D01*
X538736Y337333D01*
X538703Y337384D01*
X538674Y337436D01*
X538648Y337491D01*
X538625Y337547D01*
X538606Y337604D01*
X538591Y337662D01*
X538579Y337722D01*
X538571Y337782D01*
X538567Y337842D01*
X538567Y337902D01*
X538571Y337962D01*
X538579Y338022D01*
X538591Y338082D01*
X538606Y338140D01*
X538625Y338197D01*
X538648Y338253D01*
X538674Y338308D01*
X538703Y338360D01*
X538736Y338411D01*
X538773Y338459D01*
X538812Y338505D01*
X538854Y338549D01*
X538898Y338589D01*
X538946Y338627D01*
X538995Y338661D01*
X539047Y338693D01*
X539100Y338721D01*
X539155Y338745D01*
X539212Y338766D01*
X539270Y338783D01*
X539329Y338797D01*
X539389Y338806D01*
X539449Y338812D01*
X539509Y338814D01*
X539509Y338813D02*
X539980Y338813D01*
X539980Y336930D01*
X545832Y325385D02*
X547716Y325385D01*
X545832Y325385D02*
X545765Y325387D01*
X545698Y325393D01*
X545631Y325402D01*
X545565Y325416D01*
X545500Y325433D01*
X545436Y325453D01*
X545374Y325478D01*
X545313Y325506D01*
X545253Y325537D01*
X545196Y325572D01*
X545140Y325610D01*
X545087Y325651D01*
X545036Y325695D01*
X544988Y325742D01*
X544942Y325791D01*
X544900Y325843D01*
X544860Y325898D01*
X544824Y325954D01*
X544791Y326013D01*
X544761Y326073D01*
X544735Y326135D01*
X544713Y326198D01*
X544694Y326263D01*
X544678Y326328D01*
X544667Y326394D01*
X544659Y326461D01*
X544655Y326528D01*
X544655Y326596D01*
X544659Y326663D01*
X544667Y326730D01*
X544678Y326796D01*
X544694Y326861D01*
X544713Y326926D01*
X544735Y326989D01*
X544761Y327051D01*
X544791Y327111D01*
X544824Y327170D01*
X544860Y327226D01*
X544900Y327281D01*
X544942Y327333D01*
X544988Y327382D01*
X545036Y327429D01*
X545087Y327473D01*
X545140Y327514D01*
X545196Y327552D01*
X545253Y327587D01*
X545313Y327618D01*
X545374Y327646D01*
X545436Y327671D01*
X545500Y327691D01*
X545565Y327708D01*
X545631Y327722D01*
X545698Y327731D01*
X545765Y327737D01*
X545832Y327739D01*
X547716Y327739D01*
X547783Y327737D01*
X547850Y327731D01*
X547917Y327722D01*
X547983Y327708D01*
X548048Y327691D01*
X548112Y327671D01*
X548174Y327646D01*
X548235Y327618D01*
X548295Y327587D01*
X548352Y327552D01*
X548408Y327514D01*
X548461Y327473D01*
X548512Y327429D01*
X548560Y327382D01*
X548606Y327333D01*
X548648Y327281D01*
X548688Y327226D01*
X548724Y327170D01*
X548757Y327111D01*
X548787Y327051D01*
X548813Y326989D01*
X548835Y326926D01*
X548854Y326861D01*
X548870Y326796D01*
X548881Y326730D01*
X548889Y326663D01*
X548893Y326596D01*
X548893Y326528D01*
X548889Y326461D01*
X548881Y326394D01*
X548870Y326328D01*
X548854Y326263D01*
X548835Y326198D01*
X548813Y326135D01*
X548787Y326073D01*
X548757Y326013D01*
X548724Y325954D01*
X548688Y325898D01*
X548648Y325843D01*
X548606Y325791D01*
X548560Y325742D01*
X548512Y325695D01*
X548461Y325651D01*
X548408Y325610D01*
X548352Y325572D01*
X548295Y325537D01*
X548235Y325506D01*
X548174Y325478D01*
X548112Y325453D01*
X548048Y325433D01*
X547983Y325416D01*
X547917Y325402D01*
X547850Y325393D01*
X547783Y325387D01*
X547716Y325385D01*
X548187Y329970D02*
X546068Y329970D01*
X548187Y329970D02*
X548237Y329972D01*
X548287Y329977D01*
X548337Y329986D01*
X548386Y329999D01*
X548434Y330015D01*
X548480Y330034D01*
X548525Y330056D01*
X548569Y330082D01*
X548610Y330111D01*
X548649Y330142D01*
X548686Y330177D01*
X548721Y330214D01*
X548752Y330253D01*
X548781Y330294D01*
X548807Y330338D01*
X548829Y330383D01*
X548848Y330429D01*
X548864Y330477D01*
X548877Y330526D01*
X548886Y330576D01*
X548891Y330626D01*
X548893Y330676D01*
X548893Y331854D01*
X546068Y331854D01*
X546068Y333603D02*
X546068Y335015D01*
X544655Y334074D02*
X548187Y334074D01*
X548237Y334076D01*
X548287Y334081D01*
X548337Y334090D01*
X548386Y334103D01*
X548434Y334119D01*
X548480Y334138D01*
X548525Y334160D01*
X548569Y334186D01*
X548610Y334215D01*
X548649Y334246D01*
X548686Y334281D01*
X548721Y334318D01*
X548752Y334357D01*
X548781Y334398D01*
X548807Y334442D01*
X548829Y334487D01*
X548848Y334533D01*
X548864Y334581D01*
X548877Y334630D01*
X548886Y334680D01*
X548891Y334730D01*
X548893Y334780D01*
X548893Y335015D01*
D13*
X497744Y294200D02*
X497507Y294203D01*
X497271Y294211D01*
X497034Y294226D01*
X496798Y294246D01*
X496563Y294271D01*
X496328Y294303D01*
X496094Y294340D01*
X495861Y294383D01*
X495629Y294431D01*
X495399Y294485D01*
X495169Y294544D01*
X494942Y294609D01*
X494716Y294680D01*
X494491Y294756D01*
X494269Y294837D01*
X494048Y294923D01*
X493830Y295015D01*
X493614Y295113D01*
X493401Y295215D01*
X493190Y295323D01*
X492981Y295435D01*
X492776Y295553D01*
X492573Y295675D01*
X492373Y295803D01*
X492177Y295935D01*
X491984Y296072D01*
X491794Y296213D01*
X491607Y296359D01*
X491425Y296510D01*
X491245Y296665D01*
X491070Y296824D01*
X490899Y296987D01*
X490731Y297155D01*
X490568Y297326D01*
X490409Y297501D01*
X490254Y297681D01*
X490103Y297863D01*
X489957Y298050D01*
X489816Y298240D01*
X489679Y298433D01*
X489547Y298629D01*
X489419Y298829D01*
X489297Y299032D01*
X489179Y299237D01*
X489067Y299446D01*
X488959Y299657D01*
X488857Y299870D01*
X488759Y300086D01*
X488667Y300304D01*
X488581Y300525D01*
X488500Y300747D01*
X488424Y300972D01*
X488353Y301198D01*
X488288Y301425D01*
X488229Y301655D01*
X488175Y301885D01*
X488127Y302117D01*
X488084Y302350D01*
X488047Y302584D01*
X488015Y302819D01*
X487990Y303054D01*
X487970Y303290D01*
X487955Y303527D01*
X487947Y303763D01*
X487944Y304000D01*
X487944Y305200D01*
X487947Y305442D01*
X487956Y305683D01*
X487970Y305924D01*
X487991Y306165D01*
X488017Y306405D01*
X488049Y306645D01*
X488087Y306884D01*
X488130Y307121D01*
X488180Y307358D01*
X488235Y307593D01*
X488295Y307827D01*
X488362Y308059D01*
X488433Y308290D01*
X488511Y308519D01*
X488594Y308746D01*
X488682Y308971D01*
X488776Y309194D01*
X488875Y309414D01*
X488980Y309632D01*
X489089Y309847D01*
X489204Y310060D01*
X489324Y310270D01*
X489449Y310476D01*
X489579Y310680D01*
X489714Y310881D01*
X489854Y311078D01*
X489998Y311272D01*
X490147Y311462D01*
X490301Y311648D01*
X490459Y311831D01*
X490621Y312010D01*
X490788Y312185D01*
X490959Y312356D01*
X491134Y312523D01*
X491313Y312685D01*
X491496Y312843D01*
X491682Y312997D01*
X491872Y313146D01*
X492066Y313290D01*
X492263Y313430D01*
X492464Y313565D01*
X492668Y313695D01*
X492874Y313820D01*
X493084Y313940D01*
X493297Y314055D01*
X493512Y314164D01*
X493730Y314269D01*
X493950Y314368D01*
X494173Y314462D01*
X494398Y314550D01*
X494625Y314633D01*
X494854Y314711D01*
X495085Y314782D01*
X495317Y314849D01*
X495551Y314909D01*
X495786Y314964D01*
X496023Y315014D01*
X496260Y315057D01*
X496499Y315095D01*
X496739Y315127D01*
X496979Y315153D01*
X497220Y315174D01*
X497461Y315188D01*
X497702Y315197D01*
X497944Y315200D01*
D11*
X10160Y635000D02*
X10165Y635374D01*
X10178Y635748D01*
X10201Y636121D01*
X10233Y636494D01*
X10275Y636866D01*
X10325Y637236D01*
X10384Y637605D01*
X10453Y637973D01*
X10530Y638339D01*
X10617Y638703D01*
X10712Y639065D01*
X10816Y639424D01*
X10929Y639781D01*
X11051Y640134D01*
X11181Y640485D01*
X11320Y640832D01*
X11467Y641176D01*
X11623Y641516D01*
X11787Y641852D01*
X11960Y642184D01*
X12140Y642512D01*
X12328Y642835D01*
X12524Y643153D01*
X12728Y643467D01*
X12940Y643775D01*
X13159Y644078D01*
X13386Y644376D01*
X13619Y644668D01*
X13860Y644954D01*
X14108Y645235D01*
X14362Y645509D01*
X14624Y645776D01*
X14891Y646038D01*
X15165Y646292D01*
X15446Y646540D01*
X15732Y646781D01*
X16024Y647014D01*
X16322Y647241D01*
X16625Y647460D01*
X16933Y647672D01*
X17247Y647876D01*
X17565Y648072D01*
X17888Y648260D01*
X18216Y648440D01*
X18548Y648613D01*
X18884Y648777D01*
X19224Y648933D01*
X19568Y649080D01*
X19915Y649219D01*
X20266Y649349D01*
X20619Y649471D01*
X20976Y649584D01*
X21335Y649688D01*
X21697Y649783D01*
X22061Y649870D01*
X22427Y649947D01*
X22795Y650016D01*
X23164Y650075D01*
X23534Y650125D01*
X23906Y650167D01*
X24279Y650199D01*
X24652Y650222D01*
X25026Y650235D01*
X25400Y650240D01*
X25774Y650235D01*
X26148Y650222D01*
X26521Y650199D01*
X26894Y650167D01*
X27266Y650125D01*
X27636Y650075D01*
X28005Y650016D01*
X28373Y649947D01*
X28739Y649870D01*
X29103Y649783D01*
X29465Y649688D01*
X29824Y649584D01*
X30181Y649471D01*
X30534Y649349D01*
X30885Y649219D01*
X31232Y649080D01*
X31576Y648933D01*
X31916Y648777D01*
X32252Y648613D01*
X32584Y648440D01*
X32912Y648260D01*
X33235Y648072D01*
X33553Y647876D01*
X33867Y647672D01*
X34175Y647460D01*
X34478Y647241D01*
X34776Y647014D01*
X35068Y646781D01*
X35354Y646540D01*
X35635Y646292D01*
X35909Y646038D01*
X36176Y645776D01*
X36438Y645509D01*
X36692Y645235D01*
X36940Y644954D01*
X37181Y644668D01*
X37414Y644376D01*
X37641Y644078D01*
X37860Y643775D01*
X38072Y643467D01*
X38276Y643153D01*
X38472Y642835D01*
X38660Y642512D01*
X38840Y642184D01*
X39013Y641852D01*
X39177Y641516D01*
X39333Y641176D01*
X39480Y640832D01*
X39619Y640485D01*
X39749Y640134D01*
X39871Y639781D01*
X39984Y639424D01*
X40088Y639065D01*
X40183Y638703D01*
X40270Y638339D01*
X40347Y637973D01*
X40416Y637605D01*
X40475Y637236D01*
X40525Y636866D01*
X40567Y636494D01*
X40599Y636121D01*
X40622Y635748D01*
X40635Y635374D01*
X40640Y635000D01*
X40635Y634626D01*
X40622Y634252D01*
X40599Y633879D01*
X40567Y633506D01*
X40525Y633134D01*
X40475Y632764D01*
X40416Y632395D01*
X40347Y632027D01*
X40270Y631661D01*
X40183Y631297D01*
X40088Y630935D01*
X39984Y630576D01*
X39871Y630219D01*
X39749Y629866D01*
X39619Y629515D01*
X39480Y629168D01*
X39333Y628824D01*
X39177Y628484D01*
X39013Y628148D01*
X38840Y627816D01*
X38660Y627488D01*
X38472Y627165D01*
X38276Y626847D01*
X38072Y626533D01*
X37860Y626225D01*
X37641Y625922D01*
X37414Y625624D01*
X37181Y625332D01*
X36940Y625046D01*
X36692Y624765D01*
X36438Y624491D01*
X36176Y624224D01*
X35909Y623962D01*
X35635Y623708D01*
X35354Y623460D01*
X35068Y623219D01*
X34776Y622986D01*
X34478Y622759D01*
X34175Y622540D01*
X33867Y622328D01*
X33553Y622124D01*
X33235Y621928D01*
X32912Y621740D01*
X32584Y621560D01*
X32252Y621387D01*
X31916Y621223D01*
X31576Y621067D01*
X31232Y620920D01*
X30885Y620781D01*
X30534Y620651D01*
X30181Y620529D01*
X29824Y620416D01*
X29465Y620312D01*
X29103Y620217D01*
X28739Y620130D01*
X28373Y620053D01*
X28005Y619984D01*
X27636Y619925D01*
X27266Y619875D01*
X26894Y619833D01*
X26521Y619801D01*
X26148Y619778D01*
X25774Y619765D01*
X25400Y619760D01*
X25026Y619765D01*
X24652Y619778D01*
X24279Y619801D01*
X23906Y619833D01*
X23534Y619875D01*
X23164Y619925D01*
X22795Y619984D01*
X22427Y620053D01*
X22061Y620130D01*
X21697Y620217D01*
X21335Y620312D01*
X20976Y620416D01*
X20619Y620529D01*
X20266Y620651D01*
X19915Y620781D01*
X19568Y620920D01*
X19224Y621067D01*
X18884Y621223D01*
X18548Y621387D01*
X18216Y621560D01*
X17888Y621740D01*
X17565Y621928D01*
X17247Y622124D01*
X16933Y622328D01*
X16625Y622540D01*
X16322Y622759D01*
X16024Y622986D01*
X15732Y623219D01*
X15446Y623460D01*
X15165Y623708D01*
X14891Y623962D01*
X14624Y624224D01*
X14362Y624491D01*
X14108Y624765D01*
X13860Y625046D01*
X13619Y625332D01*
X13386Y625624D01*
X13159Y625922D01*
X12940Y626225D01*
X12728Y626533D01*
X12524Y626847D01*
X12328Y627165D01*
X12140Y627488D01*
X11960Y627816D01*
X11787Y628148D01*
X11623Y628484D01*
X11467Y628824D01*
X11320Y629168D01*
X11181Y629515D01*
X11051Y629866D01*
X10929Y630219D01*
X10816Y630576D01*
X10712Y630935D01*
X10617Y631297D01*
X10530Y631661D01*
X10453Y632027D01*
X10384Y632395D01*
X10325Y632764D01*
X10275Y633134D01*
X10233Y633506D01*
X10201Y633879D01*
X10178Y634252D01*
X10165Y634626D01*
X10160Y635000D01*
X528320Y635000D02*
X528325Y635374D01*
X528338Y635748D01*
X528361Y636121D01*
X528393Y636494D01*
X528435Y636866D01*
X528485Y637236D01*
X528544Y637605D01*
X528613Y637973D01*
X528690Y638339D01*
X528777Y638703D01*
X528872Y639065D01*
X528976Y639424D01*
X529089Y639781D01*
X529211Y640134D01*
X529341Y640485D01*
X529480Y640832D01*
X529627Y641176D01*
X529783Y641516D01*
X529947Y641852D01*
X530120Y642184D01*
X530300Y642512D01*
X530488Y642835D01*
X530684Y643153D01*
X530888Y643467D01*
X531100Y643775D01*
X531319Y644078D01*
X531546Y644376D01*
X531779Y644668D01*
X532020Y644954D01*
X532268Y645235D01*
X532522Y645509D01*
X532784Y645776D01*
X533051Y646038D01*
X533325Y646292D01*
X533606Y646540D01*
X533892Y646781D01*
X534184Y647014D01*
X534482Y647241D01*
X534785Y647460D01*
X535093Y647672D01*
X535407Y647876D01*
X535725Y648072D01*
X536048Y648260D01*
X536376Y648440D01*
X536708Y648613D01*
X537044Y648777D01*
X537384Y648933D01*
X537728Y649080D01*
X538075Y649219D01*
X538426Y649349D01*
X538779Y649471D01*
X539136Y649584D01*
X539495Y649688D01*
X539857Y649783D01*
X540221Y649870D01*
X540587Y649947D01*
X540955Y650016D01*
X541324Y650075D01*
X541694Y650125D01*
X542066Y650167D01*
X542439Y650199D01*
X542812Y650222D01*
X543186Y650235D01*
X543560Y650240D01*
X543934Y650235D01*
X544308Y650222D01*
X544681Y650199D01*
X545054Y650167D01*
X545426Y650125D01*
X545796Y650075D01*
X546165Y650016D01*
X546533Y649947D01*
X546899Y649870D01*
X547263Y649783D01*
X547625Y649688D01*
X547984Y649584D01*
X548341Y649471D01*
X548694Y649349D01*
X549045Y649219D01*
X549392Y649080D01*
X549736Y648933D01*
X550076Y648777D01*
X550412Y648613D01*
X550744Y648440D01*
X551072Y648260D01*
X551395Y648072D01*
X551713Y647876D01*
X552027Y647672D01*
X552335Y647460D01*
X552638Y647241D01*
X552936Y647014D01*
X553228Y646781D01*
X553514Y646540D01*
X553795Y646292D01*
X554069Y646038D01*
X554336Y645776D01*
X554598Y645509D01*
X554852Y645235D01*
X555100Y644954D01*
X555341Y644668D01*
X555574Y644376D01*
X555801Y644078D01*
X556020Y643775D01*
X556232Y643467D01*
X556436Y643153D01*
X556632Y642835D01*
X556820Y642512D01*
X557000Y642184D01*
X557173Y641852D01*
X557337Y641516D01*
X557493Y641176D01*
X557640Y640832D01*
X557779Y640485D01*
X557909Y640134D01*
X558031Y639781D01*
X558144Y639424D01*
X558248Y639065D01*
X558343Y638703D01*
X558430Y638339D01*
X558507Y637973D01*
X558576Y637605D01*
X558635Y637236D01*
X558685Y636866D01*
X558727Y636494D01*
X558759Y636121D01*
X558782Y635748D01*
X558795Y635374D01*
X558800Y635000D01*
X558795Y634626D01*
X558782Y634252D01*
X558759Y633879D01*
X558727Y633506D01*
X558685Y633134D01*
X558635Y632764D01*
X558576Y632395D01*
X558507Y632027D01*
X558430Y631661D01*
X558343Y631297D01*
X558248Y630935D01*
X558144Y630576D01*
X558031Y630219D01*
X557909Y629866D01*
X557779Y629515D01*
X557640Y629168D01*
X557493Y628824D01*
X557337Y628484D01*
X557173Y628148D01*
X557000Y627816D01*
X556820Y627488D01*
X556632Y627165D01*
X556436Y626847D01*
X556232Y626533D01*
X556020Y626225D01*
X555801Y625922D01*
X555574Y625624D01*
X555341Y625332D01*
X555100Y625046D01*
X554852Y624765D01*
X554598Y624491D01*
X554336Y624224D01*
X554069Y623962D01*
X553795Y623708D01*
X553514Y623460D01*
X553228Y623219D01*
X552936Y622986D01*
X552638Y622759D01*
X552335Y622540D01*
X552027Y622328D01*
X551713Y622124D01*
X551395Y621928D01*
X551072Y621740D01*
X550744Y621560D01*
X550412Y621387D01*
X550076Y621223D01*
X549736Y621067D01*
X549392Y620920D01*
X549045Y620781D01*
X548694Y620651D01*
X548341Y620529D01*
X547984Y620416D01*
X547625Y620312D01*
X547263Y620217D01*
X546899Y620130D01*
X546533Y620053D01*
X546165Y619984D01*
X545796Y619925D01*
X545426Y619875D01*
X545054Y619833D01*
X544681Y619801D01*
X544308Y619778D01*
X543934Y619765D01*
X543560Y619760D01*
X543186Y619765D01*
X542812Y619778D01*
X542439Y619801D01*
X542066Y619833D01*
X541694Y619875D01*
X541324Y619925D01*
X540955Y619984D01*
X540587Y620053D01*
X540221Y620130D01*
X539857Y620217D01*
X539495Y620312D01*
X539136Y620416D01*
X538779Y620529D01*
X538426Y620651D01*
X538075Y620781D01*
X537728Y620920D01*
X537384Y621067D01*
X537044Y621223D01*
X536708Y621387D01*
X536376Y621560D01*
X536048Y621740D01*
X535725Y621928D01*
X535407Y622124D01*
X535093Y622328D01*
X534785Y622540D01*
X534482Y622759D01*
X534184Y622986D01*
X533892Y623219D01*
X533606Y623460D01*
X533325Y623708D01*
X533051Y623962D01*
X532784Y624224D01*
X532522Y624491D01*
X532268Y624765D01*
X532020Y625046D01*
X531779Y625332D01*
X531546Y625624D01*
X531319Y625922D01*
X531100Y626225D01*
X530888Y626533D01*
X530684Y626847D01*
X530488Y627165D01*
X530300Y627488D01*
X530120Y627816D01*
X529947Y628148D01*
X529783Y628484D01*
X529627Y628824D01*
X529480Y629168D01*
X529341Y629515D01*
X529211Y629866D01*
X529089Y630219D01*
X528976Y630576D01*
X528872Y630935D01*
X528777Y631297D01*
X528690Y631661D01*
X528613Y632027D01*
X528544Y632395D01*
X528485Y632764D01*
X528435Y633134D01*
X528393Y633506D01*
X528361Y633879D01*
X528338Y634252D01*
X528325Y634626D01*
X528320Y635000D01*
X10160Y25400D02*
X10165Y25774D01*
X10178Y26148D01*
X10201Y26521D01*
X10233Y26894D01*
X10275Y27266D01*
X10325Y27636D01*
X10384Y28005D01*
X10453Y28373D01*
X10530Y28739D01*
X10617Y29103D01*
X10712Y29465D01*
X10816Y29824D01*
X10929Y30181D01*
X11051Y30534D01*
X11181Y30885D01*
X11320Y31232D01*
X11467Y31576D01*
X11623Y31916D01*
X11787Y32252D01*
X11960Y32584D01*
X12140Y32912D01*
X12328Y33235D01*
X12524Y33553D01*
X12728Y33867D01*
X12940Y34175D01*
X13159Y34478D01*
X13386Y34776D01*
X13619Y35068D01*
X13860Y35354D01*
X14108Y35635D01*
X14362Y35909D01*
X14624Y36176D01*
X14891Y36438D01*
X15165Y36692D01*
X15446Y36940D01*
X15732Y37181D01*
X16024Y37414D01*
X16322Y37641D01*
X16625Y37860D01*
X16933Y38072D01*
X17247Y38276D01*
X17565Y38472D01*
X17888Y38660D01*
X18216Y38840D01*
X18548Y39013D01*
X18884Y39177D01*
X19224Y39333D01*
X19568Y39480D01*
X19915Y39619D01*
X20266Y39749D01*
X20619Y39871D01*
X20976Y39984D01*
X21335Y40088D01*
X21697Y40183D01*
X22061Y40270D01*
X22427Y40347D01*
X22795Y40416D01*
X23164Y40475D01*
X23534Y40525D01*
X23906Y40567D01*
X24279Y40599D01*
X24652Y40622D01*
X25026Y40635D01*
X25400Y40640D01*
X25774Y40635D01*
X26148Y40622D01*
X26521Y40599D01*
X26894Y40567D01*
X27266Y40525D01*
X27636Y40475D01*
X28005Y40416D01*
X28373Y40347D01*
X28739Y40270D01*
X29103Y40183D01*
X29465Y40088D01*
X29824Y39984D01*
X30181Y39871D01*
X30534Y39749D01*
X30885Y39619D01*
X31232Y39480D01*
X31576Y39333D01*
X31916Y39177D01*
X32252Y39013D01*
X32584Y38840D01*
X32912Y38660D01*
X33235Y38472D01*
X33553Y38276D01*
X33867Y38072D01*
X34175Y37860D01*
X34478Y37641D01*
X34776Y37414D01*
X35068Y37181D01*
X35354Y36940D01*
X35635Y36692D01*
X35909Y36438D01*
X36176Y36176D01*
X36438Y35909D01*
X36692Y35635D01*
X36940Y35354D01*
X37181Y35068D01*
X37414Y34776D01*
X37641Y34478D01*
X37860Y34175D01*
X38072Y33867D01*
X38276Y33553D01*
X38472Y33235D01*
X38660Y32912D01*
X38840Y32584D01*
X39013Y32252D01*
X39177Y31916D01*
X39333Y31576D01*
X39480Y31232D01*
X39619Y30885D01*
X39749Y30534D01*
X39871Y30181D01*
X39984Y29824D01*
X40088Y29465D01*
X40183Y29103D01*
X40270Y28739D01*
X40347Y28373D01*
X40416Y28005D01*
X40475Y27636D01*
X40525Y27266D01*
X40567Y26894D01*
X40599Y26521D01*
X40622Y26148D01*
X40635Y25774D01*
X40640Y25400D01*
X40635Y25026D01*
X40622Y24652D01*
X40599Y24279D01*
X40567Y23906D01*
X40525Y23534D01*
X40475Y23164D01*
X40416Y22795D01*
X40347Y22427D01*
X40270Y22061D01*
X40183Y21697D01*
X40088Y21335D01*
X39984Y20976D01*
X39871Y20619D01*
X39749Y20266D01*
X39619Y19915D01*
X39480Y19568D01*
X39333Y19224D01*
X39177Y18884D01*
X39013Y18548D01*
X38840Y18216D01*
X38660Y17888D01*
X38472Y17565D01*
X38276Y17247D01*
X38072Y16933D01*
X37860Y16625D01*
X37641Y16322D01*
X37414Y16024D01*
X37181Y15732D01*
X36940Y15446D01*
X36692Y15165D01*
X36438Y14891D01*
X36176Y14624D01*
X35909Y14362D01*
X35635Y14108D01*
X35354Y13860D01*
X35068Y13619D01*
X34776Y13386D01*
X34478Y13159D01*
X34175Y12940D01*
X33867Y12728D01*
X33553Y12524D01*
X33235Y12328D01*
X32912Y12140D01*
X32584Y11960D01*
X32252Y11787D01*
X31916Y11623D01*
X31576Y11467D01*
X31232Y11320D01*
X30885Y11181D01*
X30534Y11051D01*
X30181Y10929D01*
X29824Y10816D01*
X29465Y10712D01*
X29103Y10617D01*
X28739Y10530D01*
X28373Y10453D01*
X28005Y10384D01*
X27636Y10325D01*
X27266Y10275D01*
X26894Y10233D01*
X26521Y10201D01*
X26148Y10178D01*
X25774Y10165D01*
X25400Y10160D01*
X25026Y10165D01*
X24652Y10178D01*
X24279Y10201D01*
X23906Y10233D01*
X23534Y10275D01*
X23164Y10325D01*
X22795Y10384D01*
X22427Y10453D01*
X22061Y10530D01*
X21697Y10617D01*
X21335Y10712D01*
X20976Y10816D01*
X20619Y10929D01*
X20266Y11051D01*
X19915Y11181D01*
X19568Y11320D01*
X19224Y11467D01*
X18884Y11623D01*
X18548Y11787D01*
X18216Y11960D01*
X17888Y12140D01*
X17565Y12328D01*
X17247Y12524D01*
X16933Y12728D01*
X16625Y12940D01*
X16322Y13159D01*
X16024Y13386D01*
X15732Y13619D01*
X15446Y13860D01*
X15165Y14108D01*
X14891Y14362D01*
X14624Y14624D01*
X14362Y14891D01*
X14108Y15165D01*
X13860Y15446D01*
X13619Y15732D01*
X13386Y16024D01*
X13159Y16322D01*
X12940Y16625D01*
X12728Y16933D01*
X12524Y17247D01*
X12328Y17565D01*
X12140Y17888D01*
X11960Y18216D01*
X11787Y18548D01*
X11623Y18884D01*
X11467Y19224D01*
X11320Y19568D01*
X11181Y19915D01*
X11051Y20266D01*
X10929Y20619D01*
X10816Y20976D01*
X10712Y21335D01*
X10617Y21697D01*
X10530Y22061D01*
X10453Y22427D01*
X10384Y22795D01*
X10325Y23164D01*
X10275Y23534D01*
X10233Y23906D01*
X10201Y24279D01*
X10178Y24652D01*
X10165Y25026D01*
X10160Y25400D01*
X528320Y25400D02*
X528325Y25774D01*
X528338Y26148D01*
X528361Y26521D01*
X528393Y26894D01*
X528435Y27266D01*
X528485Y27636D01*
X528544Y28005D01*
X528613Y28373D01*
X528690Y28739D01*
X528777Y29103D01*
X528872Y29465D01*
X528976Y29824D01*
X529089Y30181D01*
X529211Y30534D01*
X529341Y30885D01*
X529480Y31232D01*
X529627Y31576D01*
X529783Y31916D01*
X529947Y32252D01*
X530120Y32584D01*
X530300Y32912D01*
X530488Y33235D01*
X530684Y33553D01*
X530888Y33867D01*
X531100Y34175D01*
X531319Y34478D01*
X531546Y34776D01*
X531779Y35068D01*
X532020Y35354D01*
X532268Y35635D01*
X532522Y35909D01*
X532784Y36176D01*
X533051Y36438D01*
X533325Y36692D01*
X533606Y36940D01*
X533892Y37181D01*
X534184Y37414D01*
X534482Y37641D01*
X534785Y37860D01*
X535093Y38072D01*
X535407Y38276D01*
X535725Y38472D01*
X536048Y38660D01*
X536376Y38840D01*
X536708Y39013D01*
X537044Y39177D01*
X537384Y39333D01*
X537728Y39480D01*
X538075Y39619D01*
X538426Y39749D01*
X538779Y39871D01*
X539136Y39984D01*
X539495Y40088D01*
X539857Y40183D01*
X540221Y40270D01*
X540587Y40347D01*
X540955Y40416D01*
X541324Y40475D01*
X541694Y40525D01*
X542066Y40567D01*
X542439Y40599D01*
X542812Y40622D01*
X543186Y40635D01*
X543560Y40640D01*
X543934Y40635D01*
X544308Y40622D01*
X544681Y40599D01*
X545054Y40567D01*
X545426Y40525D01*
X545796Y40475D01*
X546165Y40416D01*
X546533Y40347D01*
X546899Y40270D01*
X547263Y40183D01*
X547625Y40088D01*
X547984Y39984D01*
X548341Y39871D01*
X548694Y39749D01*
X549045Y39619D01*
X549392Y39480D01*
X549736Y39333D01*
X550076Y39177D01*
X550412Y39013D01*
X550744Y38840D01*
X551072Y38660D01*
X551395Y38472D01*
X551713Y38276D01*
X552027Y38072D01*
X552335Y37860D01*
X552638Y37641D01*
X552936Y37414D01*
X553228Y37181D01*
X553514Y36940D01*
X553795Y36692D01*
X554069Y36438D01*
X554336Y36176D01*
X554598Y35909D01*
X554852Y35635D01*
X555100Y35354D01*
X555341Y35068D01*
X555574Y34776D01*
X555801Y34478D01*
X556020Y34175D01*
X556232Y33867D01*
X556436Y33553D01*
X556632Y33235D01*
X556820Y32912D01*
X557000Y32584D01*
X557173Y32252D01*
X557337Y31916D01*
X557493Y31576D01*
X557640Y31232D01*
X557779Y30885D01*
X557909Y30534D01*
X558031Y30181D01*
X558144Y29824D01*
X558248Y29465D01*
X558343Y29103D01*
X558430Y28739D01*
X558507Y28373D01*
X558576Y28005D01*
X558635Y27636D01*
X558685Y27266D01*
X558727Y26894D01*
X558759Y26521D01*
X558782Y26148D01*
X558795Y25774D01*
X558800Y25400D01*
X558795Y25026D01*
X558782Y24652D01*
X558759Y24279D01*
X558727Y23906D01*
X558685Y23534D01*
X558635Y23164D01*
X558576Y22795D01*
X558507Y22427D01*
X558430Y22061D01*
X558343Y21697D01*
X558248Y21335D01*
X558144Y20976D01*
X558031Y20619D01*
X557909Y20266D01*
X557779Y19915D01*
X557640Y19568D01*
X557493Y19224D01*
X557337Y18884D01*
X557173Y18548D01*
X557000Y18216D01*
X556820Y17888D01*
X556632Y17565D01*
X556436Y17247D01*
X556232Y16933D01*
X556020Y16625D01*
X555801Y16322D01*
X555574Y16024D01*
X555341Y15732D01*
X555100Y15446D01*
X554852Y15165D01*
X554598Y14891D01*
X554336Y14624D01*
X554069Y14362D01*
X553795Y14108D01*
X553514Y13860D01*
X553228Y13619D01*
X552936Y13386D01*
X552638Y13159D01*
X552335Y12940D01*
X552027Y12728D01*
X551713Y12524D01*
X551395Y12328D01*
X551072Y12140D01*
X550744Y11960D01*
X550412Y11787D01*
X550076Y11623D01*
X549736Y11467D01*
X549392Y11320D01*
X549045Y11181D01*
X548694Y11051D01*
X548341Y10929D01*
X547984Y10816D01*
X547625Y10712D01*
X547263Y10617D01*
X546899Y10530D01*
X546533Y10453D01*
X546165Y10384D01*
X545796Y10325D01*
X545426Y10275D01*
X545054Y10233D01*
X544681Y10201D01*
X544308Y10178D01*
X543934Y10165D01*
X543560Y10160D01*
X543186Y10165D01*
X542812Y10178D01*
X542439Y10201D01*
X542066Y10233D01*
X541694Y10275D01*
X541324Y10325D01*
X540955Y10384D01*
X540587Y10453D01*
X540221Y10530D01*
X539857Y10617D01*
X539495Y10712D01*
X539136Y10816D01*
X538779Y10929D01*
X538426Y11051D01*
X538075Y11181D01*
X537728Y11320D01*
X537384Y11467D01*
X537044Y11623D01*
X536708Y11787D01*
X536376Y11960D01*
X536048Y12140D01*
X535725Y12328D01*
X535407Y12524D01*
X535093Y12728D01*
X534785Y12940D01*
X534482Y13159D01*
X534184Y13386D01*
X533892Y13619D01*
X533606Y13860D01*
X533325Y14108D01*
X533051Y14362D01*
X532784Y14624D01*
X532522Y14891D01*
X532268Y15165D01*
X532020Y15446D01*
X531779Y15732D01*
X531546Y16024D01*
X531319Y16322D01*
X531100Y16625D01*
X530888Y16933D01*
X530684Y17247D01*
X530488Y17565D01*
X530300Y17888D01*
X530120Y18216D01*
X529947Y18548D01*
X529783Y18884D01*
X529627Y19224D01*
X529480Y19568D01*
X529341Y19915D01*
X529211Y20266D01*
X529089Y20619D01*
X528976Y20976D01*
X528872Y21335D01*
X528777Y21697D01*
X528690Y22061D01*
X528613Y22427D01*
X528544Y22795D01*
X528485Y23164D01*
X528435Y23534D01*
X528393Y23906D01*
X528361Y24279D01*
X528338Y24652D01*
X528325Y25026D01*
X528320Y25400D01*
D15*
X0Y0D02*
X568960Y0D01*
X568706Y161290D01*
X550418Y161290D01*
X550672Y245364D01*
X568960Y245364D01*
X568960Y294386D01*
X497840Y294386D01*
X497840Y364998D01*
X568960Y364998D01*
X568960Y660400D01*
X0Y660400D01*
X0Y0D01*
X47567Y139950D02*
X47145Y140006D01*
X46733Y140116D01*
X46339Y140279D01*
X45971Y140492D01*
X45633Y140751D01*
X45331Y141053D01*
X45072Y141391D01*
X44859Y141759D01*
X44696Y142153D01*
X44586Y142565D01*
X44530Y142987D01*
X44530Y143413D01*
X44586Y143835D01*
X44696Y144247D01*
X44859Y144641D01*
X45072Y145009D01*
X45331Y145347D01*
X45633Y145649D01*
X45971Y145908D01*
X46339Y146121D01*
X46733Y146284D01*
X47145Y146394D01*
X47567Y146450D01*
X47993Y146450D01*
X48415Y146394D01*
X48827Y146284D01*
X49221Y146121D01*
X49589Y145908D01*
X49927Y145649D01*
X50229Y145347D01*
X50488Y145009D01*
X50701Y144641D01*
X50864Y144247D01*
X50974Y143835D01*
X51030Y143413D01*
X51030Y142987D01*
X50974Y142565D01*
X50864Y142153D01*
X50701Y141759D01*
X50488Y141391D01*
X50229Y141053D01*
X49927Y140751D01*
X49589Y140492D01*
X49221Y140279D01*
X48827Y140116D01*
X48415Y140006D01*
X47993Y139950D01*
X47567Y139950D01*
X47567Y82150D02*
X47145Y82206D01*
X46733Y82316D01*
X46339Y82479D01*
X45971Y82692D01*
X45633Y82951D01*
X45331Y83253D01*
X45072Y83591D01*
X44859Y83959D01*
X44696Y84353D01*
X44586Y84765D01*
X44530Y85187D01*
X44530Y85613D01*
X44586Y86035D01*
X44696Y86447D01*
X44859Y86841D01*
X45072Y87209D01*
X45331Y87547D01*
X45633Y87849D01*
X45971Y88108D01*
X46339Y88321D01*
X46733Y88484D01*
X47145Y88594D01*
X47567Y88650D01*
X47993Y88650D01*
X48415Y88594D01*
X48827Y88484D01*
X49221Y88321D01*
X49589Y88108D01*
X49927Y87849D01*
X50229Y87547D01*
X50488Y87209D01*
X50701Y86841D01*
X50864Y86447D01*
X50974Y86035D01*
X51030Y85613D01*
X51030Y85187D01*
X50974Y84765D01*
X50864Y84353D01*
X50701Y83959D01*
X50488Y83591D01*
X50229Y83253D01*
X49927Y82951D01*
X49589Y82692D01*
X49221Y82479D01*
X48827Y82316D01*
X48415Y82206D01*
X47993Y82150D01*
X47567Y82150D01*
X301951Y49440D02*
X301337Y49509D01*
X300735Y49647D01*
X300152Y49851D01*
X299595Y50119D01*
X299072Y50447D01*
X298589Y50833D01*
X298153Y51269D01*
X297767Y51752D01*
X297439Y52275D01*
X297171Y52832D01*
X296967Y53415D01*
X296829Y54017D01*
X296760Y54631D01*
X296760Y55249D01*
X296829Y55863D01*
X296967Y56465D01*
X297171Y57048D01*
X297439Y57605D01*
X297767Y58128D01*
X298153Y58611D01*
X298589Y59048D01*
X299072Y59433D01*
X299595Y59761D01*
X300152Y60029D01*
X300735Y60233D01*
X301337Y60371D01*
X301951Y60440D01*
X302569Y60440D01*
X303183Y60371D01*
X303785Y60233D01*
X304368Y60029D01*
X304925Y59761D01*
X305448Y59433D01*
X305931Y59048D01*
X306368Y58611D01*
X306753Y58128D01*
X307081Y57605D01*
X307349Y57048D01*
X307553Y56465D01*
X307691Y55863D01*
X307760Y55249D01*
X307760Y54631D01*
X307691Y54017D01*
X307553Y53415D01*
X307349Y52832D01*
X307081Y52275D01*
X306753Y51752D01*
X306368Y51269D01*
X305931Y50833D01*
X305448Y50447D01*
X304925Y50119D01*
X304368Y49851D01*
X303785Y49647D01*
X303183Y49509D01*
X302569Y49440D01*
X301951Y49440D01*
X301867Y246940D02*
X301085Y247017D01*
X300314Y247170D01*
X299562Y247399D01*
X298835Y247699D01*
X298142Y248070D01*
X297489Y248507D01*
X296881Y249005D01*
X296325Y249561D01*
X295827Y250169D01*
X295390Y250822D01*
X295019Y251515D01*
X294719Y252242D01*
X294490Y252994D01*
X294337Y253765D01*
X294260Y254547D01*
X294260Y255333D01*
X294337Y256115D01*
X294490Y256886D01*
X294719Y257638D01*
X295019Y258365D01*
X295390Y259058D01*
X295827Y259711D01*
X296325Y260319D01*
X296881Y260875D01*
X297489Y261373D01*
X298142Y261810D01*
X298835Y262181D01*
X299562Y262481D01*
X300314Y262710D01*
X301085Y262863D01*
X301867Y262940D01*
X302653Y262940D01*
X303435Y262863D01*
X304206Y262710D01*
X304958Y262481D01*
X305685Y262181D01*
X306378Y261810D01*
X307031Y261373D01*
X307639Y260875D01*
X308195Y260319D01*
X308693Y259711D01*
X309130Y259058D01*
X309501Y258365D01*
X309801Y257638D01*
X310030Y256886D01*
X310183Y256115D01*
X310260Y255333D01*
X310260Y254547D01*
X310183Y253765D01*
X310030Y252994D01*
X309801Y252242D01*
X309501Y251515D01*
X309130Y250822D01*
X308693Y250169D01*
X308195Y249561D01*
X307639Y249005D01*
X307031Y248507D01*
X306378Y248070D01*
X305685Y247699D01*
X304958Y247399D01*
X304206Y247170D01*
X303435Y247017D01*
X302653Y246940D01*
X301867Y246940D01*
X47567Y573020D02*
X47145Y573076D01*
X46733Y573186D01*
X46339Y573349D01*
X45971Y573562D01*
X45633Y573821D01*
X45331Y574123D01*
X45072Y574461D01*
X44859Y574829D01*
X44696Y575223D01*
X44586Y575635D01*
X44530Y576057D01*
X44530Y576483D01*
X44586Y576905D01*
X44696Y577317D01*
X44859Y577711D01*
X45072Y578079D01*
X45331Y578417D01*
X45633Y578719D01*
X45971Y578978D01*
X46339Y579191D01*
X46733Y579354D01*
X47145Y579464D01*
X47567Y579520D01*
X47993Y579520D01*
X48415Y579464D01*
X48827Y579354D01*
X49221Y579191D01*
X49589Y578978D01*
X49927Y578719D01*
X50229Y578417D01*
X50488Y578079D01*
X50701Y577711D01*
X50864Y577317D01*
X50974Y576905D01*
X51030Y576483D01*
X51030Y576057D01*
X50974Y575635D01*
X50864Y575223D01*
X50701Y574829D01*
X50488Y574461D01*
X50229Y574123D01*
X49927Y573821D01*
X49589Y573562D01*
X49221Y573349D01*
X48827Y573186D01*
X48415Y573076D01*
X47993Y573020D01*
X47567Y573020D01*
X47567Y515220D02*
X47145Y515276D01*
X46733Y515386D01*
X46339Y515549D01*
X45971Y515762D01*
X45633Y516021D01*
X45331Y516323D01*
X45072Y516661D01*
X44859Y517029D01*
X44696Y517423D01*
X44586Y517835D01*
X44530Y518257D01*
X44530Y518683D01*
X44586Y519105D01*
X44696Y519517D01*
X44859Y519911D01*
X45072Y520279D01*
X45331Y520617D01*
X45633Y520919D01*
X45971Y521178D01*
X46339Y521391D01*
X46733Y521554D01*
X47145Y521664D01*
X47567Y521720D01*
X47993Y521720D01*
X48415Y521664D01*
X48827Y521554D01*
X49221Y521391D01*
X49589Y521178D01*
X49927Y520919D01*
X50229Y520617D01*
X50488Y520279D01*
X50701Y519911D01*
X50864Y519517D01*
X50974Y519105D01*
X51030Y518683D01*
X51030Y518257D01*
X50974Y517835D01*
X50864Y517423D01*
X50701Y517029D01*
X50488Y516661D01*
X50229Y516323D01*
X49927Y516021D01*
X49589Y515762D01*
X49221Y515549D01*
X48827Y515386D01*
X48415Y515276D01*
X47993Y515220D01*
X47567Y515220D01*
X40640Y634456D02*
X40562Y633370D01*
X40407Y632292D01*
X40176Y631229D01*
X39869Y630184D01*
X39489Y629164D01*
X39037Y628174D01*
X38515Y627219D01*
X37926Y626303D01*
X37274Y625431D01*
X36561Y624609D01*
X35791Y623839D01*
X34969Y623126D01*
X34097Y622474D01*
X33181Y621885D01*
X32226Y621363D01*
X31236Y620911D01*
X30216Y620531D01*
X29171Y620224D01*
X28108Y619993D01*
X27030Y619838D01*
X25944Y619760D01*
X24856Y619760D01*
X23770Y619838D01*
X22692Y619993D01*
X21629Y620224D01*
X20584Y620531D01*
X19564Y620911D01*
X18574Y621363D01*
X17619Y621885D01*
X16703Y622474D01*
X15831Y623126D01*
X15009Y623839D01*
X14239Y624609D01*
X13526Y625431D01*
X12874Y626303D01*
X12285Y627219D01*
X11763Y628174D01*
X11311Y629164D01*
X10931Y630184D01*
X10624Y631229D01*
X10393Y632292D01*
X10238Y633370D01*
X10160Y634456D01*
X10160Y635544D01*
X10238Y636630D01*
X10393Y637708D01*
X10624Y638771D01*
X10931Y639816D01*
X11311Y640836D01*
X11763Y641826D01*
X12285Y642781D01*
X12874Y643697D01*
X13526Y644569D01*
X14239Y645391D01*
X15009Y646161D01*
X15831Y646874D01*
X16703Y647526D01*
X17619Y648115D01*
X18574Y648637D01*
X19564Y649089D01*
X20584Y649469D01*
X21629Y649776D01*
X22692Y650007D01*
X23770Y650162D01*
X24856Y650240D01*
X25944Y650240D01*
X27030Y650162D01*
X28108Y650007D01*
X29171Y649776D01*
X30216Y649469D01*
X31236Y649089D01*
X32226Y648637D01*
X33181Y648115D01*
X34097Y647526D01*
X34969Y646874D01*
X35791Y646161D01*
X36561Y645391D01*
X37274Y644569D01*
X37926Y643697D01*
X38515Y642781D01*
X39037Y641826D01*
X39489Y640836D01*
X39869Y639816D01*
X40176Y638771D01*
X40407Y637708D01*
X40562Y636630D01*
X40640Y635544D01*
X40640Y634456D01*
X558800Y634456D02*
X558722Y633370D01*
X558567Y632292D01*
X558336Y631229D01*
X558029Y630184D01*
X557649Y629164D01*
X557197Y628174D01*
X556675Y627219D01*
X556086Y626303D01*
X555434Y625431D01*
X554721Y624609D01*
X553951Y623839D01*
X553129Y623126D01*
X552257Y622474D01*
X551341Y621885D01*
X550386Y621363D01*
X549396Y620911D01*
X548376Y620531D01*
X547331Y620224D01*
X546268Y619993D01*
X545190Y619838D01*
X544104Y619760D01*
X543016Y619760D01*
X541930Y619838D01*
X540852Y619993D01*
X539789Y620224D01*
X538744Y620531D01*
X537724Y620911D01*
X536734Y621363D01*
X535779Y621885D01*
X534863Y622474D01*
X533991Y623126D01*
X533169Y623839D01*
X532399Y624609D01*
X531686Y625431D01*
X531034Y626303D01*
X530445Y627219D01*
X529923Y628174D01*
X529471Y629164D01*
X529091Y630184D01*
X528784Y631229D01*
X528553Y632292D01*
X528398Y633370D01*
X528320Y634456D01*
X528320Y635544D01*
X528398Y636630D01*
X528553Y637708D01*
X528784Y638771D01*
X529091Y639816D01*
X529471Y640836D01*
X529923Y641826D01*
X530445Y642781D01*
X531034Y643697D01*
X531686Y644569D01*
X532399Y645391D01*
X533169Y646161D01*
X533991Y646874D01*
X534863Y647526D01*
X535779Y648115D01*
X536734Y648637D01*
X537724Y649089D01*
X538744Y649469D01*
X539789Y649776D01*
X540852Y650007D01*
X541930Y650162D01*
X543016Y650240D01*
X544104Y650240D01*
X545190Y650162D01*
X546268Y650007D01*
X547331Y649776D01*
X548376Y649469D01*
X549396Y649089D01*
X550386Y648637D01*
X551341Y648115D01*
X552257Y647526D01*
X553129Y646874D01*
X553951Y646161D01*
X554721Y645391D01*
X555434Y644569D01*
X556086Y643697D01*
X556675Y642781D01*
X557197Y641826D01*
X557649Y640836D01*
X558029Y639816D01*
X558336Y638771D01*
X558567Y637708D01*
X558722Y636630D01*
X558800Y635544D01*
X558800Y634456D01*
X40640Y24856D02*
X40562Y23770D01*
X40407Y22692D01*
X40176Y21629D01*
X39869Y20584D01*
X39489Y19564D01*
X39037Y18574D01*
X38515Y17619D01*
X37926Y16703D01*
X37274Y15831D01*
X36561Y15009D01*
X35791Y14239D01*
X34969Y13526D01*
X34097Y12874D01*
X33181Y12285D01*
X32226Y11763D01*
X31236Y11311D01*
X30216Y10931D01*
X29171Y10624D01*
X28108Y10393D01*
X27030Y10238D01*
X25944Y10160D01*
X24856Y10160D01*
X23770Y10238D01*
X22692Y10393D01*
X21629Y10624D01*
X20584Y10931D01*
X19564Y11311D01*
X18574Y11763D01*
X17619Y12285D01*
X16703Y12874D01*
X15831Y13526D01*
X15009Y14239D01*
X14239Y15009D01*
X13526Y15831D01*
X12874Y16703D01*
X12285Y17619D01*
X11763Y18574D01*
X11311Y19564D01*
X10931Y20584D01*
X10624Y21629D01*
X10393Y22692D01*
X10238Y23770D01*
X10160Y24856D01*
X10160Y25944D01*
X10238Y27030D01*
X10393Y28108D01*
X10624Y29171D01*
X10931Y30216D01*
X11311Y31236D01*
X11763Y32226D01*
X12285Y33181D01*
X12874Y34097D01*
X13526Y34969D01*
X14239Y35791D01*
X15009Y36561D01*
X15831Y37274D01*
X16703Y37926D01*
X17619Y38515D01*
X18574Y39037D01*
X19564Y39489D01*
X20584Y39869D01*
X21629Y40176D01*
X22692Y40407D01*
X23770Y40562D01*
X24856Y40640D01*
X25944Y40640D01*
X27030Y40562D01*
X28108Y40407D01*
X29171Y40176D01*
X30216Y39869D01*
X31236Y39489D01*
X32226Y39037D01*
X33181Y38515D01*
X34097Y37926D01*
X34969Y37274D01*
X35791Y36561D01*
X36561Y35791D01*
X37274Y34969D01*
X37926Y34097D01*
X38515Y33181D01*
X39037Y32226D01*
X39489Y31236D01*
X39869Y30216D01*
X40176Y29171D01*
X40407Y28108D01*
X40562Y27030D01*
X40640Y25944D01*
X40640Y24856D01*
X558800Y24856D02*
X558722Y23770D01*
X558567Y22692D01*
X558336Y21629D01*
X558029Y20584D01*
X557649Y19564D01*
X557197Y18574D01*
X556675Y17619D01*
X556086Y16703D01*
X555434Y15831D01*
X554721Y15009D01*
X553951Y14239D01*
X553129Y13526D01*
X552257Y12874D01*
X551341Y12285D01*
X550386Y11763D01*
X549396Y11311D01*
X548376Y10931D01*
X547331Y10624D01*
X546268Y10393D01*
X545190Y10238D01*
X544104Y10160D01*
X543016Y10160D01*
X541930Y10238D01*
X540852Y10393D01*
X539789Y10624D01*
X538744Y10931D01*
X537724Y11311D01*
X536734Y11763D01*
X535779Y12285D01*
X534863Y12874D01*
X533991Y13526D01*
X533169Y14239D01*
X532399Y15009D01*
X531686Y15831D01*
X531034Y16703D01*
X530445Y17619D01*
X529923Y18574D01*
X529471Y19564D01*
X529091Y20584D01*
X528784Y21629D01*
X528553Y22692D01*
X528398Y23770D01*
X528320Y24856D01*
X528320Y25944D01*
X528398Y27030D01*
X528553Y28108D01*
X528784Y29171D01*
X529091Y30216D01*
X529471Y31236D01*
X529923Y32226D01*
X530445Y33181D01*
X531034Y34097D01*
X531686Y34969D01*
X532399Y35791D01*
X533169Y36561D01*
X533991Y37274D01*
X534863Y37926D01*
X535779Y38515D01*
X536734Y39037D01*
X537724Y39489D01*
X538744Y39869D01*
X539789Y40176D01*
X540852Y40407D01*
X541930Y40562D01*
X543016Y40640D01*
X544104Y40640D01*
X545190Y40562D01*
X546268Y40407D01*
X547331Y40176D01*
X548376Y39869D01*
X549396Y39489D01*
X550386Y39037D01*
X551341Y38515D01*
X552257Y37926D01*
X553129Y37274D01*
X553951Y36561D01*
X554721Y35791D01*
X555434Y34969D01*
X556086Y34097D01*
X556675Y33181D01*
X557197Y32226D01*
X557649Y31236D01*
X558029Y30216D01*
X558336Y29171D01*
X558567Y28108D01*
X558722Y27030D01*
X558800Y25944D01*
X558800Y24856D01*
M02*
