G04 EAGLE Gerber RS-274X export*
G75*
%MOMM*%
%FSLAX34Y34*%
%LPD*%
%INSolderpaste Top*%
%IPPOS*%
%AMOC8*
5,1,8,0,0,1.08239X$1,22.5*%
G01*
%ADD10R,1.000000X0.300000*%
%ADD11R,1.000000X0.600000*%
%ADD12R,1.000000X1.100000*%
%ADD13R,1.375000X0.800000*%
%ADD14R,0.300000X0.650000*%
%ADD15R,1.100000X1.000000*%
%ADD16R,1.700000X4.200000*%
%ADD17R,0.630000X0.830000*%
%ADD18R,0.762000X1.524000*%
%ADD19R,1.000000X2.800000*%
%ADD20R,1.400000X1.600000*%
%ADD21R,0.830000X0.630000*%
%ADD22R,2.750000X1.200000*%
%ADD23R,1.750000X0.300000*%
%ADD24C,0.300000*%
%ADD25R,0.850000X1.520000*%
%ADD26R,1.520000X0.850000*%
%ADD27R,0.900000X0.900000*%
%ADD28R,0.550000X0.800000*%
%ADD29R,0.550000X0.500000*%
%ADD30R,0.600000X0.600000*%
%ADD31R,0.610000X0.250000*%
%ADD32R,0.560000X0.250000*%
%ADD33R,2.400000X1.100000*%
%ADD34R,7.000000X1.250000*%
%ADD35R,2.000000X1.200000*%
%ADD36R,1.350000X0.600000*%

G36*
X498217Y84319D02*
X498217Y84319D01*
X498262Y84320D01*
X498313Y84342D01*
X498368Y84355D01*
X498404Y84381D01*
X498444Y84399D01*
X498483Y84440D01*
X498528Y84473D01*
X498551Y84511D01*
X498581Y84543D01*
X498601Y84596D01*
X498630Y84644D01*
X498638Y84695D01*
X498651Y84729D01*
X498650Y84763D01*
X498657Y84808D01*
X498657Y95808D01*
X498647Y95861D01*
X498646Y95914D01*
X498627Y95957D01*
X498618Y96003D01*
X498587Y96047D01*
X498566Y96096D01*
X498532Y96128D01*
X498505Y96167D01*
X498460Y96196D01*
X498421Y96232D01*
X498370Y96253D01*
X498338Y96274D01*
X498306Y96279D01*
X498267Y96295D01*
X495532Y96906D01*
X492968Y97934D01*
X490604Y99361D01*
X488500Y101150D01*
X486711Y103254D01*
X485284Y105618D01*
X484256Y108182D01*
X483645Y110917D01*
X483623Y110966D01*
X483611Y111018D01*
X483583Y111056D01*
X483564Y111098D01*
X483525Y111135D01*
X483493Y111178D01*
X483453Y111202D01*
X483419Y111234D01*
X483368Y111252D01*
X483322Y111280D01*
X483268Y111289D01*
X483232Y111302D01*
X483200Y111300D01*
X483158Y111307D01*
X472158Y111307D01*
X472103Y111296D01*
X472047Y111295D01*
X472006Y111276D01*
X471963Y111268D01*
X471917Y111236D01*
X471866Y111213D01*
X471836Y111180D01*
X471799Y111155D01*
X471769Y111108D01*
X471731Y111066D01*
X471716Y111025D01*
X471692Y110988D01*
X471683Y110932D01*
X471664Y110879D01*
X471665Y110827D01*
X471659Y110791D01*
X471667Y110759D01*
X471667Y110754D01*
X471667Y110752D01*
X471667Y110751D01*
X471668Y110713D01*
X472507Y106392D01*
X472519Y106363D01*
X472527Y106321D01*
X473996Y102171D01*
X474012Y102144D01*
X474026Y102104D01*
X476092Y98217D01*
X476112Y98193D01*
X476131Y98155D01*
X478749Y94616D01*
X478773Y94595D01*
X478798Y94560D01*
X481910Y91448D01*
X481925Y91438D01*
X481933Y91427D01*
X481948Y91418D01*
X481966Y91399D01*
X485505Y88781D01*
X485533Y88768D01*
X485567Y88742D01*
X489454Y86676D01*
X489484Y86667D01*
X489521Y86646D01*
X493671Y85177D01*
X493702Y85172D01*
X493742Y85157D01*
X498063Y84318D01*
X498119Y84318D01*
X498175Y84309D01*
X498217Y84319D01*
G37*
G36*
X483211Y118319D02*
X483211Y118319D01*
X483264Y118320D01*
X483307Y118339D01*
X483353Y118348D01*
X483397Y118379D01*
X483446Y118400D01*
X483478Y118434D01*
X483517Y118461D01*
X483546Y118506D01*
X483582Y118545D01*
X483603Y118596D01*
X483624Y118628D01*
X483629Y118660D01*
X483645Y118699D01*
X484256Y121434D01*
X485284Y123998D01*
X486711Y126362D01*
X488500Y128466D01*
X490604Y130255D01*
X492968Y131682D01*
X495532Y132710D01*
X498267Y133321D01*
X498316Y133343D01*
X498368Y133355D01*
X498406Y133383D01*
X498448Y133402D01*
X498485Y133441D01*
X498528Y133473D01*
X498552Y133513D01*
X498584Y133547D01*
X498602Y133598D01*
X498630Y133644D01*
X498639Y133698D01*
X498652Y133734D01*
X498650Y133766D01*
X498657Y133808D01*
X498657Y144808D01*
X498646Y144863D01*
X498645Y144919D01*
X498626Y144960D01*
X498618Y145003D01*
X498586Y145049D01*
X498563Y145101D01*
X498530Y145130D01*
X498505Y145167D01*
X498458Y145197D01*
X498416Y145235D01*
X498375Y145250D01*
X498338Y145274D01*
X498282Y145283D01*
X498229Y145302D01*
X498177Y145301D01*
X498141Y145307D01*
X498109Y145299D01*
X498063Y145298D01*
X493742Y144459D01*
X493713Y144447D01*
X493671Y144439D01*
X489521Y142970D01*
X489494Y142954D01*
X489454Y142940D01*
X485567Y140874D01*
X485543Y140854D01*
X485505Y140835D01*
X481966Y138217D01*
X481945Y138193D01*
X481910Y138168D01*
X478798Y135056D01*
X478780Y135030D01*
X478749Y135000D01*
X476131Y131462D01*
X476118Y131433D01*
X476092Y131399D01*
X474026Y127512D01*
X474019Y127489D01*
X474010Y127475D01*
X474009Y127467D01*
X473996Y127445D01*
X472527Y123295D01*
X472522Y123264D01*
X472507Y123224D01*
X471668Y118903D01*
X471668Y118847D01*
X471659Y118791D01*
X471669Y118749D01*
X471670Y118704D01*
X471692Y118653D01*
X471705Y118598D01*
X471731Y118563D01*
X471749Y118522D01*
X471790Y118483D01*
X471823Y118438D01*
X471861Y118415D01*
X471893Y118385D01*
X471946Y118365D01*
X471994Y118336D01*
X472045Y118328D01*
X472079Y118315D01*
X472113Y118316D01*
X472158Y118309D01*
X483158Y118309D01*
X483211Y118319D01*
G37*
G36*
X532213Y118320D02*
X532213Y118320D01*
X532269Y118321D01*
X532310Y118340D01*
X532353Y118348D01*
X532399Y118380D01*
X532451Y118403D01*
X532480Y118436D01*
X532517Y118461D01*
X532547Y118508D01*
X532585Y118550D01*
X532600Y118591D01*
X532624Y118628D01*
X532633Y118684D01*
X532652Y118737D01*
X532651Y118789D01*
X532657Y118825D01*
X532649Y118857D01*
X532648Y118903D01*
X531809Y123224D01*
X531797Y123253D01*
X531789Y123295D01*
X530320Y127445D01*
X530304Y127472D01*
X530295Y127499D01*
X530293Y127505D01*
X530292Y127507D01*
X530290Y127512D01*
X528224Y131399D01*
X528204Y131423D01*
X528185Y131462D01*
X525567Y135000D01*
X525543Y135021D01*
X525518Y135056D01*
X522406Y138168D01*
X522380Y138186D01*
X522350Y138217D01*
X518812Y140835D01*
X518783Y140848D01*
X518749Y140874D01*
X514862Y142940D01*
X514832Y142949D01*
X514795Y142970D01*
X510645Y144439D01*
X510614Y144444D01*
X510574Y144459D01*
X506253Y145298D01*
X506197Y145298D01*
X506141Y145307D01*
X506099Y145297D01*
X506054Y145296D01*
X506003Y145274D01*
X505948Y145261D01*
X505913Y145235D01*
X505872Y145217D01*
X505833Y145176D01*
X505788Y145143D01*
X505765Y145105D01*
X505735Y145073D01*
X505715Y145020D01*
X505686Y144972D01*
X505678Y144921D01*
X505665Y144887D01*
X505666Y144853D01*
X505659Y144808D01*
X505659Y133808D01*
X505669Y133755D01*
X505670Y133702D01*
X505689Y133659D01*
X505698Y133613D01*
X505729Y133569D01*
X505750Y133520D01*
X505784Y133488D01*
X505811Y133449D01*
X505856Y133420D01*
X505895Y133384D01*
X505946Y133363D01*
X505978Y133342D01*
X506010Y133337D01*
X506049Y133321D01*
X508784Y132710D01*
X511348Y131682D01*
X513712Y130255D01*
X515816Y128466D01*
X517605Y126362D01*
X519032Y123998D01*
X520060Y121434D01*
X520671Y118699D01*
X520693Y118650D01*
X520705Y118598D01*
X520733Y118560D01*
X520752Y118518D01*
X520791Y118481D01*
X520823Y118438D01*
X520863Y118414D01*
X520897Y118382D01*
X520948Y118364D01*
X520994Y118336D01*
X521048Y118327D01*
X521084Y118314D01*
X521116Y118316D01*
X521158Y118309D01*
X532158Y118309D01*
X532213Y118320D01*
G37*
G36*
X506207Y84317D02*
X506207Y84317D01*
X506253Y84318D01*
X510574Y85157D01*
X510603Y85169D01*
X510645Y85177D01*
X514795Y86646D01*
X514822Y86662D01*
X514862Y86676D01*
X518749Y88742D01*
X518773Y88762D01*
X518812Y88781D01*
X522350Y91399D01*
X522371Y91423D01*
X522406Y91448D01*
X525518Y94560D01*
X525536Y94587D01*
X525567Y94616D01*
X528185Y98155D01*
X528198Y98183D01*
X528224Y98217D01*
X530290Y102104D01*
X530299Y102134D01*
X530320Y102171D01*
X531789Y106321D01*
X531794Y106352D01*
X531809Y106392D01*
X532648Y110713D01*
X532648Y110769D01*
X532657Y110825D01*
X532647Y110867D01*
X532646Y110912D01*
X532624Y110963D01*
X532611Y111018D01*
X532585Y111054D01*
X532567Y111094D01*
X532526Y111133D01*
X532493Y111178D01*
X532455Y111201D01*
X532423Y111231D01*
X532370Y111251D01*
X532322Y111280D01*
X532271Y111288D01*
X532237Y111301D01*
X532203Y111300D01*
X532158Y111307D01*
X521158Y111307D01*
X521105Y111297D01*
X521052Y111296D01*
X521009Y111277D01*
X520963Y111268D01*
X520919Y111237D01*
X520870Y111216D01*
X520838Y111182D01*
X520799Y111155D01*
X520770Y111110D01*
X520734Y111071D01*
X520713Y111020D01*
X520692Y110988D01*
X520687Y110956D01*
X520684Y110950D01*
X520683Y110949D01*
X520683Y110948D01*
X520671Y110917D01*
X520060Y108182D01*
X519032Y105618D01*
X517605Y103254D01*
X515816Y101150D01*
X513712Y99361D01*
X511348Y97934D01*
X508784Y96906D01*
X506049Y96295D01*
X506000Y96273D01*
X505948Y96261D01*
X505910Y96233D01*
X505868Y96214D01*
X505831Y96175D01*
X505788Y96143D01*
X505764Y96103D01*
X505732Y96069D01*
X505714Y96018D01*
X505686Y95972D01*
X505677Y95918D01*
X505664Y95882D01*
X505666Y95850D01*
X505659Y95808D01*
X505659Y84808D01*
X505670Y84753D01*
X505671Y84697D01*
X505690Y84656D01*
X505698Y84613D01*
X505730Y84567D01*
X505753Y84516D01*
X505786Y84486D01*
X505811Y84449D01*
X505858Y84419D01*
X505900Y84381D01*
X505941Y84366D01*
X505978Y84342D01*
X506034Y84333D01*
X506087Y84314D01*
X506139Y84315D01*
X506175Y84309D01*
X506207Y84317D01*
G37*
G36*
X111906Y435236D02*
X111906Y435236D01*
X111923Y435233D01*
X111973Y435255D01*
X112024Y435270D01*
X112035Y435283D01*
X112051Y435290D01*
X112081Y435335D01*
X112116Y435375D01*
X112119Y435392D01*
X112128Y435407D01*
X112139Y435480D01*
X112139Y459480D01*
X112127Y459522D01*
X112124Y459566D01*
X112108Y459588D01*
X112100Y459614D01*
X112067Y459643D01*
X112041Y459678D01*
X112015Y459688D01*
X111995Y459706D01*
X111951Y459713D01*
X111911Y459728D01*
X111884Y459723D01*
X111857Y459727D01*
X111816Y459709D01*
X111774Y459700D01*
X111738Y459674D01*
X111729Y459670D01*
X111725Y459665D01*
X111714Y459656D01*
X87714Y435656D01*
X87693Y435618D01*
X87664Y435585D01*
X87660Y435558D01*
X87647Y435534D01*
X87650Y435490D01*
X87643Y435447D01*
X87654Y435422D01*
X87656Y435394D01*
X87682Y435359D01*
X87700Y435319D01*
X87723Y435304D01*
X87739Y435282D01*
X87780Y435266D01*
X87817Y435242D01*
X87860Y435235D01*
X87869Y435232D01*
X87876Y435233D01*
X87890Y435231D01*
X111890Y435231D01*
X111906Y435236D01*
G37*
G36*
X439042Y228617D02*
X439042Y228617D01*
X439069Y228613D01*
X439110Y228631D01*
X439152Y228640D01*
X439188Y228666D01*
X439197Y228670D01*
X439201Y228675D01*
X439212Y228684D01*
X463212Y252684D01*
X463233Y252722D01*
X463262Y252755D01*
X463266Y252782D01*
X463279Y252806D01*
X463276Y252850D01*
X463283Y252893D01*
X463272Y252919D01*
X463270Y252946D01*
X463244Y252981D01*
X463226Y253021D01*
X463203Y253036D01*
X463187Y253058D01*
X463146Y253074D01*
X463110Y253098D01*
X463066Y253105D01*
X463057Y253108D01*
X463050Y253107D01*
X463036Y253109D01*
X439036Y253109D01*
X439020Y253104D01*
X439003Y253107D01*
X438953Y253085D01*
X438902Y253070D01*
X438891Y253057D01*
X438875Y253050D01*
X438845Y253005D01*
X438810Y252965D01*
X438807Y252948D01*
X438798Y252934D01*
X438787Y252860D01*
X438787Y228860D01*
X438799Y228818D01*
X438802Y228774D01*
X438818Y228752D01*
X438826Y228726D01*
X438859Y228697D01*
X438885Y228662D01*
X438911Y228652D01*
X438931Y228634D01*
X438975Y228627D01*
X439015Y228612D01*
X439042Y228617D01*
G37*
G36*
X59035Y499124D02*
X59035Y499124D01*
X59038Y499121D01*
X60133Y499301D01*
X60139Y499307D01*
X60144Y499304D01*
X61172Y499723D01*
X61176Y499730D01*
X61181Y499728D01*
X62090Y500366D01*
X62093Y500373D01*
X62098Y500373D01*
X62842Y501196D01*
X62843Y501204D01*
X62849Y501205D01*
X63391Y502173D01*
X63390Y502182D01*
X63396Y502184D01*
X63709Y503248D01*
X63706Y503256D01*
X63711Y503259D01*
X63779Y504367D01*
X63775Y504374D01*
X63779Y504377D01*
X63609Y505485D01*
X63603Y505491D01*
X63606Y505496D01*
X63194Y506538D01*
X63187Y506542D01*
X63189Y506547D01*
X62555Y507472D01*
X62547Y507474D01*
X62548Y507480D01*
X61725Y508240D01*
X61716Y508241D01*
X61716Y508247D01*
X60744Y508804D01*
X60736Y508803D01*
X60734Y508809D01*
X59662Y509136D01*
X59654Y509133D01*
X59651Y509138D01*
X58534Y509219D01*
X58531Y509218D01*
X58530Y509219D01*
X46530Y509219D01*
X46527Y509217D01*
X46520Y509217D01*
X46519Y509218D01*
X45575Y508999D01*
X45569Y508993D01*
X45564Y508995D01*
X44692Y508572D01*
X44689Y508564D01*
X44683Y508566D01*
X43927Y507959D01*
X43925Y507951D01*
X43919Y507951D01*
X43318Y507191D01*
X43318Y507182D01*
X43312Y507181D01*
X42894Y506306D01*
X42896Y506298D01*
X42891Y506296D01*
X42679Y505350D01*
X42682Y505343D01*
X42677Y505339D01*
X42681Y504370D01*
X42681Y504369D01*
X42700Y503301D01*
X42705Y503294D01*
X42701Y503290D01*
X42957Y502253D01*
X42964Y502248D01*
X42961Y502242D01*
X43442Y501288D01*
X43449Y501285D01*
X43448Y501279D01*
X44129Y500456D01*
X44137Y500454D01*
X44137Y500448D01*
X44984Y499797D01*
X44992Y499797D01*
X44993Y499791D01*
X45964Y499344D01*
X45972Y499346D01*
X45974Y499341D01*
X47020Y499122D01*
X47027Y499125D01*
X47030Y499121D01*
X59030Y499121D01*
X59035Y499124D01*
G37*
G36*
X59035Y66054D02*
X59035Y66054D01*
X59038Y66051D01*
X60133Y66231D01*
X60139Y66237D01*
X60144Y66234D01*
X61172Y66653D01*
X61176Y66660D01*
X61181Y66658D01*
X62090Y67296D01*
X62093Y67303D01*
X62098Y67303D01*
X62842Y68126D01*
X62843Y68134D01*
X62849Y68135D01*
X63391Y69103D01*
X63390Y69112D01*
X63396Y69114D01*
X63709Y70178D01*
X63706Y70186D01*
X63711Y70189D01*
X63779Y71297D01*
X63775Y71304D01*
X63779Y71307D01*
X63609Y72415D01*
X63603Y72421D01*
X63606Y72426D01*
X63194Y73468D01*
X63187Y73472D01*
X63189Y73477D01*
X62555Y74402D01*
X62547Y74404D01*
X62548Y74410D01*
X61725Y75170D01*
X61716Y75171D01*
X61716Y75177D01*
X60744Y75734D01*
X60736Y75733D01*
X60734Y75739D01*
X59662Y76066D01*
X59654Y76063D01*
X59651Y76068D01*
X58534Y76149D01*
X58531Y76148D01*
X58530Y76149D01*
X46530Y76149D01*
X46527Y76147D01*
X46520Y76147D01*
X46519Y76148D01*
X45575Y75929D01*
X45569Y75923D01*
X45564Y75925D01*
X44692Y75502D01*
X44689Y75494D01*
X44683Y75496D01*
X43927Y74889D01*
X43925Y74881D01*
X43919Y74881D01*
X43318Y74121D01*
X43318Y74112D01*
X43312Y74111D01*
X42894Y73236D01*
X42896Y73228D01*
X42891Y73226D01*
X42679Y72280D01*
X42682Y72273D01*
X42677Y72269D01*
X42681Y71300D01*
X42681Y71299D01*
X42700Y70231D01*
X42705Y70224D01*
X42701Y70220D01*
X42957Y69183D01*
X42964Y69178D01*
X42961Y69172D01*
X43442Y68218D01*
X43449Y68215D01*
X43448Y68209D01*
X44129Y67386D01*
X44137Y67384D01*
X44137Y67378D01*
X44984Y66727D01*
X44992Y66727D01*
X44993Y66721D01*
X45964Y66274D01*
X45972Y66276D01*
X45974Y66271D01*
X47020Y66052D01*
X47027Y66055D01*
X47030Y66051D01*
X59030Y66051D01*
X59035Y66054D01*
G37*
G36*
X59035Y585525D02*
X59035Y585525D01*
X59038Y585521D01*
X60144Y585714D01*
X60149Y585719D01*
X60149Y585720D01*
X60154Y585717D01*
X61189Y586150D01*
X61193Y586157D01*
X61198Y586155D01*
X62111Y586808D01*
X62113Y586816D01*
X62119Y586815D01*
X62863Y587654D01*
X62864Y587663D01*
X62869Y587663D01*
X63408Y588647D01*
X63407Y588655D01*
X63408Y588656D01*
X63412Y588657D01*
X63413Y588659D01*
X63595Y589300D01*
X63719Y589736D01*
X63717Y589741D01*
X63719Y589743D01*
X63717Y589745D01*
X63721Y589747D01*
X63779Y590867D01*
X63776Y590872D01*
X63779Y590876D01*
X63661Y591921D01*
X63655Y591927D01*
X63659Y591932D01*
X63311Y592926D01*
X63304Y592930D01*
X63306Y592935D01*
X62746Y593827D01*
X62739Y593830D01*
X62739Y593835D01*
X61995Y594579D01*
X61987Y594581D01*
X61987Y594586D01*
X61095Y595146D01*
X61087Y595146D01*
X61086Y595151D01*
X60092Y595499D01*
X60084Y595496D01*
X60081Y595501D01*
X59036Y595619D01*
X59032Y595617D01*
X59030Y595619D01*
X47030Y595619D01*
X47027Y595617D01*
X47024Y595617D01*
X47022Y595619D01*
X46026Y595461D01*
X46020Y595455D01*
X46015Y595458D01*
X45079Y595083D01*
X45075Y595076D01*
X45069Y595078D01*
X44240Y594504D01*
X44237Y594496D01*
X44232Y594497D01*
X43551Y593753D01*
X43550Y593744D01*
X43544Y593744D01*
X43046Y592867D01*
X43047Y592859D01*
X43042Y592856D01*
X42854Y592232D01*
X42751Y591891D01*
X42752Y591888D01*
X42751Y591887D01*
X42754Y591883D01*
X42749Y591880D01*
X42681Y590873D01*
X42682Y590871D01*
X42681Y590870D01*
X42690Y589789D01*
X42695Y589782D01*
X42691Y589778D01*
X42941Y588726D01*
X42947Y588721D01*
X42944Y588716D01*
X43421Y587746D01*
X43429Y587743D01*
X43427Y587737D01*
X44108Y586898D01*
X44116Y586896D01*
X44116Y586890D01*
X44967Y586224D01*
X44975Y586223D01*
X44976Y586218D01*
X45953Y585757D01*
X45961Y585759D01*
X45964Y585754D01*
X47019Y585522D01*
X47027Y585525D01*
X47030Y585521D01*
X59030Y585521D01*
X59035Y585525D01*
G37*
G36*
X59035Y152455D02*
X59035Y152455D01*
X59038Y152451D01*
X60144Y152644D01*
X60149Y152649D01*
X60149Y152650D01*
X60154Y152647D01*
X61189Y153080D01*
X61193Y153087D01*
X61198Y153085D01*
X62111Y153738D01*
X62113Y153746D01*
X62119Y153745D01*
X62863Y154584D01*
X62864Y154593D01*
X62869Y154593D01*
X63408Y155577D01*
X63407Y155585D01*
X63408Y155586D01*
X63412Y155587D01*
X63413Y155589D01*
X63595Y156230D01*
X63719Y156666D01*
X63717Y156671D01*
X63719Y156673D01*
X63717Y156675D01*
X63721Y156677D01*
X63779Y157797D01*
X63776Y157802D01*
X63779Y157806D01*
X63661Y158851D01*
X63655Y158857D01*
X63659Y158862D01*
X63311Y159856D01*
X63304Y159860D01*
X63306Y159865D01*
X62746Y160757D01*
X62739Y160760D01*
X62739Y160765D01*
X61995Y161509D01*
X61987Y161511D01*
X61987Y161516D01*
X61095Y162076D01*
X61087Y162076D01*
X61086Y162081D01*
X60092Y162429D01*
X60084Y162426D01*
X60081Y162431D01*
X59036Y162549D01*
X59032Y162547D01*
X59030Y162549D01*
X47030Y162549D01*
X47027Y162547D01*
X47024Y162547D01*
X47022Y162549D01*
X46026Y162391D01*
X46020Y162385D01*
X46015Y162388D01*
X45079Y162013D01*
X45075Y162006D01*
X45069Y162008D01*
X44240Y161434D01*
X44237Y161426D01*
X44232Y161427D01*
X43551Y160683D01*
X43550Y160674D01*
X43544Y160674D01*
X43046Y159797D01*
X43047Y159789D01*
X43042Y159786D01*
X42854Y159162D01*
X42751Y158821D01*
X42752Y158818D01*
X42751Y158817D01*
X42754Y158813D01*
X42749Y158810D01*
X42681Y157803D01*
X42682Y157801D01*
X42681Y157800D01*
X42690Y156719D01*
X42695Y156712D01*
X42691Y156708D01*
X42941Y155656D01*
X42947Y155651D01*
X42944Y155646D01*
X43421Y154676D01*
X43429Y154673D01*
X43427Y154667D01*
X44108Y153828D01*
X44116Y153826D01*
X44116Y153820D01*
X44967Y153154D01*
X44975Y153153D01*
X44976Y153148D01*
X45953Y152687D01*
X45961Y152689D01*
X45964Y152684D01*
X47019Y152452D01*
X47027Y152455D01*
X47030Y152451D01*
X59030Y152451D01*
X59035Y152455D01*
G37*
G36*
X14234Y499124D02*
X14234Y499124D01*
X14236Y499121D01*
X15369Y499271D01*
X15375Y499277D01*
X15380Y499274D01*
X16450Y499672D01*
X16454Y499679D01*
X16460Y499677D01*
X17415Y500304D01*
X17418Y500312D01*
X17423Y500311D01*
X18215Y501134D01*
X18216Y501142D01*
X18222Y501143D01*
X18811Y502122D01*
X18810Y502130D01*
X18815Y502132D01*
X19171Y503217D01*
X19169Y503225D01*
X19173Y503228D01*
X19279Y504365D01*
X19274Y504374D01*
X19278Y504379D01*
X19071Y505516D01*
X19065Y505522D01*
X19068Y505527D01*
X18613Y506589D01*
X18606Y506593D01*
X18608Y506599D01*
X17928Y507534D01*
X17920Y507536D01*
X17921Y507542D01*
X17050Y508302D01*
X17042Y508302D01*
X17041Y508308D01*
X16022Y508855D01*
X16014Y508854D01*
X16012Y508859D01*
X14898Y509166D01*
X14890Y509163D01*
X14887Y509168D01*
X13732Y509219D01*
X13731Y509218D01*
X13730Y509219D01*
X7730Y509219D01*
X7727Y509217D01*
X7722Y509217D01*
X7721Y509218D01*
X6640Y509006D01*
X6635Y509000D01*
X6630Y509003D01*
X5624Y508556D01*
X5620Y508549D01*
X5614Y508551D01*
X4733Y507891D01*
X4730Y507883D01*
X4725Y507883D01*
X4012Y507044D01*
X4012Y507036D01*
X4006Y507035D01*
X3498Y506058D01*
X3499Y506050D01*
X3494Y506048D01*
X3216Y504983D01*
X3219Y504975D01*
X3215Y504972D01*
X3181Y503872D01*
X3185Y503866D01*
X3181Y503863D01*
X3336Y502788D01*
X3342Y502782D01*
X3339Y502777D01*
X3729Y501763D01*
X3736Y501759D01*
X3735Y501753D01*
X4341Y500851D01*
X4349Y500849D01*
X4348Y500843D01*
X5140Y500099D01*
X5148Y500098D01*
X5148Y500092D01*
X6086Y499543D01*
X6094Y499544D01*
X6096Y499538D01*
X7132Y499211D01*
X7140Y499214D01*
X7143Y499209D01*
X8226Y499121D01*
X8229Y499123D01*
X8230Y499121D01*
X14230Y499121D01*
X14234Y499124D01*
G37*
G36*
X14234Y66054D02*
X14234Y66054D01*
X14236Y66051D01*
X15369Y66201D01*
X15375Y66207D01*
X15380Y66204D01*
X16450Y66602D01*
X16454Y66609D01*
X16460Y66607D01*
X17415Y67234D01*
X17418Y67242D01*
X17423Y67241D01*
X18215Y68064D01*
X18216Y68072D01*
X18222Y68073D01*
X18811Y69052D01*
X18810Y69060D01*
X18815Y69062D01*
X19171Y70147D01*
X19169Y70155D01*
X19173Y70158D01*
X19279Y71295D01*
X19274Y71304D01*
X19278Y71309D01*
X19071Y72446D01*
X19065Y72452D01*
X19068Y72457D01*
X18613Y73519D01*
X18606Y73523D01*
X18608Y73529D01*
X17928Y74464D01*
X17920Y74466D01*
X17921Y74472D01*
X17050Y75232D01*
X17042Y75232D01*
X17041Y75238D01*
X16022Y75785D01*
X16014Y75784D01*
X16012Y75789D01*
X14898Y76096D01*
X14890Y76093D01*
X14887Y76098D01*
X13732Y76149D01*
X13731Y76148D01*
X13730Y76149D01*
X7730Y76149D01*
X7727Y76147D01*
X7722Y76147D01*
X7721Y76148D01*
X6640Y75936D01*
X6635Y75930D01*
X6630Y75933D01*
X5624Y75486D01*
X5620Y75479D01*
X5614Y75481D01*
X4733Y74821D01*
X4730Y74813D01*
X4725Y74813D01*
X4012Y73974D01*
X4012Y73966D01*
X4006Y73965D01*
X3498Y72988D01*
X3499Y72980D01*
X3494Y72978D01*
X3216Y71913D01*
X3219Y71905D01*
X3215Y71902D01*
X3181Y70802D01*
X3185Y70796D01*
X3181Y70793D01*
X3336Y69718D01*
X3342Y69712D01*
X3339Y69707D01*
X3729Y68693D01*
X3736Y68689D01*
X3735Y68683D01*
X4341Y67781D01*
X4349Y67779D01*
X4348Y67773D01*
X5140Y67029D01*
X5148Y67028D01*
X5148Y67022D01*
X6086Y66473D01*
X6094Y66474D01*
X6096Y66468D01*
X7132Y66141D01*
X7140Y66144D01*
X7143Y66139D01*
X8226Y66051D01*
X8229Y66053D01*
X8230Y66051D01*
X14230Y66051D01*
X14234Y66054D01*
G37*
G36*
X14233Y585523D02*
X14233Y585523D01*
X14235Y585521D01*
X15327Y585622D01*
X15333Y585627D01*
X15338Y585624D01*
X16381Y585965D01*
X16386Y585972D01*
X16391Y585970D01*
X17332Y586534D01*
X17335Y586542D01*
X17341Y586541D01*
X18133Y587301D01*
X18134Y587309D01*
X18140Y587310D01*
X18743Y588227D01*
X18742Y588235D01*
X18748Y588237D01*
X19131Y589265D01*
X19129Y589273D01*
X19134Y589276D01*
X19279Y590364D01*
X19275Y590371D01*
X19279Y590375D01*
X19173Y591512D01*
X19168Y591518D01*
X19171Y591523D01*
X18815Y592608D01*
X18808Y592613D01*
X18811Y592618D01*
X18222Y593597D01*
X18214Y593600D01*
X18215Y593606D01*
X17423Y594429D01*
X17415Y594430D01*
X17415Y594436D01*
X16460Y595063D01*
X16452Y595062D01*
X16450Y595068D01*
X15380Y595466D01*
X15372Y595464D01*
X15369Y595469D01*
X14236Y595619D01*
X14233Y595617D01*
X14232Y595617D01*
X14230Y595619D01*
X8230Y595619D01*
X8227Y595617D01*
X8225Y595617D01*
X8224Y595619D01*
X7091Y595469D01*
X7085Y595463D01*
X7080Y595466D01*
X6010Y595068D01*
X6006Y595061D01*
X6000Y595063D01*
X5045Y594436D01*
X5042Y594428D01*
X5037Y594429D01*
X4245Y593606D01*
X4244Y593598D01*
X4238Y593597D01*
X3649Y592618D01*
X3650Y592610D01*
X3645Y592608D01*
X3289Y591523D01*
X3292Y591515D01*
X3287Y591512D01*
X3181Y590375D01*
X3185Y590368D01*
X3181Y590364D01*
X3326Y589276D01*
X3332Y589270D01*
X3329Y589265D01*
X3713Y588237D01*
X3719Y588232D01*
X3718Y588227D01*
X4320Y587310D01*
X4328Y587307D01*
X4327Y587301D01*
X5119Y586541D01*
X5127Y586540D01*
X5128Y586534D01*
X6069Y585970D01*
X6077Y585971D01*
X6079Y585965D01*
X7122Y585624D01*
X7130Y585626D01*
X7133Y585622D01*
X8226Y585521D01*
X8228Y585523D01*
X8230Y585521D01*
X14230Y585521D01*
X14233Y585523D01*
G37*
G36*
X14233Y152453D02*
X14233Y152453D01*
X14235Y152451D01*
X15327Y152552D01*
X15333Y152557D01*
X15338Y152554D01*
X16381Y152895D01*
X16386Y152902D01*
X16391Y152900D01*
X17332Y153464D01*
X17335Y153472D01*
X17341Y153471D01*
X18133Y154231D01*
X18134Y154239D01*
X18140Y154240D01*
X18743Y155157D01*
X18742Y155165D01*
X18748Y155167D01*
X19131Y156195D01*
X19129Y156203D01*
X19134Y156206D01*
X19279Y157294D01*
X19275Y157301D01*
X19279Y157305D01*
X19173Y158442D01*
X19168Y158448D01*
X19171Y158453D01*
X18815Y159538D01*
X18808Y159543D01*
X18811Y159548D01*
X18222Y160527D01*
X18214Y160530D01*
X18215Y160536D01*
X17423Y161359D01*
X17415Y161360D01*
X17415Y161366D01*
X16460Y161993D01*
X16452Y161992D01*
X16450Y161998D01*
X15380Y162396D01*
X15372Y162394D01*
X15369Y162399D01*
X14236Y162549D01*
X14233Y162547D01*
X14232Y162547D01*
X14230Y162549D01*
X8230Y162549D01*
X8227Y162547D01*
X8225Y162547D01*
X8224Y162549D01*
X7091Y162399D01*
X7085Y162393D01*
X7080Y162396D01*
X6010Y161998D01*
X6006Y161991D01*
X6000Y161993D01*
X5045Y161366D01*
X5042Y161358D01*
X5037Y161359D01*
X4245Y160536D01*
X4244Y160528D01*
X4238Y160527D01*
X3649Y159548D01*
X3650Y159540D01*
X3645Y159538D01*
X3289Y158453D01*
X3292Y158445D01*
X3287Y158442D01*
X3181Y157305D01*
X3185Y157298D01*
X3181Y157294D01*
X3326Y156206D01*
X3332Y156200D01*
X3329Y156195D01*
X3713Y155167D01*
X3719Y155162D01*
X3718Y155157D01*
X4320Y154240D01*
X4328Y154237D01*
X4327Y154231D01*
X5119Y153471D01*
X5127Y153470D01*
X5128Y153464D01*
X6069Y152900D01*
X6077Y152901D01*
X6079Y152895D01*
X7122Y152554D01*
X7130Y152556D01*
X7133Y152552D01*
X8226Y152451D01*
X8228Y152453D01*
X8230Y152451D01*
X14230Y152451D01*
X14233Y152453D01*
G37*
D10*
X58830Y106800D03*
X58830Y111800D03*
D11*
X58830Y82050D03*
X58830Y89800D03*
D10*
X58830Y96800D03*
X58830Y101800D03*
X58830Y121800D03*
X58830Y116800D03*
D11*
X58830Y146550D03*
X58830Y138800D03*
D10*
X58830Y131800D03*
X58830Y126800D03*
D12*
X77216Y149216D03*
X77216Y132216D03*
X73914Y73034D03*
X73914Y90034D03*
D13*
X104140Y103339D03*
D14*
X94390Y89589D03*
X100890Y89589D03*
X107390Y89589D03*
X113890Y89589D03*
X113890Y117089D03*
X107390Y117089D03*
X100890Y117089D03*
X94390Y117089D03*
D15*
X95640Y133604D03*
X112640Y133604D03*
D16*
X484336Y232060D03*
D17*
X380930Y241300D03*
X403930Y241300D03*
D15*
X401184Y258064D03*
X384184Y258064D03*
D17*
X403930Y224028D03*
X380930Y224028D03*
D18*
X105410Y341630D03*
X105410Y397510D03*
X143510Y341630D03*
X143510Y397510D03*
D15*
X95640Y148844D03*
X112640Y148844D03*
D19*
X11416Y197866D03*
X41416Y197866D03*
D20*
X111536Y176276D03*
X83536Y176276D03*
D12*
X158750Y133740D03*
X158750Y150740D03*
X143764Y150994D03*
X143764Y133994D03*
D18*
X105410Y262890D03*
X105410Y318770D03*
X143510Y262890D03*
X143510Y318770D03*
D12*
X150876Y92847D03*
X150876Y109847D03*
D21*
X134366Y112062D03*
X134366Y89062D03*
D12*
X151130Y39760D03*
X151130Y56760D03*
X135890Y39760D03*
X135890Y56760D03*
X120650Y39760D03*
X120650Y56760D03*
D22*
X257260Y51440D03*
X257260Y258440D03*
D23*
X325010Y244940D03*
X325010Y234940D03*
X325010Y229940D03*
X325010Y239940D03*
X325010Y224940D03*
X325010Y214940D03*
X325010Y209940D03*
X325010Y219940D03*
X325010Y204940D03*
X325010Y194940D03*
X325010Y189940D03*
X325010Y199940D03*
X325010Y184940D03*
X325010Y174940D03*
X325010Y169940D03*
X325010Y179940D03*
X325010Y164940D03*
X325010Y154940D03*
X325010Y149940D03*
X325010Y159940D03*
X325010Y144940D03*
X325010Y139940D03*
X325010Y114940D03*
X325010Y109940D03*
X325010Y104940D03*
X325010Y94940D03*
X325010Y89940D03*
X325010Y99940D03*
X325010Y84940D03*
X325010Y74940D03*
X325010Y69940D03*
X325010Y79940D03*
X325010Y64940D03*
X249510Y247440D03*
X249510Y237440D03*
X249510Y232440D03*
X249510Y242440D03*
X249510Y227440D03*
X249510Y217440D03*
X249510Y212440D03*
X249510Y222440D03*
X249510Y207440D03*
X249510Y197440D03*
X249510Y192440D03*
X249510Y202440D03*
X249510Y187440D03*
X249510Y177440D03*
X249510Y172440D03*
X249510Y182440D03*
X249510Y167440D03*
X249510Y157440D03*
X249510Y152440D03*
X249510Y162440D03*
X249510Y147440D03*
X249510Y142440D03*
X249510Y117440D03*
X249510Y112440D03*
X249510Y107440D03*
X249510Y97440D03*
X249510Y92440D03*
X249510Y102440D03*
X249510Y87440D03*
X249510Y77440D03*
X249510Y72440D03*
X249510Y82440D03*
X249510Y67440D03*
X249510Y62440D03*
D24*
X24455Y263080D02*
X17455Y263080D01*
X17455Y270080D01*
X24455Y270080D01*
X24455Y263080D01*
X24455Y265930D02*
X17455Y265930D01*
X17455Y268780D02*
X24455Y268780D01*
X24455Y245540D02*
X17455Y245540D01*
X17455Y252540D01*
X24455Y252540D01*
X24455Y245540D01*
X24455Y248390D02*
X17455Y248390D01*
X17455Y251240D02*
X24455Y251240D01*
X24455Y301180D02*
X17455Y301180D01*
X17455Y308180D01*
X24455Y308180D01*
X24455Y301180D01*
X24455Y304030D02*
X17455Y304030D01*
X17455Y306880D02*
X24455Y306880D01*
X24455Y283640D02*
X17455Y283640D01*
X17455Y290640D01*
X24455Y290640D01*
X24455Y283640D01*
X24455Y286490D02*
X17455Y286490D01*
X17455Y289340D02*
X24455Y289340D01*
D12*
X40894Y247786D03*
X40894Y264786D03*
X40640Y286140D03*
X40640Y303140D03*
D10*
X58830Y539870D03*
X58830Y544870D03*
D11*
X58830Y515120D03*
X58830Y522870D03*
D10*
X58830Y529870D03*
X58830Y534870D03*
X58830Y554870D03*
X58830Y549870D03*
D11*
X58830Y579620D03*
X58830Y571870D03*
D10*
X58830Y564870D03*
X58830Y559870D03*
D12*
X78486Y582540D03*
X78486Y565540D03*
X78486Y506866D03*
X78486Y523866D03*
D25*
X286200Y360270D03*
X297200Y360270D03*
X308200Y360270D03*
X319200Y360270D03*
X330200Y360270D03*
X341200Y360270D03*
X352200Y360270D03*
X363200Y360270D03*
X374200Y360270D03*
X385200Y360270D03*
X396200Y360270D03*
X407200Y360270D03*
X418200Y360270D03*
X429200Y360270D03*
D26*
X457200Y368770D03*
X457200Y379770D03*
X457200Y390770D03*
X457200Y401770D03*
X457200Y412770D03*
X457200Y423770D03*
X457200Y434770D03*
X457200Y445770D03*
X457200Y456770D03*
X457200Y467770D03*
X457200Y478770D03*
X457200Y489770D03*
X457200Y500770D03*
D25*
X429200Y509270D03*
X418200Y509270D03*
X407200Y509270D03*
X396200Y509270D03*
X385200Y509270D03*
X374200Y509270D03*
X363200Y509270D03*
X352200Y509270D03*
X341200Y509270D03*
X330200Y509270D03*
X319200Y509270D03*
X308200Y509270D03*
X297200Y509270D03*
X286200Y509270D03*
D26*
X258200Y500770D03*
X258200Y489770D03*
X258200Y478770D03*
X258200Y467770D03*
X258200Y456770D03*
X258200Y445770D03*
X258200Y434770D03*
X258200Y423770D03*
X258200Y412770D03*
X258200Y401770D03*
X258200Y390770D03*
X258200Y379770D03*
X258200Y368770D03*
D27*
X347200Y445270D03*
X326200Y445270D03*
X305200Y445270D03*
X284200Y445270D03*
X347200Y465770D03*
X326200Y465770D03*
X305200Y465770D03*
X284200Y465770D03*
X347200Y486270D03*
X326200Y486270D03*
X305200Y486270D03*
X284200Y486270D03*
X347200Y383270D03*
X326200Y383270D03*
X305200Y383270D03*
X284200Y383270D03*
X347200Y403770D03*
X326200Y403770D03*
X305200Y403770D03*
X284200Y403770D03*
X347200Y424270D03*
X326200Y424270D03*
X305200Y424270D03*
X284200Y424270D03*
X431200Y445270D03*
X410200Y445270D03*
X389200Y445270D03*
X368200Y445270D03*
X431200Y465770D03*
X410200Y465770D03*
X389200Y465770D03*
X368200Y465770D03*
X431200Y486270D03*
X410200Y486270D03*
X389200Y486270D03*
X368200Y486270D03*
X431200Y383270D03*
X410200Y383270D03*
X389200Y383270D03*
X368200Y383270D03*
X431200Y403770D03*
X410200Y403770D03*
X389200Y403770D03*
X368200Y403770D03*
X431200Y424270D03*
X410200Y424270D03*
X389200Y424270D03*
X368200Y424270D03*
D28*
X233961Y410080D03*
D29*
X233961Y418080D03*
X233961Y426080D03*
D28*
X233961Y434080D03*
X220961Y434080D03*
D29*
X220961Y426080D03*
X220961Y418080D03*
D28*
X220961Y410080D03*
X233961Y472170D03*
D29*
X233961Y480170D03*
X233961Y488170D03*
D28*
X233961Y496170D03*
X220961Y496170D03*
D29*
X220961Y488170D03*
X220961Y480170D03*
D28*
X220961Y472170D03*
X477140Y496960D03*
D29*
X477140Y488960D03*
X477140Y480960D03*
D28*
X477140Y472960D03*
X490140Y472960D03*
D29*
X490140Y480960D03*
X490140Y488960D03*
D28*
X490140Y496960D03*
D30*
X116920Y542290D03*
X126920Y542290D03*
X116920Y554990D03*
X126920Y554990D03*
D31*
X87390Y553640D03*
D32*
X87140Y548640D03*
X87140Y543640D03*
X95740Y543640D03*
X95740Y548640D03*
X95740Y553640D03*
D33*
X486044Y330200D03*
D34*
X532944Y373250D03*
X532944Y287150D03*
D15*
X334908Y324612D03*
X351908Y324612D03*
X335162Y340614D03*
X352162Y340614D03*
D30*
X298530Y340360D03*
X308530Y340360D03*
D12*
X40640Y396630D03*
X40640Y413630D03*
X40640Y322970D03*
X40640Y339970D03*
D24*
X24455Y407860D02*
X17455Y407860D01*
X17455Y414860D01*
X24455Y414860D01*
X24455Y407860D01*
X24455Y410710D02*
X17455Y410710D01*
X17455Y413560D02*
X24455Y413560D01*
X24455Y390320D02*
X17455Y390320D01*
X17455Y397320D01*
X24455Y397320D01*
X24455Y390320D01*
X24455Y393170D02*
X17455Y393170D01*
X17455Y396020D02*
X24455Y396020D01*
X24455Y334200D02*
X17455Y334200D01*
X17455Y341200D01*
X24455Y341200D01*
X24455Y334200D01*
X24455Y337050D02*
X17455Y337050D01*
X17455Y339900D02*
X24455Y339900D01*
X24455Y316660D02*
X17455Y316660D01*
X17455Y323660D01*
X24455Y323660D01*
X24455Y316660D01*
X24455Y319510D02*
X17455Y319510D01*
X17455Y322360D02*
X24455Y322360D01*
D12*
X40640Y361070D03*
X40640Y378070D03*
D24*
X24455Y372300D02*
X17455Y372300D01*
X17455Y379300D01*
X24455Y379300D01*
X24455Y372300D01*
X24455Y375150D02*
X17455Y375150D01*
X17455Y378000D02*
X24455Y378000D01*
X24455Y354760D02*
X17455Y354760D01*
X17455Y361760D01*
X24455Y361760D01*
X24455Y354760D01*
X24455Y357610D02*
X17455Y357610D01*
X17455Y360460D02*
X24455Y360460D01*
D35*
X554910Y518100D03*
X554910Y574100D03*
D36*
X518160Y531100D03*
X518160Y541100D03*
X518160Y551100D03*
X518160Y561100D03*
D21*
X124714Y442398D03*
X124714Y465398D03*
D12*
X141732Y445652D03*
X141732Y462652D03*
D16*
X66590Y456280D03*
D15*
X334890Y546862D03*
X317890Y546862D03*
X317890Y531622D03*
X334890Y531622D03*
X374532Y530606D03*
X391532Y530606D03*
D17*
X36900Y172720D03*
X13900Y172720D03*
X35630Y469900D03*
X12630Y469900D03*
M02*
